<?xml version="1.0" encoding="UTF-8"?>
<svg width="66px" height="66px" viewBox="0 0 66 66" version="1.1" xmlns="http://www.w3.org/2000/svg" xmlns:xlink="http://www.w3.org/1999/xlink">
    <!-- Generator: Sketch 52.5 (67469) - http://www.bohemiancoding.com/sketch -->
    <title>Facebook Logo</title>
    <desc>Created with Sketch.</desc>
    <g id="Facebook-Logo" stroke="none" stroke-width="1" fill="none" fill-rule="evenodd">
        <rect id="Rectangle" fill="#FFFFFF" fill-rule="nonzero" x="16" y="2" width="43" height="64"></rect>
        <g id="Group-39" fill="#375186">
            <path d="M3.72867914,0 C1.66984595,0 0,1.6302 0,3.64225714 L0,62.3577429 C0,64.3698 1.66984595,66 3.72867914,66 L34.0889423,66 L34.0889423,40.4419714 L25.2841246,40.4419714 L25.2841246,30.4806857 L34.0889423,30.4806857 L34.0889423,23.1348857 C34.0889423,14.6105143 39.4189362,9.96788571 47.2044723,9.96788571 C50.9331514,9.96788571 54.1377113,10.2394286 55.0720528,10.3610571 L55.0720528,19.2691714 L49.6735277,19.272 C45.4390687,19.272 44.6195893,21.2369143 44.6195893,24.1211143 L44.6195893,30.4806857 L54.7168486,30.4806857 L53.4031721,40.4419714 L44.6195893,40.4419714 L44.6195893,66 L62.267342,66 C64.3271404,66 65.996021,64.3698 65.996021,62.3577429 L65.996021,3.64225714 C65.996021,1.6302 64.3271404,0 62.267342,0 L3.72867914,0 Z" id="Fill-315"></path>
        </g>
    </g>
</svg>