<?xml version="1.0" encoding="utf-8"?>
<!-- Generator: Adobe Illustrator 22.1.0, SVG Export Plug-In . SVG Version: 6.00 Build 0)  -->
<svg version="1.1" id="Layer_1" xmlns="http://www.w3.org/2000/svg" xmlns:xlink="http://www.w3.org/1999/xlink" x="0px" y="0px"
	 viewBox="0 0 121.7 144.6" style="enable-background:new 0 0 121.7 144.6;" xml:space="preserve">
<style type="text/css">
	.st0{fill:#FFFFFF;}
	.st1{fill:#FFFFFF;stroke:#FFFFFF;stroke-width:0.5;stroke-miterlimit:10;}
	.st2{fill:#FFFFFF;stroke:#FFFFFF;stroke-width:0.25;stroke-miterlimit:10;}
	.st3{fill:#00639C;}
	.st4{fill:#00639C;stroke:#00639D;stroke-miterlimit:10;}
	.st5{fill:#00639C;stroke:#00639D;stroke-width:0.25;stroke-miterlimit:10;}
</style>
<g id="White">
	<g>
		<g>
			<g>
				<path class="st0" d="M138.1,18.5h4v17.6c0,0.2,0.1,0.6,0.2,1.2c0.1,0.6,0.4,1.2,0.9,1.8c0.4,0.6,1.1,1.2,1.8,1.7
					c0.8,0.5,1.8,0.7,3.2,0.7c1.3,0,2.3-0.2,3.1-0.7s1.4-1,1.8-1.7c0.4-0.6,0.7-1.2,0.9-1.8c0.1-0.6,0.2-1,0.2-1.2V18.5h4v17.6
					c0,0.1,0,0.5-0.1,1s-0.2,1.1-0.5,1.8c-0.2,0.7-0.6,1.4-1,2.2c-0.4,0.8-1,1.5-1.8,2.1c-0.7,0.7-1.7,1.2-2.7,1.6
					c-1.1,0.4-2.4,0.6-3.9,0.6s-2.8-0.2-3.9-0.6s-2-0.9-2.7-1.5s-1.3-1.3-1.8-2.1s-0.8-1.5-1-2.2s-0.4-1.3-0.5-1.9
					c-0.1-0.5-0.1-0.9-0.1-1.2L138.1,18.5L138.1,18.5z"/>
				<path class="st0" d="M177.9,35.6v-17h4v27l-16-16.4v16.4h-4v-27L177.9,35.6z"/>
				<path class="st0" d="M189.8,45.5h-4v-27h4V45.5z"/>
				<path class="st0" d="M205.6,45.5l-11.8-27h4.9l7,15.9l7-15.9h4.9L205.6,45.5z"/>
				<path class="st0" d="M238.1,18.5v3.8h-12.6v8.1h10.2v3.7h-10.2v7.6h12.6v3.8h-16.6v-27H238.1z"/>
				<path class="st0" d="M255.7,45.5l-4.2-9.2c-0.2,0-0.5,0-0.7,0s-0.4,0-0.6,0H246v9.1h-4v-27h3.9h4.2c0.5,0,1,0,1.7,0.1
					c0.6,0,1.3,0.1,2,0.3c0.7,0.2,1.3,0.4,2,0.8c0.6,0.4,1.2,0.9,1.7,1.5c0.5,0.7,0.9,1.5,1.2,2.5c0.3,1,0.5,2.3,0.5,3.8
					c0,1.2-0.1,2.2-0.3,3.1c-0.2,0.9-0.5,1.6-0.8,2.3c-0.4,0.6-0.8,1.2-1.2,1.6s-0.9,0.8-1.4,1l4.7,10L255.7,45.5L255.7,45.5z
					 M248.6,32.4c0.7,0,1.5,0,2.3,0s1.5-0.2,2.1-0.5s1.2-0.8,1.6-1.5s0.6-1.7,0.6-3s-0.2-2.3-0.6-3s-0.9-1.2-1.6-1.5
					c-0.6-0.3-1.3-0.5-2.1-0.5c-0.8,0-1.5-0.1-2.3-0.1h-2.7v9.9h2.7V32.4z"/>
				<path class="st0" d="M272.8,18.6c1,0,1.8,0.1,2.6,0.3c0.8,0.2,1.4,0.4,1.9,0.6c0.6,0.3,1.2,0.5,1.6,0.8l-2,3.5
					c-0.4-0.2-0.8-0.4-1.2-0.6c-0.4-0.1-0.8-0.3-1.3-0.4s-1-0.2-1.6-0.2c-0.6,0-1.2,0.1-1.6,0.3c-0.4,0.2-0.8,0.5-1.1,0.8
					c-0.3,0.3-0.5,0.7-0.6,1c-0.1,0.4-0.2,0.7-0.2,1c0,0.9,0.3,1.6,1,2.1c0.7,0.4,1.5,0.8,2.5,1.1c1,0.3,2.1,0.6,3.2,0.8
					c1.2,0.3,2.2,0.7,3.2,1.2s1.8,1.3,2.5,2.3s1,2.3,1,4.1c0,1.1-0.2,2.2-0.7,3.2s-1.1,1.9-2,2.6c-0.9,0.7-1.9,1.3-3.1,1.8
					c-1.2,0.4-2.6,0.7-4.2,0.7c-1.3,0-2.4-0.1-3.3-0.4c-0.9-0.3-1.8-0.6-2.5-0.9c-0.7-0.4-1.4-0.7-1.9-1.1s-1-0.7-1.4-1l2.1-3.5
					c1.4,1.1,2.8,1.9,4,2.3s2.3,0.6,3.1,0.6c0.7,0,1.4-0.1,2.2-0.3c0.7-0.2,1.4-0.4,1.9-0.8c0.6-0.4,1-0.8,1.4-1.3
					c0.4-0.5,0.5-1.2,0.5-1.9c0-0.8-0.2-1.4-0.6-1.9c-0.4-0.5-0.9-0.9-1.5-1.2c-0.6-0.3-1.4-0.6-2.2-0.8c-0.8-0.2-1.6-0.4-2.5-0.7
					c-0.8-0.2-1.7-0.5-2.5-0.8s-1.5-0.7-2.2-1.3c-0.6-0.5-1.1-1.2-1.5-2c-0.4-0.8-0.6-1.8-0.6-2.9c0-1.4,0.3-2.5,0.9-3.5
					c0.6-0.9,1.3-1.7,2.1-2.2s1.6-0.9,2.5-1.2C271.6,18.7,272.3,18.6,272.8,18.6z"/>
				<path class="st0" d="M290.8,45.5h-4v-27h4V45.5z"/>
				<path class="st0" d="M302.4,22.5h-7.6v-4h19.1v4h-7.5v23h-4V22.5z"/>
				<path class="st0" d="M328.2,31.6l6-13.1h4.6l-8.5,18.6v8.4h-4.2v-8.4l-8.5-18.6h4.7L328.2,31.6z"/>
				<path class="st0" d="M377.7,18.5c1.9,0,3.6,0.4,5.3,1.1c1.6,0.7,3.1,1.7,4.3,2.9c1.2,1.2,2.2,2.7,2.9,4.3
					c0.7,1.6,1.1,3.4,1.1,5.3s-0.4,3.6-1.1,5.3c-0.7,1.6-1.7,3.1-2.9,4.3c-1.2,1.2-2.7,2.2-4.3,2.9c-1.6,0.7-3.4,1.1-5.3,1.1
					c-1.9,0-3.6-0.4-5.3-1.1c-1.6-0.7-3.1-1.7-4.3-2.9c-1.2-1.2-2.2-2.7-2.9-4.3c-0.7-1.6-1.1-3.4-1.1-5.3s0.4-3.6,1.1-5.3
					c0.7-1.6,1.7-3.1,2.9-4.3c1.2-1.2,2.7-2.2,4.3-2.9C374.1,18.8,375.8,18.5,377.7,18.5z M377.7,41c1.2,0,2.4-0.2,3.5-0.7
					c1.1-0.5,2.1-1.1,2.9-1.9s1.5-1.8,1.9-2.9c0.5-1.1,0.7-2.3,0.7-3.5c0-1.3-0.2-2.4-0.7-3.5s-1.1-2-1.9-2.9
					c-0.8-0.8-1.8-1.5-2.9-1.9c-1.1-0.4-2.3-0.7-3.5-0.7c-1.3,0-2.4,0.2-3.5,0.7c-1.1,0.5-2.1,1.1-2.9,1.9s-1.5,1.8-1.9,2.9
					c-0.5,1.1-0.7,2.3-0.7,3.5c0,1.3,0.2,2.4,0.7,3.5s1.1,2.1,1.9,2.9s1.8,1.5,2.9,1.9C375.3,40.8,376.4,41,377.7,41z"/>
				<path class="st0" d="M395.2,45.5v-27h16.6v3.8h-12.6v8.1h10.2v3.7h-10.2v11.3L395.2,45.5L395.2,45.5z"/>
			</g>
			<g>
				<path class="st1" d="M149.7,67.8h-11.6v-6h29.1v6h-11.5v35.1h-6V67.8z"/>
				<path class="st1" d="M193.4,61.7c2.8,0,5.5,0.5,8,1.6c2.5,1.1,4.7,2.5,6.5,4.4c1.9,1.9,3.3,4,4.4,6.5s1.6,5.2,1.6,8
					s-0.5,5.5-1.6,8s-2.5,4.7-4.4,6.5c-1.9,1.9-4,3.3-6.5,4.4c-2.5,1.1-5.2,1.6-8,1.6s-5.5-0.5-8-1.6s-4.7-2.5-6.5-4.4
					c-1.9-1.9-3.3-4-4.4-6.5s-1.6-5.2-1.6-8s0.5-5.5,1.6-8s2.6-4.7,4.4-6.5c1.9-1.9,4-3.3,6.5-4.4C187.8,62.2,190.5,61.7,193.4,61.7
					z M193.4,96.1c1.9,0,3.7-0.4,5.3-1.1c1.7-0.7,3.1-1.7,4.4-2.9s2.2-2.7,3-4.4c0.7-1.7,1.1-3.5,1.1-5.4s-0.4-3.7-1.1-5.4
					s-1.7-3.1-3-4.4c-1.3-1.3-2.7-2.2-4.4-3c-1.7-0.7-3.5-1.1-5.3-1.1c-1.9,0-3.7,0.4-5.4,1.1s-3.2,1.7-4.4,3
					c-1.3,1.3-2.2,2.7-3,4.4c-0.7,1.7-1.1,3.5-1.1,5.4s0.4,3.7,1.1,5.4c0.7,1.7,1.7,3.1,3,4.4c1.3,1.2,2.7,2.2,4.4,2.9
					C189.6,95.7,191.4,96.1,193.4,96.1z"/>
				<path class="st1" d="M240.9,102.9l-6.4-14c-0.4,0-0.7,0.1-1.1,0.1s-0.7,0-1,0H226v13.9h-6V61.8h6h6.4c0.7,0,1.6,0,2.6,0.1
					s2,0.2,3,0.4c1,0.2,2,0.6,3,1.2c1,0.6,1.9,1.3,2.6,2.3c0.8,1,1.4,2.3,1.9,3.9s0.7,3.5,0.7,5.7c0,1.8-0.1,3.4-0.4,4.7
					s-0.7,2.5-1.2,3.5s-1.1,1.8-1.8,2.4c-0.7,0.6-1.4,1.2-2.2,1.6l7.1,15.3H240.9z M230.1,82.9c1.1,0,2.3,0,3.5-0.1s2.3-0.3,3.2-0.7
					c1-0.4,1.8-1.2,2.4-2.2s0.9-2.5,0.9-4.5s-0.3-3.5-0.9-4.5s-1.4-1.8-2.4-2.2c-1-0.4-2-0.7-3.2-0.7c-1.2-0.1-2.3-0.1-3.4-0.1h-4
					V83h3.9V82.9z"/>
				<path class="st1" d="M273.7,61.7c2.8,0,5.5,0.5,8,1.6c2.5,1.1,4.7,2.5,6.5,4.4c1.9,1.9,3.3,4,4.4,6.5c1.1,2.5,1.6,5.2,1.6,8
					s-0.5,5.5-1.6,8c-1.1,2.5-2.5,4.7-4.4,6.5c-1.9,1.9-4,3.3-6.5,4.4c-2.5,1.1-5.2,1.6-8,1.6s-5.5-0.5-8-1.6s-4.7-2.5-6.5-4.4
					c-1.9-1.9-3.3-4-4.4-6.5s-1.6-5.2-1.6-8s0.5-5.5,1.6-8s2.6-4.7,4.4-6.5c1.9-1.9,4-3.3,6.5-4.4C268.2,62.2,270.8,61.7,273.7,61.7
					z M273.7,96.1c1.9,0,3.7-0.4,5.3-1.1c1.7-0.7,3.1-1.7,4.4-2.9s2.2-2.7,3-4.4c0.7-1.7,1.1-3.5,1.1-5.4s-0.4-3.7-1.1-5.4
					s-1.7-3.1-3-4.4c-1.3-1.3-2.7-2.2-4.4-3c-1.7-0.7-3.5-1.1-5.3-1.1c-1.9,0-3.7,0.4-5.4,1.1c-1.7,0.7-3.2,1.7-4.4,3
					c-1.3,1.3-2.2,2.7-3,4.4c-0.7,1.7-1.1,3.5-1.1,5.4s0.4,3.7,1.1,5.4s1.7,3.1,3,4.4c1.3,1.2,2.7,2.2,4.4,2.9
					C270,95.7,271.8,96.1,273.7,96.1z"/>
				<path class="st1" d="M324.2,87.7v-26h6v41.1l-24.4-25v25h-6V61.7L324.2,87.7z"/>
				<path class="st1" d="M347.4,67.8h-11.6v-6h29.1v6h-11.5v35.1h-6V67.8z"/>
				<path class="st1" d="M391.1,61.7c2.8,0,5.5,0.5,8,1.6c2.5,1.1,4.7,2.5,6.5,4.4c1.9,1.9,3.3,4,4.4,6.5c1.1,2.5,1.6,5.2,1.6,8
					s-0.5,5.5-1.6,8c-1.1,2.5-2.5,4.7-4.4,6.5c-1.9,1.9-4,3.3-6.5,4.4c-2.5,1.1-5.2,1.6-8,1.6s-5.5-0.5-8-1.6s-4.7-2.5-6.5-4.4
					c-1.9-1.9-3.3-4-4.4-6.5c-1.1-2.5-1.6-5.2-1.6-8s0.5-5.5,1.6-8c1.1-2.5,2.6-4.7,4.4-6.5c1.9-1.9,4-3.3,6.5-4.4
					C385.6,62.2,388.2,61.7,391.1,61.7z M391.1,96.1c1.9,0,3.7-0.4,5.3-1.1c1.7-0.7,3.1-1.7,4.4-2.9s2.2-2.7,3-4.4
					c0.7-1.7,1.1-3.5,1.1-5.4s-0.4-3.7-1.1-5.4s-1.7-3.1-3-4.4c-1.3-1.3-2.7-2.2-4.4-3c-1.7-0.7-3.5-1.1-5.3-1.1
					c-1.9,0-3.7,0.4-5.4,1.1c-1.7,0.7-3.2,1.7-4.4,3c-1.3,1.3-2.2,2.7-3,4.4c-0.7,1.7-1.1,3.5-1.1,5.4s0.4,3.7,1.1,5.4
					s1.7,3.1,3,4.4c1.3,1.2,2.7,2.2,4.4,2.9S389.2,96.1,391.1,96.1z"/>
			</g>
			<g>
				<path class="st2" d="M141.3,138.5c0,0.1,0,0.1-0.1,0.2s-0.1,0.1-0.2,0.1s-0.2,0.1-0.4,0.1s-0.4,0-0.6,0c-0.2,0-0.4,0-0.6,0
					c-0.2,0-0.3-0.1-0.4-0.1s-0.2-0.1-0.2-0.1s-0.1-0.1-0.1-0.2v-17.6c0-0.1,0-0.1,0.1-0.2c0-0.1,0.1-0.1,0.2-0.1
					c0.1,0,0.2-0.1,0.4-0.1s0.3,0,0.6,0c0.2,0,0.4,0,0.6,0c0.2,0,0.3,0.1,0.4,0.1c0.1,0,0.2,0.1,0.2,0.1s0.1,0.1,0.1,0.2V138.5z"/>
				<path class="st2" d="M156.4,137.8c0,0.2,0,0.3,0,0.4c0,0.1-0.1,0.2-0.1,0.3s-0.1,0.1-0.2,0.2c-0.1,0-0.1,0.1-0.2,0.1h-8.8
					c-0.2,0-0.4-0.1-0.6-0.2c-0.2-0.1-0.3-0.4-0.3-0.8v-16.3c0-0.4,0.1-0.6,0.3-0.8s0.4-0.2,0.6-0.2h8.7c0.1,0,0.1,0,0.2,0.1
					c0.1,0,0.1,0.1,0.1,0.2c0,0.1,0.1,0.2,0.1,0.3s0,0.3,0,0.5s0,0.3,0,0.4c0,0.1-0.1,0.2-0.1,0.3s-0.1,0.1-0.1,0.2
					c-0.1,0-0.1,0.1-0.2,0.1h-7.2v5.7h6.1c0.1,0,0.1,0,0.2,0.1c0.1,0,0.1,0.1,0.2,0.2c0,0.1,0.1,0.2,0.1,0.3s0,0.3,0,0.5
					s0,0.3,0,0.4c0,0.1,0,0.2-0.1,0.3c0,0.1-0.1,0.1-0.2,0.2c-0.1,0-0.1,0-0.2,0h-6.1v6.6h7.3c0.1,0,0.1,0,0.2,0.1
					c0.1,0,0.1,0.1,0.2,0.2c0,0.1,0.1,0.2,0.1,0.3C156.4,137.5,156.4,137.6,156.4,137.8z"/>
				<path class="st2" d="M170.5,137.8c0,0.2,0,0.3,0,0.4c0,0.1-0.1,0.2-0.1,0.3s-0.1,0.1-0.2,0.2c-0.1,0-0.1,0.1-0.2,0.1h-8.8
					c-0.2,0-0.4-0.1-0.6-0.2c-0.2-0.1-0.3-0.4-0.3-0.8v-16.3c0-0.4,0.1-0.6,0.3-0.8s0.4-0.2,0.6-0.2h8.7c0.1,0,0.1,0,0.2,0.1
					c0.1,0,0.1,0.1,0.1,0.2c0,0.1,0.1,0.2,0.1,0.3s0,0.3,0,0.5s0,0.3,0,0.4c0,0.1-0.1,0.2-0.1,0.3s-0.1,0.1-0.1,0.2
					c-0.1,0-0.1,0.1-0.2,0.1h-7.2v5.7h6.1c0.1,0,0.1,0,0.2,0.1c0.1,0,0.1,0.1,0.2,0.2c0,0.1,0.1,0.2,0.1,0.3s0,0.3,0,0.5
					s0,0.3,0,0.4c0,0.1,0,0.2-0.1,0.3c0,0.1-0.1,0.1-0.2,0.2c-0.1,0-0.1,0-0.2,0h-6.1v6.6h7.3c0.1,0,0.1,0,0.2,0.1
					c0.1,0,0.1,0.1,0.2,0.2c0,0.1,0.1,0.2,0.1,0.3C170.5,137.5,170.5,137.6,170.5,137.8z"/>
				<path class="st2" d="M184.7,137.8c0,0.2,0,0.3,0,0.4c0,0.1-0.1,0.2-0.1,0.3s-0.1,0.1-0.2,0.2c-0.1,0-0.1,0.1-0.2,0.1h-8.8
					c-0.2,0-0.4-0.1-0.6-0.2c-0.2-0.1-0.3-0.4-0.3-0.8v-16.3c0-0.4,0.1-0.6,0.3-0.8s0.4-0.2,0.6-0.2h8.7c0.1,0,0.1,0,0.2,0.1
					c0.1,0,0.1,0.1,0.1,0.2c0,0.1,0.1,0.2,0.1,0.3s0,0.3,0,0.5s0,0.3,0,0.4c0,0.1-0.1,0.2-0.1,0.3s-0.1,0.1-0.1,0.2
					c-0.1,0-0.1,0.1-0.2,0.1h-7.2v5.7h6.1c0.1,0,0.1,0,0.2,0.1c0.1,0,0.1,0.1,0.2,0.2c0,0.1,0.1,0.2,0.1,0.3s0,0.3,0,0.5
					s0,0.3,0,0.4c0,0.1,0,0.2-0.1,0.3c0,0.1-0.1,0.1-0.2,0.2c-0.1,0-0.1,0-0.2,0h-6.1v6.6h7.3c0.1,0,0.1,0,0.2,0.1
					c0.1,0,0.1,0.1,0.2,0.2c0,0.1,0.1,0.2,0.1,0.3C184.7,137.5,184.7,137.6,184.7,137.8z"/>
				<path class="st2" d="M205.1,133.7c0,0.9-0.2,1.6-0.5,2.3s-0.8,1.2-1.3,1.7c-0.6,0.5-1.2,0.8-2,1.1c-0.8,0.2-1.6,0.4-2.5,0.4
					c-0.6,0-1.2-0.1-1.7-0.2c-0.5-0.1-1-0.2-1.4-0.4s-0.8-0.3-1-0.5c-0.3-0.2-0.5-0.3-0.6-0.4s-0.2-0.3-0.2-0.4
					c-0.1-0.2-0.1-0.4-0.1-0.7c0-0.2,0-0.4,0-0.5s0-0.2,0.1-0.3c0-0.1,0.1-0.1,0.1-0.2c0.1,0,0.1,0,0.2,0s0.3,0.1,0.6,0.2
					c0.2,0.2,0.5,0.3,0.9,0.5s0.8,0.4,1.4,0.5c0.5,0.2,1.1,0.2,1.8,0.2c0.5,0,1-0.1,1.5-0.2c0.4-0.1,0.8-0.3,1.1-0.6
					c0.3-0.3,0.6-0.6,0.7-1c0.2-0.4,0.3-0.8,0.3-1.3s-0.1-1-0.4-1.3s-0.5-0.7-0.9-1s-0.8-0.5-1.3-0.8c-0.5-0.2-1-0.5-1.5-0.7
					s-1-0.5-1.5-0.8s-0.9-0.6-1.3-1s-0.7-0.9-0.9-1.4c-0.2-0.5-0.4-1.2-0.4-1.9c0-0.8,0.1-1.4,0.4-2s0.7-1.1,1.2-1.5
					s1.1-0.7,1.8-0.9c0.7-0.2,1.4-0.3,2.2-0.3c0.4,0,0.8,0,1.2,0.1c0.4,0.1,0.8,0.2,1.2,0.3c0.4,0.1,0.7,0.3,1,0.4
					c0.3,0.1,0.5,0.3,0.6,0.4s0.1,0.2,0.2,0.2c0,0.1,0.1,0.1,0.1,0.2c0,0.1,0,0.2,0,0.3s0,0.3,0,0.4c0,0.2,0,0.3,0,0.5
					c0,0.1,0,0.2-0.1,0.3s-0.1,0.2-0.1,0.2c-0.1,0-0.1,0.1-0.2,0.1s-0.3-0.1-0.5-0.2c-0.2-0.1-0.5-0.3-0.8-0.4
					c-0.3-0.2-0.7-0.3-1.1-0.5c-0.4-0.1-0.9-0.2-1.5-0.2c-0.5,0-1,0.1-1.3,0.2c-0.4,0.1-0.7,0.3-0.9,0.5s-0.4,0.5-0.6,0.8
					c-0.1,0.3-0.2,0.6-0.2,1c0,0.5,0.1,0.9,0.4,1.3c0.2,0.4,0.5,0.7,0.9,1s0.8,0.5,1.3,0.8c0.5,0.2,1,0.5,1.5,0.7s1,0.5,1.5,0.8
					s0.9,0.6,1.3,1s0.7,0.9,0.9,1.4C204.9,132.3,205.1,133,205.1,133.7z"/>
				<path class="st2" d="M219.8,121.6c0,0.2,0,0.3,0,0.5c0,0.1,0,0.2-0.1,0.3c0,0.1-0.1,0.1-0.2,0.2c-0.1,0-0.1,0.1-0.2,0.1h-5.1
					v15.9c0,0.1,0,0.1-0.1,0.2c0,0.1-0.1,0.1-0.2,0.1s-0.2,0.1-0.4,0.1c-0.2,0-0.4,0-0.6,0s-0.4,0-0.6,0s-0.3-0.1-0.4-0.1
					s-0.2-0.1-0.2-0.1c0-0.1-0.1-0.1-0.1-0.2v-15.9h-5.2c-0.1,0-0.1,0-0.2-0.1c-0.1,0-0.1-0.1-0.1-0.2s-0.1-0.2-0.1-0.3s0-0.3,0-0.5
					s0-0.3,0-0.5c0-0.1,0.1-0.2,0.1-0.3s0.1-0.1,0.1-0.2c0.1,0,0.1-0.1,0.2-0.1h12.7c0.1,0,0.1,0,0.2,0.1c0.1,0,0.1,0.1,0.2,0.2
					c0,0.1,0.1,0.2,0.1,0.3C219.8,121.2,219.8,121.4,219.8,121.6z"/>
				<path class="st2" d="M236.3,132.1c0,1.1-0.2,2.1-0.5,3s-0.8,1.6-1.4,2.2c-0.6,0.6-1.3,1.1-2.2,1.4s-1.9,0.5-3,0.5
					c-1,0-1.9-0.1-2.8-0.4c-0.8-0.3-1.5-0.7-2.1-1.3s-1.1-1.3-1.4-2.1c-0.3-0.9-0.5-1.9-0.5-3V121c0-0.1,0-0.1,0.1-0.2
					s0.1-0.1,0.2-0.1s0.2-0.1,0.4-0.1c0.2,0,0.3,0,0.6,0c0.2,0,0.4,0,0.6,0s0.3,0.1,0.4,0.1s0.2,0.1,0.2,0.1c0,0.1,0.1,0.1,0.1,0.2
					v11.1c0,0.8,0.1,1.6,0.3,2.2c0.2,0.6,0.5,1.2,0.9,1.6c0.4,0.4,0.9,0.7,1.4,0.9c0.6,0.2,1.2,0.3,1.9,0.3c0.7,0,1.3-0.1,1.9-0.3
					s1-0.5,1.4-0.9s0.7-0.9,0.9-1.5c0.2-0.6,0.3-1.3,0.3-2.2V121c0-0.1,0-0.1,0.1-0.2s0.1-0.1,0.2-0.1s0.2-0.1,0.4-0.1
					c0.2,0,0.4,0,0.6,0s0.4,0,0.6,0s0.3,0.1,0.4,0.1s0.2,0.1,0.2,0.1c0,0.1,0.1,0.1,0.1,0.2v11.1H236.3z"/>
				<path class="st2" d="M255.2,129.4c0,1.6-0.2,3-0.6,4.2s-1,2.2-1.8,2.9c-0.8,0.8-1.7,1.4-2.9,1.7c-1.1,0.4-2.5,0.6-4,0.6H242
					c-0.2,0-0.4-0.1-0.6-0.2c-0.2-0.1-0.3-0.4-0.3-0.8v-16.3c0-0.4,0.1-0.6,0.3-0.8s0.4-0.2,0.6-0.2h4.1c1.6,0,2.9,0.2,4,0.6
					c1.1,0.4,2,1,2.8,1.8c0.7,0.8,1.3,1.7,1.7,2.8C255,126.8,255.2,128,255.2,129.4z M252.6,129.5c0-1-0.1-1.9-0.4-2.8
					s-0.6-1.6-1.2-2.2c-0.5-0.6-1.2-1.1-2-1.5c-0.8-0.3-1.8-0.5-3.1-0.5h-2.5v14.3h2.5c1.2,0,2.2-0.1,3-0.4c0.8-0.3,1.5-0.7,2-1.3
					s0.9-1.4,1.2-2.3C252.5,131.8,252.6,130.7,252.6,129.5z"/>
				<path class="st2" d="M269.1,137.8c0,0.2,0,0.3,0,0.4c0,0.1-0.1,0.2-0.1,0.3s-0.1,0.1-0.2,0.2c-0.1,0-0.1,0.1-0.2,0.1h-8.8
					c-0.2,0-0.4-0.1-0.6-0.2c-0.2-0.1-0.3-0.4-0.3-0.8v-16.3c0-0.4,0.1-0.6,0.3-0.8c0.2-0.2,0.4-0.2,0.6-0.2h8.7
					c0.1,0,0.1,0,0.2,0.1c0.1,0,0.1,0.1,0.1,0.2c0,0.1,0.1,0.2,0.1,0.3s0,0.3,0,0.5s0,0.3,0,0.4c0,0.1-0.1,0.2-0.1,0.3
					s-0.1,0.1-0.1,0.2c-0.1,0-0.1,0.1-0.2,0.1h-7.2v5.7h6.1c0.1,0,0.1,0,0.2,0.1c0.1,0,0.1,0.1,0.2,0.2c0,0.1,0.1,0.2,0.1,0.3
					s0,0.3,0,0.5s0,0.3,0,0.4c0,0.1,0,0.2-0.1,0.3c0,0.1-0.1,0.1-0.2,0.2c-0.1,0-0.1,0-0.2,0h-6.1v6.6h7.3c0.1,0,0.1,0,0.2,0.1
					c0.1,0,0.1,0.1,0.2,0.2c0,0.1,0.1,0.2,0.1,0.3C269.1,137.5,269.1,137.6,269.1,137.8z"/>
				<path class="st2" d="M286.9,137.8c0,0.2,0,0.3-0.1,0.5c-0.1,0.1-0.1,0.2-0.2,0.3c-0.1,0.1-0.2,0.1-0.3,0.2
					c-0.1,0-0.3,0.1-0.4,0.1h-0.8c-0.3,0-0.5,0-0.7-0.1s-0.4-0.1-0.5-0.3c-0.1-0.2-0.3-0.3-0.5-0.6c-0.2-0.2-0.4-0.5-0.5-0.9
					l-5.6-10.4c-0.3-0.5-0.6-1.1-0.9-1.7c-0.3-0.6-0.6-1.2-0.8-1.7l0,0c0,0.7,0,1.4,0,2.1c0,0.7,0,1.4,0,2.1v11.1
					c0,0.1,0,0.1-0.1,0.2c-0.1,0.1-0.1,0.1-0.2,0.1c-0.1,0-0.2,0.1-0.4,0.1c-0.2,0-0.4,0-0.6,0s-0.4,0-0.6,0s-0.3-0.1-0.4-0.1
					c-0.1,0-0.2-0.1-0.2-0.1s-0.1-0.1-0.1-0.2v-16.9c0-0.4,0.1-0.6,0.3-0.8s0.4-0.2,0.7-0.2h1.2c0.3,0,0.5,0,0.7,0.1
					c0.2,0,0.4,0.1,0.5,0.2c0.2,0.1,0.3,0.3,0.4,0.5c0.1,0.2,0.3,0.4,0.4,0.7l4.3,8c0.3,0.5,0.5,1,0.8,1.4c0.2,0.5,0.5,0.9,0.7,1.4
					s0.5,0.9,0.7,1.3c0.2,0.4,0.4,0.9,0.7,1.3l0,0c0-0.7,0-1.5,0-2.3s0-1.6,0-2.3V121c0-0.1,0-0.1,0.1-0.2c0.1-0.1,0.1-0.1,0.2-0.1
					c0.1,0,0.2-0.1,0.4-0.1s0.4,0,0.6,0s0.4,0,0.6,0s0.3,0,0.4,0.1c0.1,0,0.2,0.1,0.2,0.1s0.1,0.1,0.1,0.2v16.8H286.9z"/>
				<path class="st2" d="M303.3,121.6c0,0.2,0,0.3,0,0.5c0,0.1,0,0.2-0.1,0.3c0,0.1-0.1,0.1-0.2,0.2c-0.1,0-0.1,0.1-0.2,0.1h-5.2
					v15.9c0,0.1,0,0.1-0.1,0.2c0,0.1-0.1,0.1-0.2,0.1c-0.1,0-0.2,0.1-0.4,0.1c-0.2,0-0.4,0-0.6,0s-0.4,0-0.6,0s-0.3-0.1-0.4-0.1
					c-0.1,0-0.2-0.1-0.2-0.1c0-0.1-0.1-0.1-0.1-0.2v-15.9h-5.2c-0.1,0-0.1,0-0.2-0.1c-0.1,0-0.1-0.1-0.1-0.2s-0.1-0.2-0.1-0.3
					s0-0.3,0-0.5s0-0.3,0-0.5c0-0.1,0.1-0.2,0.1-0.3s0.1-0.1,0.1-0.2c0.1,0,0.1-0.1,0.2-0.1h12.7c0.1,0,0.1,0,0.2,0.1
					c0.1,0,0.1,0.1,0.2,0.2c0,0.1,0.1,0.2,0.1,0.3C303.3,121.2,303.3,121.4,303.3,121.6z"/>
				<path class="st2" d="M324.6,133.6c0,0.6-0.1,1.1-0.2,1.6c-0.1,0.5-0.4,0.9-0.6,1.3c-0.3,0.4-0.6,0.7-1,1
					c-0.4,0.3-0.8,0.5-1.3,0.7s-1,0.3-1.5,0.4c-0.5,0.1-1.1,0.1-1.8,0.1h-4.8c-0.2,0-0.4-0.1-0.6-0.2c-0.2-0.1-0.3-0.4-0.3-0.8
					v-16.3c0-0.4,0.1-0.6,0.3-0.8c0.2-0.2,0.4-0.2,0.6-0.2h4.2c1.1,0,2,0.1,2.7,0.3s1.3,0.5,1.7,0.9c0.5,0.4,0.8,0.9,1.1,1.5
					c0.2,0.6,0.4,1.2,0.4,2c0,0.4-0.1,0.8-0.2,1.2c-0.1,0.4-0.3,0.8-0.5,1.1s-0.5,0.6-0.8,0.9c-0.3,0.3-0.7,0.5-1.1,0.7
					c0.5,0.1,1,0.3,1.4,0.5c0.4,0.3,0.8,0.6,1.1,1s0.6,0.8,0.8,1.4C324.5,132.4,324.6,133,324.6,133.6z M320.9,125.4
					c0-0.4-0.1-0.8-0.2-1.2c-0.1-0.4-0.3-0.7-0.6-0.9c-0.3-0.3-0.6-0.4-1-0.6c-0.4-0.1-1-0.2-1.7-0.2h-2.5v5.9h2.8
					c0.6,0,1.1-0.1,1.5-0.2c0.4-0.1,0.7-0.4,1-0.7s0.4-0.6,0.6-1C320.9,126.2,320.9,125.8,320.9,125.4z M322,133.7
					c0-0.5-0.1-1-0.3-1.4c-0.2-0.4-0.4-0.8-0.8-1c-0.3-0.3-0.8-0.5-1.3-0.6s-1.1-0.2-1.9-0.2h-2.9v6.5h3.5c0.6,0,1-0.1,1.5-0.2
					c0.4-0.1,0.8-0.3,1.1-0.6s0.6-0.6,0.7-1C321.9,134.7,322,134.2,322,133.7z"/>
				<path class="st2" d="M340.5,138.5c0,0.1,0,0.1,0,0.2s-0.1,0.1-0.2,0.1c-0.1,0-0.2,0.1-0.4,0.1s-0.4,0-0.7,0c-0.2,0-0.4,0-0.6,0
					s-0.3,0-0.4-0.1c-0.1,0-0.2-0.1-0.2-0.2c-0.1-0.1-0.1-0.2-0.1-0.3l-1.7-4.3c-0.2-0.5-0.4-0.9-0.6-1.4c-0.2-0.4-0.5-0.8-0.8-1.1
					s-0.6-0.5-1-0.7c-0.4-0.2-0.9-0.2-1.4-0.2h-1.6v7.8c0,0.1,0,0.1-0.1,0.2c0,0.1-0.1,0.1-0.2,0.1c-0.1,0-0.2,0.1-0.4,0.1
					s-0.4,0-0.6,0s-0.4,0-0.6,0s-0.3-0.1-0.4-0.1c-0.1,0-0.2-0.1-0.2-0.1s-0.1-0.1-0.1-0.2v-17c0-0.4,0.1-0.6,0.3-0.8
					c0.2-0.2,0.4-0.2,0.6-0.2h3.9c0.5,0,0.8,0,1.2,0c0.3,0,0.6,0,0.8,0.1c0.7,0.1,1.3,0.3,1.9,0.6c0.5,0.3,1,0.6,1.4,1
					c0.4,0.4,0.6,0.9,0.8,1.4c0.2,0.5,0.3,1.1,0.3,1.7c0,0.6-0.1,1.2-0.2,1.6c-0.1,0.4-0.4,0.9-0.7,1.3c-0.3,0.4-0.7,0.7-1.1,1
					c-0.4,0.3-0.9,0.5-1.5,0.7c0.3,0.1,0.6,0.3,0.8,0.5c0.2,0.2,0.5,0.4,0.7,0.7s0.4,0.6,0.6,1s0.4,0.8,0.6,1.2l1.6,4
					c0.1,0.3,0.2,0.6,0.3,0.7C340.5,138.3,340.5,138.4,340.5,138.5z M336.8,125.6c0-0.7-0.2-1.3-0.5-1.8s-0.9-0.9-1.6-1.1
					c-0.2-0.1-0.5-0.1-0.8-0.1s-0.7,0-1.2,0h-2.1v6.2h2.4c0.6,0,1.2-0.1,1.7-0.2c0.5-0.2,0.9-0.4,1.2-0.7c0.3-0.3,0.5-0.6,0.7-1
					C336.8,126.4,336.8,126,336.8,125.6z"/>
				<path class="st2" d="M357.7,138c0.1,0.2,0.1,0.4,0.1,0.5s0,0.2-0.1,0.3c-0.1,0.1-0.2,0.1-0.4,0.1s-0.4,0-0.7,0
					c-0.3,0-0.5,0-0.7,0s-0.3,0-0.4-0.1c-0.1-0.1-0.2-0.1-0.2-0.1c0-0.1-0.1-0.1-0.1-0.2l-1.6-4.5H346l-1.5,4.4
					c0,0.1-0.1,0.2-0.1,0.2c0,0.1-0.1,0.1-0.2,0.2c-0.1,0-0.2,0.1-0.4,0.1s-0.4,0-0.6,0c-0.3,0-0.5,0-0.7,0s-0.3-0.1-0.4-0.1
					c-0.1-0.1-0.1-0.2-0.1-0.3s0-0.3,0.1-0.5l6.1-17c0-0.1,0.1-0.2,0.1-0.3c0.1-0.1,0.2-0.1,0.3-0.2c0.1,0,0.3-0.1,0.5-0.1
					s0.4,0,0.7,0s0.6,0,0.8,0c0.2,0,0.4,0,0.5,0.1c0.1,0,0.2,0.1,0.3,0.2c0.1,0.1,0.1,0.2,0.2,0.3L357.7,138z M349.9,122.9
					L349.9,122.9l-3.2,9.1h6.4L349.9,122.9z"/>
				<path class="st2" d="M374.7,137.8c0,0.2,0,0.3-0.1,0.5c-0.1,0.1-0.1,0.2-0.2,0.3c-0.1,0.1-0.2,0.1-0.3,0.2
					c-0.1,0-0.3,0.1-0.4,0.1h-0.8c-0.3,0-0.5,0-0.7-0.1s-0.4-0.1-0.5-0.3c-0.1-0.2-0.3-0.3-0.5-0.6c-0.2-0.2-0.4-0.5-0.5-0.9
					l-5.6-10.4c-0.3-0.5-0.6-1.1-0.9-1.7c-0.3-0.6-0.6-1.2-0.8-1.7l0,0c0,0.7,0,1.4,0,2.1c0,0.7,0,1.4,0,2.1v11.1
					c0,0.1,0,0.1-0.1,0.2c-0.1,0.1-0.1,0.1-0.2,0.1c-0.1,0-0.2,0.1-0.4,0.1c-0.2,0-0.4,0-0.6,0s-0.4,0-0.6,0s-0.3-0.1-0.4-0.1
					c-0.1,0-0.2-0.1-0.2-0.1s-0.1-0.1-0.1-0.2v-16.9c0-0.4,0.1-0.6,0.3-0.8s0.4-0.2,0.7-0.2h1.2c0.3,0,0.5,0,0.7,0.1
					c0.2,0,0.4,0.1,0.5,0.2c0.2,0.1,0.3,0.3,0.4,0.5c0.1,0.2,0.3,0.4,0.4,0.7l4.3,8c0.3,0.5,0.5,1,0.8,1.4c0.2,0.5,0.5,0.9,0.7,1.4
					s0.5,0.9,0.7,1.3c0.2,0.4,0.4,0.9,0.7,1.3l0,0c0-0.7,0-1.5,0-2.3s0-1.6,0-2.3V121c0-0.1,0-0.1,0.1-0.2c0.1-0.1,0.1-0.1,0.2-0.1
					c0.1,0,0.2-0.1,0.4-0.1s0.4,0,0.6,0s0.4,0,0.6,0s0.3,0,0.4,0.1c0.1,0,0.2,0.1,0.2,0.1s0.1,0.1,0.1,0.2v16.8H374.7z"/>
				<path class="st2" d="M391.8,136.2c0,0.2,0,0.3,0,0.4c0,0.1,0,0.2,0,0.3s-0.1,0.2-0.1,0.2c0,0.1-0.1,0.1-0.2,0.2
					c-0.1,0.1-0.3,0.2-0.6,0.4c-0.3,0.2-0.7,0.4-1.1,0.6c-0.4,0.2-1,0.3-1.5,0.5c-0.6,0.1-1.2,0.2-1.9,0.2c-1.2,0-2.3-0.2-3.2-0.6
					s-1.8-1-2.4-1.8c-0.7-0.8-1.2-1.7-1.6-2.9c-0.4-1.2-0.5-2.4-0.5-3.9s0.2-2.9,0.6-4.1c0.4-1.2,0.9-2.2,1.7-3
					c0.7-0.8,1.6-1.5,2.5-1.9c1-0.4,2.1-0.7,3.3-0.7c0.5,0,1,0,1.5,0.1s1,0.2,1.4,0.4c0.4,0.2,0.8,0.3,1.1,0.5
					c0.3,0.2,0.6,0.4,0.7,0.5c0.1,0.1,0.2,0.2,0.2,0.3s0.1,0.1,0.1,0.2s0,0.2,0.1,0.3c0,0.1,0,0.3,0,0.4c0,0.2,0,0.3,0,0.5
					c0,0.1,0,0.2-0.1,0.3c0,0.1-0.1,0.2-0.1,0.2c-0.1,0-0.1,0.1-0.2,0.1c-0.1,0-0.3-0.1-0.6-0.3c-0.2-0.2-0.5-0.4-0.9-0.6
					c-0.4-0.2-0.8-0.4-1.4-0.6c-0.5-0.2-1.2-0.3-1.9-0.3c-0.8,0-1.6,0.2-2.2,0.5c-0.7,0.3-1.2,0.8-1.7,1.4c-0.5,0.6-0.8,1.4-1.1,2.3
					c-0.3,0.9-0.4,2-0.4,3.1c0,1.2,0.1,2.2,0.4,3.1c0.3,0.9,0.6,1.6,1.1,2.2c0.5,0.6,1,1.1,1.7,1.4c0.7,0.3,1.5,0.5,2.3,0.5
					c0.7,0,1.4-0.1,1.9-0.3s1-0.4,1.4-0.6c0.4-0.2,0.7-0.4,0.9-0.6c0.2-0.2,0.4-0.3,0.6-0.3c0.1,0,0.1,0,0.2,0c0,0,0.1,0.1,0.1,0.2
					c0,0.1,0,0.2,0.1,0.3C391.7,135.8,391.8,136,391.8,136.2z"/>
				<path class="st2" d="M408.2,138.5c0,0.1,0,0.1-0.1,0.2c-0.1,0.1-0.1,0.1-0.2,0.1c-0.1,0-0.2,0.1-0.4,0.1c-0.2,0-0.3,0-0.6,0
					c-0.2,0-0.4,0-0.6,0s-0.3-0.1-0.4-0.1c-0.1,0-0.2-0.1-0.2-0.1c0-0.1-0.1-0.1-0.1-0.2v-8.2h-8.3v8.1c0,0.1,0,0.1-0.1,0.2
					c-0.1,0.1-0.1,0.1-0.2,0.1c-0.1,0-0.2,0.1-0.4,0.1c-0.2,0-0.4,0-0.6,0s-0.4,0-0.6,0s-0.3-0.1-0.4-0.1c-0.1,0-0.2-0.1-0.2-0.1
					s-0.1-0.1-0.1-0.2v-17.6c0-0.1,0-0.1,0.1-0.2c0.1-0.1,0.1-0.1,0.2-0.1c0.1,0,0.2-0.1,0.4-0.1s0.4,0,0.6,0s0.4,0,0.6,0
					s0.3,0.1,0.4,0.1c0.1,0,0.2,0.1,0.2,0.1s0.1,0.1,0.1,0.2v7.3h8.3v-7.3c0-0.1,0-0.1,0.1-0.2c0-0.1,0.1-0.1,0.2-0.1
					c0.1,0,0.2-0.1,0.4-0.1s0.3,0,0.6,0c0.2,0,0.4,0,0.6,0s0.3,0.1,0.4,0.1c0.1,0,0.2,0.1,0.2,0.1s0.1,0.1,0.1,0.2V138.5z"/>
			</g>
		</g>
		<g>
			<path class="st0" d="M85.8,114.2H36.9c-1.3,0-2.3,1-2.3,2.3v1.4c0,1.3,1,2.3,2.3,2.3h21.4v21.9c0,1.4,1.1,2.5,2.5,2.5h1
				c1.4,0,2.5-1.1,2.5-2.5v-21.9h21.4c1.3,0,2.3-1,2.3-2.3v-1.4C88.2,115.2,87.1,114.2,85.8,114.2z M61.4,143.3
				c-0.6,0-1.1-0.5-1.1-1.1s0.5-1.1,1.1-1.1s1.1,0.5,1.1,1.1S62,143.3,61.4,143.3z M38.2,118.3c-0.6,0-1.1-0.5-1.1-1.1
				s0.5-1.1,1.1-1.1s1.1,0.5,1.1,1.1S38.8,118.3,38.2,118.3z M85.1,118.3c-0.6,0-1.1-0.5-1.1-1.1s0.5-1.1,1.1-1.1s1.1,0.5,1.1,1.1
				S85.7,118.3,85.1,118.3z"/>
			<polygon class="st0" points="2.3,72.5 14.6,84.8 50.9,84.8 62.5,72.1 62.5,49 73.4,38.1 73.4,14.6 71.4,14.6 71.4,36.7 
				62.5,45.6 62.5,13.7 51,2.3 49.4,3.9 60.2,14.7 60.2,56.9 51,47.8 51,25.7 48.5,25.7 48.5,35.4 39.3,25.2 37.9,26.6 48.6,39.3 
				48.6,49.2 59.9,60.5 59.9,71 55.3,76 39.1,59.8 37.6,61.4 46.9,70.7 38.2,70.7 27.5,60 27.5,48.8 25.1,48.8 25.1,61.1 37.1,73.6 
				49.8,73.6 53.8,77.6 49.6,82.2 38.8,82.2 16.3,59.7 16.3,47.5 14.2,47.5 14.2,60.9 35.9,82.6 27.2,82.6 4,59.4 2.3,61.2 
				23.7,82.7 16.1,82.7 3.7,70.3 			"/>
			<circle class="st0" cx="3.1" cy="71.6" r="3.1"/>
			<circle class="st0" cx="3.1" cy="60.3" r="3.1"/>
			<circle class="st0" cx="15.4" cy="48.5" r="3.1"/>
			<circle class="st0" cx="26.4" cy="48.5" r="3.1"/>
			<circle class="st0" cx="37.8" cy="60.3" r="3.1"/>
			<circle class="st0" cx="38.2" cy="25.9" r="3.1"/>
			<circle class="st0" cx="49.8" cy="25.9" r="3.1"/>
			<circle class="st0" cx="50.7" cy="3.1" r="3.1"/>
			<circle class="st0" cx="72.7" cy="14.1" r="3.1"/>
			<circle class="st0" cx="84.5" cy="25.9" r="3.1"/>
			<circle class="st0" cx="84.5" cy="61.1" r="3.1"/>
			<circle class="st0" cx="27.5" cy="95.4" r="3.1"/>
			<circle class="st0" cx="84.5" cy="71.6" r="3.1"/>
			<circle class="st0" cx="95.5" cy="48.5" r="3.1"/>
			<circle class="st0" cx="107.1" cy="48.5" r="3.1"/>
			<circle class="st0" cx="118.9" cy="60.3" r="3.1"/>
			<circle class="st0" cx="15.5" cy="117.3" r="3.1"/>
			<polygon class="st0" points="14,116.9 25.7,105.5 48.3,105.5 83.8,70 85.5,71.7 75.5,81.7 84.5,81.7 94.6,71.6 94.6,48.5 
				97,48.5 97,72.6 88,81.7 95.4,81.7 105.7,71.4 105.7,49.5 108.1,49.5 108.1,69.3 118.1,59.3 119.7,60.9 96.3,84.3 73.4,84.3 
				49.8,108 27.5,108 16.8,118.3 			"/>
			<path class="st0" d="M27.7,94h21l22.4-22.7V48.6L83.7,36V26h1.9v11.5L73.5,49.6v10.1H84v2.5l-10.6,0.1v10.8L50.8,95.7
				c-0.5,0.5-1.1,0.7-1.7,0.7H27.5L27.7,94z"/>
			<polygon class="st0" points="72.7,105.6 84.4,93.9 95.5,93.9 118.4,71 120,72.7 96.4,96.4 85.1,96.4 74.5,106.9 			"/>
			<path class="st0" d="M84.5,105.4h13.2l10,10.6l-2.1,1.6l-8.9-9.8H84.5C84.5,107.8,85.2,105.4,84.5,105.4z"/>
			<circle class="st0" cx="61.4" cy="106.8" r="3.1"/>
			<circle class="st0" cx="73.4" cy="94.4" r="3.1"/>
			<circle class="st0" cx="72.7" cy="106.8" r="3.1"/>
			<circle class="st0" cx="118.9" cy="71.6" r="3.1"/>
			<circle class="st0" cx="107.3" cy="117.2" r="3.1"/>
			<circle class="st0" cx="84.5" cy="106.8" r="3.1"/>
			<polygon class="st0" points="59.9,106.2 72.6,93.5 74.4,95.4 62,107.8 			"/>
		</g>
	</g>
</g>
<g id="Blue">
	<g>
		<g>
			<g>
				<path class="st3" d="M138.2,18.6h4v17.6c0,0.2,0.1,0.6,0.2,1.2c0.1,0.6,0.4,1.2,0.9,1.8c0.4,0.6,1.1,1.2,1.8,1.7
					c0.8,0.5,1.8,0.7,3.2,0.7c1.3,0,2.3-0.2,3.1-0.7s1.4-1,1.8-1.7c0.4-0.6,0.7-1.2,0.9-1.8c0.1-0.6,0.2-1,0.2-1.2V18.6h4v17.6
					c0,0.1,0,0.5-0.1,1s-0.2,1.1-0.5,1.8c-0.2,0.7-0.6,1.4-1,2.2c-0.4,0.8-1,1.5-1.8,2.1c-0.7,0.7-1.7,1.2-2.7,1.6
					c-1.1,0.4-2.4,0.6-3.9,0.6s-2.8-0.2-3.9-0.6s-2-0.9-2.7-1.5s-1.3-1.3-1.8-2.1s-0.8-1.5-1-2.2s-0.4-1.3-0.5-1.9
					c-0.1-0.5-0.1-0.9-0.1-1.2L138.2,18.6L138.2,18.6z"/>
				<path class="st3" d="M178,35.6v-17h4v27l-16-16.4v16.4h-4v-27L178,35.6z"/>
				<path class="st3" d="M189.9,45.6h-4v-27h4V45.6z"/>
				<path class="st3" d="M205.7,45.6l-11.8-27h4.9l7,15.9l7-15.9h4.9L205.7,45.6z"/>
				<path class="st3" d="M238.2,18.6v3.7h-12.6v8.1h10.2v3.7h-10.2v7.6h12.6v3.8h-16.6v-27h16.6V18.6z"/>
				<path class="st3" d="M255.8,45.6l-4.2-9.2c-0.2,0-0.5,0-0.7,0s-0.4,0-0.6,0h-4.2v9.1h-4v-27h3.9h4.2c0.5,0,1,0,1.7,0.1
					c0.6,0,1.3,0.1,2,0.3c0.7,0.2,1.3,0.4,2,0.8c0.6,0.4,1.2,0.9,1.7,1.5c0.5,0.7,0.9,1.5,1.2,2.5s0.5,2.3,0.5,3.8
					c0,1.2-0.1,2.2-0.3,3.1s-0.5,1.6-0.8,2.3c-0.4,0.6-0.8,1.2-1.2,1.6c-0.4,0.4-0.9,0.8-1.4,1l4.7,10L255.8,45.6L255.8,45.6z
					 M248.7,32.5c0.7,0,1.5,0,2.3,0s1.5-0.2,2.1-0.5s1.2-0.8,1.6-1.5s0.6-1.7,0.6-3s-0.2-2.3-0.6-3s-0.9-1.2-1.6-1.5
					c-0.6-0.3-1.3-0.5-2.1-0.5c-0.8,0-1.5-0.1-2.3-0.1H246v9.9h2.7V32.5z"/>
				<path class="st3" d="M272.9,18.6c1,0,1.8,0.1,2.6,0.3c0.8,0.2,1.4,0.4,1.9,0.6c0.6,0.3,1.2,0.5,1.6,0.8l-2,3.5
					c-0.4-0.2-0.8-0.4-1.2-0.6c-0.4-0.1-0.8-0.3-1.3-0.4s-1-0.2-1.6-0.2c-0.6,0-1.2,0.1-1.6,0.3c-0.4,0.2-0.8,0.5-1.1,0.8
					s-0.5,0.7-0.6,1c-0.1,0.4-0.2,0.7-0.2,1c0,0.9,0.3,1.6,1,2.1c0.7,0.4,1.5,0.8,2.5,1.1c1,0.3,2.1,0.6,3.2,0.8
					c1.2,0.3,2.2,0.7,3.2,1.2s1.8,1.3,2.5,2.3s1,2.3,1,4.1c0,1.1-0.2,2.2-0.7,3.2s-1.1,1.9-2,2.6c-0.9,0.7-1.9,1.3-3.1,1.8
					c-1.2,0.4-2.6,0.7-4.2,0.7c-1.3,0-2.4-0.1-3.3-0.4c-0.9-0.3-1.8-0.6-2.5-0.9c-0.7-0.4-1.4-0.7-1.9-1.1s-1-0.7-1.4-1l2.1-3.5
					c1.4,1.1,2.8,1.9,4,2.3s2.3,0.6,3.1,0.6c0.7,0,1.4-0.1,2.2-0.3c0.7-0.2,1.4-0.4,1.9-0.8c0.6-0.4,1-0.8,1.4-1.3
					c0.4-0.5,0.5-1.2,0.5-1.9c0-0.8-0.2-1.4-0.6-1.9c-0.4-0.5-0.9-0.9-1.5-1.2c-0.6-0.3-1.4-0.6-2.2-0.8c-0.8-0.2-1.6-0.4-2.5-0.7
					c-0.8-0.2-1.7-0.5-2.5-0.8s-1.5-0.7-2.2-1.3c-0.6-0.5-1.1-1.2-1.5-2c-0.4-0.8-0.6-1.8-0.6-2.9c0-1.4,0.3-2.5,0.9-3.5
					c0.6-0.9,1.3-1.7,2.1-2.2c0.8-0.5,1.6-0.9,2.5-1.2C271.7,18.7,272.4,18.6,272.9,18.6z"/>
				<path class="st3" d="M290.9,45.6h-4v-27h4V45.6z"/>
				<path class="st3" d="M302.5,22.6h-7.6v-4H314v4h-7.5v23h-4V22.6z"/>
				<path class="st3" d="M328.3,31.7l6-13.1h4.6l-8.5,18.6v8.4h-4.2v-8.4l-8.5-18.6h4.7L328.3,31.7z"/>
				<path class="st3" d="M377.8,18.6c1.9,0,3.6,0.4,5.3,1.1c1.6,0.7,3.1,1.7,4.3,2.9c1.2,1.2,2.2,2.7,2.9,4.3
					c0.7,1.6,1.1,3.4,1.1,5.3s-0.4,3.6-1.1,5.3c-0.7,1.6-1.7,3.1-2.9,4.3c-1.2,1.2-2.7,2.2-4.3,2.9c-1.6,0.7-3.4,1.1-5.3,1.1
					c-1.9,0-3.6-0.4-5.3-1.1c-1.6-0.7-3.1-1.7-4.3-2.9c-1.2-1.2-2.2-2.7-2.9-4.3c-0.7-1.6-1.1-3.4-1.1-5.3s0.4-3.6,1.1-5.3
					c0.7-1.6,1.7-3.1,2.9-4.3c1.2-1.2,2.7-2.2,4.3-2.9C374.2,18.9,375.9,18.6,377.8,18.6z M377.8,41.1c1.2,0,2.4-0.2,3.5-0.7
					c1.1-0.5,2.1-1.1,2.9-1.9s1.5-1.8,1.9-2.9c0.5-1.1,0.7-2.3,0.7-3.5c0-1.3-0.2-2.4-0.7-3.5s-1.1-2-1.9-2.9
					c-0.8-0.8-1.8-1.5-2.9-1.9c-1.1-0.4-2.3-0.7-3.5-0.7c-1.3,0-2.4,0.2-3.5,0.7c-1.1,0.5-2.1,1.1-2.9,1.9s-1.5,1.8-1.9,2.9
					c-0.5,1.1-0.7,2.3-0.7,3.5c0,1.3,0.2,2.4,0.7,3.5s1.1,2.1,1.9,2.9s1.8,1.5,2.9,1.9C375.4,40.9,376.5,41.1,377.8,41.1z"/>
				<path class="st3" d="M395.3,45.6v-27h16.6v3.7h-12.7v8.1h10.2v3.7h-10.2v11.3h-3.9V45.6z"/>
			</g>
			<g>
				<path class="st4" d="M148.8,67.9h-11.6v-6h29.1v6h-11.5V103h-6V67.9z"/>
				<path class="st4" d="M192.5,61.8c2.8,0,5.5,0.5,8,1.6c2.5,1.1,4.7,2.5,6.5,4.4c1.9,1.9,3.3,4,4.4,6.5s1.6,5.2,1.6,8
					s-0.5,5.5-1.6,8s-2.5,4.7-4.4,6.5c-1.9,1.9-4,3.3-6.5,4.4c-2.5,1.1-5.2,1.6-8,1.6s-5.5-0.5-8-1.6s-4.7-2.5-6.5-4.4
					c-1.9-1.9-3.3-4-4.4-6.5s-1.6-5.2-1.6-8s0.5-5.5,1.6-8s2.6-4.7,4.4-6.5c1.9-1.9,4-3.3,6.5-4.4C186.9,62.3,189.6,61.8,192.5,61.8
					z M192.5,96.1c1.9,0,3.7-0.4,5.3-1.1c1.7-0.7,3.1-1.7,4.4-2.9s2.2-2.7,3-4.4c0.7-1.7,1.1-3.5,1.1-5.4s-0.4-3.7-1.1-5.4
					s-1.7-3.1-3-4.4c-1.3-1.3-2.7-2.2-4.4-3c-1.7-0.7-3.5-1.1-5.3-1.1c-1.9,0-3.7,0.4-5.4,1.1s-3.2,1.7-4.4,3
					c-1.3,1.3-2.2,2.7-3,4.4c-0.7,1.7-1.1,3.5-1.1,5.4s0.4,3.7,1.1,5.4c0.7,1.7,1.7,3.1,3,4.4c1.3,1.2,2.7,2.2,4.4,2.9
					C188.7,95.8,190.5,96.1,192.5,96.1z"/>
				<path class="st4" d="M240,103l-6.4-14c-0.4,0-0.7,0.1-1.1,0.1s-0.7,0-1,0h-6.3V103h-6V61.9h6h6.4c0.7,0,1.6,0,2.6,0.1
					s2,0.2,3,0.4c1,0.2,2,0.6,3,1.2c1,0.6,1.9,1.3,2.6,2.3c0.8,1,1.4,2.3,1.9,3.9s0.7,3.5,0.7,5.7c0,1.8-0.1,3.4-0.4,4.7
					s-0.7,2.5-1.2,3.5s-1.1,1.8-1.8,2.4c-0.7,0.6-1.4,1.2-2.2,1.6l7.1,15.3H240z M229.1,83c1.1,0,2.3,0,3.5-0.1s2.3-0.3,3.2-0.7
					c1-0.4,1.8-1.2,2.4-2.2s0.9-2.5,0.9-4.5s-0.3-3.5-0.9-4.5s-1.4-1.8-2.4-2.2c-1-0.4-2-0.7-3.2-0.7c-1.2-0.1-2.3-0.1-3.4-0.1h-4
					v15.1h3.9V83z"/>
				<path class="st4" d="M272.8,61.8c2.8,0,5.5,0.5,8,1.6c2.5,1.1,4.7,2.5,6.5,4.4c1.9,1.9,3.3,4,4.4,6.5c1.1,2.5,1.6,5.2,1.6,8
					s-0.5,5.5-1.6,8c-1.1,2.5-2.5,4.7-4.4,6.5c-1.9,1.9-4,3.3-6.5,4.4c-2.5,1.1-5.2,1.6-8,1.6s-5.5-0.5-8-1.6s-4.7-2.5-6.5-4.4
					c-1.9-1.9-3.3-4-4.4-6.5s-1.6-5.2-1.6-8s0.5-5.5,1.6-8s2.6-4.7,4.4-6.5c1.9-1.9,4-3.3,6.5-4.4C267.3,62.3,269.9,61.8,272.8,61.8
					z M272.8,96.1c1.9,0,3.7-0.4,5.3-1.1c1.7-0.7,3.1-1.7,4.4-2.9s2.2-2.7,3-4.4c0.7-1.7,1.1-3.5,1.1-5.4s-0.4-3.7-1.1-5.4
					s-1.7-3.1-3-4.4c-1.3-1.3-2.7-2.2-4.4-3c-1.7-0.7-3.5-1.1-5.3-1.1c-1.9,0-3.7,0.4-5.4,1.1c-1.7,0.7-3.2,1.7-4.4,3
					c-1.3,1.3-2.2,2.7-3,4.4c-0.7,1.7-1.1,3.5-1.1,5.4s0.4,3.7,1.1,5.4s1.7,3.1,3,4.4c1.3,1.2,2.7,2.2,4.4,2.9
					C269,95.8,270.8,96.1,272.8,96.1z"/>
				<path class="st4" d="M323.3,87.8v-26h6v41.1l-24.4-25v25h-6V61.8L323.3,87.8z"/>
				<path class="st4" d="M346.5,67.9h-11.6v-6H364v6h-11.5V103h-6V67.9z"/>
				<path class="st4" d="M390.2,61.8c2.8,0,5.5,0.5,8,1.6c2.5,1.1,4.7,2.5,6.5,4.4c1.9,1.9,3.3,4,4.4,6.5c1.1,2.5,1.6,5.2,1.6,8
					s-0.5,5.5-1.6,8c-1.1,2.5-2.5,4.7-4.4,6.5c-1.9,1.9-4,3.3-6.5,4.4c-2.5,1.1-5.2,1.6-8,1.6s-5.5-0.5-8-1.6s-4.7-2.5-6.5-4.4
					c-1.9-1.9-3.3-4-4.4-6.5c-1.1-2.5-1.6-5.2-1.6-8s0.5-5.5,1.6-8c1.1-2.5,2.6-4.7,4.4-6.5c1.9-1.9,4-3.3,6.5-4.4
					C384.7,62.3,387.3,61.8,390.2,61.8z M390.2,96.1c1.9,0,3.7-0.4,5.3-1.1c1.7-0.7,3.1-1.7,4.4-2.9s2.2-2.7,3-4.4
					c0.7-1.7,1.1-3.5,1.1-5.4s-0.4-3.7-1.1-5.4s-1.7-3.1-3-4.4c-1.3-1.3-2.7-2.2-4.4-3c-1.7-0.7-3.5-1.1-5.3-1.1
					c-1.9,0-3.7,0.4-5.4,1.1c-1.7,0.7-3.2,1.7-4.4,3c-1.3,1.3-2.2,2.7-3,4.4c-0.7,1.7-1.1,3.5-1.1,5.4s0.4,3.7,1.1,5.4
					s1.7,3.1,3,4.4c1.3,1.2,2.7,2.2,4.4,2.9C386.4,95.8,388.2,96.1,390.2,96.1z"/>
			</g>
			<g>
				<path class="st5" d="M141.4,138.5c0,0.1,0,0.1-0.1,0.2s-0.1,0.1-0.2,0.1s-0.2,0.1-0.4,0.1s-0.4,0-0.6,0c-0.2,0-0.4,0-0.6,0
					c-0.2,0-0.3-0.1-0.4-0.1s-0.2-0.1-0.2-0.1s-0.1-0.1-0.1-0.2v-17.6c0-0.1,0-0.1,0.1-0.2c0-0.1,0.1-0.1,0.2-0.1
					c0.1,0,0.2-0.1,0.4-0.1s0.3,0,0.6,0c0.2,0,0.4,0,0.6,0c0.2,0,0.3,0.1,0.4,0.1c0.1,0,0.2,0.1,0.2,0.1s0.1,0.1,0.1,0.2V138.5z"/>
				<path class="st5" d="M156.5,137.9c0,0.2,0,0.3,0,0.4c0,0.1-0.1,0.2-0.1,0.3s-0.1,0.1-0.2,0.2c-0.1,0-0.1,0.1-0.2,0.1h-8.8
					c-0.2,0-0.4-0.1-0.6-0.2c-0.2-0.1-0.3-0.4-0.3-0.8v-16.3c0-0.4,0.1-0.6,0.3-0.8s0.4-0.2,0.6-0.2h8.7c0.1,0,0.1,0,0.2,0.1
					c0.1,0,0.1,0.1,0.1,0.2c0,0.1,0.1,0.2,0.1,0.3s0,0.3,0,0.5s0,0.3,0,0.4c0,0.1-0.1,0.2-0.1,0.3s-0.1,0.1-0.1,0.2
					c-0.1,0-0.1,0.1-0.2,0.1h-7.2v5.7h6.1c0.1,0,0.1,0,0.2,0.1c0.1,0,0.1,0.1,0.2,0.2c0,0.1,0.1,0.2,0.1,0.3s0,0.3,0,0.5
					s0,0.3,0,0.4c0,0.1,0,0.2-0.1,0.3c0,0.1-0.1,0.1-0.2,0.2c-0.1,0-0.1,0-0.2,0h-6.1v6.6h7.3c0.1,0,0.1,0,0.2,0.1
					c0.1,0,0.1,0.1,0.2,0.2c0,0.1,0.1,0.2,0.1,0.3C156.5,137.5,156.5,137.7,156.5,137.9z"/>
				<path class="st5" d="M170.6,137.9c0,0.2,0,0.3,0,0.4c0,0.1-0.1,0.2-0.1,0.3s-0.1,0.1-0.2,0.2c-0.1,0-0.1,0.1-0.2,0.1h-8.8
					c-0.2,0-0.4-0.1-0.6-0.2c-0.2-0.1-0.3-0.4-0.3-0.8v-16.3c0-0.4,0.1-0.6,0.3-0.8s0.4-0.2,0.6-0.2h8.7c0.1,0,0.1,0,0.2,0.1
					c0.1,0,0.1,0.1,0.1,0.2c0,0.1,0.1,0.2,0.1,0.3s0,0.3,0,0.5s0,0.3,0,0.4c0,0.1-0.1,0.2-0.1,0.3s-0.1,0.1-0.1,0.2
					c-0.1,0-0.1,0.1-0.2,0.1h-7.2v5.7h6.1c0.1,0,0.1,0,0.2,0.1c0.1,0,0.1,0.1,0.2,0.2c0,0.1,0.1,0.2,0.1,0.3s0,0.3,0,0.5
					s0,0.3,0,0.4c0,0.1,0,0.2-0.1,0.3c0,0.1-0.1,0.1-0.2,0.2c-0.1,0-0.1,0-0.2,0h-6.1v6.6h7.3c0.1,0,0.1,0,0.2,0.1
					c0.1,0,0.1,0.1,0.2,0.2c0,0.1,0.1,0.2,0.1,0.3C170.6,137.5,170.6,137.7,170.6,137.9z"/>
				<path class="st5" d="M184.8,137.9c0,0.2,0,0.3,0,0.4c0,0.1-0.1,0.2-0.1,0.3s-0.1,0.1-0.2,0.2c-0.1,0-0.1,0.1-0.2,0.1h-8.8
					c-0.2,0-0.4-0.1-0.6-0.2c-0.2-0.1-0.3-0.4-0.3-0.8v-16.3c0-0.4,0.1-0.6,0.3-0.8s0.4-0.2,0.6-0.2h8.7c0.1,0,0.1,0,0.2,0.1
					c0.1,0,0.1,0.1,0.1,0.2c0,0.1,0.1,0.2,0.1,0.3s0,0.3,0,0.5s0,0.3,0,0.4c0,0.1-0.1,0.2-0.1,0.3s-0.1,0.1-0.1,0.2
					c-0.1,0-0.1,0.1-0.2,0.1H177v5.7h6.1c0.1,0,0.1,0,0.2,0.1c0.1,0,0.1,0.1,0.2,0.2c0,0.1,0.1,0.2,0.1,0.3s0,0.3,0,0.5s0,0.3,0,0.4
					c0,0.1,0,0.2-0.1,0.3c0,0.1-0.1,0.1-0.2,0.2c-0.1,0-0.1,0-0.2,0H177v6.6h7.3c0.1,0,0.1,0,0.2,0.1c0.1,0,0.1,0.1,0.2,0.2
					c0,0.1,0.1,0.2,0.1,0.3C184.8,137.5,184.8,137.7,184.8,137.9z"/>
				<path class="st5" d="M205.2,133.8c0,0.9-0.2,1.6-0.5,2.3s-0.8,1.2-1.3,1.7c-0.6,0.5-1.2,0.8-2,1.1c-0.8,0.2-1.6,0.4-2.5,0.4
					c-0.6,0-1.2-0.1-1.7-0.2c-0.5-0.1-1-0.2-1.4-0.4s-0.8-0.3-1-0.5c-0.3-0.2-0.5-0.3-0.6-0.4s-0.2-0.3-0.2-0.4
					c-0.1-0.2-0.1-0.4-0.1-0.7c0-0.2,0-0.4,0-0.5s0-0.2,0.1-0.3c0-0.1,0.1-0.1,0.1-0.2c0.1,0,0.1,0,0.2,0s0.3,0.1,0.6,0.2
					c0.2,0.2,0.5,0.3,0.9,0.5s0.8,0.4,1.4,0.5c0.5,0.2,1.1,0.2,1.8,0.2c0.5,0,1-0.1,1.5-0.2c0.4-0.1,0.8-0.3,1.1-0.6
					c0.3-0.3,0.6-0.6,0.7-1c0.2-0.4,0.3-0.8,0.3-1.3s-0.1-1-0.4-1.3s-0.5-0.7-0.9-1s-0.8-0.5-1.3-0.8c-0.5-0.2-1-0.5-1.5-0.7
					s-1-0.5-1.5-0.8s-0.9-0.6-1.3-1s-0.7-0.9-0.9-1.4c-0.2-0.5-0.4-1.2-0.4-1.9c0-0.8,0.1-1.4,0.4-2s0.7-1.1,1.2-1.5
					s1.1-0.7,1.8-0.9c0.7-0.2,1.4-0.3,2.2-0.3c0.4,0,0.8,0,1.2,0.1c0.4,0.1,0.8,0.2,1.2,0.3c0.4,0.1,0.7,0.3,1,0.4
					c0.3,0.1,0.5,0.3,0.6,0.4s0.1,0.2,0.2,0.2c0,0.1,0.1,0.1,0.1,0.2c0,0.1,0,0.2,0,0.3s0,0.3,0,0.4c0,0.2,0,0.3,0,0.5
					c0,0.1,0,0.2-0.1,0.3s-0.1,0.2-0.1,0.2c-0.1,0-0.1,0.1-0.2,0.1s-0.3-0.1-0.5-0.2c-0.2-0.1-0.5-0.3-0.8-0.4
					c-0.3-0.2-0.7-0.3-1.1-0.5c-0.4-0.1-0.9-0.2-1.5-0.2c-0.5,0-1,0.1-1.3,0.2c-0.4,0.1-0.7,0.3-0.9,0.5s-0.4,0.5-0.6,0.8
					c-0.1,0.3-0.2,0.6-0.2,1c0,0.5,0.1,0.9,0.4,1.3c0.2,0.4,0.5,0.7,0.9,1s0.8,0.5,1.3,0.8c0.5,0.2,1,0.5,1.5,0.7s1,0.5,1.5,0.8
					s0.9,0.6,1.3,1s0.7,0.9,0.9,1.4C205,132.4,205.2,133,205.2,133.8z"/>
				<path class="st5" d="M219.9,121.6c0,0.2,0,0.3,0,0.5c0,0.1,0,0.2-0.1,0.3c0,0.1-0.1,0.1-0.2,0.2c-0.1,0-0.1,0.1-0.2,0.1h-5.2
					v15.9c0,0.1,0,0.1-0.1,0.2c0,0.1-0.1,0.1-0.2,0.1s-0.2,0.1-0.4,0.1c-0.2,0-0.4,0-0.6,0s-0.4,0-0.6,0s-0.3-0.1-0.4-0.1
					s-0.2-0.1-0.2-0.1c0-0.1-0.1-0.1-0.1-0.2v-15.9h-5.2c-0.1,0-0.1,0-0.2-0.1c-0.1,0-0.1-0.1-0.1-0.2s-0.1-0.2-0.1-0.3s0-0.3,0-0.5
					s0-0.3,0-0.5c0-0.1,0.1-0.2,0.1-0.3s0.1-0.1,0.1-0.2c0.1,0,0.1-0.1,0.2-0.1h12.7c0.1,0,0.1,0,0.2,0.1c0.1,0,0.1,0.1,0.2,0.2
					c0,0.1,0.1,0.2,0.1,0.3C219.9,121.3,219.9,121.4,219.9,121.6z"/>
				<path class="st5" d="M236.4,132.1c0,1.1-0.2,2.1-0.5,3s-0.8,1.6-1.4,2.2c-0.6,0.6-1.3,1.1-2.2,1.4s-1.9,0.5-3,0.5
					c-1,0-1.9-0.1-2.8-0.4c-0.8-0.3-1.5-0.7-2.1-1.3s-1.1-1.3-1.4-2.1c-0.3-0.9-0.5-1.9-0.5-3V121c0-0.1,0-0.1,0.1-0.2
					s0.1-0.1,0.2-0.1s0.2-0.1,0.4-0.1c0.2,0,0.3,0,0.6,0c0.2,0,0.4,0,0.6,0s0.3,0.1,0.4,0.1s0.2,0.1,0.2,0.1c0,0.1,0.1,0.1,0.1,0.2
					v11.1c0,0.8,0.1,1.6,0.3,2.2c0.2,0.6,0.5,1.2,0.9,1.6c0.4,0.4,0.9,0.7,1.4,0.9c0.6,0.2,1.2,0.3,1.9,0.3c0.7,0,1.3-0.1,1.9-0.3
					s1-0.5,1.4-0.9s0.7-0.9,0.9-1.5c0.2-0.6,0.3-1.3,0.3-2.2V121c0-0.1,0-0.1,0.1-0.2s0.1-0.1,0.2-0.1s0.2-0.1,0.4-0.1
					c0.2,0,0.4,0,0.6,0s0.4,0,0.6,0s0.3,0.1,0.4,0.1s0.2,0.1,0.2,0.1c0,0.1,0.1,0.1,0.1,0.2v11.1H236.4z"/>
				<path class="st5" d="M255.3,129.5c0,1.6-0.2,3-0.6,4.2s-1,2.2-1.8,2.9c-0.8,0.8-1.7,1.4-2.9,1.7c-1.1,0.4-2.5,0.6-4,0.6h-3.9
					c-0.2,0-0.4-0.1-0.6-0.2c-0.2-0.1-0.3-0.4-0.3-0.8v-16.3c0-0.4,0.1-0.6,0.3-0.8s0.4-0.2,0.6-0.2h4.1c1.6,0,2.9,0.2,4,0.6
					c1.1,0.4,2,1,2.8,1.8c0.7,0.8,1.3,1.7,1.7,2.8C255.1,126.9,255.3,128.1,255.3,129.5z M252.7,129.6c0-1-0.1-1.9-0.4-2.8
					s-0.6-1.6-1.2-2.2c-0.5-0.6-1.2-1.1-2-1.5c-0.8-0.3-1.8-0.5-3.1-0.5h-2.5v14.3h2.5c1.2,0,2.2-0.1,3-0.4c0.8-0.3,1.5-0.7,2-1.3
					s0.9-1.4,1.2-2.3C252.6,131.9,252.7,130.8,252.7,129.6z"/>
				<path class="st5" d="M269.2,137.9c0,0.2,0,0.3,0,0.4c0,0.1-0.1,0.2-0.1,0.3s-0.1,0.1-0.2,0.2c-0.1,0-0.1,0.1-0.2,0.1h-8.8
					c-0.2,0-0.4-0.1-0.6-0.2c-0.2-0.1-0.3-0.4-0.3-0.8v-16.3c0-0.4,0.1-0.6,0.3-0.8c0.2-0.2,0.4-0.2,0.6-0.2h8.7
					c0.1,0,0.1,0,0.2,0.1c0.1,0,0.1,0.1,0.1,0.2c0,0.1,0.1,0.2,0.1,0.3s0,0.3,0,0.5s0,0.3,0,0.4c0,0.1-0.1,0.2-0.1,0.3
					s-0.1,0.1-0.1,0.2c-0.1,0-0.1,0.1-0.2,0.1h-7.2v5.7h6.1c0.1,0,0.1,0,0.2,0.1c0.1,0,0.1,0.1,0.2,0.2c0,0.1,0.1,0.2,0.1,0.3
					s0,0.3,0,0.5s0,0.3,0,0.4c0,0.1,0,0.2-0.1,0.3c0,0.1-0.1,0.1-0.2,0.2c-0.1,0-0.1,0-0.2,0h-6.1v6.6h7.3c0.1,0,0.1,0,0.2,0.1
					c0.1,0,0.1,0.1,0.2,0.2c0,0.1,0.1,0.2,0.1,0.3C269.2,137.5,269.2,137.7,269.2,137.9z"/>
				<path class="st5" d="M287,137.9c0,0.2,0,0.3-0.1,0.5c-0.1,0.1-0.1,0.2-0.2,0.3c-0.1,0.1-0.2,0.1-0.3,0.2c-0.1,0-0.3,0.1-0.4,0.1
					h-0.8c-0.3,0-0.5,0-0.7-0.1s-0.4-0.1-0.5-0.3c-0.1-0.2-0.3-0.3-0.5-0.6c-0.2-0.2-0.4-0.5-0.5-0.9l-5.6-10.4
					c-0.3-0.5-0.6-1.1-0.9-1.7c-0.3-0.6-0.6-1.2-0.8-1.7l0,0c0,0.7,0,1.4,0,2.1c0,0.7,0,1.4,0,2.1v11.1c0,0.1,0,0.1-0.1,0.2
					c-0.1,0.1-0.1,0.1-0.2,0.1c-0.1,0-0.2,0.1-0.4,0.1c-0.2,0-0.4,0-0.6,0s-0.4,0-0.6,0s-0.3-0.1-0.4-0.1c-0.1,0-0.2-0.1-0.2-0.1
					s-0.1-0.1-0.1-0.2v-16.9c0-0.4,0.1-0.6,0.3-0.8s0.4-0.2,0.7-0.2h1.2c0.3,0,0.5,0,0.7,0.1c0.2,0,0.4,0.1,0.5,0.2
					c0.2,0.1,0.3,0.3,0.4,0.5c0.1,0.2,0.3,0.4,0.4,0.7l4.3,8c0.3,0.5,0.5,1,0.8,1.4c0.2,0.5,0.5,0.9,0.7,1.4s0.5,0.9,0.7,1.3
					c0.2,0.4,0.4,0.9,0.7,1.3l0,0c0-0.7,0-1.5,0-2.3s0-1.6,0-2.3v-9.9c0-0.1,0-0.1,0.1-0.2c0.1-0.1,0.1-0.1,0.2-0.1
					c0.1,0,0.2-0.1,0.4-0.1s0.4,0,0.6,0s0.4,0,0.6,0s0.3,0,0.4,0.1c0.1,0,0.2,0.1,0.2,0.1s0.1,0.1,0.1,0.2v16.8H287z"/>
				<path class="st5" d="M303.4,121.6c0,0.2,0,0.3,0,0.5c0,0.1,0,0.2-0.1,0.3c0,0.1-0.1,0.1-0.2,0.2c-0.1,0-0.1,0.1-0.2,0.1h-5.2
					v15.9c0,0.1,0,0.1-0.1,0.2c0,0.1-0.1,0.1-0.2,0.1c-0.1,0-0.2,0.1-0.4,0.1s-0.4,0-0.6,0s-0.4,0-0.6,0s-0.3-0.1-0.4-0.1
					c-0.1,0-0.2-0.1-0.2-0.1c0-0.1-0.1-0.1-0.1-0.2v-15.9h-4.9c-0.1,0-0.1,0-0.2-0.1c-0.1,0-0.1-0.1-0.1-0.2s-0.1-0.2-0.1-0.3
					s0-0.3,0-0.5s0-0.3,0-0.5c0-0.1,0.1-0.2,0.1-0.3s0.1-0.1,0.1-0.2c0.1,0,0.1-0.1,0.2-0.1h12.7c0.1,0,0.1,0,0.2,0.1
					c0.1,0,0.1,0.1,0.2,0.2c0,0.1,0.1,0.2,0.1,0.3C303.4,121.3,303.4,121.4,303.4,121.6z"/>
				<path class="st5" d="M324.7,133.6c0,0.6-0.1,1.1-0.2,1.6c-0.1,0.5-0.4,0.9-0.6,1.3c-0.3,0.4-0.6,0.7-1,1
					c-0.4,0.3-0.8,0.5-1.3,0.7s-1,0.3-1.5,0.4c-0.5,0.1-1.1,0.1-1.8,0.1h-4.8c-0.2,0-0.4-0.1-0.6-0.2c-0.2-0.1-0.3-0.4-0.3-0.8
					v-16.3c0-0.4,0.1-0.6,0.3-0.8c0.2-0.2,0.4-0.2,0.6-0.2h4.2c1.1,0,2,0.1,2.7,0.3s1.3,0.5,1.7,0.9c0.5,0.4,0.8,0.9,1.1,1.5
					c0.2,0.6,0.4,1.2,0.4,2c0,0.4-0.1,0.8-0.2,1.2c-0.1,0.4-0.3,0.8-0.5,1.1s-0.5,0.6-0.8,0.9c-0.3,0.3-0.7,0.5-1.1,0.7
					c0.5,0.1,1,0.3,1.4,0.5c0.4,0.3,0.8,0.6,1.1,1c0.3,0.4,0.6,0.8,0.8,1.4C324.6,132.5,324.7,133,324.7,133.6z M321,125.4
					c0-0.4-0.1-0.8-0.2-1.2c-0.1-0.4-0.3-0.7-0.6-0.9c-0.3-0.3-0.6-0.4-1-0.6c-0.4-0.1-1-0.2-1.7-0.2H315v5.9h2.8
					c0.6,0,1.1-0.1,1.5-0.2c0.4-0.1,0.7-0.4,1-0.7s0.4-0.6,0.6-1C320.9,126.2,321,125.8,321,125.4z M322.1,133.8
					c0-0.5-0.1-1-0.3-1.4s-0.4-0.8-0.8-1c-0.3-0.3-0.8-0.5-1.3-0.6s-1.1-0.2-1.9-0.2h-2.9v6.5h3.5c0.6,0,1-0.1,1.5-0.2
					c0.4-0.1,0.8-0.3,1.1-0.6c0.3-0.3,0.6-0.6,0.7-1C322,134.7,322.1,134.3,322.1,133.8z"/>
				<path class="st5" d="M340.6,138.5c0,0.1,0,0.1,0,0.2s-0.1,0.1-0.2,0.1c-0.1,0-0.2,0.1-0.4,0.1c-0.2,0-0.4,0-0.7,0
					c-0.2,0-0.4,0-0.6,0s-0.3,0-0.4-0.1c-0.1,0-0.2-0.1-0.2-0.2c-0.1-0.1-0.1-0.2-0.1-0.3l-1.7-4.3c-0.2-0.5-0.4-0.9-0.6-1.4
					c-0.2-0.4-0.5-0.8-0.8-1.1s-0.6-0.5-1-0.7c-0.4-0.2-0.9-0.2-1.4-0.2h-1.6v7.8c0,0.1,0,0.1-0.1,0.2c0,0.1-0.1,0.1-0.2,0.1
					c-0.1,0-0.2,0.1-0.4,0.1c-0.2,0-0.4,0-0.6,0s-0.4,0-0.6,0s-0.3-0.1-0.4-0.1c-0.1,0-0.2-0.1-0.2-0.1s-0.1-0.1-0.1-0.2v-17
					c0-0.4,0.1-0.6,0.3-0.8c0.2-0.2,0.4-0.2,0.6-0.2h3.9c0.5,0,0.8,0,1.2,0c0.3,0,0.6,0,0.8,0.1c0.7,0.1,1.3,0.3,1.9,0.6
					c0.5,0.3,1,0.6,1.4,1c0.4,0.4,0.6,0.9,0.8,1.4s0.3,1.1,0.3,1.7c0,0.6-0.1,1.2-0.2,1.6c-0.1,0.4-0.4,0.9-0.7,1.3
					c-0.3,0.4-0.7,0.7-1.1,1c-0.4,0.3-0.9,0.5-1.5,0.7c0.3,0.1,0.6,0.3,0.8,0.5c0.2,0.2,0.5,0.4,0.7,0.7s0.4,0.6,0.6,1
					s0.4,0.8,0.6,1.2l1.6,4c0.1,0.3,0.2,0.6,0.3,0.7C340.6,138.3,340.6,138.5,340.6,138.5z M336.9,125.7c0-0.7-0.2-1.3-0.5-1.8
					s-0.9-0.9-1.6-1.1c-0.2-0.1-0.5-0.1-0.8-0.1s-0.7,0-1.2,0h-2.1v6.2h2.4c0.6,0,1.2-0.1,1.7-0.2c0.5-0.2,0.9-0.4,1.2-0.7
					c0.3-0.3,0.5-0.6,0.7-1C336.8,126.5,336.9,126.1,336.9,125.7z"/>
				<path class="st5" d="M357.8,138c0.1,0.2,0.1,0.4,0.1,0.5s0,0.2-0.1,0.3c-0.1,0.1-0.2,0.1-0.4,0.1c-0.2,0-0.4,0-0.7,0
					c-0.3,0-0.5,0-0.7,0s-0.3,0-0.4-0.1c-0.1-0.1-0.2-0.1-0.2-0.1c0-0.1-0.1-0.1-0.1-0.2l-1.6-4.5h-7.5l-1.5,4.4
					c0,0.1-0.1,0.2-0.1,0.2c0,0.1-0.1,0.1-0.2,0.2c-0.1,0-0.2,0.1-0.4,0.1c-0.2,0-0.4,0-0.6,0c-0.3,0-0.5,0-0.7,0s-0.3-0.1-0.4-0.1
					c-0.1-0.1-0.1-0.2-0.1-0.3s0-0.3,0.1-0.5l6.1-17c0-0.1,0.1-0.2,0.1-0.3c0.1-0.1,0.2-0.1,0.3-0.2c0.1,0,0.3-0.1,0.5-0.1
					s0.4,0,0.7,0c0.3,0,0.6,0,0.8,0s0.4,0,0.5,0.1c0.1,0,0.2,0.1,0.3,0.2c0.1,0.1,0.1,0.2,0.2,0.3L357.8,138z M349.9,123L349.9,123
					l-3.2,9.1h6.4L349.9,123z"/>
				<path class="st5" d="M374.7,137.9c0,0.2,0,0.3-0.1,0.5c-0.1,0.1-0.1,0.2-0.2,0.3c-0.1,0.1-0.2,0.1-0.3,0.2
					c-0.1,0-0.3,0.1-0.4,0.1h-0.8c-0.3,0-0.5,0-0.7-0.1s-0.4-0.1-0.5-0.3c-0.1-0.2-0.3-0.3-0.5-0.6c-0.2-0.2-0.4-0.5-0.5-0.9
					l-5.6-10.4c-0.3-0.5-0.6-1.1-0.9-1.7c-0.3-0.6-0.6-1.2-0.8-1.7l0,0c0,0.7,0,1.4,0,2.1c0,0.7,0,1.4,0,2.1v11.1
					c0,0.1,0,0.1-0.1,0.2c-0.1,0.1-0.1,0.1-0.2,0.1c-0.1,0-0.2,0.1-0.4,0.1c-0.2,0-0.4,0-0.6,0s-0.4,0-0.6,0s-0.3-0.1-0.4-0.1
					c-0.1,0-0.2-0.1-0.2-0.1s-0.1-0.1-0.1-0.2v-16.9c0-0.4,0.1-0.6,0.3-0.8s0.4-0.2,0.7-0.2h1.2c0.3,0,0.5,0,0.7,0.1
					c0.2,0,0.4,0.1,0.5,0.2c0.2,0.1,0.3,0.3,0.4,0.5c0.1,0.2,0.3,0.4,0.4,0.7l4.3,8c0.3,0.5,0.5,1,0.8,1.4c0.2,0.5,0.5,0.9,0.7,1.4
					s0.5,0.9,0.7,1.3c0.2,0.4,0.4,0.9,0.7,1.3l0,0c0-0.7,0-1.5,0-2.3s0-1.6,0-2.3v-9.9c0-0.1,0-0.1,0.1-0.2c0.1-0.1,0.1-0.1,0.2-0.1
					c0.1,0,0.2-0.1,0.4-0.1s0.4,0,0.6,0s0.4,0,0.6,0s0.3,0,0.4,0.1c0.1,0,0.2,0.1,0.2,0.1s0.1,0.1,0.1,0.2v16.8H374.7z"/>
				<path class="st5" d="M391.8,136.3c0,0.2,0,0.3,0,0.4c0,0.1,0,0.2,0,0.3s-0.1,0.2-0.1,0.2c0,0.1-0.1,0.1-0.2,0.2
					c-0.1,0.1-0.3,0.2-0.6,0.4c-0.3,0.2-0.7,0.4-1.1,0.6c-0.4,0.2-1,0.3-1.5,0.5c-0.6,0.1-1.2,0.2-1.9,0.2c-1.2,0-2.3-0.2-3.2-0.6
					s-1.8-1-2.4-1.8c-0.7-0.8-1.2-1.7-1.6-2.9c-0.4-1.2-0.5-2.4-0.5-3.9s0.2-2.9,0.6-4.1c0.4-1.2,0.9-2.2,1.7-3
					c0.7-0.8,1.6-1.5,2.5-1.9c1-0.4,2.1-0.7,3.3-0.7c0.5,0,1,0,1.5,0.1s1,0.2,1.4,0.4c0.4,0.2,0.8,0.3,1.1,0.5
					c0.3,0.2,0.6,0.4,0.7,0.5c0.1,0.1,0.2,0.2,0.2,0.3s0.1,0.1,0.1,0.2s0,0.2,0.1,0.3c0,0.1,0,0.3,0,0.4c0,0.2,0,0.3,0,0.5
					c0,0.1,0,0.2-0.1,0.3c0,0.1-0.1,0.2-0.1,0.2c-0.1,0-0.1,0.1-0.2,0.1c-0.1,0-0.3-0.1-0.6-0.3c-0.2-0.2-0.5-0.4-0.9-0.6
					c-0.4-0.2-0.8-0.4-1.4-0.6c-0.5-0.2-1.2-0.3-1.9-0.3c-0.8,0-1.6,0.2-2.2,0.5c-0.7,0.3-1.2,0.8-1.7,1.4c-0.5,0.6-0.8,1.4-1.1,2.3
					c-0.3,0.9-0.4,2-0.4,3.1c0,1.2,0.1,2.2,0.4,3.1c0.3,0.9,0.6,1.6,1.1,2.2c0.5,0.6,1,1.1,1.7,1.4c0.7,0.3,1.5,0.5,2.3,0.5
					c0.7,0,1.4-0.1,1.9-0.3s1-0.4,1.4-0.6c0.4-0.2,0.7-0.4,0.9-0.6c0.2-0.2,0.4-0.3,0.6-0.3c0.1,0,0.1,0,0.2,0c0,0,0.1,0.1,0.1,0.2
					c0,0.1,0,0.2,0.1,0.3C391.8,135.9,391.8,136.1,391.8,136.3z"/>
				<path class="st5" d="M408.3,138.5c0,0.1,0,0.1-0.1,0.2c-0.1,0.1-0.1,0.1-0.2,0.1c-0.1,0-0.2,0.1-0.4,0.1s-0.3,0-0.6,0
					c-0.2,0-0.4,0-0.6,0s-0.3-0.1-0.4-0.1c-0.1,0-0.2-0.1-0.2-0.1c0-0.1-0.1-0.1-0.1-0.2v-8.1h-8.3v8.1c0,0.1,0,0.1-0.1,0.2
					c-0.1,0.1-0.1,0.1-0.2,0.1c-0.1,0-0.2,0.1-0.4,0.1s-0.4,0-0.6,0s-0.4,0-0.6,0s-0.3-0.1-0.4-0.1c-0.1,0-0.2-0.1-0.2-0.1
					s-0.1-0.1-0.1-0.2v-17.6c0-0.1,0-0.1,0.1-0.2c0.1-0.1,0.1-0.1,0.2-0.1c0.1,0,0.2-0.1,0.4-0.1c0.2,0,0.4,0,0.6,0s0.4,0,0.6,0
					s0.3,0.1,0.4,0.1c0.1,0,0.2,0.1,0.2,0.1s0.1,0.1,0.1,0.2v7.3h8.3v-7.3c0-0.1,0-0.1,0.1-0.2c0-0.1,0.1-0.1,0.2-0.1
					c0.1,0,0.2-0.1,0.4-0.1c0.2,0,0.3,0,0.6,0c0.2,0,0.4,0,0.6,0s0.3,0.1,0.4,0.1c0.1,0,0.2,0.1,0.2,0.1s0.1,0.1,0.1,0.2V138.5z"/>
			</g>
		</g>
		<g>
			<path class="st3" d="M85.9,114.2H37c-1.3,0-2.3,1-2.3,2.3v1.4c0,1.3,1,2.3,2.3,2.3h21.4v21.9c0,1.4,1.1,2.5,2.5,2.5h1
				c1.4,0,2.5-1.1,2.5-2.5v-21.8h21.4c1.3,0,2.3-1,2.3-2.3v-1.4C88.3,115.3,87.2,114.2,85.9,114.2z M61.5,143.3
				c-0.6,0-1.1-0.5-1.1-1.1s0.5-1.1,1.1-1.1s1.1,0.5,1.1,1.1C62.6,142.9,62.1,143.3,61.5,143.3z M38.3,118.4c-0.6,0-1.1-0.5-1.1-1.1
				s0.5-1.1,1.1-1.1s1.1,0.5,1.1,1.1S38.9,118.4,38.3,118.4z M85.2,118.4c-0.6,0-1.1-0.5-1.1-1.1s0.5-1.1,1.1-1.1s1.1,0.5,1.1,1.1
				S85.8,118.4,85.2,118.4z"/>
			<polygon class="st3" points="2.3,72.5 14.7,84.8 51,84.8 62.6,72.2 62.6,49.1 73.5,38.1 73.5,14.6 71.5,14.6 71.5,36.8 
				62.6,45.7 62.6,13.8 51.1,2.4 49.5,4 60.2,14.7 60.2,57 51.1,47.8 51.1,25.8 48.6,25.8 48.6,35.4 39.4,25.3 38,26.7 48.7,39.4 
				48.7,49.3 60,60.6 60,71.1 55.4,76.1 39.2,59.9 37.7,61.5 47,70.8 38.3,70.8 27.6,60.1 27.6,48.9 25.2,48.9 25.2,61.2 37.2,73.6 
				49.9,73.6 53.9,77.6 49.7,82.3 38.9,82.3 16.4,59.8 16.4,47.6 14.3,47.6 14.3,60.9 36,82.7 27.3,82.7 4.1,59.5 2.3,61.3 
				23.8,82.8 16.2,82.8 3.8,70.4 			"/>
			<circle class="st3" cx="3.2" cy="71.6" r="3.1"/>
			<circle class="st3" cx="3.2" cy="60.4" r="3.1"/>
			<circle class="st3" cx="15.4" cy="48.6" r="3.1"/>
			<circle class="st3" cx="26.5" cy="48.6" r="3.1"/>
			<circle class="st3" cx="37.9" cy="60.4" r="3.1"/>
			<circle class="st3" cx="38.3" cy="26" r="3.1"/>
			<circle class="st3" cx="49.8" cy="26" r="3.1"/>
			<circle class="st3" cx="50.7" cy="3.2" r="3.1"/>
			<circle class="st3" cx="72.8" cy="14.2" r="3.1"/>
			<circle class="st3" cx="84.5" cy="26" r="3.1"/>
			<circle class="st3" cx="84.5" cy="61.2" r="3.1"/>
			<circle class="st3" cx="27.6" cy="95.5" r="3.1"/>
			<circle class="st3" cx="84.5" cy="71.6" r="3.1"/>
			<circle class="st3" cx="95.6" cy="48.6" r="3.1"/>
			<circle class="st3" cx="107.2" cy="48.5" r="3.1"/>
			<circle class="st3" cx="119" cy="60.4" r="3.1"/>
			<circle class="st3" cx="15.6" cy="117.4" r="3.1"/>
			<polygon class="st3" points="14.1,117 25.8,105.6 48.4,105.6 83.9,70.1 85.6,71.8 75.6,81.8 84.5,81.8 94.7,71.7 94.7,48.6 
				97.1,48.6 97.1,72.7 88,81.7 95.5,81.7 105.8,71.4 105.8,49.6 108.2,49.6 108.2,69.4 118.2,59.4 119.8,61 96.4,84.4 73.5,84.4 
				49.9,108.1 27.6,108.1 16.9,118.4 			"/>
			<path class="st3" d="M27.8,94.1h21l22.4-22.8V48.6L83.8,36V26h1.9v11.5L73.6,49.6v10.1h10.5v2.5l-10.6,0.1v10.8L50.9,95.7
				c-0.5,0.5-1.1,0.7-1.7,0.7H27.6L27.8,94.1z"/>
			<polygon class="st3" points="72.8,105.6 84.4,94 95.6,94 118.5,71.1 120.1,72.8 96.5,96.4 85.2,96.4 74.6,107 			"/>
			<path class="st3" d="M84.5,105.5h13.2l10,10.6l-2.1,1.6l-8.9-9.8H84.5C84.5,107.8,85.3,105.5,84.5,105.5z"/>
			<circle class="st3" cx="61.5" cy="106.9" r="3.1"/>
			<circle class="st3" cx="73.5" cy="94.5" r="3.1"/>
			<circle class="st3" cx="72.8" cy="106.9" r="3.1"/>
			<circle class="st3" cx="119" cy="71.6" r="3.1"/>
			<circle class="st3" cx="107.4" cy="117.3" r="3.1"/>
			<circle class="st3" cx="84.5" cy="106.9" r="3.1"/>
			<polygon class="st3" points="59.9,106.3 72.7,93.6 74.5,95.4 62.1,107.9 			"/>
		</g>
	</g>
</g>
</svg>
