<svg id="Blue" xmlns="http://www.w3.org/2000/svg" viewBox="0 0 411.75 144.62"><defs><style>.cls-1,.cls-2,.cls-3{fill:#00639c;}.cls-2,.cls-3{stroke:#00639d;stroke-miterlimit:10;}.cls-3{stroke-width:0.25px;}</style></defs><title>IEEELogo_Update_18-19_Vector_Blue</title><path class="cls-1" d="M139.21,19.7h4V37.29a6,6,0,0,0,.22,1.18,5.42,5.42,0,0,0,.87,1.83,5.62,5.62,0,0,0,5,2.4,5.84,5.84,0,0,0,3.09-.72,6,6,0,0,0,1.83-1.68,5.43,5.43,0,0,0,.87-1.81,5.87,5.87,0,0,0,.22-1.17V19.7h4V37.29a9.27,9.27,0,0,1-.1,1,9.76,9.76,0,0,1-.48,1.8,14.45,14.45,0,0,1-1,2.2,8.25,8.25,0,0,1-1.78,2.14A9.28,9.28,0,0,1,153.12,46a10.77,10.77,0,0,1-3.9.63,11.42,11.42,0,0,1-3.92-.6,8.87,8.87,0,0,1-2.74-1.52,8,8,0,0,1-1.77-2.06,11,11,0,0,1-1-2.16,10,10,0,0,1-.45-1.85,8.84,8.84,0,0,1-.11-1.18Z" transform="translate(-1.07 -1.17)"/><path class="cls-1" d="M178.93,36.74v-17h4v27l-16-16.39V46.66h-4v-27Z" transform="translate(-1.07 -1.17)"/><path class="cls-1" d="M190.86,46.66h-4v-27h4Z" transform="translate(-1.07 -1.17)"/><path class="cls-1" d="M206.7,46.66l-11.85-27h4.87l7,15.92,7-15.92h4.87Z" transform="translate(-1.07 -1.17)"/><path class="cls-1" d="M239.12,19.7v3.74H226.51v8.14h10.18v3.74H226.51v7.56h12.61v3.78H222.55v-27Z" transform="translate(-1.07 -1.17)"/><path class="cls-1" d="M256.79,46.66l-4.18-9.16a5.74,5.74,0,0,1-.71,0h-4.82v9.12h-4v-27h8.11c.48,0,1.05,0,1.69.05a11.46,11.46,0,0,1,2,.29,7.57,7.57,0,0,1,2,.78,5.79,5.79,0,0,1,1.73,1.53,7.4,7.4,0,0,1,1.22,2.52,13.66,13.66,0,0,1,.45,3.77,14.21,14.21,0,0,1-.29,3.1,7.91,7.91,0,0,1-.82,2.28,6.57,6.57,0,0,1-1.2,1.58,6.09,6.09,0,0,1-1.43,1l4.65,10ZM249.7,33.58c.73,0,1.49,0,2.27,0a5.37,5.37,0,0,0,2.13-.47,3.55,3.55,0,0,0,1.56-1.45,5.86,5.86,0,0,0,.62-3,5.81,5.81,0,0,0-.62-3,3.57,3.57,0,0,0-1.56-1.46,5.68,5.68,0,0,0-2.11-.49c-.77,0-1.53-.05-2.25-.05h-2.66v9.92Z" transform="translate(-1.07 -1.17)"/><path class="cls-1" d="M273.91,19.73a11.11,11.11,0,0,1,2.58.27,12.94,12.94,0,0,1,1.92.6,11.91,11.91,0,0,1,1.64.82l-2,3.47a8.34,8.34,0,0,0-1.2-.58q-.56-.21-1.29-.42a6.42,6.42,0,0,0-1.62-.2,3.51,3.51,0,0,0-1.6.33,3.45,3.45,0,0,0-1.07.8,3.09,3.09,0,0,0-.62,1,3.17,3.17,0,0,0-.2,1,2.31,2.31,0,0,0,1,2.06,8.66,8.66,0,0,0,2.5,1.09c1,.27,2.08.55,3.24.81a13,13,0,0,1,3.24,1.22,6.49,6.49,0,0,1,3.5,6.34,7.51,7.51,0,0,1-.68,3.18,7.79,7.79,0,0,1-2,2.64A9.57,9.57,0,0,1,278.12,46a12.49,12.49,0,0,1-4.21.65,13.07,13.07,0,0,1-3.31-.37,14,14,0,0,1-2.51-.92,12.76,12.76,0,0,1-1.89-1.14c-.53-.39-1-.72-1.42-1l2.08-3.48a13.3,13.3,0,0,0,4,2.32,9.82,9.82,0,0,0,3.05.62,8.82,8.82,0,0,0,2.16-.27,7.34,7.34,0,0,0,1.95-.8,4.22,4.22,0,0,0,1.39-1.33,3.21,3.21,0,0,0,.53-1.85,2.9,2.9,0,0,0-.58-1.89,4.83,4.83,0,0,0-1.53-1.22,10.69,10.69,0,0,0-2.16-.8c-.81-.2-1.64-.42-2.47-.65a23.82,23.82,0,0,1-2.47-.82,7.55,7.55,0,0,1-2.16-1.25,5.78,5.78,0,0,1-1.53-2,6.52,6.52,0,0,1-.58-2.92,6.45,6.45,0,0,1,.87-3.47,7.27,7.27,0,0,1,2.07-2.22,8.79,8.79,0,0,1,4.51-1.51Z" transform="translate(-1.07 -1.17)"/><path class="cls-1" d="M291.9,46.66h-4v-27h4Z" transform="translate(-1.07 -1.17)"/><path class="cls-1" d="M303.49,23.66H295.9v-4H315v4h-7.52v23h-4Z" transform="translate(-1.07 -1.17)"/><path class="cls-1" d="M329.23,32.82l6-13.12h4.61l-8.46,18.57v8.39h-4.22V38.27L318.61,19.7h4.66Z" transform="translate(-1.07 -1.17)"/><path class="cls-1" d="M378.77,19.66A13.23,13.23,0,0,1,384,20.71a13.51,13.51,0,0,1,7.18,7.18,13.68,13.68,0,0,1,0,10.51A13.54,13.54,0,0,1,384,45.57a13.53,13.53,0,0,1-10.5,0,13.35,13.35,0,0,1-4.29-2.89,13.64,13.64,0,0,1-2.91-4.28,13.44,13.44,0,0,1,0-10.51,13.64,13.64,0,0,1,7.2-7.18A13.16,13.16,0,0,1,378.77,19.66Zm0,22.53a8.74,8.74,0,0,0,3.51-.71,9.19,9.19,0,0,0,2.88-1.92,8.8,8.8,0,0,0,1.95-2.87,9,9,0,0,0,.71-3.55,8.79,8.79,0,0,0-.71-3.52,9.23,9.23,0,0,0-4.83-4.82,9.13,9.13,0,0,0-7.06,0,9.13,9.13,0,0,0-4.83,4.82,8.79,8.79,0,0,0-.71,3.52,9,9,0,0,0,2.65,6.42,9.36,9.36,0,0,0,2.89,1.92A8.83,8.83,0,0,0,378.77,42.19Z" transform="translate(-1.07 -1.17)"/><path class="cls-1" d="M396.25,46.66v-27h16.57v3.74H400.21v8.14h10.18v3.74H400.21V46.66Z" transform="translate(-1.07 -1.17)"/><path class="cls-2" d="M149.75,69H138.16v-6h29.1v6H155.79v35.09h-6Z" transform="translate(-1.07 -1.17)"/><path class="cls-2" d="M193.42,62.87a20.07,20.07,0,0,1,8,1.61,20.66,20.66,0,0,1,10.95,11,20.73,20.73,0,0,1,0,16,20.59,20.59,0,0,1-10.95,10.94,20.71,20.71,0,0,1-16,0,20.8,20.8,0,0,1-6.55-4.4,21.29,21.29,0,0,1-4.43-6.54,20.38,20.38,0,0,1,0-16,21.06,21.06,0,0,1,4.43-6.54,20.66,20.66,0,0,1,6.55-4.41A20.06,20.06,0,0,1,193.42,62.87Zm0,34.37a13.43,13.43,0,0,0,5.35-1.08,14.19,14.19,0,0,0,4.41-2.94,13.74,13.74,0,0,0,3-4.38,13.56,13.56,0,0,0,1.08-5.4,13.4,13.4,0,0,0-1.08-5.38,13.9,13.9,0,0,0-7.38-7.34,13.43,13.43,0,0,0-5.35-1.09,13.57,13.57,0,0,0-5.4,1.09,13.84,13.84,0,0,0-7.37,7.34,13.4,13.4,0,0,0-1.08,5.38,13.56,13.56,0,0,0,1.08,5.4,13.72,13.72,0,0,0,3,4.38A14.19,14.19,0,0,0,188,96.16,13.56,13.56,0,0,0,193.42,97.24Z" transform="translate(-1.07 -1.17)"/><path class="cls-2" d="M240.93,104.06l-6.38-14a10,10,0,0,1-1.08,0h-7.34v13.92h-6V62.93h12.36c.73,0,1.59,0,2.57.08a17.81,17.81,0,0,1,3,.44,11.63,11.63,0,0,1,3,1.2A8.82,8.82,0,0,1,243.64,67a11.48,11.48,0,0,1,1.86,3.86,20.61,20.61,0,0,1,.69,5.73,22.69,22.69,0,0,1-.44,4.74,12.69,12.69,0,0,1-1.25,3.47,9.7,9.7,0,0,1-4,4l7.1,15.3Zm-10.81-20c1.11,0,2.26,0,3.46,0a8.37,8.37,0,0,0,3.24-.72,5.58,5.58,0,0,0,2.39-2.22,8.87,8.87,0,0,0,.94-4.55,8.83,8.83,0,0,0-.94-4.54,5.46,5.46,0,0,0-2.39-2.22,8.69,8.69,0,0,0-3.21-.75c-1.18,0-2.33-.08-3.44-.08h-4V84.1Z" transform="translate(-1.07 -1.17)"/><path class="cls-2" d="M273.74,62.87a20.07,20.07,0,0,1,8,1.61,20.66,20.66,0,0,1,10.95,11,20.85,20.85,0,0,1,0,16,20.59,20.59,0,0,1-10.95,10.94,20.73,20.73,0,0,1-16,0,20.87,20.87,0,0,1-6.54-4.4,21.12,21.12,0,0,1-4.43-6.54,20.38,20.38,0,0,1,0-16,20.78,20.78,0,0,1,11-11A20.11,20.11,0,0,1,273.74,62.87Zm0,34.37a13.46,13.46,0,0,0,5.35-1.08,14.19,14.19,0,0,0,4.41-2.94,13.72,13.72,0,0,0,3-4.38,13.56,13.56,0,0,0,1.08-5.4,13.4,13.4,0,0,0-1.08-5.38,13.84,13.84,0,0,0-7.37-7.34,13.8,13.8,0,0,0-10.75,0A13.9,13.9,0,0,0,261,78.06a13.4,13.4,0,0,0-1.08,5.38,13.64,13.64,0,0,0,4.05,9.78,14.08,14.08,0,0,0,4.41,2.94A13.56,13.56,0,0,0,273.74,97.24Z" transform="translate(-1.07 -1.17)"/><path class="cls-2" d="M324.29,88.92v-26h6v41.13l-24.44-25v25h-6V62.93Z" transform="translate(-1.07 -1.17)"/><path class="cls-2" d="M347.46,69H335.87v-6H365v6H353.5v35.09h-6Z" transform="translate(-1.07 -1.17)"/><path class="cls-2" d="M391.14,62.87a20.14,20.14,0,0,1,8,1.61,20.59,20.59,0,0,1,10.94,11,20.73,20.73,0,0,1,0,16,20.53,20.53,0,0,1-10.94,10.94,20.73,20.73,0,0,1-16,0,20.64,20.64,0,0,1-6.54-4.4,21.15,21.15,0,0,1-4.44-6.54,20.5,20.5,0,0,1,0-16,20.92,20.92,0,0,1,4.44-6.54,20.5,20.5,0,0,1,6.54-4.41A20.07,20.07,0,0,1,391.14,62.87Zm0,34.37a13.5,13.5,0,0,0,5.35-1.08,14,14,0,0,0,4.4-2.94,13.64,13.64,0,0,0,4.05-9.78,13.4,13.4,0,0,0-1.08-5.38,13.93,13.93,0,0,0-7.37-7.34,13.82,13.82,0,0,0-10.76,0,13.93,13.93,0,0,0-7.37,7.34,13.4,13.4,0,0,0-1.08,5.38,13.64,13.64,0,0,0,4.05,9.78,14,14,0,0,0,4.4,2.94A13.61,13.61,0,0,0,391.14,97.24Z" transform="translate(-1.07 -1.17)"/><path class="cls-3" d="M142.38,139.63a.32.32,0,0,1-.06.2.36.36,0,0,1-.19.14,2.25,2.25,0,0,1-.38.08,4.3,4.3,0,0,1-1.17,0,2,2,0,0,1-.38-.08.4.4,0,0,1-.2-.14.32.32,0,0,1-.06-.2V122.05a.35.35,0,0,1,.07-.2.43.43,0,0,1,.21-.14,2.49,2.49,0,0,1,.38-.08,4.45,4.45,0,0,1,.56,0,4.55,4.55,0,0,1,.59,0,2.25,2.25,0,0,1,.38.08.36.36,0,0,1,.19.14.34.34,0,0,1,.06.2Z" transform="translate(-1.07 -1.17)"/><path class="cls-3" d="M157.45,139a2.76,2.76,0,0,1,0,.44.86.86,0,0,1-.1.32.52.52,0,0,1-.16.19.5.5,0,0,1-.21.05h-8.79a1,1,0,0,1-.62-.22.91.91,0,0,1-.29-.77V122.67a.91.91,0,0,1,.29-.77,1,1,0,0,1,.62-.22h8.69a.37.37,0,0,1,.21.06.35.35,0,0,1,.15.18,2.69,2.69,0,0,1,.09.32,3.09,3.09,0,0,1,0,.47,3,3,0,0,1,0,.45,2.46,2.46,0,0,1-.09.31.45.45,0,0,1-.15.18.46.46,0,0,1-.21,0h-7.16v5.75h6.14a.31.31,0,0,1,.21.07.5.5,0,0,1,.15.17.81.81,0,0,1,.1.31c0,.14,0,.29,0,.47s0,.32,0,.44a.81.81,0,0,1-.1.3.39.39,0,0,1-.15.16.46.46,0,0,1-.21,0h-6.14V138H157a.5.5,0,0,1,.21.05.57.57,0,0,1,.16.18.81.81,0,0,1,.1.31A3.23,3.23,0,0,1,157.45,139Z" transform="translate(-1.07 -1.17)"/><path class="cls-3" d="M171.61,139a2.76,2.76,0,0,1,0,.44.86.86,0,0,1-.1.32.52.52,0,0,1-.16.19.46.46,0,0,1-.21.05h-8.79a1,1,0,0,1-.62-.22.91.91,0,0,1-.29-.77V122.67a.91.91,0,0,1,.29-.77,1,1,0,0,1,.62-.22H171a.37.37,0,0,1,.21.06.35.35,0,0,1,.15.18,2.69,2.69,0,0,1,.09.32,3.09,3.09,0,0,1,0,.47,3,3,0,0,1,0,.45,2.46,2.46,0,0,1-.09.31.45.45,0,0,1-.15.18.46.46,0,0,1-.21,0h-7.16v5.75H170a.31.31,0,0,1,.21.07.5.5,0,0,1,.15.17.81.81,0,0,1,.1.31c0,.14,0,.29,0,.47s0,.32,0,.44a.81.81,0,0,1-.1.3.39.39,0,0,1-.15.16.46.46,0,0,1-.21,0h-6.14V138h7.26a.46.46,0,0,1,.21.05.57.57,0,0,1,.16.18.81.81,0,0,1,.1.31A3.23,3.23,0,0,1,171.61,139Z" transform="translate(-1.07 -1.17)"/><path class="cls-3" d="M185.77,139a2.76,2.76,0,0,1,0,.44.86.86,0,0,1-.1.32.52.52,0,0,1-.16.19.46.46,0,0,1-.21.05h-8.79a1,1,0,0,1-.62-.22.91.91,0,0,1-.29-.77V122.67a.91.91,0,0,1,.29-.77,1,1,0,0,1,.62-.22h8.69a.37.37,0,0,1,.21.06.35.35,0,0,1,.15.18,2.69,2.69,0,0,1,.09.32,3.09,3.09,0,0,1,0,.47,3,3,0,0,1,0,.45,2.46,2.46,0,0,1-.09.31.45.45,0,0,1-.15.18.46.46,0,0,1-.21,0H178v5.75h6.14a.31.31,0,0,1,.21.07.5.5,0,0,1,.15.17.81.81,0,0,1,.1.31c0,.14,0,.29,0,.47s0,.32,0,.44a.81.81,0,0,1-.1.3.39.39,0,0,1-.15.16.46.46,0,0,1-.21,0H178V138h7.26a.46.46,0,0,1,.21.05.57.57,0,0,1,.16.18.81.81,0,0,1,.1.31A3.23,3.23,0,0,1,185.77,139Z" transform="translate(-1.07 -1.17)"/><path class="cls-3" d="M206.13,134.86a5.29,5.29,0,0,1-.48,2.3,4.86,4.86,0,0,1-1.31,1.7,5.76,5.76,0,0,1-2,1.06,8.39,8.39,0,0,1-2.45.35,9.15,9.15,0,0,1-1.71-.15,10.33,10.33,0,0,1-1.4-.39,6.37,6.37,0,0,1-1-.46,2.59,2.59,0,0,1-.58-.41,1.18,1.18,0,0,1-.25-.44,2.65,2.65,0,0,1-.07-.7c0-.21,0-.38,0-.51a1.28,1.28,0,0,1,.09-.34.35.35,0,0,1,.14-.17.33.33,0,0,1,.2,0,1.17,1.17,0,0,1,.56.24,8.91,8.91,0,0,0,.93.52,8.23,8.23,0,0,0,1.36.53,6.14,6.14,0,0,0,1.85.25,4.75,4.75,0,0,0,1.45-.21,3.64,3.64,0,0,0,1.14-.6,2.64,2.64,0,0,0,.72-1,3.13,3.13,0,0,0,.26-1.29,2.46,2.46,0,0,0-.35-1.33,3.6,3.6,0,0,0-.94-1,8.3,8.3,0,0,0-1.32-.76l-1.52-.71a16.9,16.9,0,0,1-1.52-.8,6.73,6.73,0,0,1-1.32-1,4.86,4.86,0,0,1-.94-1.39,4.63,4.63,0,0,1-.36-1.92,4.81,4.81,0,0,1,.42-2,4.1,4.1,0,0,1,1.16-1.5,5,5,0,0,1,1.77-.93,7.49,7.49,0,0,1,2.22-.32,7.28,7.28,0,0,1,1.22.11,7.87,7.87,0,0,1,1.16.28,6.3,6.3,0,0,1,1,.4,2.39,2.39,0,0,1,.56.35,1.26,1.26,0,0,1,.18.21.77.77,0,0,1,.07.2,2,2,0,0,1,0,.29c0,.11,0,.26,0,.44a3.1,3.1,0,0,1,0,.45,1.39,1.39,0,0,1-.06.34.39.39,0,0,1-.12.19.24.24,0,0,1-.18.07,1.25,1.25,0,0,1-.49-.2l-.81-.45a8,8,0,0,0-1.14-.45,4.85,4.85,0,0,0-1.48-.21,3.83,3.83,0,0,0-1.33.21,2.78,2.78,0,0,0-.94.55,2.12,2.12,0,0,0-.55.8,2.72,2.72,0,0,0-.18,1,2.45,2.45,0,0,0,.35,1.32,3.78,3.78,0,0,0,.94,1,9.45,9.45,0,0,0,1.34.78l1.53.71c.52.24,1,.51,1.53.79a6.49,6.49,0,0,1,1.34,1,4.83,4.83,0,0,1,1,1.39A4.55,4.55,0,0,1,206.13,134.86Z" transform="translate(-1.07 -1.17)"/><path class="cls-3" d="M220.9,122.73a3,3,0,0,1,0,.46,1,1,0,0,1-.09.32.47.47,0,0,1-.16.18.36.36,0,0,1-.2.06h-5.16v15.88a.32.32,0,0,1-.06.2.36.36,0,0,1-.19.14,2.25,2.25,0,0,1-.38.08,3.2,3.2,0,0,1-.59,0,3.3,3.3,0,0,1-.58,0,2,2,0,0,1-.38-.08.45.45,0,0,1-.2-.14.31.31,0,0,1,0-.2V123.75h-5.16a.36.36,0,0,1-.2-.06.38.38,0,0,1-.15-.18,1,1,0,0,1-.09-.32,2.07,2.07,0,0,1,0-.46,2.33,2.33,0,0,1,0-.48,1.2,1.2,0,0,1,.09-.33.31.31,0,0,1,.15-.18.36.36,0,0,1,.2-.06h12.75a.41.41,0,0,1,.36.24,1.2,1.2,0,0,1,.09.33A3.43,3.43,0,0,1,220.9,122.73Z" transform="translate(-1.07 -1.17)"/><path class="cls-3" d="M237.32,133.23a8.35,8.35,0,0,1-.49,3,6,6,0,0,1-1.39,2.22,5.87,5.87,0,0,1-2.21,1.37,8.51,8.51,0,0,1-3,.47,8.07,8.07,0,0,1-2.76-.44,5.87,5.87,0,0,1-2.14-1.29,5.72,5.72,0,0,1-1.37-2.15,8.49,8.49,0,0,1-.48-3V122.05a.42.42,0,0,1,0-.2.45.45,0,0,1,.2-.14,2.33,2.33,0,0,1,.37-.08,4.47,4.47,0,0,1,.6,0,4.8,4.8,0,0,1,.58,0,1.92,1.92,0,0,1,.37.08.41.41,0,0,1,.19.14.34.34,0,0,1,.06.2v11.07a7,7,0,0,0,.31,2.22,4.2,4.2,0,0,0,.9,1.58,3.67,3.67,0,0,0,1.42,1,5.18,5.18,0,0,0,1.86.32,5.28,5.28,0,0,0,1.89-.31,3.57,3.57,0,0,0,1.4-.94,4.29,4.29,0,0,0,.88-1.54,6.93,6.93,0,0,0,.3-2.15v-11.2a.34.34,0,0,1,.06-.2.4.4,0,0,1,.2-.14,2.1,2.1,0,0,1,.37-.08,4.55,4.55,0,0,1,.59,0,4.22,4.22,0,0,1,.57,0,1.92,1.92,0,0,1,.37.08.45.45,0,0,1,.2.14.34.34,0,0,1,.06.2Z" transform="translate(-1.07 -1.17)"/><path class="cls-3" d="M256.24,130.57a12.75,12.75,0,0,1-.61,4.16,7.59,7.59,0,0,1-1.77,2.94,7.4,7.4,0,0,1-2.87,1.75,12.47,12.47,0,0,1-4.05.58h-3.88a1,1,0,0,1-.62-.22.91.91,0,0,1-.29-.77V122.67a.91.91,0,0,1,.29-.77,1,1,0,0,1,.62-.22h4.15a11.57,11.57,0,0,1,4,.61,7.24,7.24,0,0,1,4.44,4.57A11.29,11.29,0,0,1,256.24,130.57Zm-2.56.1a9.87,9.87,0,0,0-.37-2.77,5.9,5.9,0,0,0-1.15-2.21,5.34,5.34,0,0,0-2-1.46,7.85,7.85,0,0,0-3.1-.53h-2.48V138h2.5a8.51,8.51,0,0,0,3-.44,4.78,4.78,0,0,0,2-1.34,5.82,5.82,0,0,0,1.22-2.27A11.85,11.85,0,0,0,253.68,130.67Z" transform="translate(-1.07 -1.17)"/><path class="cls-3" d="M270.19,139a2.76,2.76,0,0,1,0,.44.86.86,0,0,1-.1.32.52.52,0,0,1-.16.19.46.46,0,0,1-.21.05H260.9a1,1,0,0,1-.62-.22A.91.91,0,0,1,260,139V122.67a.91.91,0,0,1,.29-.77,1,1,0,0,1,.62-.22h8.69a.37.37,0,0,1,.21.06.35.35,0,0,1,.15.18,1.12,1.12,0,0,1,.09.32,2.94,2.94,0,0,1,0,.47,2.89,2.89,0,0,1,0,.45,1,1,0,0,1-.09.31.45.45,0,0,1-.15.18.46.46,0,0,1-.21,0h-7.16v5.75h6.14a.31.31,0,0,1,.21.07.66.66,0,0,1,.16.17,1,1,0,0,1,.09.31,3.28,3.28,0,0,1,0,.47,2.76,2.76,0,0,1,0,.44,1.07,1.07,0,0,1-.09.3.49.49,0,0,1-.16.16.46.46,0,0,1-.21,0h-6.14V138h7.26a.46.46,0,0,1,.21.05.57.57,0,0,1,.16.18.81.81,0,0,1,.1.31A3.23,3.23,0,0,1,270.19,139Z" transform="translate(-1.07 -1.17)"/><path class="cls-3" d="M288,139a1.14,1.14,0,0,1-.09.48,1,1,0,0,1-.25.32.92.92,0,0,1-.35.19,1.2,1.2,0,0,1-.38,0h-.8a2.65,2.65,0,0,1-.67-.07,1.43,1.43,0,0,1-.54-.29,2.58,2.58,0,0,1-.51-.56,7.76,7.76,0,0,1-.55-.9l-5.59-10.42c-.29-.54-.58-1.11-.88-1.7s-.57-1.16-.83-1.72h0c0,.68,0,1.38.05,2.08s0,1.42,0,2.12v11a.39.39,0,0,1-.06.2.45.45,0,0,1-.2.14,2.25,2.25,0,0,1-.38.08,3.2,3.2,0,0,1-.59,0,3.27,3.27,0,0,1-.59,0,2,2,0,0,1-.36-.08.45.45,0,0,1-.2-.14.39.39,0,0,1-.06-.2v-16.9a.93.93,0,0,1,.33-.81,1.12,1.12,0,0,1,.7-.24h1.2a2.8,2.8,0,0,1,.7.07,1.87,1.87,0,0,1,.52.23,1.93,1.93,0,0,1,.43.46,5,5,0,0,1,.45.73l4.3,8c.26.49.52,1,.76,1.44s.49.92.71,1.38l.68,1.33.67,1.33h0c0-.75,0-1.52,0-2.33V122.09a.28.28,0,0,1,.06-.18.41.41,0,0,1,.2-.15.91.91,0,0,1,.37-.09,5,5,0,0,1,.61,0,4.39,4.39,0,0,1,.56,0,.92.92,0,0,1,.38.09.42.42,0,0,1,.19.15.28.28,0,0,1,.06.18Z" transform="translate(-1.07 -1.17)"/><path class="cls-3" d="M304.36,122.73a3,3,0,0,1,0,.46,1,1,0,0,1-.09.32.57.57,0,0,1-.16.18.36.36,0,0,1-.2.06h-5.16v15.88a.32.32,0,0,1-.06.2.36.36,0,0,1-.19.14,2.25,2.25,0,0,1-.38.08,3.2,3.2,0,0,1-.59,0,3.3,3.3,0,0,1-.58,0,2.25,2.25,0,0,1-.38-.08.45.45,0,0,1-.2-.14.39.39,0,0,1,0-.2V123.75h-5.16a.36.36,0,0,1-.2-.06.38.38,0,0,1-.15-.18,1,1,0,0,1-.09-.32,2.07,2.07,0,0,1,0-.46,2.33,2.33,0,0,1,0-.48,1.2,1.2,0,0,1,.09-.33.31.31,0,0,1,.15-.18.36.36,0,0,1,.2-.06h12.75a.36.36,0,0,1,.2.06.41.41,0,0,1,.16.18,1.2,1.2,0,0,1,.09.33A3.43,3.43,0,0,1,304.36,122.73Z" transform="translate(-1.07 -1.17)"/><path class="cls-3" d="M325.64,134.75a5.36,5.36,0,0,1-.22,1.59,4.48,4.48,0,0,1-1.57,2.33,5.57,5.57,0,0,1-1.26.74,7.24,7.24,0,0,1-1.5.44,10.07,10.07,0,0,1-1.84.15h-4.78a1,1,0,0,1-.62-.22.91.91,0,0,1-.29-.77V122.67a.91.91,0,0,1,.29-.77,1,1,0,0,1,.62-.22h4.16a9.55,9.55,0,0,1,2.69.31,4.76,4.76,0,0,1,1.75.91,3.7,3.7,0,0,1,1.06,1.46,5.18,5.18,0,0,1,.35,2,4.71,4.71,0,0,1-.16,1.25,3.77,3.77,0,0,1-.46,1.09,3.43,3.43,0,0,1-.76.9,3.92,3.92,0,0,1-1.06.65,4.69,4.69,0,0,1,1.41.52,4.35,4.35,0,0,1,1.14,1,4.5,4.5,0,0,1,.77,1.36A4.91,4.91,0,0,1,325.64,134.75Zm-3.67-8.2a3.78,3.78,0,0,0-.18-1.2,2.26,2.26,0,0,0-.58-.92,2.56,2.56,0,0,0-1-.57,5.88,5.88,0,0,0-1.68-.2H316v5.93h2.77a4.09,4.09,0,0,0,1.53-.24,2.9,2.9,0,0,0,1-.67,2.64,2.64,0,0,0,.56-1A4,4,0,0,0,322,126.55Zm1.11,8.34a3.74,3.74,0,0,0-.26-1.44,2.71,2.71,0,0,0-.77-1,3.44,3.44,0,0,0-1.25-.65,7.24,7.24,0,0,0-1.9-.22H316V138h3.54a4.54,4.54,0,0,0,1.45-.2,3.4,3.4,0,0,0,1.1-.58,2.85,2.85,0,0,0,.74-1A3.19,3.19,0,0,0,323.08,134.89Z" transform="translate(-1.07 -1.17)"/><path class="cls-3" d="M341.56,139.63a.39.39,0,0,1-.05.2.27.27,0,0,1-.18.14,1.49,1.49,0,0,1-.4.09,6,6,0,0,1-.68,0,5,5,0,0,1-.6,0,1.43,1.43,0,0,1-.37-.09.5.5,0,0,1-.22-.18,1.46,1.46,0,0,1-.14-.28l-1.68-4.32c-.2-.49-.41-.94-.62-1.36a4.16,4.16,0,0,0-.76-1.06,3.21,3.21,0,0,0-1-.69,3.62,3.62,0,0,0-1.43-.25h-1.63v7.8a.32.32,0,0,1-.06.2.45.45,0,0,1-.2.14,1.92,1.92,0,0,1-.37.08,3.2,3.2,0,0,1-.59,0,3.15,3.15,0,0,1-.58,0,2.25,2.25,0,0,1-.38-.08.45.45,0,0,1-.2-.14.39.39,0,0,1-.05-.2v-17a.88.88,0,0,1,.29-.77,1,1,0,0,1,.61-.22h3.9c.46,0,.84,0,1.15,0l.83.08a7.55,7.55,0,0,1,1.88.58,4.51,4.51,0,0,1,1.36,1,3.93,3.93,0,0,1,.83,1.39,5.38,5.38,0,0,1,.28,1.74,5.29,5.29,0,0,1-.25,1.65,4.08,4.08,0,0,1-.72,1.29,5,5,0,0,1-1.11,1,7.86,7.86,0,0,1-1.46.69,3.6,3.6,0,0,1,.82.5,4.77,4.77,0,0,1,.68.73,6.56,6.56,0,0,1,.61,1c.19.37.37.78.56,1.24l1.64,4a7.13,7.13,0,0,1,.26.72A1.17,1.17,0,0,1,341.56,139.63Zm-3.67-12.87a3.29,3.29,0,0,0-.48-1.82,2.76,2.76,0,0,0-1.62-1.07,5.27,5.27,0,0,0-.8-.14c-.29,0-.68,0-1.17,0h-2.05v6.17h2.38a5.23,5.23,0,0,0,1.67-.23A3.34,3.34,0,0,0,337,129a2.61,2.61,0,0,0,.69-1A3.24,3.24,0,0,0,337.89,126.76Z" transform="translate(-1.07 -1.17)"/><path class="cls-3" d="M358.8,139.14a1.47,1.47,0,0,1,.12.5.33.33,0,0,1-.1.29.68.68,0,0,1-.38.13,6.41,6.41,0,0,1-.7,0l-.7,0a2.28,2.28,0,0,1-.4-.07.41.41,0,0,1-.19-.14.72.72,0,0,1-.12-.21l-1.58-4.46h-7.61l-1.5,4.4a.66.66,0,0,1-.12.22.67.67,0,0,1-.2.16,1.41,1.41,0,0,1-.39.09,5.48,5.48,0,0,1-.64,0,4.14,4.14,0,0,1-.67,0,.68.68,0,0,1-.37-.13.39.39,0,0,1-.1-.29,1.52,1.52,0,0,1,.12-.51l6.15-17a.68.68,0,0,1,.14-.25.72.72,0,0,1,.27-.16,2.36,2.36,0,0,1,.46-.07,6.54,6.54,0,0,1,.7,0q.45,0,.75,0a2.47,2.47,0,0,1,.48.07.64.64,0,0,1,.28.17.68.68,0,0,1,.16.26Zm-7.88-15h0l-3.16,9.14h6.38Z" transform="translate(-1.07 -1.17)"/><path class="cls-3" d="M375.71,139a1.14,1.14,0,0,1-.09.48,1,1,0,0,1-.25.32.92.92,0,0,1-.35.19,1.2,1.2,0,0,1-.38,0h-.8a2.65,2.65,0,0,1-.67-.07,1.43,1.43,0,0,1-.54-.29,2.58,2.58,0,0,1-.51-.56,5.72,5.72,0,0,1-.55-.9L366,127.8c-.29-.54-.58-1.11-.88-1.7s-.57-1.16-.83-1.72h0c0,.68,0,1.38,0,2.08s0,1.42,0,2.12v11a.39.39,0,0,1-.06.2.45.45,0,0,1-.2.14,2.25,2.25,0,0,1-.38.08,3.2,3.2,0,0,1-.59,0,3.27,3.27,0,0,1-.59,0,2,2,0,0,1-.36-.08.45.45,0,0,1-.2-.14.39.39,0,0,1-.06-.2v-16.9a1,1,0,0,1,.32-.81,1.17,1.17,0,0,1,.71-.24h1.19a2.83,2.83,0,0,1,.71.07,1.69,1.69,0,0,1,.51.23,1.77,1.77,0,0,1,.44.46,6,6,0,0,1,.45.73l4.3,8c.26.49.52,1,.76,1.44s.49.92.71,1.38l.68,1.33c.22.44.45.89.66,1.33h0c0-.75,0-1.52,0-2.33V122.09a.28.28,0,0,1,.06-.18.41.41,0,0,1,.2-.15.91.91,0,0,1,.37-.09,5,5,0,0,1,.61,0,4.5,4.5,0,0,1,.56,0,.92.92,0,0,1,.38.09.42.42,0,0,1,.19.15.28.28,0,0,1,.06.18Z" transform="translate(-1.07 -1.17)"/><path class="cls-3" d="M392.82,137.41c0,.15,0,.28,0,.4a1.16,1.16,0,0,1-.05.29.69.69,0,0,1-.09.23,1,1,0,0,1-.2.24,3.31,3.31,0,0,1-.59.43,6.23,6.23,0,0,1-1.13.57,10.07,10.07,0,0,1-1.54.47,8.77,8.77,0,0,1-1.91.19,8.32,8.32,0,0,1-3.22-.6,6.49,6.49,0,0,1-2.45-1.75,8.06,8.06,0,0,1-1.55-2.87,12.73,12.73,0,0,1-.55-3.93,13,13,0,0,1,.59-4.06,8.83,8.83,0,0,1,1.65-3,7.17,7.17,0,0,1,2.54-1.89,8.14,8.14,0,0,1,3.28-.65,7.81,7.81,0,0,1,1.54.15,10.38,10.38,0,0,1,1.39.38,6.22,6.22,0,0,1,1.13.52,3.94,3.94,0,0,1,.69.49,1.62,1.62,0,0,1,.25.29,1,1,0,0,1,.09.23c0,.09,0,.2.06.32s0,.27,0,.44a3.23,3.23,0,0,1,0,.48,1.2,1.2,0,0,1-.09.33.53.53,0,0,1-.13.2.28.28,0,0,1-.19.07,1.1,1.1,0,0,1-.56-.28,9.15,9.15,0,0,0-.92-.61,7.74,7.74,0,0,0-1.37-.61,6,6,0,0,0-1.92-.27,5.1,5.1,0,0,0-2.23.48,4.83,4.83,0,0,0-1.72,1.44,7.14,7.14,0,0,0-1.1,2.32,11.38,11.38,0,0,0-.39,3.12,11,11,0,0,0,.38,3.08,6.41,6.41,0,0,0,1.08,2.24,4.5,4.5,0,0,0,1.73,1.36,5.68,5.68,0,0,0,2.32.46,6.07,6.07,0,0,0,1.91-.27,7.74,7.74,0,0,0,1.4-.6c.38-.23.7-.43.94-.61a1.13,1.13,0,0,1,.59-.27.34.34,0,0,1,.17,0,.34.34,0,0,1,.11.16,1.68,1.68,0,0,1,.07.33C392.81,137,392.82,137.19,392.82,137.41Z" transform="translate(-1.07 -1.17)"/><path class="cls-3" d="M409.24,139.63a.39.39,0,0,1-.05.2.45.45,0,0,1-.2.14,2.25,2.25,0,0,1-.38.08,3,3,0,0,1-.57,0,3.32,3.32,0,0,1-.6,0,2,2,0,0,1-.36-.08.4.4,0,0,1-.2-.14.32.32,0,0,1-.06-.2v-8.12h-8.34v8.12a.32.32,0,0,1-.06.2.36.36,0,0,1-.19.14,2.25,2.25,0,0,1-.38.08,4.3,4.3,0,0,1-1.17,0,2.25,2.25,0,0,1-.38-.08.45.45,0,0,1-.2-.14.31.31,0,0,1-.05-.2V122.05a.33.33,0,0,1,.05-.2.45.45,0,0,1,.2-.14,2.25,2.25,0,0,1,.38-.08,4.66,4.66,0,0,1,.58,0,4.55,4.55,0,0,1,.59,0,2.25,2.25,0,0,1,.38.08.36.36,0,0,1,.19.14.34.34,0,0,1,.06.2v7.33h8.34v-7.33a.34.34,0,0,1,.06-.2.4.4,0,0,1,.2-.14,2,2,0,0,1,.36-.08,4.59,4.59,0,0,1,.6,0,4.22,4.22,0,0,1,.57,0,2.25,2.25,0,0,1,.38.08.45.45,0,0,1,.2.14.42.42,0,0,1,.05.2Z" transform="translate(-1.07 -1.17)"/><path class="cls-1" d="M86.91,115.33H38a2.33,2.33,0,0,0-2.33,2.33v1.41A2.33,2.33,0,0,0,38,121.4H59.42v21.88a2.53,2.53,0,0,0,2.51,2.52h1a2.54,2.54,0,0,0,2.52-2.52V121.4H86.91a2.34,2.34,0,0,0,2.33-2.33v-1.41A2.34,2.34,0,0,0,86.91,115.33ZM62.45,144.45a1.1,1.1,0,1,1,1.1-1.1A1.1,1.1,0,0,1,62.45,144.45Zm-23.16-25a1.1,1.1,0,1,1,1.1-1.09A1.09,1.09,0,0,1,39.29,119.46Zm46.85,0a1.1,1.1,0,1,1,1.1-1.09A1.09,1.09,0,0,1,86.14,119.46Z" transform="translate(-1.07 -1.17)"/><polygon class="cls-1" points="2.25 72.45 14.56 84.76 50.92 84.76 62.48 72.11 62.48 48.99 73.41 38.05 73.41 14.56 71.39 14.56 71.39 36.7 62.48 45.61 62.48 13.74 51.04 2.31 49.41 3.94 60.14 14.67 60.14 56.94 50.98 47.78 50.98 25.69 48.45 25.69 48.45 35.35 39.32 25.24 37.93 26.63 48.56 39.31 48.56 49.18 59.92 60.54 59.92 70.99 55.31 76.05 39.11 59.85 37.56 61.39 46.91 70.74 38.22 70.74 27.5 60.02 27.5 48.84 25.07 48.84 25.07 61.1 37.13 73.58 49.8 73.58 53.79 77.57 49.58 82.23 38.78 82.23 16.3 59.75 16.3 47.5 14.16 47.5 14.16 60.87 35.92 82.63 27.2 82.63 4.02 59.44 2.25 61.21 23.72 82.68 16.08 82.68 3.71 70.32 2.25 72.45"/><circle class="cls-1" cx="3.09" cy="71.55" r="3.09"/><circle class="cls-1" cx="3.09" cy="60.31" r="3.09"/><circle class="cls-1" cx="15.34" cy="48.51" r="3.09"/><circle class="cls-1" cx="26.36" cy="48.51" r="3.09"/><circle class="cls-1" cx="37.83" cy="60.31" r="3.09"/><circle class="cls-1" cx="38.22" cy="25.91" r="3.09"/><circle class="cls-1" cx="49.74" cy="25.91" r="3.09"/><circle class="cls-1" cx="50.64" cy="3.09" r="3.09"/><circle class="cls-1" cx="72.68" cy="14.11" r="3.09"/><circle class="cls-1" cx="84.44" cy="25.91" r="3.09"/><circle class="cls-1" cx="84.44" cy="61.13" r="3.09"/><circle class="cls-1" cx="27.47" cy="95.45" r="3.09"/><circle class="cls-1" cx="84.44" cy="71.58" r="3.09"/><circle class="cls-1" cx="95.54" cy="48.51" r="3.09"/><circle class="cls-1" cx="107.08" cy="48.47" r="3.09"/><circle class="cls-1" cx="118.92" cy="60.31" r="3.09"/><circle class="cls-1" cx="15.48" cy="117.31" r="3.09"/><polygon class="cls-1" points="13.99 116.9 25.66 105.49 48.3 105.49 83.79 70 85.51 71.72 75.47 81.75 84.44 81.75 94.56 71.64 94.56 48.51 97.02 48.51 97.02 72.6 87.95 81.67 95.37 81.67 105.67 71.37 105.67 49.52 108.11 49.52 108.11 69.31 118.08 59.34 119.69 60.95 96.29 84.34 73.41 84.34 49.76 107.99 27.47 107.99 16.75 118.29 13.99 116.9"/><path class="cls-1" d="M28.76,95.17h21l22.4-22.74V49.68L84.77,37.07v-10H86.7V38.55L74.55,50.69V60.77h10.5v2.48l-10.57.13V74.22L51.89,96.82a2.44,2.44,0,0,1-1.71.7H28.54Z" transform="translate(-1.07 -1.17)"/><polygon class="cls-1" points="72.68 105.58 84.35 93.91 95.54 93.91 118.39 71.05 120.04 72.69 96.37 96.36 85.07 96.36 74.53 106.9 72.68 105.58"/><path class="cls-1" d="M85.51,106.6H98.76l10,10.57-2.13,1.61-8.87-9.84H85.51S86.28,106.6,85.51,106.6Z" transform="translate(-1.07 -1.17)"/><circle class="cls-1" cx="61.4" cy="106.79" r="3.09"/><circle class="cls-1" cx="73.41" cy="94.45" r="3.09"/><circle class="cls-1" cx="72.68" cy="106.79" r="3.09"/><circle class="cls-1" cx="118.92" cy="71.58" r="3.09"/><circle class="cls-1" cx="107.32" cy="117.2" r="3.09"/><circle class="cls-1" cx="84.44" cy="106.79" r="3.09"/><polygon class="cls-1" points="59.85 106.25 72.57 93.52 74.41 95.37 61.98 107.8 59.85 106.25"/></svg>