<svg id="White" xmlns="http://www.w3.org/2000/svg" viewBox="0 0 411.88 144.63"><defs><style>.cls-1,.cls-2,.cls-3{fill:#fff;}.cls-2,.cls-3{stroke:#fff;stroke-miterlimit:10;}.cls-2{stroke-width:0.5px;}.cls-3{stroke-width:0.25px;}</style></defs><title>IEEELogo_Update_18-19_Vector_White</title><path class="cls-1" d="M139.11,19.63h4V37.22a6.75,6.75,0,0,0,.21,1.18,5.83,5.83,0,0,0,.87,1.83,5.65,5.65,0,0,0,5,2.4,5.88,5.88,0,0,0,3.1-.72,6,6,0,0,0,1.83-1.68,5.43,5.43,0,0,0,.87-1.81,5.87,5.87,0,0,0,.22-1.17V19.63h4V37.22a7.79,7.79,0,0,1-.11,1,9.64,9.64,0,0,1-.47,1.8,14.45,14.45,0,0,1-1,2.2,8.25,8.25,0,0,1-1.78,2.14A9.41,9.41,0,0,1,153,46a10.77,10.77,0,0,1-3.9.63,11.38,11.38,0,0,1-3.92-.6,9.08,9.08,0,0,1-2.74-1.52,8,8,0,0,1-1.78-2.06,11.51,11.51,0,0,1-1-2.16,10.26,10.26,0,0,1-.57-3Z" transform="translate(-0.98 -1.1)"/><path class="cls-1" d="M178.84,36.67v-17h4v27l-16-16.39V46.59h-4v-27Z" transform="translate(-0.98 -1.1)"/><path class="cls-1" d="M190.76,46.59h-4v-27h4Z" transform="translate(-0.98 -1.1)"/><path class="cls-1" d="M206.61,46.59l-11.85-27h4.87l7,15.91,7-15.91h4.87Z" transform="translate(-0.98 -1.1)"/><path class="cls-1" d="M239,19.63v3.74H226.42v8.14H236.6v3.74H226.42v7.56H239v3.78H222.46v-27Z" transform="translate(-0.98 -1.1)"/><path class="cls-1" d="M256.7,46.59l-4.18-9.16a5.85,5.85,0,0,1-.71,0H247v9.12h-4v-27h8.11c.48,0,1,0,1.69.05a11.46,11.46,0,0,1,2,.29,7.71,7.71,0,0,1,2,.78,5.91,5.91,0,0,1,1.73,1.53,7.4,7.4,0,0,1,1.21,2.52,13.26,13.26,0,0,1,.46,3.77,14.86,14.86,0,0,1-.29,3.1A8.55,8.55,0,0,1,259,34a6.33,6.33,0,0,1-2.63,2.61l4.65,10Zm-7.09-13.08c.73,0,1.48,0,2.27,0A5.37,5.37,0,0,0,254,33a3.55,3.55,0,0,0,1.56-1.45,5.86,5.86,0,0,0,.62-3,5.81,5.81,0,0,0-.62-3A3.57,3.57,0,0,0,254,24.13a5.73,5.73,0,0,0-2.11-.49c-.78,0-1.53-.05-2.25-.05H247v9.92Z" transform="translate(-0.98 -1.1)"/><path class="cls-1" d="M273.82,19.66a11.23,11.23,0,0,1,2.58.27,12.94,12.94,0,0,1,1.92.6,11.91,11.91,0,0,1,1.64.82l-2,3.47a7.43,7.43,0,0,0-1.2-.58q-.54-.21-1.29-.42a6.28,6.28,0,0,0-1.61-.2,3.48,3.48,0,0,0-1.6.33,3.62,3.62,0,0,0-1.08.8,3,3,0,0,0-.61,1,2.93,2.93,0,0,0-.2,1,2.33,2.33,0,0,0,1,2.06,8.92,8.92,0,0,0,2.5,1.09c1,.27,2.09.55,3.25.81A13,13,0,0,1,280.31,32a6.54,6.54,0,0,1,3.5,6.34,7.66,7.66,0,0,1-2.65,5.82A9.42,9.42,0,0,1,278,45.94a12.53,12.53,0,0,1-4.21.65,13,13,0,0,1-3.31-.37A14,14,0,0,1,268,45.3a11.8,11.8,0,0,1-1.89-1.14c-.53-.39-1-.72-1.42-1l2.07-3.48a13.42,13.42,0,0,0,4,2.32,9.93,9.93,0,0,0,3.06.62,8.88,8.88,0,0,0,2.16-.27,7.14,7.14,0,0,0,1.94-.8,4.25,4.25,0,0,0,1.4-1.33,3.29,3.29,0,0,0,.53-1.85,3,3,0,0,0-.58-1.89,4.83,4.83,0,0,0-1.53-1.22,10.12,10.12,0,0,0-2.16-.8c-.81-.2-1.64-.42-2.47-.65a24.81,24.81,0,0,1-2.48-.82,7.68,7.68,0,0,1-2.16-1.25,5.75,5.75,0,0,1-1.52-2,6.52,6.52,0,0,1-.59-2.92,6.36,6.36,0,0,1,.88-3.47,7.15,7.15,0,0,1,2.07-2.22,8.79,8.79,0,0,1,4.51-1.51Z" transform="translate(-0.98 -1.1)"/><path class="cls-1" d="M291.81,46.59h-4v-27h4Z" transform="translate(-0.98 -1.1)"/><path class="cls-1" d="M303.4,23.59h-7.6v-4h19.09v4h-7.53v23h-4Z" transform="translate(-0.98 -1.1)"/><path class="cls-1" d="M329.13,32.75l6-13.12h4.61L331.24,38.2v8.39H327V38.2l-8.51-18.57h4.65Z" transform="translate(-0.98 -1.1)"/><path class="cls-1" d="M378.68,19.59a13.23,13.23,0,0,1,5.25,1.05,13.51,13.51,0,0,1,7.18,7.18,13.68,13.68,0,0,1,0,10.51,13.75,13.75,0,0,1-2.89,4.28,13.58,13.58,0,0,1-4.29,2.89,13.56,13.56,0,0,1-10.51,0,13.58,13.58,0,0,1-4.29-2.89,13.78,13.78,0,0,1-2.9-4.28,13.32,13.32,0,0,1,0-10.51,13.58,13.58,0,0,1,7.19-7.18A13.25,13.25,0,0,1,378.68,19.59Zm0,22.53a8.66,8.66,0,0,0,3.5-.71,9.24,9.24,0,0,0,2.89-1.92,8.94,8.94,0,0,0,2.66-6.42,8.79,8.79,0,0,0-.71-3.52,9.18,9.18,0,0,0-1.95-2.87,9,9,0,0,0-2.89-1.95,8.83,8.83,0,0,0-3.5-.71,8.93,8.93,0,0,0-3.55.71,9.13,9.13,0,0,0-4.83,4.82,8.62,8.62,0,0,0-.71,3.52,8.83,8.83,0,0,0,.71,3.55,8.93,8.93,0,0,0,1.94,2.87,9.36,9.36,0,0,0,2.89,1.92A8.76,8.76,0,0,0,378.68,42.12Z" transform="translate(-0.98 -1.1)"/><path class="cls-1" d="M396.16,46.59v-27h16.57v3.74H400.12v8.14H410.3v3.74H400.12V46.59Z" transform="translate(-0.98 -1.1)"/><path class="cls-2" d="M150.65,68.9H139.07v-6h29.1v6H156.7V104h-6Z" transform="translate(-0.98 -1.1)"/><path class="cls-2" d="M194.33,62.8a20.07,20.07,0,0,1,8,1.61,20.66,20.66,0,0,1,10.95,11,20.73,20.73,0,0,1,0,16,20.59,20.59,0,0,1-10.95,10.94,20.73,20.73,0,0,1-16,0,20.87,20.87,0,0,1-6.54-4.4,21.29,21.29,0,0,1-4.43-6.54,20.38,20.38,0,0,1,0-16,21.06,21.06,0,0,1,4.43-6.54,20.72,20.72,0,0,1,6.54-4.41A20.14,20.14,0,0,1,194.33,62.8Zm0,34.37a13.43,13.43,0,0,0,5.35-1.08,14.19,14.19,0,0,0,4.41-2.94,13.72,13.72,0,0,0,3-4.38,13.4,13.4,0,0,0,1.09-5.4A13.23,13.23,0,0,0,207.05,78a13.84,13.84,0,0,0-7.37-7.34,13.26,13.26,0,0,0-5.35-1.09,13.4,13.4,0,0,0-5.4,1.09A13.84,13.84,0,0,0,181.56,78a13.4,13.4,0,0,0-1.08,5.38,13.56,13.56,0,0,0,1.08,5.4,13.72,13.72,0,0,0,3,4.38,14.19,14.19,0,0,0,4.41,2.94A13.56,13.56,0,0,0,194.33,97.17Z" transform="translate(-0.98 -1.1)"/><path class="cls-2" d="M241.83,104l-6.37-14a10,10,0,0,1-1.08,0H227V104h-6V62.86h12.36c.74,0,1.6,0,2.58.08a17.56,17.56,0,0,1,3,.44,11.55,11.55,0,0,1,3,1.2,8.82,8.82,0,0,1,2.63,2.32,11.67,11.67,0,0,1,1.86,3.86,20.61,20.61,0,0,1,.69,5.73,22.76,22.76,0,0,1-.44,4.74,13,13,0,0,1-1.25,3.47,10.25,10.25,0,0,1-1.83,2.41,10,10,0,0,1-2.19,1.58l7.1,15.3ZM231,84c1.1,0,2.26,0,3.46,0a8.37,8.37,0,0,0,3.24-.72A5.58,5.58,0,0,0,240.12,81a9,9,0,0,0,.94-4.55,8.94,8.94,0,0,0-.94-4.54,5.46,5.46,0,0,0-2.39-2.22,8.69,8.69,0,0,0-3.21-.75c-1.19,0-2.33-.08-3.44-.08H227V84Z" transform="translate(-0.98 -1.1)"/><path class="cls-2" d="M274.65,62.8a20.14,20.14,0,0,1,8,1.61,20.66,20.66,0,0,1,10.95,11,20.85,20.85,0,0,1,0,16,20.59,20.59,0,0,1-10.95,10.94,20.73,20.73,0,0,1-16,0,20.75,20.75,0,0,1-6.54-4.4,21.15,21.15,0,0,1-4.44-6.54,20.5,20.5,0,0,1,0-16,20.92,20.92,0,0,1,4.44-6.54,20.61,20.61,0,0,1,6.54-4.41A20.07,20.07,0,0,1,274.65,62.8Zm0,34.37A13.46,13.46,0,0,0,280,96.09a14,14,0,0,0,4.4-2.94,13.64,13.64,0,0,0,4.05-9.78A13.4,13.4,0,0,0,287.37,78,13.93,13.93,0,0,0,280,70.65a13.3,13.3,0,0,0-5.35-1.09,13.48,13.48,0,0,0-5.41,1.09A13.93,13.93,0,0,0,261.87,78a13.4,13.4,0,0,0-1.08,5.38,13.64,13.64,0,0,0,4,9.78,14,14,0,0,0,4.4,2.94A13.65,13.65,0,0,0,274.65,97.17Z" transform="translate(-0.98 -1.1)"/><path class="cls-2" d="M325.2,88.85v-26h6V104L306.8,79v25h-6.05V62.86Z" transform="translate(-0.98 -1.1)"/><path class="cls-2" d="M348.37,68.9H336.78v-6h29.1v6H354.41V104h-6Z" transform="translate(-0.98 -1.1)"/><path class="cls-2" d="M392.05,62.8a20.14,20.14,0,0,1,8,1.61,20.59,20.59,0,0,1,10.94,11,20.73,20.73,0,0,1,0,16,20.53,20.53,0,0,1-10.94,10.94,20.73,20.73,0,0,1-16,0,20.64,20.64,0,0,1-6.54-4.4,21.15,21.15,0,0,1-4.44-6.54,20.5,20.5,0,0,1,0-16,20.92,20.92,0,0,1,4.44-6.54A20.5,20.5,0,0,1,384,64.41,20.07,20.07,0,0,1,392.05,62.8Zm0,34.37a13.5,13.5,0,0,0,5.35-1.08,14.15,14.15,0,0,0,4.4-2.94,13.64,13.64,0,0,0,4.05-9.78A13.4,13.4,0,0,0,404.77,78a13.93,13.93,0,0,0-7.37-7.34,13.82,13.82,0,0,0-10.76,0A13.93,13.93,0,0,0,379.27,78a13.4,13.4,0,0,0-1.08,5.38,13.64,13.64,0,0,0,4.05,9.78,14,14,0,0,0,4.4,2.94A13.58,13.58,0,0,0,392.05,97.17Z" transform="translate(-0.98 -1.1)"/><path class="cls-3" d="M142.29,139.56a.32.32,0,0,1-.06.2.4.4,0,0,1-.2.14,1.92,1.92,0,0,1-.37.08,4.55,4.55,0,0,1-.59,0,4.66,4.66,0,0,1-.58,0,2,2,0,0,1-.38-.08.4.4,0,0,1-.2-.14.32.32,0,0,1-.06-.2V122a.32.32,0,0,1,.07-.2.43.43,0,0,1,.21-.14,2.49,2.49,0,0,1,.38-.08,4.45,4.45,0,0,1,.56,0,4.55,4.55,0,0,1,.59,0,1.92,1.92,0,0,1,.37.08.4.4,0,0,1,.2.14.32.32,0,0,1,.06.2Z" transform="translate(-0.98 -1.1)"/><path class="cls-3" d="M157.36,138.93a2.76,2.76,0,0,1,0,.44.86.86,0,0,1-.1.32.52.52,0,0,1-.16.19.5.5,0,0,1-.21.05h-8.79a1,1,0,0,1-.62-.22.91.91,0,0,1-.29-.77V122.6a.91.91,0,0,1,.29-.77,1,1,0,0,1,.62-.22h8.69a.39.39,0,0,1,.21.06.35.35,0,0,1,.15.18,2.69,2.69,0,0,1,.09.32,3.54,3.54,0,0,1,0,.92,2.46,2.46,0,0,1-.09.31.45.45,0,0,1-.15.18.5.5,0,0,1-.21,0H149.6v5.75h6.14a.31.31,0,0,1,.21.07.5.5,0,0,1,.15.17.67.67,0,0,1,.09.31,3.28,3.28,0,0,1,0,.47,2.76,2.76,0,0,1,0,.44.66.66,0,0,1-.09.3.39.39,0,0,1-.15.16.46.46,0,0,1-.21,0H149.6v6.56h7.26a.5.5,0,0,1,.21.05.57.57,0,0,1,.16.18.81.81,0,0,1,.1.31A3.23,3.23,0,0,1,157.36,138.93Z" transform="translate(-0.98 -1.1)"/><path class="cls-3" d="M171.52,138.93a2.76,2.76,0,0,1,0,.44.86.86,0,0,1-.1.32.52.52,0,0,1-.16.19.5.5,0,0,1-.21.05h-8.79a1,1,0,0,1-.62-.22.91.91,0,0,1-.29-.77V122.6a.91.91,0,0,1,.29-.77,1,1,0,0,1,.62-.22h8.69a.37.37,0,0,1,.21.06.35.35,0,0,1,.15.18,2.69,2.69,0,0,1,.09.32,3.54,3.54,0,0,1,0,.92,2.46,2.46,0,0,1-.09.31.45.45,0,0,1-.15.18.46.46,0,0,1-.21,0h-7.16v5.75h6.14a.31.31,0,0,1,.21.07.5.5,0,0,1,.15.17.81.81,0,0,1,.1.31c0,.14,0,.29,0,.47s0,.32,0,.44a.81.81,0,0,1-.1.3.39.39,0,0,1-.15.16.46.46,0,0,1-.21,0h-6.14v6.56H171a.5.5,0,0,1,.21.05.57.57,0,0,1,.16.18.81.81,0,0,1,.1.31A3.23,3.23,0,0,1,171.52,138.93Z" transform="translate(-0.98 -1.1)"/><path class="cls-3" d="M185.68,138.93a2.76,2.76,0,0,1,0,.44.86.86,0,0,1-.1.32.52.52,0,0,1-.16.19.5.5,0,0,1-.21.05h-8.79a1,1,0,0,1-.62-.22.91.91,0,0,1-.29-.77V122.6a.91.91,0,0,1,.29-.77,1,1,0,0,1,.62-.22h8.69a.37.37,0,0,1,.21.06.35.35,0,0,1,.15.18,2.69,2.69,0,0,1,.09.32,3.54,3.54,0,0,1,0,.92,2.46,2.46,0,0,1-.09.31.45.45,0,0,1-.15.18.46.46,0,0,1-.21,0h-7.16v5.75h6.14a.31.31,0,0,1,.21.07.5.5,0,0,1,.15.17.81.81,0,0,1,.1.31c0,.14,0,.29,0,.47s0,.32,0,.44a.81.81,0,0,1-.1.3.39.39,0,0,1-.15.16.46.46,0,0,1-.21,0h-6.14v6.56h7.26a.5.5,0,0,1,.21.05.57.57,0,0,1,.16.18.81.81,0,0,1,.1.31A3.23,3.23,0,0,1,185.68,138.93Z" transform="translate(-0.98 -1.1)"/><path class="cls-3" d="M206,134.79a5.43,5.43,0,0,1-.47,2.3,5,5,0,0,1-1.32,1.7,5.71,5.71,0,0,1-2,1.06,8.45,8.45,0,0,1-2.46.35,8.35,8.35,0,0,1-1.71-.16,9.1,9.1,0,0,1-1.4-.38,6.37,6.37,0,0,1-1-.46,2.59,2.59,0,0,1-.58-.41,1,1,0,0,1-.24-.44,2.24,2.24,0,0,1-.08-.7,3.74,3.74,0,0,1,0-.52,1.33,1.33,0,0,1,.08-.33.41.41,0,0,1,.14-.17.35.35,0,0,1,.2,0,1.17,1.17,0,0,1,.56.24,8.91,8.91,0,0,0,.93.52,8.59,8.59,0,0,0,1.36.53,6.14,6.14,0,0,0,1.85.25,4.75,4.75,0,0,0,1.45-.21,3.46,3.46,0,0,0,1.14-.61,2.55,2.55,0,0,0,.73-1,3.3,3.3,0,0,0,.25-1.29,2.46,2.46,0,0,0-.35-1.33,3.6,3.6,0,0,0-.94-1,7.88,7.88,0,0,0-1.32-.76l-1.52-.71a16.9,16.9,0,0,1-1.52-.8,6.73,6.73,0,0,1-1.32-1,4.86,4.86,0,0,1-.94-1.39,4.63,4.63,0,0,1-.36-1.92,4.81,4.81,0,0,1,.42-2,4.1,4.1,0,0,1,1.16-1.5,5.16,5.16,0,0,1,1.77-.93,7.49,7.49,0,0,1,2.22-.32,7.28,7.28,0,0,1,1.22.11,7.87,7.87,0,0,1,1.16.28,6.3,6.3,0,0,1,1,.4,2.39,2.39,0,0,1,.56.35,1.26,1.26,0,0,1,.18.21.77.77,0,0,1,.07.2,2,2,0,0,1,0,.29c0,.11,0,.26,0,.44a3,3,0,0,1,0,.45,1.39,1.39,0,0,1-.06.34.39.39,0,0,1-.12.19.24.24,0,0,1-.18.07,1.25,1.25,0,0,1-.49-.2l-.81-.45a8,8,0,0,0-1.14-.45,4.85,4.85,0,0,0-1.48-.21,3.83,3.83,0,0,0-1.33.21,2.64,2.64,0,0,0-.93.55,2.15,2.15,0,0,0-.56.8,2.72,2.72,0,0,0-.18,1,2.45,2.45,0,0,0,.35,1.32,3.78,3.78,0,0,0,.94,1,9.45,9.45,0,0,0,1.34.78l1.53.71c.52.24,1,.51,1.53.79a6.49,6.49,0,0,1,1.34,1,4.83,4.83,0,0,1,1,1.39A4.55,4.55,0,0,1,206,134.79Z" transform="translate(-0.98 -1.1)"/><path class="cls-3" d="M220.81,122.66a3,3,0,0,1,0,.46,1,1,0,0,1-.09.32.47.47,0,0,1-.16.18.36.36,0,0,1-.2.06h-5.16v15.88a.32.32,0,0,1-.06.2.36.36,0,0,1-.19.14,2.25,2.25,0,0,1-.38.08,4.42,4.42,0,0,1-.59,0,4.66,4.66,0,0,1-.58,0,2.25,2.25,0,0,1-.38-.08.45.45,0,0,1-.2-.14.39.39,0,0,1,0-.2V123.68h-5.16a.36.36,0,0,1-.2-.06.45.45,0,0,1-.15-.18,1,1,0,0,1-.09-.32,2.07,2.07,0,0,1,0-.46,2.33,2.33,0,0,1,0-.48,1.1,1.1,0,0,1,.09-.33.35.35,0,0,1,.15-.18.36.36,0,0,1,.2-.06h12.75a.41.41,0,0,1,.36.24,1.1,1.1,0,0,1,.09.33A3.43,3.43,0,0,1,220.81,122.66Z" transform="translate(-0.98 -1.1)"/><path class="cls-3" d="M237.23,133.16a8.35,8.35,0,0,1-.49,3,6,6,0,0,1-1.39,2.22,5.87,5.87,0,0,1-2.21,1.37,8.75,8.75,0,0,1-3,.47,8.32,8.32,0,0,1-2.76-.44,5.87,5.87,0,0,1-2.14-1.29,5.72,5.72,0,0,1-1.37-2.15,8.49,8.49,0,0,1-.48-3V122a.39.39,0,0,1,0-.2.45.45,0,0,1,.2-.14,2.33,2.33,0,0,1,.37-.08,4.47,4.47,0,0,1,.6,0,4.66,4.66,0,0,1,.58,0,1.92,1.92,0,0,1,.37.08.41.41,0,0,1,.19.14.32.32,0,0,1,.06.2v11.07a7,7,0,0,0,.31,2.22,4.2,4.2,0,0,0,.9,1.58,3.67,3.67,0,0,0,1.42,1,5.18,5.18,0,0,0,1.86.32,5.28,5.28,0,0,0,1.89-.31,3.57,3.57,0,0,0,1.4-.94,4.29,4.29,0,0,0,.88-1.54,6.93,6.93,0,0,0,.3-2.15V122a.32.32,0,0,1,.06-.2.4.4,0,0,1,.2-.14,2.1,2.1,0,0,1,.37-.08,4.55,4.55,0,0,1,.59,0,4.22,4.22,0,0,1,.57,0,1.92,1.92,0,0,1,.37.08.45.45,0,0,1,.2.14.32.32,0,0,1,.06.2Z" transform="translate(-0.98 -1.1)"/><path class="cls-3" d="M256.15,130.5a12.75,12.75,0,0,1-.61,4.16,7.59,7.59,0,0,1-1.77,2.94,7.4,7.4,0,0,1-2.87,1.75,12.47,12.47,0,0,1-4.05.58H243a1,1,0,0,1-.62-.22.91.91,0,0,1-.29-.77V122.6a.91.91,0,0,1,.29-.77,1,1,0,0,1,.62-.22h4.15a11.57,11.57,0,0,1,4,.61,7.46,7.46,0,0,1,2.75,1.77,7.61,7.61,0,0,1,1.69,2.8A11.29,11.29,0,0,1,256.15,130.5Zm-2.56.1a9.87,9.87,0,0,0-.37-2.77,5.9,5.9,0,0,0-1.15-2.21,5.34,5.34,0,0,0-2-1.46,7.85,7.85,0,0,0-3.1-.53H244.5v14.26H247a8.51,8.51,0,0,0,3-.44,4.78,4.78,0,0,0,2-1.34,5.89,5.89,0,0,0,1.22-2.27A11.9,11.9,0,0,0,253.59,130.6Z" transform="translate(-0.98 -1.1)"/><path class="cls-3" d="M270.1,138.93a2.76,2.76,0,0,1,0,.44.86.86,0,0,1-.1.32.52.52,0,0,1-.16.19.46.46,0,0,1-.21.05h-8.79a1,1,0,0,1-.62-.22.91.91,0,0,1-.29-.77V122.6a.91.91,0,0,1,.29-.77,1,1,0,0,1,.62-.22h8.69a.37.37,0,0,1,.21.06.35.35,0,0,1,.15.18,1.12,1.12,0,0,1,.09.32,2.84,2.84,0,0,1,0,.47,2.89,2.89,0,0,1,0,.45,1,1,0,0,1-.09.31.45.45,0,0,1-.15.18.46.46,0,0,1-.21,0h-7.16v5.75h6.15a.31.31,0,0,1,.2.07.66.66,0,0,1,.16.17,1,1,0,0,1,.09.31,3.28,3.28,0,0,1,0,.47,2.76,2.76,0,0,1,0,.44,1.07,1.07,0,0,1-.09.3.49.49,0,0,1-.16.16.46.46,0,0,1-.2,0h-6.15v6.56h7.26a.46.46,0,0,1,.21.05.57.57,0,0,1,.16.18.81.81,0,0,1,.1.31A3.23,3.23,0,0,1,270.1,138.93Z" transform="translate(-0.98 -1.1)"/><path class="cls-3" d="M287.91,138.93a1.14,1.14,0,0,1-.09.48,1,1,0,0,1-.25.32.92.92,0,0,1-.35.19,1.2,1.2,0,0,1-.38.05H286a2.65,2.65,0,0,1-.67-.07,1.58,1.58,0,0,1-.54-.29,2.58,2.58,0,0,1-.51-.56,7.76,7.76,0,0,1-.55-.9l-5.59-10.42c-.29-.54-.58-1.11-.88-1.7s-.57-1.16-.83-1.72h0c0,.68,0,1.38.05,2.08s0,1.42,0,2.11v11.06a.33.33,0,0,1-.06.19.39.39,0,0,1-.2.15,2.25,2.25,0,0,1-.38.08,4.42,4.42,0,0,1-.59,0,4.55,4.55,0,0,1-.59,0,2,2,0,0,1-.36-.08.39.39,0,0,1-.2-.15.33.33,0,0,1-.06-.19v-16.9a.93.93,0,0,1,.33-.81,1.12,1.12,0,0,1,.7-.24h1.2a2.8,2.8,0,0,1,.7.07,1.53,1.53,0,0,1,.52.23,1.93,1.93,0,0,1,.43.46,5,5,0,0,1,.45.73l4.3,8c.26.49.52,1,.76,1.44s.49.92.71,1.38l.68,1.33c.23.44.45.88.67,1.33h0c0-.75,0-1.52,0-2.33V122a.33.33,0,0,1,.06-.19.47.47,0,0,1,.2-.14,1.1,1.1,0,0,1,.37-.1l.61,0,.56,0a1.09,1.09,0,0,1,.38.1.49.49,0,0,1,.19.14.33.33,0,0,1,.06.19Z" transform="translate(-0.98 -1.1)"/><path class="cls-3" d="M304.27,122.66a3,3,0,0,1,0,.46,1,1,0,0,1-.09.32.47.47,0,0,1-.16.18.36.36,0,0,1-.2.06h-5.16v15.88a.32.32,0,0,1-.06.2.36.36,0,0,1-.19.14,2.25,2.25,0,0,1-.38.08,4.42,4.42,0,0,1-.59,0,4.66,4.66,0,0,1-.58,0,2.25,2.25,0,0,1-.38-.08.45.45,0,0,1-.2-.14.39.39,0,0,1-.05-.2V123.68H291a.36.36,0,0,1-.2-.06.45.45,0,0,1-.15-.18,1,1,0,0,1-.09-.32,2.07,2.07,0,0,1,0-.46,2.33,2.33,0,0,1,0-.48,1.1,1.1,0,0,1,.09-.33.35.35,0,0,1,.15-.18.36.36,0,0,1,.2-.06h12.75a.41.41,0,0,1,.36.24,1.1,1.1,0,0,1,.09.33A3.43,3.43,0,0,1,304.27,122.66Z" transform="translate(-0.98 -1.1)"/><path class="cls-3" d="M325.55,134.68a5.36,5.36,0,0,1-.22,1.59,4.48,4.48,0,0,1-1.57,2.33,5.57,5.57,0,0,1-1.26.74,7.24,7.24,0,0,1-1.5.44,10.07,10.07,0,0,1-1.84.15h-4.78a1,1,0,0,1-.62-.22.91.91,0,0,1-.29-.77V122.6a.91.91,0,0,1,.29-.77,1,1,0,0,1,.62-.22h4.16a9.55,9.55,0,0,1,2.69.31,4.76,4.76,0,0,1,1.75.91,3.7,3.7,0,0,1,1.06,1.46,5.18,5.18,0,0,1,.35,1.95,4.71,4.71,0,0,1-.16,1.25,3.77,3.77,0,0,1-.46,1.09,3.43,3.43,0,0,1-.76.9,3.92,3.92,0,0,1-1.06.65,4.69,4.69,0,0,1,1.41.52,4.35,4.35,0,0,1,1.14,1,4.57,4.57,0,0,1,.77,1.35A5,5,0,0,1,325.55,134.68Zm-3.67-8.2a3.74,3.74,0,0,0-.18-1.2,2.26,2.26,0,0,0-.58-.92,2.56,2.56,0,0,0-1-.57,5.83,5.83,0,0,0-1.68-.2h-2.52v5.93h2.77a4.09,4.09,0,0,0,1.53-.24,2.9,2.9,0,0,0,1-.67,2.64,2.64,0,0,0,.56-1A4,4,0,0,0,321.88,126.48Zm1.11,8.34a3.74,3.74,0,0,0-.26-1.44,2.71,2.71,0,0,0-.77-1,3.3,3.3,0,0,0-1.25-.65,7.24,7.24,0,0,0-1.9-.22h-2.92v6.46h3.54a4.54,4.54,0,0,0,1.45-.2,3.24,3.24,0,0,0,1.1-.59,2.72,2.72,0,0,0,.74-1A3.19,3.19,0,0,0,323,134.82Z" transform="translate(-0.98 -1.1)"/><path class="cls-3" d="M341.47,139.56a.39.39,0,0,1-.05.2.27.27,0,0,1-.18.14,1.49,1.49,0,0,1-.4.09,6,6,0,0,1-.68,0,5,5,0,0,1-.6,0,1.43,1.43,0,0,1-.37-.09.58.58,0,0,1-.22-.18,1.46,1.46,0,0,1-.14-.28l-1.68-4.32c-.2-.49-.41-.94-.62-1.36a4.16,4.16,0,0,0-.76-1.06,3.06,3.06,0,0,0-1-.69,3.62,3.62,0,0,0-1.43-.25h-1.63v7.8a.32.32,0,0,1-.06.2.45.45,0,0,1-.2.14,1.92,1.92,0,0,1-.37.08,4.3,4.3,0,0,1-1.17,0,2.25,2.25,0,0,1-.38-.08.45.45,0,0,1-.2-.14.39.39,0,0,1-.05-.2v-17a.88.88,0,0,1,.29-.77,1,1,0,0,1,.61-.22h3.9c.46,0,.84,0,1.15,0l.83.08a7.15,7.15,0,0,1,1.88.58,4.51,4.51,0,0,1,1.36,1,3.93,3.93,0,0,1,.83,1.39,5.56,5.56,0,0,1,0,3.39,4.08,4.08,0,0,1-.72,1.29,5,5,0,0,1-1.11,1,7.86,7.86,0,0,1-1.46.69,3.6,3.6,0,0,1,.82.5,4.77,4.77,0,0,1,.68.73,6.09,6.09,0,0,1,.61,1c.19.37.37.78.56,1.24l1.64,4a7.13,7.13,0,0,1,.26.72A1.17,1.17,0,0,1,341.47,139.56Zm-3.67-12.87a3.29,3.29,0,0,0-.48-1.82,2.76,2.76,0,0,0-1.62-1.07,5.27,5.27,0,0,0-.8-.14c-.29,0-.68,0-1.16,0h-2.06v6.17h2.38a5.52,5.52,0,0,0,1.67-.23,3.34,3.34,0,0,0,1.16-.65,2.61,2.61,0,0,0,.69-1A3.24,3.24,0,0,0,337.8,126.69Z" transform="translate(-0.98 -1.1)"/><path class="cls-3" d="M358.71,139.07a1.47,1.47,0,0,1,.12.5.35.35,0,0,1-.1.29.68.68,0,0,1-.38.13,6.41,6.41,0,0,1-.7,0l-.7,0a1.55,1.55,0,0,1-.4-.08.34.34,0,0,1-.19-.13.72.72,0,0,1-.12-.21l-1.58-4.46h-7.61l-1.5,4.4a.66.66,0,0,1-.12.22.67.67,0,0,1-.2.16,1.41,1.41,0,0,1-.39.09,5.48,5.48,0,0,1-.64,0,5.73,5.73,0,0,1-.67,0,.68.68,0,0,1-.37-.13.39.39,0,0,1-.1-.29,2.25,2.25,0,0,1,.12-.51l6.15-17a.61.61,0,0,1,.14-.25.72.72,0,0,1,.27-.16,2.27,2.27,0,0,1,.46-.08l.7,0,.75,0a2.37,2.37,0,0,1,.48.08.56.56,0,0,1,.28.17.68.68,0,0,1,.16.26Zm-7.88-15h0l-3.16,9.14H354Z" transform="translate(-0.98 -1.1)"/><path class="cls-3" d="M375.62,138.93a1.14,1.14,0,0,1-.09.48,1,1,0,0,1-.25.32.92.92,0,0,1-.35.19,1.2,1.2,0,0,1-.38.05h-.8a2.65,2.65,0,0,1-.67-.07,1.58,1.58,0,0,1-.54-.29,2.58,2.58,0,0,1-.51-.56,6.58,6.58,0,0,1-.55-.9l-5.59-10.42c-.29-.54-.58-1.11-.88-1.7s-.57-1.16-.83-1.72h0c0,.68,0,1.38,0,2.08s0,1.42,0,2.11v11.06a.33.33,0,0,1-.06.19.39.39,0,0,1-.2.15,2.25,2.25,0,0,1-.38.08,4.42,4.42,0,0,1-.59,0,4.55,4.55,0,0,1-.59,0,2,2,0,0,1-.36-.08.39.39,0,0,1-.2-.15.33.33,0,0,1-.06-.19v-16.9a1,1,0,0,1,.32-.81,1.17,1.17,0,0,1,.71-.24H364a2.83,2.83,0,0,1,.71.07,1.48,1.48,0,0,1,.51.23,1.77,1.77,0,0,1,.44.46,6,6,0,0,1,.45.73l4.3,8c.26.49.52,1,.76,1.44s.49.92.71,1.38l.68,1.33c.22.44.45.88.66,1.33h0c0-.75,0-1.52,0-2.33V122a.33.33,0,0,1,.06-.19.47.47,0,0,1,.2-.14,1.1,1.1,0,0,1,.37-.1l.61,0,.56,0a1.09,1.09,0,0,1,.38.1.49.49,0,0,1,.19.14.33.33,0,0,1,.06.19Z" transform="translate(-0.98 -1.1)"/><path class="cls-3" d="M392.73,137.34c0,.15,0,.28,0,.4a1.16,1.16,0,0,1,0,.29.69.69,0,0,1-.09.23,1,1,0,0,1-.2.24,3.31,3.31,0,0,1-.59.43,6.23,6.23,0,0,1-1.13.57,10.07,10.07,0,0,1-1.54.47,9.44,9.44,0,0,1-1.91.19,8.32,8.32,0,0,1-3.22-.6,6.57,6.57,0,0,1-2.45-1.75,8.06,8.06,0,0,1-1.55-2.87,12.73,12.73,0,0,1-.55-3.93A13,13,0,0,1,380,127a8.83,8.83,0,0,1,1.65-3,7.17,7.17,0,0,1,2.54-1.89,8.14,8.14,0,0,1,3.28-.65,7.81,7.81,0,0,1,1.54.15,9.08,9.08,0,0,1,1.39.38,6.22,6.22,0,0,1,1.13.52,3.94,3.94,0,0,1,.69.49,1.62,1.62,0,0,1,.25.29,1,1,0,0,1,.09.23c0,.09,0,.2.06.32s0,.27,0,.44a3.23,3.23,0,0,1,0,.48,1.31,1.31,0,0,1-.09.33.53.53,0,0,1-.13.2.32.32,0,0,1-.19.07,1.1,1.1,0,0,1-.56-.28,9.15,9.15,0,0,0-.92-.61,7.74,7.74,0,0,0-1.37-.61,6,6,0,0,0-1.92-.27,5.1,5.1,0,0,0-2.23.48,4.83,4.83,0,0,0-1.72,1.44,7.14,7.14,0,0,0-1.1,2.32,11.38,11.38,0,0,0-.39,3.12,11,11,0,0,0,.38,3.08,6.41,6.41,0,0,0,1.08,2.24,4.5,4.5,0,0,0,1.73,1.36,5.68,5.68,0,0,0,2.32.46,6.07,6.07,0,0,0,1.91-.27,7.08,7.08,0,0,0,1.4-.61,9.88,9.88,0,0,0,.94-.6,1.13,1.13,0,0,1,.59-.27.34.34,0,0,1,.17.05.3.3,0,0,1,.11.16,1.68,1.68,0,0,1,.07.33C392.72,136.94,392.73,137.12,392.73,137.34Z" transform="translate(-0.98 -1.1)"/><path class="cls-3" d="M409.15,139.56a.39.39,0,0,1,0,.2.45.45,0,0,1-.2.14,2.25,2.25,0,0,1-.38.08,4.22,4.22,0,0,1-.57,0,4.59,4.59,0,0,1-.6,0,2,2,0,0,1-.36-.08.4.4,0,0,1-.2-.14.32.32,0,0,1-.06-.2v-8.12h-8.34v8.12a.32.32,0,0,1-.06.2.36.36,0,0,1-.19.14,2.25,2.25,0,0,1-.38.08,4.42,4.42,0,0,1-.59,0,4.66,4.66,0,0,1-.58,0,2.25,2.25,0,0,1-.38-.08.45.45,0,0,1-.2-.14.31.31,0,0,1-.05-.2V122a.31.31,0,0,1,.05-.2.45.45,0,0,1,.2-.14,2.25,2.25,0,0,1,.38-.08,4.66,4.66,0,0,1,.58,0,4.42,4.42,0,0,1,.59,0,2.25,2.25,0,0,1,.38.08.36.36,0,0,1,.19.14.32.32,0,0,1,.06.2v7.33h8.34V122a.32.32,0,0,1,.06-.2.4.4,0,0,1,.2-.14,2,2,0,0,1,.36-.08,4.59,4.59,0,0,1,.6,0,4.22,4.22,0,0,1,.57,0,2.25,2.25,0,0,1,.38.08.45.45,0,0,1,.2.14.39.39,0,0,1,0,.2Z" transform="translate(-0.98 -1.1)"/><path class="cls-1" d="M86.82,115.26H37.94a2.34,2.34,0,0,0-2.34,2.33V119a2.34,2.34,0,0,0,2.34,2.33H59.32v21.88a2.54,2.54,0,0,0,2.52,2.52h1a2.53,2.53,0,0,0,2.51-2.52V121.33H86.82A2.34,2.34,0,0,0,89.15,119v-1.41A2.34,2.34,0,0,0,86.82,115.26ZM62.36,144.38a1.1,1.1,0,1,1,1.1-1.1A1.1,1.1,0,0,1,62.36,144.38Zm-23.16-25a1.1,1.1,0,1,1,1.1-1.09A1.09,1.09,0,0,1,39.2,119.39Zm46.85,0a1.1,1.1,0,1,1,1.1-1.09A1.1,1.1,0,0,1,86.05,119.39Z" transform="translate(-0.98 -1.1)"/><polygon class="cls-1" points="2.25 72.45 14.56 84.76 50.92 84.76 62.48 72.11 62.48 48.99 73.41 38.05 73.41 14.56 71.39 14.56 71.39 36.7 62.48 45.61 62.48 13.74 51.04 2.31 49.41 3.94 60.14 14.67 60.14 56.94 50.98 47.78 50.98 25.69 48.45 25.69 48.45 35.35 39.32 25.24 37.93 26.63 48.56 39.31 48.56 49.18 59.92 60.54 59.92 70.99 55.31 76.05 39.11 59.85 37.56 61.39 46.91 70.74 38.22 70.74 27.5 60.02 27.5 48.84 25.07 48.84 25.07 61.1 37.13 73.58 49.8 73.58 53.79 77.57 49.58 82.23 38.78 82.23 16.3 59.75 16.3 47.5 14.16 47.5 14.16 60.87 35.92 82.63 27.2 82.63 4.02 59.44 2.25 61.21 23.72 82.68 16.08 82.68 3.71 70.32 2.25 72.45"/><circle class="cls-1" cx="3.09" cy="71.55" r="3.09"/><circle class="cls-1" cx="3.09" cy="60.31" r="3.09"/><circle class="cls-1" cx="15.34" cy="48.51" r="3.09"/><circle class="cls-1" cx="26.36" cy="48.51" r="3.09"/><circle class="cls-1" cx="37.83" cy="60.31" r="3.09"/><circle class="cls-1" cx="38.22" cy="25.91" r="3.09"/><circle class="cls-1" cx="49.74" cy="25.91" r="3.09"/><circle class="cls-1" cx="50.64" cy="3.09" r="3.09"/><circle class="cls-1" cx="72.68" cy="14.11" r="3.09"/><circle class="cls-1" cx="84.44" cy="25.91" r="3.09"/><circle class="cls-1" cx="84.44" cy="61.13" r="3.09"/><circle class="cls-1" cx="27.47" cy="95.45" r="3.09"/><circle class="cls-1" cx="84.44" cy="71.58" r="3.09"/><circle class="cls-1" cx="95.54" cy="48.51" r="3.09"/><circle class="cls-1" cx="107.08" cy="48.47" r="3.09"/><circle class="cls-1" cx="118.92" cy="60.31" r="3.09"/><circle class="cls-1" cx="15.48" cy="117.31" r="3.09"/><polygon class="cls-1" points="13.99 116.9 25.66 105.49 48.3 105.49 83.79 70 85.51 71.72 75.47 81.75 84.44 81.75 94.56 71.64 94.56 48.51 97.02 48.51 97.02 72.6 87.95 81.67 95.37 81.67 105.67 71.37 105.67 49.52 108.11 49.52 108.11 69.31 118.08 59.34 119.69 60.95 96.29 84.34 73.41 84.34 49.76 107.99 27.47 107.99 16.75 118.29 13.99 116.9"/><path class="cls-1" d="M28.67,95.1h21L72.06,72.36V49.61L84.67,37V27H86.6V38.48L74.46,50.62V60.7H85v2.48l-10.56.13V74.15L51.8,96.75a2.44,2.44,0,0,1-1.71.7H28.45Z" transform="translate(-0.98 -1.1)"/><polygon class="cls-1" points="72.68 105.58 84.35 93.91 95.54 93.91 118.39 71.05 120.04 72.69 96.37 96.36 85.07 96.36 74.53 106.9 72.68 105.58"/><path class="cls-1" d="M85.42,106.53H98.67l10,10.57-2.13,1.61-8.87-9.84H85.42S86.19,106.53,85.42,106.53Z" transform="translate(-0.98 -1.1)"/><circle class="cls-1" cx="61.4" cy="106.79" r="3.09"/><circle class="cls-1" cx="73.41" cy="94.45" r="3.09"/><circle class="cls-1" cx="72.68" cy="106.79" r="3.09"/><circle class="cls-1" cx="118.92" cy="71.58" r="3.09"/><circle class="cls-1" cx="107.32" cy="117.2" r="3.09"/><circle class="cls-1" cx="84.44" cy="106.79" r="3.09"/><polygon class="cls-1" points="59.85 106.25 72.57 93.52 74.41 95.37 61.98 107.8 59.85 106.25"/></svg>