<svg id="Trimmed_HalfName" xmlns="http://www.w3.org/2000/svg" viewBox="0 0 461.46 426.51"><defs><style>.cls-1{fill:none;}.cls-2{fill:#fff;}</style></defs><title>IEEE_Skyline</title><path class="cls-1" d="M271.72,32a10.7,10.7,0,0,0-2.24-4,4.09,4.09,0,0,0-3-1.45H266V371.7h6.22V361.2h2.44l0-320.62Z"/><path class="cls-1" d="M314.94,31a6.19,6.19,0,0,0,3.76-1.22,7.84,7.84,0,0,0,2.59-3.51,14.5,14.5,0,0,0,.92-5.43,13.86,13.86,0,0,0-1.89-7.77,5.92,5.92,0,0,0-5.18-2.84A6.55,6.55,0,0,0,309.54,13q-2,2.73-2,7.71t2,7.6A6.35,6.35,0,0,0,314.94,31Z"/><path class="cls-1" d="M227.22,31A6.19,6.19,0,0,0,231,29.78a7.84,7.84,0,0,0,2.59-3.51,14.5,14.5,0,0,0,.92-5.43,13.86,13.86,0,0,0-1.89-7.77,5.92,5.92,0,0,0-5.18-2.84A6.55,6.55,0,0,0,221.82,13q-2,2.73-2,7.71t2,7.6A6.35,6.35,0,0,0,227.22,31Z"/><path class="cls-1" d="M272.08,16.75a4.47,4.47,0,0,0,1.47-3.42,4.18,4.18,0,0,0-1.22-3.17A5.41,5.41,0,0,0,268.49,9H266v9.13h2.17A5.52,5.52,0,0,0,272.08,16.75Z"/><path class="cls-1" d="M354.52,21.32a45.59,45.59,0,0,1-2.73-4.12h-.11q.17,3,.17,6.62V355.61h.2V323.7h13V273.41l3.64-4L368.6,40.58Z"/><path class="cls-1" d="M441.44,31a6.19,6.19,0,0,0,3.76-1.22,7.84,7.84,0,0,0,2.59-3.51,14.5,14.5,0,0,0,.92-5.43,13.86,13.86,0,0,0-1.89-7.77,5.92,5.92,0,0,0-5.18-2.84A6.55,6.55,0,0,0,436,13q-2,2.73-2,7.71t2,7.6A6.35,6.35,0,0,0,441.44,31Z"/><rect class="cls-2" y="0.67" width="12.02" height="367.53"/><path class="cls-2" d="M45.76,31.17H32V25.3H44.06V15.89H32V10.08H44.84V.67H20V384.14c4.34-4.05,14.69-8.86,25.77-10.64Z"/><path class="cls-2" d="M56.11,372.82c9.2.38,16,1.86,21.21,3.84V31.17H63.57V25.3H75.63V15.89H63.57V10.08H76.4V.67H51.55v372.2C53.08,372.78,54.6,372.76,56.11,372.82Z"/><path class="cls-2" d="M91.55,386.26V337.94h3.88v-9.48h13.45V31.17H95.14V25.3h12.05V15.89H95.14V10.08H108V.67H83.11V379.41A36.82,36.82,0,0,1,91.55,386.26Z"/><path class="cls-2" d="M141.36,256.2h-6.09l-2.3-4.57,1.94-3.47-2.3-2.71-.3-1.58,3.88-6.18-.36-6h7v-4.4l-.85-.93V222.1l1.94-1.78.42-23.87-1.27-2.29v-3.3l1.27-1.61v-2.37l.61-.68,1.46-37.1.36-1.35,1-23.27.85,23.19.49,1.35,1.69,37.27.55.68v2.26l1,1.38v3.16l-1,2.26.49,24.61,1.82,1.52v4.29l-1,1.07v4.12h6.8l-.38,5.93,3.8,5.83-.2,1.91-1.92,3,2.12,3.13-2.33,4.4h-5.06l3.92,81.6h2.3v89.1h2.14V419h1.56V.67H153.31V23.3a9.81,9.81,0,0,1-1.41,5.76A4.75,4.75,0,0,1,147.8,31a4.69,4.69,0,0,1-4.11-2.07A10.34,10.34,0,0,1,142.26,23V.67H130.18V387.39h6Z"/><polygon class="cls-2" points="193.06 10.07 204.37 10.07 204.37 0.67 169.82 0.67 169.82 10.07 180.99 10.07 180.99 339.61 193.06 339.61 193.06 10.07"/><path class="cls-2" d="M219.84,339.61v34.8h27.39V20.51a22.77,22.77,0,0,0-2.46-10.7,17.36,17.36,0,0,0-7-7.26A20.54,20.54,0,0,0,227.52,0a21.13,21.13,0,0,0-10.63,2.66,18.39,18.39,0,0,0-7.26,7.53,23,23,0,0,0-2.59,11c0,2.21-.42,172.19-.78,318.46h13.58Zm2-326.64a6.55,6.55,0,0,1,5.59-2.73,5.92,5.92,0,0,1,5.18,2.84,13.86,13.86,0,0,1,1.89,7.77,14.5,14.5,0,0,1-.92,5.43A7.84,7.84,0,0,1,231,29.78,6.19,6.19,0,0,1,227.22,31a6.35,6.35,0,0,1-5.41-2.73q-2-2.73-2-7.6T221.82,13Z"/><path class="cls-2" d="M258.29,393.54h4.25V371.7H266V26.55h.47a4.09,4.09,0,0,1,3,1.45,10.7,10.7,0,0,1,2.24,4l3,8.6,0,320.62h13.58V40.58l-3.92-10.16a15.66,15.66,0,0,0-3-5.2,9.67,9.67,0,0,0-4.22-2.53v-.11a13.25,13.25,0,0,0,6.92-4,10.41,10.41,0,0,0,2.32-6.9q0-5.48-4-8.22T270,.67H254V381.52h4.3ZM266,9h2.48a5.41,5.41,0,0,1,3.84,1.17,4.18,4.18,0,0,1,1.22,3.17,4.47,4.47,0,0,1-1.47,3.42,5.52,5.52,0,0,1-3.9,1.36H266Z"/><path class="cls-2" d="M294.86,374.75h3.58V365.6h5.09V358H313v-5.76h3.27v-8.3h9.58v-7.11H335V20.51a22.77,22.77,0,0,0-2.46-10.7,17.36,17.36,0,0,0-7-7.26A20.54,20.54,0,0,0,315.25,0a21.13,21.13,0,0,0-10.63,2.66,18.39,18.39,0,0,0-7.26,7.53,23,23,0,0,0-2.59,11v348l.1.13ZM309.54,13a6.55,6.55,0,0,1,5.59-2.73,5.92,5.92,0,0,1,5.18,2.84,13.86,13.86,0,0,1,1.89,7.77,14.5,14.5,0,0,1-.92,5.43,7.84,7.84,0,0,1-2.59,3.51A6.19,6.19,0,0,1,314.94,31a6.35,6.35,0,0,1-5.41-2.73q-2-2.73-2-7.6T309.54,13Z"/><path class="cls-2" d="M342.22,340.2,347,355.61h4.9V23.82q0-3.67-.17-6.62h.11a45.59,45.59,0,0,0,2.73,4.12L368.6,40.58l.06,228.85,5.33-5.84h5.15V.67H368v17.9a36.17,36.17,0,0,0,.17,4.23h-.11a6.39,6.39,0,0,0-.49-.89q-.32-.5-.68-1l-.72-1-.61-.86L352.07.67H340.71V336.82h1.51Z"/><polygon class="cls-2" points="407.29 10.07 418.59 10.07 418.59 0.67 384.05 0.67 384.05 10.07 395.21 10.07 395.21 297.63 407.29 297.63 407.29 10.07"/><path class="cls-2" d="M432.1,323.36h15V294.24l3.64-5.08V278.83h10.68V20.51A22.77,22.77,0,0,0,459,9.81a17.36,17.36,0,0,0-7-7.26A20.54,20.54,0,0,0,441.75,0a21.13,21.13,0,0,0-10.63,2.66,18.39,18.39,0,0,0-7.26,7.53,23,23,0,0,0-2.59,11V315.41H432.1ZM436,13a6.55,6.55,0,0,1,5.59-2.73,5.92,5.92,0,0,1,5.18,2.84,13.86,13.86,0,0,1,1.89,7.77,14.5,14.5,0,0,1-.92,5.43,7.84,7.84,0,0,1-2.59,3.51A6.19,6.19,0,0,1,441.44,31,6.35,6.35,0,0,1,436,28.28q-2-2.73-2-7.6T436,13Z"/></svg>