<?xml version="1.0" encoding="UTF-8"?>
<svg width="355px" height="364px" viewBox="0 0 355 364" version="1.1" xmlns="http://www.w3.org/2000/svg" xmlns:xlink="http://www.w3.org/1999/xlink">
    <!-- Generator: Sketch 52.6 (67491) - http://www.bohemiancoding.com/sketch -->
    <title>MachineTopImage</title>
    <desc>Created with Sketch.</desc>
    <defs>
        <linearGradient x1="68.6681456%" y1="2.91540719%" x2="31.5875396%" y2="106.52434%" id="linearGradient-1">
            <stop stop-color="#F9F9F9" offset="0%"></stop>
            <stop stop-color="#FFFFFF" offset="100%"></stop>
        </linearGradient>
        <linearGradient x1="59.8295807%" y1="5.87437211%" x2="16.8415637%" y2="65.7173688%" id="linearGradient-2">
            <stop stop-color="#DBD8E6" offset="0%"></stop>
            <stop stop-color="#E3E3E3" offset="100%"></stop>
        </linearGradient>
        <linearGradient x1="0%" y1="0%" x2="0%" y2="100%" id="linearGradient-3">
            <stop stop-color="#FFFFFF" offset="0%"></stop>
            <stop stop-color="#FFFFFF" offset="100%"></stop>
        </linearGradient>
        <linearGradient x1="0%" y1="0%" x2="0%" y2="100%" id="linearGradient-4">
            <stop stop-color="#4198B2" offset="0%"></stop>
            <stop stop-color="#4096B3" offset="100%"></stop>
        </linearGradient>
        <linearGradient x1="9.37058824%" y1="31.3909091%" x2="39.3137255%" y2="96.4636364%" id="linearGradient-5">
            <stop stop-color="#FFFFFF" offset="0%"></stop>
            <stop stop-color="#F0959A" offset="100%"></stop>
        </linearGradient>
        <linearGradient x1="0%" y1="104.18481%" x2="100%" y2="104.18481%" id="linearGradient-6">
            <stop stop-color="#FF6161" offset="0%"></stop>
            <stop stop-color="#F1D0A0" offset="100%"></stop>
        </linearGradient>
        <linearGradient x1="-16.6015748%" y1="0%" x2="-16.6015748%" y2="133.202899%" id="linearGradient-7">
            <stop stop-color="#FFFFFF" stop-opacity="0.01" offset="0%"></stop>
            <stop stop-color="#D4E6F0" stop-opacity="0.213822" offset="35.1582%"></stop>
            <stop stop-color="#355CB9" offset="100%"></stop>
        </linearGradient>
        <linearGradient x1="72.021097%" y1="8.83463761%" x2="54.3776371%" y2="38.8795111%" id="linearGradient-8">
            <stop stop-color="#FDFDFD" offset="0%"></stop>
            <stop stop-color="#FFFFFF" offset="100%"></stop>
        </linearGradient>
        <linearGradient x1="0%" y1="0%" x2="0%" y2="100%" id="linearGradient-9">
            <stop stop-color="#383757" stop-opacity="0.12" offset="0%"></stop>
            <stop stop-color="#3D39FF" stop-opacity="0.522946" offset="100%"></stop>
        </linearGradient>
        <linearGradient x1="-17.5968254%" y1="73.0313131%" x2="89.4206349%" y2="88.2838384%" id="linearGradient-10">
            <stop stop-color="#CCCCCC" offset="0%"></stop>
            <stop stop-color="#9C9C9C" offset="100%"></stop>
        </linearGradient>
        <linearGradient x1="56.5730159%" y1="-6.27205882%" x2="23.8746032%" y2="79.2073529%" id="linearGradient-11">
            <stop stop-color="#ECECEC" offset="0%"></stop>
            <stop stop-color="#FFFFFF" offset="100%"></stop>
        </linearGradient>
        <rect id="path-12" x="0" y="0" width="133" height="102"></rect>
        <linearGradient x1="0%" y1="50%" x2="100.000426%" y2="50%" id="linearGradient-14">
            <stop stop-color="#333333" offset="0%"></stop>
            <stop stop-color="#231F20" offset="100%"></stop>
        </linearGradient>
    </defs>
    <g id="Page-1" stroke="none" stroke-width="1" fill="none" fill-rule="evenodd">
        <g id="Artboard" transform="translate(-22.000000, -17.000000)">
            <g id="MachineTopImage" transform="translate(22.000000, 17.000000)">
                <path d="M266.024,67.8471 C255.492,61.7552 242.508,61.7552 231.976,67.8471 L155.979,111.806 C151.985,114.117 151.985,119.883 155.979,122.194 L231.976,166.153 C242.508,172.245 255.492,172.245 266.024,166.153 L342.021,122.194 C346.015,119.883 346.015,114.117 342.021,111.806 L266.024,67.8471 Z" id="Path" fill="url(#linearGradient-1)"></path>
                <path d="M344.85,114 L344.85,219.444 C344.85,219.444 346.884,221.984 321.329,235.845 C295.774,249.706 265.662,268.212 265.662,268.212 C265.662,268.212 248.625,277.788 231.589,268.212 C214.552,258.635 156.913,225.969 156.913,225.969 C156.913,225.969 153.148,223.279 153.148,218.971 C153.148,214.663 153,117 153,117 C153,117 153.583,117.811 153.632,117.957 C153.89,118.725 156.032,120.026 161.608,123.155 C167.859,126.662 188.993,138.892 234.882,165.226 C237.741,166.867 248.625,167.917 248.625,167.917 C248.625,167.917 260.324,166.658 263.962,164.587 C315.656,135.154 338.638,121.655 341.022,120.165 C344.85,117.772 344.85,114 344.85,114 Z" id="Path" fill="url(#linearGradient-2)"></path>
                <polygon id="Path" fill="#B7B5BD" points="282 258.242 311 275 311 226.551 299.153 219.54 282 175"></polygon>
                <polygon id="Path" fill="#000000" points="326 233.242 355 250 355 201.551 343.153 194.54 326 150"></polygon>
                <polygon id="Path" fill="#F1F1F1" points="311 275 355 250.1 355 202 311 226.9"></polygon>
                <polygon id="Path" fill="url(#linearGradient-3)" points="343.225 194.231 326.176 150 282 174.906 299.097 219.137 311 227 355 202.068"></polygon>
                <polygon id="Path" fill-opacity="0.64" fill="url(#linearGradient-4)" points="288 179.919 326.209 158 339 191.652 300.527 213"></polygon>
                <polygon id="Path" fill-opacity="0.64" fill="url(#linearGradient-5)" points="290 180.919 328.209 159 341 192.652 302.527 214"></polygon>
                <polygon id="Path" fill="url(#linearGradient-6)" points="189 115.826 249.977 151 316 115.826 316 103.908 250.737 72 189 103.908"></polygon>
                <polygon id="Path" fill="url(#linearGradient-7)" points="189 4.94852 189 104.674 249.977 138 315.952 104.674 316 0"></polygon>
                <path d="M299,203 L300.844,193.54 L304.672,194.434 L305.409,184.66 L312.385,190.083 L313.627,187.251 L320.458,190.083 L319.858,177.877 C319.858,177.877 324.672,181.178 324.672,180.255 C324.672,179.332 323.81,170 323.81,170 L336,184.777 L336,180.255" id="Path" stroke="#FFFFFF"></path>
                <polygon id="Path" fill-opacity="0.37917" fill="#A8A8A8" points="293 181.919 331.209 160 344 193.652 305.527 215"></polygon>
                <path d="M79.0094,342.196 C78.206,342.394 77.2944,342.749 76.2622,343.28 C69.6777,346.669 68,352.013 68,357.644 C68,363.274 71.8508,365.402 76.0192,363.064 C76.6784,362.695 77.3418,362.239 77.9916,361.711 L237,269.84 L237,251 L79.0094,342.196 Z" id="Path" fill="#E4E4E4"></path>
                <path d="M75.7805,344.873 C74.5273,345.637 68.3325,349.832 68.3325,358.086 C68.3325,361.245 69.07,362.257 70.115,363.204 C69.3121,362.777 4.87067,324.727 4.87067,324.727 C4.87067,324.727 0.00154429,323.845 0.00154429,318.666 C0.00154429,318.542 0.00117936,318.413 0.000804297,318.282 C-0.00579144,315.963 -0.0155205,312.542 1.90118,309.415 C2.89814,307.789 6.76699,305 6.76699,305 L7.025,305.148 L168,212 L237,251.927 L76,345 L75.7805,344.873 Z M74.2175,363.989 C74.2175,363.989 70.9179,363.631 70.115,363.204 C71.0948,364.092 74.2175,363.989 74.2175,363.989 Z" id="Shape" fill="url(#linearGradient-8)"></path>
                <polygon id="Path" fill="url(#linearGradient-9)" points="189 99.341 250.881 67 316 99.341 250.881 133"></polygon>
                <polygon id="Path" fill="url(#linearGradient-10)" points="172 214.14 172 152 235 188.429 235 251"></polygon>
                <polygon id="Path" fill="url(#linearGradient-11)" points="235 188.296 235 251 172 214.813 225.842 183"></polygon>
                <path d="M304,212 L305.844,202.54 L309.672,203.434 L310.409,193.66 L317.385,199.083 L318.627,196.251 L325.458,199.083 L324.858,186.877 C324.858,186.877 329.672,190.178 329.672,189.255 C329.672,188.332 328.81,179 328.81,179 L341,191.777" id="Path" fill-opacity="0.854021" fill="#C3C4EB"></path>
                <g id="Group" transform="translate(102.000000, 183.000000)">
                    <mask id="mask-13" fill="white">
                        <use xlink:href="#path-12"></use>
                    </mask>
                    <g id="Mask" fill-rule="nonzero"></g>
                    <g mask="url(#mask-13)">
                        <g transform="translate(90.000000, 53.000000) scale(-1, 1) translate(-90.000000, -53.000000) translate(12.000000, 6.000000)">
                            <path d="M51.7863768,48.3671881 C51.0757102,47.1365215 48.8023769,47.1178548 46.7063769,48.3285214 C44.6117103,49.5378547 43.490377,51.515188 44.202377,52.7458546 C44.9117103,53.9778546 47.1863769,53.995188 49.2810435,52.7858546 C51.3743768,51.5765213 52.4970435,49.5991881 51.7863768,48.3671881" id="path3488" fill="#FF8885"></path>
                            <path d="M35.8111772,48.0169214 L44.483177,53.1062546 L51.6205101,48.1155881 L42.647177,42.8395882 C40.3685104,44.5662549 38.0898438,46.2915881 35.8111772,48.0169214" id="path3492" fill="#FF8885"></path>
                            <path d="M43.213577,43.4035882 C42.5029104,42.1729216 40.2295771,42.1542549 38.1335771,43.3649215 C36.0389105,44.5742549 34.9175772,46.5515881 35.6282439,47.7835881 C36.3389105,49.0142547 38.6135771,49.0329214 40.7082437,47.8222548 C42.801577,46.6129215 43.9242437,44.6355882 43.213577,43.4035882" id="path3496" fill="#FF6666"></path>
                            <path d="M41.0950437,45.1901215 C40.7590437,45.3847882 40.3950438,45.3807882 40.2803771,45.1834548 C28.4670441,38.3527883 16.6550444,31.5207885 4.84304465,24.690122 C5.19904464,24.4047887 5.55504463,24.1194554 5.91104462,23.834122 C17.7430443,30.6767885 29.5763774,37.519455 41.4083771,44.3634549 C41.4003771,44.3687882 41.3937104,44.3754549 41.3870437,44.3807882 C41.4323771,44.4047882 41.4710437,44.4381215 41.4963771,44.4807882 C41.6110437,44.6781215 41.4310437,44.9954548 41.0950437,45.1901215" id="path3500" fill="#8E8E8E"></path>
                            <path d="M5.99931128,23.9530554 C5.88464462,23.755722 5.52064463,23.7530554 5.18464464,23.9463887 C4.84864465,24.1410554 4.66864465,24.4570554 4.78197798,24.6543887 C4.89664464,24.8530553 5.26064464,24.855722 5.59664463,24.6610554 C5.93264462,24.467722 6.11264461,24.1490554 5.99931128,23.9530554" id="path3504" fill="#494949"></path>
                            <path d="M37.0950438,46.5234548 C36.7590438,46.7181215 36.3950439,46.7141215 36.2803772,46.5167881 C24.4670442,39.6861216 12.6550445,32.8541218 0.843044746,26.0234553 C1.19904474,25.738122 1.55504473,25.4527887 1.91104472,25.1674553 C13.7430444,32.0101218 25.5763775,38.8527883 37.4083772,45.6967882 C37.4003772,45.7021215 37.3937105,45.7087882 37.3870438,45.7141215 C37.4323772,45.7381215 37.4710438,45.7714548 37.4963772,45.8141215 C37.6110438,46.0114548 37.4310438,46.3287881 37.0950438,46.5234548" id="path3508" fill="#8E8E8E"></path>
                            <path d="M1.99931138,25.2863887 C1.88464472,25.0890553 1.52064473,25.0863887 1.18464474,25.279722 C0.848644745,25.4743887 0.66864475,25.7903887 0.78197808,25.987722 C0.896644744,26.1863886 1.26064474,26.1890553 1.59664473,25.9943887 C1.93264472,25.8010553 2.11264471,25.4823887 1.99931138,25.2863887" id="path3512" fill="#494949"></path>
                            <path d="M71.7863763,37.7005217 C71.0757097,36.4698551 68.8023764,36.4511884 66.7063764,37.661855 C64.6117098,38.8711883 63.4903765,40.8485216 64.2023765,42.0791882 C64.9117098,43.3111882 67.1863764,43.3285216 69.281043,42.1191882 C71.3743763,40.9098549 72.497043,38.9325217 71.7863763,37.7005217" id="path3516" fill="#C2FF73"></path>
                            <path d="M55.8111767,37.350255 L64.4831765,42.4395882 L71.6205096,37.4489217 L62.6471765,32.1729218 C60.3685099,33.8995885 58.0898433,35.6249217 55.8111767,37.350255" id="path3520" fill="#C2FF73"></path>
                            <path d="M63.2135765,32.7369218 C62.5029099,31.5062552 60.2295766,31.4875885 58.1335766,32.6982551 C56.03891,33.9075885 54.9175767,35.8849217 55.6295767,37.1169217 C56.33891,38.3475883 58.6135766,38.366255 60.7082432,37.1555884 C62.8015765,35.9462551 63.9242432,33.9689218 63.2135765,32.7369218" id="path3524" fill="#AFEF4B"></path>
                            <path d="M61.0950432,34.5234551 C60.7590432,34.7181218 60.3950433,34.7141218 60.2803766,34.5167884 C48.4670436,27.6861219 36.6550439,20.8541221 24.8430441,14.0234556 C25.1990441,13.7381223 25.5550441,13.452789 25.9110441,13.1674556 C37.7430438,20.0101221 49.5763769,26.8527886 61.4083766,33.6967885 C61.4003766,33.7021218 61.3937099,33.7087885 61.3870432,33.7141218 C61.4323766,33.7381218 61.4710432,33.7714551 61.4963766,33.8141218 C61.6110432,34.0114551 61.4310432,34.3287884 61.0950432,34.5234551" id="path3528" fill="#8E8E8E"></path>
                            <path d="M25.9993108,13.286389 C25.8846441,13.0890556 25.5206441,13.086389 25.1846441,13.2797223 C24.8486441,13.474389 24.6686441,13.790389 24.7819775,13.9877223 C24.8966441,14.1863889 25.2606441,14.1890556 25.5966441,13.994389 C25.9326441,13.8010556 26.1126441,13.482389 25.9993108,13.286389" id="path3532" fill="#494949"></path>
                            <path d="M57.0950433,35.8567884 C56.7590433,36.0514551 56.3950434,36.0474551 56.2803767,35.8501217 C44.4670437,29.0194552 32.655044,22.1874554 20.8430442,15.3567889 C21.1990442,15.0714556 21.5550442,14.7861223 21.9110442,14.5007889 C33.7430439,21.3434554 45.576377,28.1861219 57.4083767,35.0301218 C57.4003767,35.0354551 57.39371,35.0421218 57.3870433,35.0474551 C57.4323767,35.0714551 57.4710433,35.1047884 57.4963767,35.1474551 C57.6110433,35.3447884 57.4310433,35.6621217 57.0950433,35.8567884" id="path3536" fill="#8E8E8E"></path>
                            <path d="M21.9993109,14.6197223 C21.8846442,14.4223889 21.5206442,14.4197223 21.1846442,14.6130556 C20.8486442,14.8077223 20.6686442,15.1237223 20.7819776,15.3210556 C20.8966442,15.5197222 21.2606442,15.5223889 21.5966442,15.3277223 C21.9326442,15.1343889 22.1126442,14.8157223 21.9993109,14.6197223" id="path3540" fill="#494949"></path>
                            <path d="M91.7863758,25.700522 C91.0757092,24.4698554 88.8023759,24.4511887 86.7063759,25.6618553 C84.6117093,26.8711886 83.490376,28.8485219 84.202376,30.0791885 C84.9117093,31.3111885 87.1863759,31.3285219 89.2810425,30.1191885 C91.3743758,28.9098552 92.4970425,26.932522 91.7863758,25.700522" id="path3544" fill="#FFF576"></path>
                            <path d="M75.8111762,25.3502553 L84.483176,30.4395885 L91.6205091,25.448922 L82.647176,20.1729221 C80.3685094,21.8995888 78.0898428,23.624922 75.8111762,25.3502553" id="path3548" fill="#FFF576"></path>
                            <path d="M83.213576,20.7369221 C82.5029094,19.5062555 80.2295761,19.4875888 78.1335761,20.6982554 C76.0389095,21.9075888 74.9175762,23.884922 75.6295762,25.116922 C76.3389095,26.3475886 78.6135761,26.3662553 80.7082427,25.1555887 C82.801576,23.9462554 83.9242427,21.9689221 83.213576,20.7369221" id="path3552" fill="#FFE54D"></path>
                            <path d="M81.0950427,22.5234554 C80.7590427,22.7181221 80.3950428,22.7141221 80.2803761,22.5167887 C68.4670431,15.6861222 56.6550434,8.85412241 44.8430436,2.02345592 C45.1977103,1.73812259 45.5550436,1.45278926 45.9110436,1.16745594 C57.7430433,8.01012243 69.5763764,14.8527889 81.4083761,21.6967888 C81.4003761,21.7021221 81.3937094,21.7087888 81.3870427,21.7141221 C81.4323761,21.7381221 81.4710427,21.7714554 81.4963761,21.8141221 C81.6110427,22.0114554 81.4310427,22.3287887 81.0950427,22.5234554" id="path3556" fill="#8E8E8E"></path>
                            <path d="M45.9986436,1.28638927 C45.8853103,1.08905594 45.5213103,1.08638927 45.1853103,1.2797226 C44.8493103,1.47438926 44.667977,1.79038926 44.7826436,1.98772258 C44.8973103,2.18638925 45.2613103,2.18905591 45.5973103,1.99438925 C45.9333103,1.80105592 46.1133103,1.48238926 45.9986436,1.28638927" id="path3560" fill="#494949"></path>
                            <path d="M77.0950428,23.8567887 C76.7590428,24.0514554 76.3950429,24.0474554 76.2803762,23.850122 C64.4670432,17.0194555 52.6550435,10.1874557 40.8430437,3.35678922 C41.1977104,3.07145589 41.5550437,2.78612256 41.9110437,2.50078924 C53.7430434,9.34345573 65.5763765,16.1861222 77.4083762,23.0301221 C77.4003762,23.0354554 77.3937095,23.0421221 77.3870428,23.0474554 C77.4323762,23.0714554 77.4710428,23.1047887 77.4963762,23.1474554 C77.6110428,23.3447887 77.4310428,23.662122 77.0950428,23.8567887" id="path3564" fill="#8E8E8E"></path>
                            <path d="M41.9986437,2.61972257 C41.8853104,2.42238924 41.5213104,2.41972257 41.1853104,2.6130559 C40.8493104,2.80772256 40.6679771,3.12372256 40.7826437,3.32105588 C40.8973104,3.51972255 41.2613104,3.52238921 41.5973104,3.32772255 C41.9333104,3.13438922 42.1133104,2.81572256 41.9986437,2.61972257" id="path3568" fill="#494949"></path>
                            <path d="M115.786375,88.3671871 C115.075709,87.1365205 112.802375,87.1178538 110.706375,88.3285204 C108.611709,89.5378537 107.490375,91.515187 108.202375,92.7458536 C108.911709,93.9778536 111.186375,93.995187 113.281042,92.7858536 C115.374375,91.5765203 116.497042,89.5991871 115.786375,88.3671871" id="path3572" fill="#FF8885"></path>
                            <path d="M99.8111756,88.0169204 L108.483175,93.1062536 L115.620509,88.1155871 L106.647175,82.8395872 C104.368509,84.5662539 102.089842,86.2915871 99.8111756,88.0169204" id="path3576" fill="#FF8885"></path>
                            <path d="M107.213575,83.4035872 C106.502909,82.1729206 104.229575,82.1542539 102.133576,83.3649205 C100.038909,84.5742539 98.9175756,86.5515871 99.6295756,87.7835871 C100.338909,89.0142537 102.613576,89.0329204 104.708242,87.8222538 C106.801575,86.6129205 107.924242,84.6355872 107.213575,83.4035872" id="path3580" fill="#FF6666"></path>
                            <path d="M105.095042,85.1901205 C104.759042,85.3847872 104.395042,85.3807872 104.280375,85.1834538 C92.4670425,78.3527873 80.6550428,71.5207875 68.843043,64.690121 C69.1977097,64.4047877 69.555043,64.1194544 69.911043,63.834121 C81.7430427,70.6767875 93.5763758,77.519454 105.408375,84.3634539 C105.400375,84.3687872 105.393709,84.3754539 105.387042,84.3807872 C105.432375,84.4047872 105.471042,84.4381205 105.496375,84.4807872 C105.611042,84.6781205 105.431042,84.9954538 105.095042,85.1901205" id="path3584" fill="#8E8E8E"></path>
                            <path d="M69.998643,63.9530544 C69.8853097,63.755721 69.5213097,63.7530544 69.1853097,63.9463877 C68.8493097,64.1410544 68.6679764,64.4570544 68.782643,64.6543877 C68.8973097,64.8530543 69.2613097,64.855721 69.5973097,64.6610544 C69.9333097,64.467721 70.1133097,64.1490544 69.998643,63.9530544" id="path3588" fill="#494949"></path>
                            <path d="M101.095042,86.5234538 C100.759042,86.7181205 100.395042,86.7141205 100.280376,86.5167871 C88.4670426,79.6861206 76.6550429,72.8541208 64.8430431,66.0234543 C65.1977098,65.738121 65.5550431,65.4527877 65.9110431,65.1674543 C77.7430428,72.0101208 89.5763759,78.8527873 101.408376,85.6967872 C101.400376,85.7021205 101.393709,85.7087872 101.387042,85.7141205 C101.432376,85.7381205 101.471042,85.7714538 101.496376,85.8141205 C101.611042,86.0114538 101.431042,86.3287871 101.095042,86.5234538" id="path3592" fill="#8E8E8E"></path>
                            <path d="M65.9986431,65.2863877 C65.8853098,65.0890543 65.5213098,65.0863877 65.1853098,65.279721 C64.8493098,65.4743877 64.6679765,65.7903877 64.7826431,65.987721 C64.8973098,66.1863876 65.2613098,66.1890543 65.5973098,65.9943877 C65.9333098,65.8010543 66.1133098,65.4823877 65.9986431,65.2863877" id="path3596" fill="#494949"></path>
                            <path d="M135.786375,77.7005207 C135.075708,76.4698541 132.802375,76.4511874 130.706375,77.661854 C128.611708,78.8711873 127.490375,80.8485206 128.202375,82.0791872 C128.911708,83.3111872 131.186375,83.3285206 133.281041,82.1191872 C135.374375,80.9098539 136.497041,78.9325207 135.786375,77.7005207" id="path3600" fill="#C2FF73"></path>
                            <path d="M119.811175,77.350254 L128.483175,82.4395872 L135.620508,77.4489207 L126.647175,72.1729208 C124.368508,73.8995875 122.089842,75.6249207 119.811175,77.350254" id="path3604" fill="#C2FF73"></path>
                            <path d="M127.213575,72.7369208 C126.502908,71.5062542 124.229575,71.4875875 122.133575,72.6982541 C120.038908,73.9075875 118.917575,75.8849207 119.629575,77.1169207 C120.338908,78.3475873 122.613575,78.366254 124.708242,77.1555874 C126.801575,75.9462541 127.924242,73.9689208 127.213575,72.7369208" id="path3608" fill="#AFEF4B"></path>
                            <path d="M125.095042,74.5234541 C124.759042,74.7181208 124.395042,74.7141208 124.280375,74.5167874 C112.467042,67.6861209 100.655042,60.8541211 88.8430425,54.0234546 C89.1977092,53.7381213 89.5550425,53.452788 89.9110425,53.1674546 C101.743042,60.0101211 113.576375,66.8527876 125.408375,73.6967875 C125.400375,73.7021208 125.393708,73.7087875 125.387042,73.7141208 C125.432375,73.7381208 125.471042,73.7714541 125.496375,73.8141208 C125.611042,74.0114541 125.431042,74.3287874 125.095042,74.5234541" id="path3612" fill="#8E8E8E"></path>
                            <path d="M89.9986425,53.286388 C89.8853092,53.0890546 89.5213092,53.086388 89.1853092,53.2797213 C88.8493092,53.474388 88.6679759,53.790388 88.7826425,53.9877213 C88.8973092,54.1863879 89.2613092,54.1890546 89.5973092,53.994388 C89.9333092,53.8010546 90.1133092,53.482388 89.9986425,53.286388" id="path3616" fill="#494949"></path>
                            <path d="M121.095042,75.8567874 C120.759042,76.0514541 120.395042,76.0474541 120.280375,75.8501207 C108.467042,69.0194542 96.6550424,62.1874544 84.8430426,55.3567879 C85.1977093,55.0714546 85.5550426,54.7861213 85.9110426,54.5007879 C97.7430423,61.3434544 109.576375,68.1861209 121.408375,75.0301208 C121.400375,75.0354541 121.393708,75.0421208 121.387042,75.0474541 C121.432375,75.0714541 121.471042,75.1047874 121.496375,75.1474541 C121.611042,75.3447874 121.431042,75.6621207 121.095042,75.8567874" id="path3620" fill="#8E8E8E"></path>
                            <path d="M85.9986426,54.6197213 C85.8853093,54.4223879 85.5213093,54.4197213 85.1853093,54.6130546 C84.8493093,54.8077213 84.667976,55.1237213 84.7826426,55.3210546 C84.8973093,55.5197212 85.2613093,55.5223879 85.5973093,55.3277213 C85.9333093,55.1343879 86.1133093,54.8157213 85.9986426,54.6197213" id="path3624" fill="#494949"></path>
                            <path d="M155.786374,65.700521 C155.075708,64.4698544 152.802374,64.4511877 150.706374,65.6618543 C148.611708,66.8711876 147.490374,68.8485209 148.202374,70.0791875 C148.911708,71.3111875 151.186374,71.3285209 153.281041,70.1191875 C155.374374,68.9098542 156.497041,66.932521 155.786374,65.700521" id="path3628" fill="#FFF576"></path>
                            <path d="M139.811175,65.3502543 L148.483174,70.4395875 L155.620508,65.448921 L146.647174,60.1729211 C144.368508,61.8995878 142.089841,63.624921 139.811175,65.3502543" id="path3632" fill="#FFF576"></path>
                            <path d="M147.213574,60.7369211 C146.502908,59.5062545 144.229574,59.4875878 142.133575,60.6982544 C140.038908,61.9075878 138.917575,63.884921 139.629575,65.116921 C140.338908,66.3475876 142.613575,66.3662543 144.708241,65.1555877 C146.801574,63.9462544 147.924241,61.9689211 147.213574,60.7369211" id="path3636" fill="#FFE54D"></path>
                            <path d="M145.095041,62.5234544 C144.759041,62.7181211 144.395041,62.7141211 144.280374,62.5167877 C132.467041,55.6861212 120.655042,48.8541214 108.843042,42.0234549 C109.197709,41.7381216 109.555042,41.4527883 109.911042,41.1674549 C121.743042,48.0101214 133.576375,54.8527879 145.408374,61.6967878 C145.400374,61.7021211 145.393708,61.7087878 145.387041,61.7141211 C145.432374,61.7381211 145.471041,61.7714544 145.496374,61.8141211 C145.611041,62.0114544 145.431041,62.3287877 145.095041,62.5234544" id="path3640" fill="#8E8E8E"></path>
                            <path d="M109.998642,41.2863883 C109.885309,41.0890549 109.521309,41.0863883 109.185309,41.2797216 C108.849309,41.4743883 108.667975,41.7903883 108.782642,41.9877216 C108.897309,42.1863882 109.261309,42.1890549 109.597309,41.9943883 C109.933309,41.8010549 110.113309,41.4823883 109.998642,41.2863883" id="path3644" fill="#494949"></path>
                            <path d="M141.095041,63.8567877 C140.759041,64.0514544 140.395041,64.0474544 140.280375,63.850121 C128.467042,57.0194545 116.655042,50.1874547 104.843042,43.3567882 C105.197709,43.0714549 105.555042,42.7861216 105.911042,42.5007882 C117.743042,49.3434547 129.576375,56.1861212 141.408375,63.0301211 C141.400375,63.0354544 141.393708,63.0421211 141.387041,63.0474544 C141.432375,63.0714544 141.471041,63.1047877 141.496375,63.1474544 C141.611041,63.3447877 141.431041,63.662121 141.095041,63.8567877" id="path3648" fill="#8E8E8E"></path>
                            <path d="M105.998642,42.6197216 C105.885309,42.4223882 105.521309,42.4197216 105.185309,42.6130549 C104.849309,42.8077216 104.667975,43.1237216 104.782642,43.3210549 C104.897309,43.5197215 105.261309,43.5223882 105.597309,43.3277216 C105.933309,43.1343882 106.113309,42.8157216 105.998642,42.6197216" id="path3652" fill="#494949"></path>
                        </g>
                    </g>
                </g>
                <g id="Group-2" transform="translate(35.000000, 265.000000)">
                    <path d="M3.02344727,51.4650762 C2.8367806,51.3557428 2.65144728,51.2464095 2.46611395,51.1370762 C2.04611396,50.8890762 1.6274473,50.6424095 1.20744731,50.3944095 L1.26344731,44.2890764 C1.65678063,43.759743 2.08344729,43.2477431 2.47678061,42.7157431 C2.55811394,42.7650764 2.63944728,42.8130764 2.72078061,42.8610764 C2.78878061,42.9010764 2.85544727,42.9397431 2.92211394,42.9797431 C3.0047806,43.0290764 3.08611393,43.0770764 3.16744726,43.1250764 C3.54744725,44.1104097 3.95944724,45.1170763 4.3381139,46.103743 C4.31944723,48.1384096 4.30078057,50.1730762 4.2821139,52.2077428 C3.86211391,51.9597428 3.44211392,51.7130762 3.02344727,51.4650762" id="path1724" fill="#999999" transform="translate(2.772781, 47.461743) scale(-1, 1) rotate(-180.000000) translate(-2.772781, -47.461743) "></path>
                    <path d="M2.87304727,51.0776937 C2.57438061,50.903027 2.33038062,51.0416937 2.32771395,51.3856937 L2.27704728,56.9083602 L3.35571392,57.5443602 L3.40638059,52.023027 C3.40904726,51.6763603 3.1703806,51.2536937 2.87304727,51.0776937" id="path1728" fill="#999999" transform="translate(2.841725, 54.273252) scale(-1, 1) rotate(-180.000000) translate(-2.841725, -54.273252) "></path>
                    <path d="M9.90758043,47.4050763 C9.7222471,47.295743 9.53558044,47.1864096 9.35024711,47.075743 C8.93158045,46.827743 8.51158046,46.5810763 8.09158047,46.3330763 C8.11024714,44.299743 8.12891381,42.2650764 8.14758047,40.2290765 C8.54091379,39.6984098 8.96758045,39.1877432 9.36091377,38.6557432 C9.44224711,38.7050765 9.52358044,38.7530765 9.6062471,38.8010765 C9.67291377,38.8397432 9.74091376,38.8797432 9.80758043,38.9197432 C9.88891376,38.9677432 9.97024709,39.0157432 10.0515804,39.0637432 C10.4315804,40.0490765 10.8449137,41.0557431 11.2235804,42.0437431 C11.2049137,44.0770764 11.1849137,46.111743 11.1662471,48.1477429 C10.7462471,47.8997429 10.3275804,47.6530763 9.90758043,47.4050763" id="path1732" fill="#999999" transform="translate(9.657580, 43.401743) scale(-1, 1) rotate(-180.000000) translate(-9.657580, -43.401743) "></path>
                    <path d="M9.75718043,47.0185241 C9.45851377,46.8425242 9.21451378,46.9811908 9.21184711,47.3265241 L9.16118045,52.8478573 L10.2398471,53.4851907 L10.2905138,47.9625241 C10.2945138,47.6171908 10.0558471,47.1945241 9.75718043,47.0185241" id="path1736" fill="#999999" transform="translate(9.725872, 50.213667) scale(-1, 1) rotate(-180.000000) translate(-9.725872, -50.213667) "></path>
                    <path d="M16.7922469,43.3452097 C16.6055803,43.2345431 16.4202469,43.1252097 16.2349136,43.0158764 C15.8149136,42.7678764 15.3949136,42.5212097 14.976247,42.2732097 C14.9949136,40.2385431 15.0135803,38.2038765 15.032247,36.1692099 C15.4255803,35.6385432 15.8522469,35.1265433 16.2455803,34.5958766 C16.3269136,34.6452099 16.4082469,34.6932099 16.4895803,34.7412099 C16.5575803,34.7798766 16.6242469,34.8185433 16.6909136,34.8598766 C16.7735803,34.9078766 16.8549136,34.9558766 16.9362469,35.0038766 C17.3162469,35.9892099 17.7282469,36.9958765 18.1069136,37.9825432 L18.0509136,44.0878764 C17.6309136,43.8398764 17.2109136,43.5932097 16.7922469,43.3452097" id="path1740" fill="#999999" transform="translate(16.541580, 39.341876) scale(-1, 1) rotate(-180.000000) translate(-16.541580, -39.341876) "></path>
                    <path d="M16.6413136,42.9586917 C16.3439803,42.7826917 16.0999803,42.9213584 16.0959803,43.2653583 L16.0453136,48.7880249 L17.1239802,49.4253582 L17.1746469,43.9026917 C17.1786469,43.556025 16.9399803,43.1346917 16.6413136,42.9586917" id="path1744" fill="#999999" transform="translate(16.610005, 46.153817) scale(-1, 1) rotate(-180.000000) translate(-16.610005, -46.153817) "></path>
                    <path d="M23.6763801,39.2866765 C23.4897134,39.1773432 23.3043801,39.0680098 23.1190468,38.9586765 C22.6990468,38.7106765 22.2803801,38.4640098 21.8603801,38.2160098 L21.9163801,32.1106767 C22.3097135,31.58001 22.7363801,31.0693434 23.1297134,30.5373434 C23.2110468,30.5866767 23.2923801,30.6346767 23.3737134,30.6826767 C23.4417134,30.7226767 23.5083801,30.7613434 23.5750468,30.8013434 C23.6577134,30.8493434 23.7390467,30.8973434 23.8203801,30.9453434 C24.2003801,31.93201 24.6123801,32.9373433 24.9910467,33.9253433 C24.9723801,35.9600099 24.9537134,37.9933432 24.9350467,40.0293431 C24.5150467,39.7813431 24.0950467,39.5346765 23.6763801,39.2866765" id="path1748" fill="#999999" transform="translate(23.425713, 35.283343) scale(-1, 1) rotate(-180.000000) translate(-23.425713, -35.283343) "></path>
                    <path d="M23.5259801,38.9001243 C23.2273134,38.7241244 22.9833134,38.862791 22.9806468,39.2081243 L22.9299801,44.7307909 L24.0086467,45.3667909 L24.0593134,39.8454577 C24.0619801,39.498791 23.8233134,39.0761243 23.5259801,38.9001243" id="path1752" fill="#999999" transform="translate(23.494658, 42.095267) scale(-1, 1) rotate(-180.000000) translate(-23.494658, -42.095267) "></path>
                    <path d="M30.5605132,35.2266766 C30.3751799,35.1173433 30.1885133,35.0080099 30.0031799,34.8973433 C29.5845133,34.6493433 29.1645133,34.4026766 28.7445133,34.1546766 C28.76318,32.12001 28.7818466,30.0866767 28.8005133,28.0506768 C29.1938466,27.5200101 29.6205133,27.0093435 30.0138466,26.4773435 C30.0951799,26.5266768 30.1765133,26.5746768 30.2591799,26.6226768 C30.3258466,26.6613435 30.3938466,26.7013435 30.4605132,26.7413435 C30.5418466,26.7893435 30.6231799,26.8373435 30.7045132,26.8853435 C31.0845132,27.8706768 31.4978466,28.8773434 31.8765132,29.8640101 L31.8191799,35.9693432 C31.3991799,35.7213432 30.9805132,35.4746766 30.5605132,35.2266766" id="path1756" fill="#999999" transform="translate(30.310513, 31.223343) scale(-1, 1) rotate(-180.000000) translate(-30.310513, -31.223343) "></path>
                    <path d="M30.4101132,34.8402578 C30.1114466,34.6642578 29.8674466,34.8029245 29.8647799,35.1482578 L29.8141133,40.669591 L30.8927799,41.3069243 L30.9434466,35.7842578 C30.9474466,35.4389244 30.7087799,35.0162578 30.4101132,34.8402578" id="path1760" fill="#999999" transform="translate(30.378805, 38.035400) scale(-1, 1) rotate(-180.000000) translate(-30.378805, -38.035400) "></path>
                    <path d="M37.4453131,31.16681 C37.2586464,31.0574767 37.0733131,30.9481434 36.8879798,30.83881 C36.4679798,30.59081 36.0479798,30.3441434 35.6293131,30.0961434 L35.6853131,23.9908102 C36.0786464,23.4614769 36.5053131,22.9494769 36.8986464,22.4188102 C36.9799798,22.4681436 37.0613131,22.5161436 37.1426464,22.5641436 C37.2106464,22.6028102 37.2773131,22.6414769 37.3439797,22.6828102 C37.4266464,22.7308102 37.5079797,22.7788102 37.5893131,22.8268102 C37.9693131,23.8121435 38.381313,24.8188102 38.7599797,25.8054768 C38.741313,27.8401434 38.7226464,29.8748101 38.7039797,31.9094767 C38.2839797,31.6614767 37.8639797,31.41481 37.4453131,31.16681" id="path1764" fill="#999999" transform="translate(37.194646, 27.164143) scale(-1, 1) rotate(-180.000000) translate(-37.194646, -27.164143) "></path>
                    <path d="M37.2942464,30.7816253 C36.9969131,30.6056253 36.7529131,30.744292 36.7489131,31.088292 L36.6982464,36.6109585 L37.7769131,37.2469585 L37.8275797,31.7256253 C37.8315797,31.3789586 37.5929131,30.9576253 37.2942464,30.7816253" id="path1768" fill="#999999" transform="translate(37.262938, 33.976084) scale(-1, 1) rotate(-180.000000) translate(-37.262938, -33.976084) "></path>
                    <path d="M44.3294462,27.1082768 C44.1441129,26.9989435 43.9574462,26.8896101 43.7721129,26.7802768 C43.3521129,26.5322768 42.9334463,26.2856101 42.5134463,26.0376101 L42.5694463,19.932277 C42.9627796,19.4016103 43.3894463,18.8909437 43.7827796,18.3589437 C43.8641129,18.408277 43.9454462,18.456277 44.0281129,18.504277 C44.0947796,18.544277 44.1614462,18.5829437 44.2281129,18.6229437 C44.3107796,18.6709437 44.3921129,18.7189437 44.4734462,18.7669437 C44.8534462,19.7536103 45.2654462,20.7589436 45.6441129,21.7469436 C45.6254462,23.7802769 45.6067795,25.8149435 45.5881129,27.8509434 C45.1681129,27.6029434 44.7481129,27.3562768 44.3294462,27.1082768" id="path1772" fill="#999999" transform="translate(44.078780, 23.104944) scale(-1, 1) rotate(-180.000000) translate(-44.078780, -23.104944) "></path>
                    <path d="M44.1790462,26.7217247 C43.8803796,26.5457247 43.6363796,26.6843913 43.6337129,27.0297246 L43.5830463,32.5510578 L44.6617129,33.1883912 L44.7123796,27.667058 C44.7150462,27.3203913 44.4763796,26.8977246 44.1790462,26.7217247" id="path1776" fill="#999999" transform="translate(44.147724, 29.916867) scale(-1, 1) rotate(-180.000000) translate(-44.147724, -29.916867) "></path>
                    <path d="M51.2135794,23.0484102 C51.0282461,22.9390769 50.8415794,22.8284102 50.6562461,22.7190769 C50.2375794,22.4710769 49.8175794,22.2244102 49.3975794,21.9764103 C49.4162461,19.9417436 49.4349128,17.9084104 49.4535794,15.8724104 C49.8469128,15.3417437 50.2735794,14.8310771 50.6669127,14.2990771 C50.7482461,14.3484104 50.8295794,14.3964104 50.9122461,14.4444104 C50.9789127,14.4830771 51.0469127,14.5230771 51.1135794,14.5630771 C51.1949127,14.6110771 51.2762461,14.6590771 51.3575794,14.7070771 C51.7375794,15.6924104 52.1509127,16.699077 52.5295794,17.6857437 L52.472246,23.7910769 C52.052246,23.5430769 51.6335794,23.2964102 51.2135794,23.0484102" id="path1780" fill="#999999" transform="translate(50.963579, 19.045077) scale(-1, 1) rotate(-180.000000) translate(-50.963579, -19.045077) "></path>
                    <path d="M51.0631794,22.6618581 C50.7645127,22.4858581 50.5205127,22.6245248 50.5178461,22.9698581 L50.4671794,28.4911913 L51.5458461,29.1285246 L51.5965127,23.6058581 C51.6005127,23.2605247 51.3618461,22.8378581 51.0631794,22.6618581" id="path1784" fill="#999999" transform="translate(51.031871, 25.857001) scale(-1, 1) rotate(-180.000000) translate(-51.031871, -25.857001) "></path>
                    <path d="M58.0982459,18.9897437 C57.9115792,18.8804103 57.7262459,18.771077 57.5409126,18.6617437 C57.1209126,18.4137437 56.7009126,18.167077 56.2822459,17.919077 L56.3382459,11.8137438 C56.7315793,11.2844105 57.1582459,10.7724105 57.5515792,10.2404105 C57.6329126,10.2897439 57.7142459,10.3377439 57.7955792,10.3857439 C57.8635792,10.4257439 57.9302459,10.4644105 57.9969126,10.5057439 C58.0795792,10.5537439 58.1609126,10.6017439 58.2422459,10.6497439 C58.6222459,11.6350772 59.0342459,12.6417438 59.4129125,13.6284105 C59.3942459,15.6630771 59.3755792,17.6977437 59.3569125,19.7324103 C58.9369125,19.4844103 58.5169125,19.2377437 58.0982459,18.9897437" id="path1788" fill="#999999" transform="translate(57.847579, 14.986410) scale(-1, 1) rotate(-180.000000) translate(-57.847579, -14.986410) "></path>
                    <path d="M57.9471792,18.6023612 C57.6498459,18.4276945 57.4058459,18.5663612 57.4018459,18.9103612 L57.3511792,24.4330277 L58.4298459,25.0690277 L58.4805125,19.5476945 C58.4845125,19.2010278 58.2458459,18.7783612 57.9471792,18.6023612" id="path1792" fill="#999999" transform="translate(57.915871, 21.797919) scale(-1, 1) rotate(-180.000000) translate(-57.915871, -21.797919) "></path>
                    <path d="M64.9823791,14.9298771 C64.7970457,14.8205438 64.6103791,14.7112104 64.4250457,14.6018771 C64.0050457,14.3525438 63.5863791,14.1058771 63.1663791,13.8578771 C63.1850458,11.8245438 63.2037124,9.78987722 63.2223791,7.75387727 C63.6157124,7.22321062 64.0423791,6.71254397 64.4357124,6.18054398 C64.5170457,6.22987731 64.5983791,6.27787731 64.6810457,6.32587731 C64.7477124,6.36454397 64.8157124,6.40454397 64.8823791,6.44454397 C64.9637124,6.49254397 65.0450457,6.54054397 65.126379,6.58854397 C65.506379,7.57387728 65.918379,8.58054392 66.2970457,9.56854389 C66.278379,11.6018772 66.2597124,13.6365438 66.2410457,15.6725437 C65.8210457,15.4245437 65.4010457,15.1778771 64.9823791,14.9298771" id="path1796" fill="#999999" transform="translate(64.731712, 10.926544) scale(-1, 1) rotate(-180.000000) translate(-64.731712, -10.926544) "></path>
                    <path d="M64.8319791,14.543325 C64.5333124,14.367325 64.2893124,14.5059916 64.2866457,14.851325 L64.2359791,20.3726581 L65.3146457,21.0099915 L65.3653124,15.4873249 C65.367979,15.1419916 65.1293124,14.719325 64.8319791,14.543325" id="path1800" fill="#999999" transform="translate(64.800657, 17.738468) scale(-1, 1) rotate(-180.000000) translate(-64.800657, -17.738468) "></path>
                    <path d="M71.8665122,10.8700105 C71.6811789,10.7593439 71.4958456,10.6500105 71.3091789,10.5406772 C70.8905122,10.2926772 70.4705122,10.0460105 70.0505123,9.79801056 C70.0691789,7.76334394 70.0878456,5.72867732 70.1065123,3.69401071 C70.4998456,3.16334405 70.9265122,2.65134407 71.3198456,2.12067741 C71.4011789,2.17001075 71.4825122,2.21801074 71.5651789,2.26601074 C71.6318456,2.30467741 71.6998455,2.34334407 71.7665122,2.38467741 C71.8478455,2.43267741 71.9291789,2.4806774 72.0105122,2.5286774 C72.3905122,3.51401071 72.8038455,4.52067735 73.1825122,5.507344 L73.1251788,11.6126772 C72.7051789,11.3646772 72.2865122,11.1180105 71.8665122,10.8700105" id="path1804" fill="#999999" transform="translate(71.616512, 6.866677) scale(-1, 1) rotate(-180.000000) translate(-71.616512, -6.866677) "></path>
                    <path d="M71.7161122,10.4834925 C71.4174456,10.3074925 71.1734456,10.4461592 71.1707789,10.7901592 L71.1201122,16.3128257 L72.1987789,16.950159 L72.2494455,11.4274925 C72.2534455,11.0808258 72.0147789,10.6594925 71.7161122,10.4834925" id="path1808" fill="#999999" transform="translate(71.684804, 13.678618) scale(-1, 1) rotate(-180.000000) translate(-71.684804, -13.678618) "></path>
                    <path d="M0.333314,16.0000104 L0.333314,10.6666772 L14.9999803,1.3333441 L89.8239784,44.9426763 C89.7719784,45.9626763 89.7199784,49.6480096 89.6666451,50.6666762 C84.3333119,53.3333428 78.9999787,56.4440094 73.6666455,58.666676 C49.2226461,45.333343 24.7773134,29.3333434 0.333314,16.0000104" id="path1828" fill="url(#linearGradient-14)" transform="translate(45.078646, 30.000010) scale(-1, 1) rotate(-180.000000) translate(-45.078646, -30.000010) "></path>
                    <polygon id="path1840" fill="#3D3D3D" transform="translate(45.078646, 26.666677) scale(-1, 1) rotate(-180.000000) translate(-45.078646, -26.666677) " points="0.333314 9.3333439 14.9999803 1.07999996e-05 89.8239784 43.609343 73.6666455 53.3333428"></polygon>
                    <path d="M19.0234469,60.7984093 C18.8367802,60.6890759 18.6514469,60.5797426 18.4661135,60.4704093 C18.0461136,60.2224093 17.6274469,59.9757426 17.2074469,59.7277426 L17.2634469,53.6224095 C17.6567802,53.0930761 18.0834469,52.5810762 18.4767802,52.0490762 C18.5581135,52.0984095 18.6394469,52.1464095 18.7207802,52.1944095 C18.7887802,52.2344095 18.8554469,52.2730762 18.9221135,52.3130762 C19.0047802,52.3624095 19.0861135,52.4104095 19.1674469,52.4584095 C19.5474469,53.4437428 19.9594468,54.4504094 20.3381135,55.4370761 C20.3194468,57.4717427 20.3007802,59.5064093 20.2821135,61.5410759 C19.8621135,61.2930759 19.4421135,61.0464093 19.0234469,60.7984093" id="path1844" fill="#999999" transform="translate(18.772780, 56.795076) scale(-1, 1) rotate(-180.000000) translate(-18.772780, -56.795076) "></path>
                    <path d="M18.8730469,60.4110268 C18.5743802,60.2363601 18.3303802,60.3750268 18.3277136,60.7190268 L18.2770469,66.2416933 L19.3557135,66.8776933 L19.4063802,61.3563601 C19.4090469,61.0096934 19.1703802,60.5870268 18.8730469,60.4110268" id="path1848" fill="#999999" transform="translate(18.841725, 63.606585) scale(-1, 1) rotate(-180.000000) translate(-18.841725, -63.606585) "></path>
                    <path d="M25.90758,56.7384094 C25.7222467,56.6290761 25.53558,56.5197427 25.3502467,56.4090761 C24.9315801,56.1610761 24.5115801,55.9144094 24.0915801,55.6664094 C24.1102467,53.6330761 24.1289134,51.5984095 24.1475801,49.5624096 C24.5409134,49.0317429 24.9675801,48.5210763 25.3609134,47.9890763 C25.4422467,48.0384096 25.52358,48.0864096 25.6062467,48.1344096 C25.6729134,48.1730763 25.7409134,48.2130763 25.80758,48.2530763 C25.8889134,48.3010763 25.9702467,48.3490763 26.05158,48.3970763 C26.43158,49.3824096 26.8449133,50.3890762 27.22358,51.3770762 C27.2049133,53.4104095 27.1849133,55.4450761 27.1662467,57.481076 C26.7462467,57.233076 26.32758,56.9864094 25.90758,56.7384094" id="path1852" fill="#999999" transform="translate(25.657580, 52.735076) scale(-1, 1) rotate(-180.000000) translate(-25.657580, -52.735076) "></path>
                    <path d="M25.75718,56.3518572 C25.4585134,56.1758573 25.2145134,56.3145239 25.2118467,56.6598572 L25.16118,62.1811904 L26.2398467,62.8185238 L26.2905134,57.2958572 C26.2945134,56.9505239 26.0558467,56.5278572 25.75718,56.3518572" id="path1856" fill="#999999" transform="translate(25.725871, 59.547000) scale(-1, 1) rotate(-180.000000) translate(-25.725871, -59.547000) "></path>
                    <path d="M32.7922465,52.6785428 C32.6055799,52.5678762 32.4202465,52.4585428 32.2349132,52.3492095 C31.8149132,52.1012095 31.3949132,51.8545428 30.9762466,51.6065428 C30.9949132,49.5718762 31.0135799,47.5372096 31.0322466,45.502543 C31.4255799,44.9718763 31.8522465,44.4598764 32.2455799,43.9292097 C32.3269132,43.978543 32.4082465,44.026543 32.4895799,44.074543 C32.5575799,44.1132097 32.6242465,44.1518764 32.6909132,44.1932097 C32.7735799,44.2412097 32.8549132,44.2892097 32.9362465,44.3372097 C33.3162465,45.322543 33.7282465,46.3292096 34.1069132,47.3158763 L34.0509132,53.4212095 C33.6309132,53.1732095 33.2109132,52.9265428 32.7922465,52.6785428" id="path1860" fill="#999999" transform="translate(32.541580, 48.675210) scale(-1, 1) rotate(-180.000000) translate(-32.541580, -48.675210) "></path>
                    <path d="M32.6413132,52.2920248 C32.3439799,52.1160248 32.0999799,52.2546915 32.0959799,52.5986914 L32.0453132,58.121358 L33.1239798,58.7586913 L33.1746465,53.2360248 C33.1786465,52.8893581 32.9399799,52.4680248 32.6413132,52.2920248" id="path1864" fill="#999999" transform="translate(32.610005, 55.487150) scale(-1, 1) rotate(-180.000000) translate(-32.610005, -55.487150) "></path>
                    <path d="M39.6763797,48.6200096 C39.489713,48.5106763 39.3043797,48.4013429 39.1190464,48.2920096 C38.6990464,48.0440096 38.2803797,47.7973429 37.8603797,47.5493429 L37.9163797,41.4440098 C38.3097131,40.9133431 38.7363797,40.4026765 39.129713,39.8706765 C39.2110464,39.9200098 39.2923797,39.9680098 39.373713,40.0160098 C39.441713,40.0560098 39.5083797,40.0946765 39.5750464,40.1346765 C39.657713,40.1826765 39.7390463,40.2306765 39.8203797,40.2786765 C40.2003797,41.2653431 40.6123797,42.2706764 40.9910463,43.2586764 C40.9723797,45.293343 40.953713,47.3266763 40.9350463,49.3626762 C40.5150463,49.1146762 40.0950463,48.8680096 39.6763797,48.6200096" id="path1868" fill="#999999" transform="translate(39.425713, 44.616676) scale(-1, 1) rotate(-180.000000) translate(-39.425713, -44.616676) "></path>
                    <path d="M39.5259797,48.2334574 C39.227313,48.0574575 38.983313,48.1961241 38.9806464,48.5414574 L38.9299797,54.064124 L40.0086463,54.700124 L40.059313,49.1787908 C40.0619797,48.8321241 39.823313,48.4094574 39.5259797,48.2334574" id="path1872" fill="#999999" transform="translate(39.494657, 51.428600) scale(-1, 1) rotate(-180.000000) translate(-39.494657, -51.428600) "></path>
                    <path d="M46.5605128,44.5600097 C46.3751795,44.4506764 46.1885129,44.341343 46.0031795,44.2306764 C45.5845129,43.9826764 45.1645129,43.7360097 44.7445129,43.4880097 C44.7631796,41.4533431 44.7818462,39.4200098 44.8005129,37.3840099 C45.1938462,36.8533432 45.6205129,36.3426766 46.0138462,35.8106766 C46.0951795,35.8600099 46.1765129,35.9080099 46.2591795,35.9560099 C46.3258462,35.9946766 46.3938462,36.0346766 46.4605128,36.0746766 C46.5418462,36.1226766 46.6231795,36.1706766 46.7045128,36.2186766 C47.0845128,37.2040099 47.4978462,38.2106765 47.8765128,39.1973432 L47.8191795,45.3026763 C47.3991795,45.0546763 46.9805128,44.8080097 46.5605128,44.5600097" id="path1876" fill="#999999" transform="translate(46.310513, 40.556676) scale(-1, 1) rotate(-180.000000) translate(-46.310513, -40.556676) "></path>
                    <path d="M46.4101128,44.1735909 C46.1114462,43.9975909 45.8674462,44.1362576 45.8647795,44.4815909 L45.8141129,50.0029241 L46.8927795,50.6402574 L46.9434462,45.1175909 C46.9474462,44.7722575 46.7087795,44.3495909 46.4101128,44.1735909" id="path1880" fill="#999999" transform="translate(46.378804, 47.368734) scale(-1, 1) rotate(-180.000000) translate(-46.378804, -47.368734) "></path>
                    <path d="M53.4453127,40.5001431 C53.258646,40.3908098 53.0733127,40.2814765 52.8879794,40.1721431 C52.4679794,39.9241431 52.0479794,39.6774765 51.6293127,39.4294765 L51.6853127,33.3241433 C52.078646,32.79481 52.5053127,32.28281 52.898646,31.7521433 C52.9799794,31.8014767 53.0613127,31.8494767 53.142646,31.8974767 C53.210646,31.9361433 53.2773127,31.97481 53.3439793,32.0161433 C53.426646,32.0641433 53.5079793,32.1121433 53.5893127,32.1601433 C53.9693127,33.1454766 54.3813126,34.1521433 54.7599793,35.1388099 C54.7413126,37.1734765 54.722646,39.2081432 54.7039793,41.2428098 C54.2839793,40.9948098 53.8639793,40.7481431 53.4453127,40.5001431" id="path1884" fill="#999999" transform="translate(53.194646, 36.497477) scale(-1, 1) rotate(-180.000000) translate(-53.194646, -36.497477) "></path>
                    <path d="M53.294246,40.1149584 C52.9969127,39.9389584 52.7529127,40.0776251 52.7489127,40.4216251 L52.698246,45.9442916 L53.7769127,46.5802916 L53.8275793,41.0589584 C53.8315793,40.7122917 53.5929127,40.2909584 53.294246,40.1149584" id="path1888" fill="#999999" transform="translate(53.262937, 43.309417) scale(-1, 1) rotate(-180.000000) translate(-53.262937, -43.309417) "></path>
                    <path d="M60.3294458,36.4416099 C60.1441125,36.3322766 59.9574458,36.2229432 59.7721125,36.1136099 C59.3521125,35.8656099 58.9334459,35.6189432 58.5134459,35.3709432 L58.5694459,29.2656101 C58.9627792,28.7349434 59.3894459,28.2242768 59.7827792,27.6922768 C59.8641125,27.7416101 59.9454458,27.7896101 60.0281125,27.8376101 C60.0947792,27.8776101 60.1614458,27.9162768 60.2281125,27.9562768 C60.3107792,28.0042768 60.3921125,28.0522768 60.4734458,28.1002768 C60.8534458,29.0869434 61.2654458,30.0922767 61.6441125,31.0802767 C61.6254458,33.11361 61.6067791,35.1482766 61.5881125,37.1842765 C61.1681125,36.9362765 60.7481125,36.6896099 60.3294458,36.4416099" id="path1892" fill="#999999" transform="translate(60.078779, 32.438277) scale(-1, 1) rotate(-180.000000) translate(-60.078779, -32.438277) "></path>
                    <path d="M60.1790458,36.0550578 C59.8803792,35.8790578 59.6363792,36.0177244 59.6337125,36.3630577 L59.5830459,41.8843909 L60.6617125,42.5217243 L60.7123792,37.0003911 C60.7150458,36.6537244 60.4763792,36.2310577 60.1790458,36.0550578" id="path1896" fill="#999999" transform="translate(60.147724, 39.250200) scale(-1, 1) rotate(-180.000000) translate(-60.147724, -39.250200) "></path>
                    <path d="M67.213579,32.3817433 C67.0282457,32.27241 66.841579,32.1617433 66.6562457,32.05241 C66.237579,31.80441 65.817579,31.5577433 65.397579,31.3097434 C65.4162457,29.2750767 65.4349124,27.2417435 65.453579,25.2057435 C65.8469124,24.6750768 66.273579,24.1644102 66.6669123,23.6324102 C66.7482457,23.6817435 66.829579,23.7297435 66.9122457,23.7777435 C66.9789123,23.8164102 67.0469123,23.8564102 67.113579,23.8964102 C67.1949123,23.9444102 67.2762457,23.9924102 67.357579,24.0404102 C67.737579,25.0257435 68.1509123,26.0324101 68.529579,27.0190768 L68.4722456,33.12441 C68.0522456,32.87641 67.633579,32.6297433 67.213579,32.3817433" id="path1900" fill="#999999" transform="translate(66.963579, 28.378410) scale(-1, 1) rotate(-180.000000) translate(-66.963579, -28.378410) "></path>
                    <path d="M67.063179,31.9951912 C66.7645123,31.8191912 66.5205123,31.9578579 66.5178457,32.3031912 L66.467179,37.8245244 L67.5458457,38.4618577 L67.5965123,32.9391912 C67.6005123,32.5938578 67.3618457,32.1711912 67.063179,31.9951912" id="path1904" fill="#999999" transform="translate(67.031870, 35.190334) scale(-1, 1) rotate(-180.000000) translate(-67.031870, -35.190334) "></path>
                    <path d="M74.0982455,28.3230768 C73.9115788,28.2137434 73.7262455,28.1044101 73.5409122,27.9950768 C73.1209122,27.7470768 72.7009122,27.5004101 72.2822455,27.2524101 L72.3382455,21.1470769 C72.7315789,20.6177436 73.1582455,20.1057436 73.5515788,19.5737436 C73.6329122,19.623077 73.7142455,19.671077 73.7955788,19.719077 C73.8635788,19.759077 73.9302455,19.7977436 73.9969122,19.839077 C74.0795788,19.887077 74.1609122,19.935077 74.2422455,19.983077 C74.6222455,20.9684103 75.0342455,21.9750769 75.4129121,22.9617436 C75.3942455,24.9964102 75.3755788,27.0310768 75.3569121,29.0657434 C74.9369121,28.8177434 74.5169121,28.5710768 74.0982455,28.3230768" id="path1908" fill="#999999" transform="translate(73.847579, 24.319744) scale(-1, 1) rotate(-180.000000) translate(-73.847579, -24.319744) "></path>
                    <path d="M73.9471788,27.9356943 C73.6498455,27.7610276 73.4058455,27.8996943 73.4018455,28.2436943 L73.3511788,33.7663608 L74.4298455,34.4023608 L74.4805121,28.8810276 C74.4845121,28.5343609 74.2458455,28.1116943 73.9471788,27.9356943" id="path1912" fill="#999999" transform="translate(73.915870, 31.131252) scale(-1, 1) rotate(-180.000000) translate(-73.915870, -31.131252) "></path>
                    <path d="M80.9823787,24.2632102 C80.7970453,24.1538769 80.6103787,24.0445435 80.4250453,23.9352102 C80.0050453,23.6858769 79.5863787,23.4392102 79.1663787,23.1912102 C79.1850454,21.1578769 79.203712,19.1232103 79.2223787,17.0872104 C79.615712,16.5565437 80.0423787,16.0458771 80.435712,15.5138771 C80.5170453,15.5632104 80.5983787,15.6112104 80.6810453,15.6592104 C80.747712,15.6978771 80.815712,15.7378771 80.8823787,15.7778771 C80.963712,15.8258771 81.0450453,15.8738771 81.1263786,15.9218771 C81.5063786,16.9072104 81.9183786,17.913877 82.2970453,18.901877 C82.2783786,20.9352103 82.259712,22.9698769 82.2410453,25.0058768 C81.8210453,24.7578768 81.4010453,24.5112102 80.9823787,24.2632102" id="path1916" fill="#999999" transform="translate(80.731712, 20.259877) scale(-1, 1) rotate(-180.000000) translate(-80.731712, -20.259877) "></path>
                    <path d="M80.8319787,23.8766581 C80.533312,23.7006581 80.289312,23.8393247 80.2866453,24.1846581 L80.2359787,29.7059912 L81.3146453,30.3433246 L81.365312,24.820658 C81.3679786,24.4753247 81.129312,24.0526581 80.8319787,23.8766581" id="path1920" fill="#999999" transform="translate(80.800656, 27.071801) scale(-1, 1) rotate(-180.000000) translate(-80.800656, -27.071801) "></path>
                    <path d="M87.8665118,20.2033436 C87.6811785,20.092677 87.4958452,19.9833436 87.3091785,19.8740103 C86.8905118,19.6260103 86.4705118,19.3793436 86.0505119,19.1313437 C86.0691785,17.096677 86.0878452,15.0620104 86.1065119,13.0273438 C86.4998452,12.4966772 86.9265118,11.9846772 87.3198452,11.4540105 C87.4011785,11.5033438 87.4825118,11.5513438 87.5651785,11.5993438 C87.6318452,11.6380105 87.6998451,11.6766772 87.7665118,11.7180105 C87.8478451,11.7660105 87.9291785,11.8140105 88.0105118,11.8620105 C88.3905118,12.8473438 88.8038451,13.8540105 89.1825118,14.8406771 L89.1251784,20.9460103 C88.7051785,20.6980103 88.2865118,20.4513436 87.8665118,20.2033436" id="path1924" fill="#999999" transform="translate(87.616512, 16.200010) scale(-1, 1) rotate(-180.000000) translate(-87.616512, -16.200010) "></path>
                    <path d="M87.7161118,19.8168256 C87.4174452,19.6408256 87.1734452,19.7794923 87.1707785,20.1234923 L87.1201118,25.6461588 L88.1987785,26.2834921 L88.2494451,20.7608256 C88.2534451,20.4141589 88.0147785,19.9928256 87.7161118,19.8168256" id="path1928" fill="#999999" transform="translate(87.684803, 23.011951) scale(-1, 1) rotate(-180.000000) translate(-87.684803, -23.011951) "></path>
                </g>
            </g>
        </g>
    </g>
</svg>