<svg width="365" height="365" viewBox="0 0 365 365" fill="none" xmlns="http://www.w3.org/2000/svg">
<path fill-rule="evenodd" clip-rule="evenodd" d="M266.024 67.8471C255.492 61.7552 242.508 61.7552 231.976 67.8471L155.979 111.806C151.985 114.117 151.985 119.883 155.979 122.194L231.976 166.153C242.508 172.245 255.492 172.245 266.024 166.153L342.021 122.194C346.015 119.883 346.015 114.117 342.021 111.806L266.024 67.8471Z" fill="url(#paint0_linear)"/>
<path fill-rule="evenodd" clip-rule="evenodd" d="M344.85 114V219.444C344.85 219.444 346.884 221.984 321.329 235.845C295.774 249.706 265.662 268.212 265.662 268.212C265.662 268.212 248.625 277.788 231.589 268.212C214.552 258.635 156.913 225.969 156.913 225.969C156.913 225.969 153.148 223.279 153.148 218.971C153.148 214.663 153 117 153 117C153 117 153.583 117.811 153.632 117.957C153.89 118.725 156.032 120.026 161.608 123.155C167.859 126.662 188.993 138.892 234.882 165.226C237.741 166.867 248.625 167.917 248.625 167.917C248.625 167.917 260.324 166.658 263.962 164.587C315.656 135.154 338.638 121.655 341.022 120.165C344.85 117.772 344.85 114 344.85 114Z" fill="url(#paint1_linear)"/>
<path fill-rule="evenodd" clip-rule="evenodd" d="M282 258.242L311 275V226.551L299.153 219.54L282 175V258.242Z" fill="#B7B5BD"/>
<path fill-rule="evenodd" clip-rule="evenodd" d="M326 233.242L355 250V201.551L343.153 194.54L326 150V233.242Z" fill="black"/>
<path fill-rule="evenodd" clip-rule="evenodd" d="M311 275L355 250.1V202L311 226.9V275Z" fill="#F1F1F1"/>
<path fill-rule="evenodd" clip-rule="evenodd" d="M343.225 194.231L326.176 150L282 174.906L299.097 219.137L311 227L355 202.068L343.225 194.231Z" fill="url(#paint2_linear)"/>
<path fill-rule="evenodd" clip-rule="evenodd" d="M288 179.919L326.209 158L339 191.652L300.527 213L288 179.919Z" fill="url(#paint3_linear)" fill-opacity="0.64"/>
<path fill-rule="evenodd" clip-rule="evenodd" d="M290 180.919L328.209 159L341 192.652L302.527 214L290 180.919Z" fill="url(#paint4_linear)" fill-opacity="0.64"/>
<path fill-rule="evenodd" clip-rule="evenodd" d="M328 201L329.844 191.54L333.672 192.434L334.409 182.66L341.385 188.083L342.627 185.251L349.458 188.083L348.858 175.877C348.858 175.877 353.672 179.178 353.672 178.255C353.672 177.332 352.81 168 352.81 168L365 182.777V178.255" fill="#C3C4EB" fill-opacity="0.854021"/>
<path fill-rule="evenodd" clip-rule="evenodd" d="M189 115.826L249.977 151L316 115.826V103.908L250.737 72L189 103.908V115.826Z" fill="url(#paint5_linear)"/>
<path fill-rule="evenodd" clip-rule="evenodd" d="M189 4.94852V104.674L249.977 138L315.952 104.674L316 0L189 4.94852Z" fill="url(#paint6_linear)"/>
<path d="M299 203L300.844 193.54L304.672 194.434L305.409 184.66L312.385 190.083L313.627 187.251L320.458 190.083L319.858 177.877C319.858 177.877 324.672 181.178 324.672 180.255C324.672 179.332 323.81 170 323.81 170L336 184.777V180.255" stroke="white"/>
<path fill-rule="evenodd" clip-rule="evenodd" d="M293 181.919L331.209 160L344 193.652L305.527 215L293 181.919Z" fill="#A8A8A8" fill-opacity="0.37917"/>
<path fill-rule="evenodd" clip-rule="evenodd" d="M79.0094 343.196C78.206 343.394 77.2944 343.749 76.2622 344.28C69.6777 347.669 68 353.013 68 358.644C68 364.274 71.8508 366.402 76.0192 364.064C76.6784 363.695 77.3418 363.239 77.9916 362.711L237 270.84V252L79.0094 343.196Z" fill="#E4E4E4"/>
<path fill-rule="evenodd" clip-rule="evenodd" d="M75.7805 344.873C74.5273 345.637 68.3325 349.832 68.3325 358.086C68.3325 361.245 69.07 362.257 70.115 363.204C69.3121 362.777 4.87067 324.727 4.87067 324.727C4.87067 324.727 0.00154429 323.845 0.00154429 318.666C0.00154429 318.542 0.00117936 318.413 0.000804297 318.282C-0.00579144 315.963 -0.0155205 312.542 1.90118 309.415C2.89814 307.789 6.76699 305 6.76699 305L7.025 305.148L168 212L237 251.927L76 345L75.7805 344.873ZM74.2175 363.989C74.2175 363.989 70.9179 363.631 70.115 363.204C71.0948 364.092 74.2175 363.989 74.2175 363.989Z" fill="url(#paint7_linear)"/>
<path fill-rule="evenodd" clip-rule="evenodd" d="M189 99.341L250.881 67L316 99.341L250.881 133L189 99.341Z" fill="url(#paint8_linear)"/>
<path fill-rule="evenodd" clip-rule="evenodd" d="M172 214.14V152L235 188.429V251L172 214.14Z" fill="url(#paint9_linear)"/>
<path fill-rule="evenodd" clip-rule="evenodd" d="M235 188.296V251L172 214.813L225.842 183L235 188.296Z" fill="url(#paint10_linear)"/>
<defs>
<linearGradient id="paint0_linear" x1="284.849" y1="66.4106" x2="213.642" y2="177.732" gradientUnits="userSpaceOnUse">
<stop stop-color="#F9F9F9"/>
<stop offset="1" stop-color="white"/>
</linearGradient>
<linearGradient id="paint1_linear" x1="267.806" y1="123.309" x2="185.317" y2="218.141" gradientUnits="userSpaceOnUse">
<stop stop-color="#DBD8E6"/>
<stop offset="1" stop-color="#FCFCFC"/>
</linearGradient>
<linearGradient id="paint2_linear" x1="282" y1="150" x2="282" y2="227" gradientUnits="userSpaceOnUse">
<stop stop-color="white"/>
<stop offset="1" stop-color="white"/>
</linearGradient>
<linearGradient id="paint3_linear" x1="288" y1="158" x2="288" y2="213" gradientUnits="userSpaceOnUse">
<stop stop-color="#4198B2"/>
<stop offset="1" stop-color="#4096B3"/>
</linearGradient>
<linearGradient id="paint4_linear" x1="294.779" y1="176.265" x2="310.05" y2="212.055" gradientUnits="userSpaceOnUse">
<stop stop-color="white"/>
<stop offset="1" stop-color="#F0959A"/>
</linearGradient>
<linearGradient id="paint5_linear" x1="189" y1="154.306" x2="316" y2="154.306" gradientUnits="userSpaceOnUse">
<stop stop-color="#FF6161"/>
<stop offset="1" stop-color="#F1D0A0"/>
</linearGradient>
<linearGradient id="paint6_linear" x1="167.916" y1="0" x2="167.916" y2="183.82" gradientUnits="userSpaceOnUse">
<stop stop-color="white" stop-opacity="0.01"/>
<stop offset="0.351582" stop-color="#D4E6F0" stop-opacity="0.213822"/>
<stop offset="1" stop-color="#355CB9"/>
</linearGradient>
<linearGradient id="paint7_linear" x1="170.69" y1="225.428" x2="128.875" y2="271.094" gradientUnits="userSpaceOnUse">
<stop stop-color="#FDFDFD"/>
<stop offset="1" stop-color="white"/>
</linearGradient>
<linearGradient id="paint8_linear" x1="189" y1="67" x2="189" y2="133" gradientUnits="userSpaceOnUse">
<stop stop-color="#383757" stop-opacity="0.12"/>
<stop offset="1" stop-color="#3D39FF" stop-opacity="0.522946"/>
</linearGradient>
<linearGradient id="paint9_linear" x1="160.914" y1="224.301" x2="228.335" y2="239.401" gradientUnits="userSpaceOnUse">
<stop stop-color="#CCCCCC"/>
<stop offset="1" stop-color="#9C9C9C"/>
</linearGradient>
<linearGradient id="paint10_linear" x1="207.641" y1="178.735" x2="187.041" y2="236.861" gradientUnits="userSpaceOnUse">
<stop stop-color="#ECECEC"/>
<stop offset="1" stop-color="white"/>
</linearGradient>
</defs>
</svg>
