<?xml version="1.0" encoding="UTF-8"?>
<svg width="562px" height="603px" viewBox="0 0 562 603" version="1.1" xmlns="http://www.w3.org/2000/svg" xmlns:xlink="http://www.w3.org/1999/xlink">
    <!-- Generator: Sketch 52.6 (67491) - http://www.bohemiancoding.com/sketch -->
    <title>Artboard</title>
    <desc>Created with Sketch.</desc>
    <defs>
        <linearGradient x1="22.374299%" y1="-43.8122435%" x2="-44.3490263%" y2="74.479508%" id="linearGradient-1">
            <stop stop-color="#48A0AF" offset="0%"></stop>
            <stop stop-color="#3386BA" offset="100%"></stop>
        </linearGradient>
        <linearGradient x1="56.4200263%" y1="37.1059331%" x2="42.2044572%" y2="66.7327382%" id="linearGradient-2">
            <stop stop-color="#FFFFFF" offset="0%"></stop>
            <stop stop-color="#FFFFFF" offset="100%"></stop>
        </linearGradient>
        <linearGradient x1="39.8528462%" y1="31.7922763%" x2="58.5036942%" y2="67.5774938%" id="linearGradient-3">
            <stop stop-color="#FFFFFF" offset="0%"></stop>
            <stop stop-color="#FFFFFF" offset="100%"></stop>
        </linearGradient>
        <linearGradient x1="-0.000153721683%" y1="50.0003775%" x2="100.000534%" y2="50.0003775%" id="linearGradient-4">
            <stop stop-color="#EBA251" offset="0%"></stop>
            <stop stop-color="#FF971C" offset="100%"></stop>
        </linearGradient>
        <linearGradient x1="24.2461027%" y1="76.1644546%" x2="75.7544774%" y2="23.8346408%" id="linearGradient-5">
            <stop stop-color="#FFC585" offset="0%"></stop>
            <stop stop-color="#FDAC4E" offset="94.3867%"></stop>
            <stop stop-color="#FDAC4E" offset="100%"></stop>
        </linearGradient>
        <linearGradient x1="8.98806633e-05%" y1="50.0000116%" x2="99.9999839%" y2="50.0000116%" id="linearGradient-6">
            <stop stop-color="#EFF6FF" offset="0%"></stop>
            <stop stop-color="#FCFBFB" offset="97.0894%"></stop>
            <stop stop-color="#FCFBFB" offset="100%"></stop>
        </linearGradient>
        <linearGradient x1="0%" y1="50.0006625%" x2="100%" y2="50.0006625%" id="linearGradient-7">
            <stop stop-color="#FF4061" offset="0%"></stop>
            <stop stop-color="#FF4061" offset="0.470773%"></stop>
            <stop stop-color="#FF9749" offset="100%"></stop>
        </linearGradient>
        <linearGradient x1="0%" y1="50.0007039%" x2="100%" y2="50.0007039%" id="linearGradient-8">
            <stop stop-color="#FF6161" offset="0%"></stop>
            <stop stop-color="#FF6161" offset="0.470773%"></stop>
            <stop stop-color="#FFAE49" offset="100%"></stop>
        </linearGradient>
        <linearGradient x1="0%" y1="50.0000138%" x2="100%" y2="50.0000138%" id="linearGradient-9">
            <stop stop-color="#FF4061" offset="0%"></stop>
            <stop stop-color="#FF4061" offset="0.470773%"></stop>
            <stop stop-color="#FF9749" offset="100%"></stop>
        </linearGradient>
        <linearGradient x1="0%" y1="49.9999724%" x2="100%" y2="49.9999724%" id="linearGradient-10">
            <stop stop-color="#FF6161" offset="0%"></stop>
            <stop stop-color="#FF6161" offset="0.470773%"></stop>
            <stop stop-color="#FFAE49" offset="100%"></stop>
        </linearGradient>
        <linearGradient x1="68.6681456%" y1="2.91540719%" x2="31.5875396%" y2="106.52434%" id="linearGradient-11">
            <stop stop-color="#F9F9F9" offset="0%"></stop>
            <stop stop-color="#FFFFFF" offset="100%"></stop>
        </linearGradient>
        <linearGradient x1="59.8295807%" y1="5.87437211%" x2="16.8415637%" y2="65.7173688%" id="linearGradient-12">
            <stop stop-color="#DBD8E6" offset="0%"></stop>
            <stop stop-color="#E3E3E3" offset="100%"></stop>
        </linearGradient>
        <linearGradient x1="0%" y1="0%" x2="0%" y2="100%" id="linearGradient-13">
            <stop stop-color="#FFFFFF" offset="0%"></stop>
            <stop stop-color="#FFFFFF" offset="100%"></stop>
        </linearGradient>
        <linearGradient x1="0%" y1="0%" x2="0%" y2="100%" id="linearGradient-14">
            <stop stop-color="#4198B2" offset="0%"></stop>
            <stop stop-color="#4096B3" offset="100%"></stop>
        </linearGradient>
        <linearGradient x1="9.37058824%" y1="31.3909091%" x2="39.3137255%" y2="96.4636364%" id="linearGradient-15">
            <stop stop-color="#FFFFFF" offset="0%"></stop>
            <stop stop-color="#F0959A" offset="100%"></stop>
        </linearGradient>
        <linearGradient x1="0%" y1="104.18481%" x2="100%" y2="104.18481%" id="linearGradient-16">
            <stop stop-color="#FF6161" offset="0%"></stop>
            <stop stop-color="#F1D0A0" offset="100%"></stop>
        </linearGradient>
        <linearGradient x1="-16.6015748%" y1="0%" x2="-16.6015748%" y2="133.202899%" id="linearGradient-17">
            <stop stop-color="#FFFFFF" stop-opacity="0.01" offset="0%"></stop>
            <stop stop-color="#D4E6F0" stop-opacity="0.213822" offset="35.1582%"></stop>
            <stop stop-color="#355CB9" offset="100%"></stop>
        </linearGradient>
        <linearGradient x1="72.021097%" y1="8.83463761%" x2="54.3776371%" y2="38.8795111%" id="linearGradient-18">
            <stop stop-color="#FDFDFD" offset="0%"></stop>
            <stop stop-color="#FFFFFF" offset="100%"></stop>
        </linearGradient>
        <linearGradient x1="0%" y1="0%" x2="0%" y2="100%" id="linearGradient-19">
            <stop stop-color="#383757" stop-opacity="0.12" offset="0%"></stop>
            <stop stop-color="#3D39FF" stop-opacity="0.522946" offset="100%"></stop>
        </linearGradient>
        <linearGradient x1="-17.5968254%" y1="73.0313131%" x2="89.4206349%" y2="88.2838384%" id="linearGradient-20">
            <stop stop-color="#CCCCCC" offset="0%"></stop>
            <stop stop-color="#9C9C9C" offset="100%"></stop>
        </linearGradient>
        <linearGradient x1="56.5730159%" y1="-6.27205882%" x2="23.8746032%" y2="79.2073529%" id="linearGradient-21">
            <stop stop-color="#ECECEC" offset="0%"></stop>
            <stop stop-color="#FFFFFF" offset="100%"></stop>
        </linearGradient>
        <rect id="path-22" x="0" y="0" width="133" height="102"></rect>
        <linearGradient x1="0%" y1="50%" x2="100.000426%" y2="50%" id="linearGradient-24">
            <stop stop-color="#333333" offset="0%"></stop>
            <stop stop-color="#231F20" offset="100%"></stop>
        </linearGradient>
    </defs>
    <g id="Artboard" stroke="none" stroke-width="1" fill="none" fill-rule="evenodd">
        <path d="M562,27.4395662 C463.729118,6.43134225 473.01677,35.7861099 378.56034,43.5655991 C284.103909,51.3450883 243.074441,-4.71715293 119.368676,45.0301944 C18.2584344,85.6909214 -4.4631569,175.343133 16.1516624,275.670056 C27.9729574,333.2012 -23.3664522,423.526986 37.1344116,455.836388 C137.687925,509.53519 51.4794377,508.301654 137.687925,570.285426 C185.773265,604.858713 312.229676,592.017871 414.668279,573.900084 C495.882235,559.536191 538.5,553.400392 562,574.00591 C562,240.018949 562,57.8301674 562,27.4395662 Z" id="Path" fill="url(#linearGradient-1)"></path>
        <g id="MachineTopImage" transform="translate(120.000000, 91.000000)">
            <g id="Group">
                <path d="M11,109.608638 C11,111.941971 11,113.941971 11,115.608638 C11,119.108638 13.6719983,120.701399 15.9712846,120.554568 C20.0302888,120.294188 21.6221909,117.812744 23,118.356019 C24.5031535,118.950195 28.6379237,118.034948 29.1725959,118.356019 C29.5153344,118.561582 28.9248448,119.334892 28.7828531,119.521857 C28.4636166,119.939836 27.099517,122.345906 26.5158822,122.903864 C25.1096747,124.247857 16.4207618,126.21735 14.1606456,125.980463 C11.8966124,125.742596 8.12026556,124.79211 7,122.903864 C6.54073029,122.131533 6.30899419,119.898589 5.9349195,119.108638 C5.55301079,118.29911 5.9642971,116.503991 5.9349195,115.59266 C5.91533444,115.005988 5.84589046,112.677981 5.72658755,108.608638 L11,109.608638 Z" id="path1010" fill="#939393" transform="translate(17.502300, 117.304319) scale(-1, 1) rotate(-180.000000) translate(-17.502300, -117.304319) "></path>
                <polygon id="path1012" fill="#939393" transform="translate(6.264249, 177.971458) scale(-1, 1) rotate(-180.000000) translate(-6.264249, -177.971458) " points="1.53760996 237.465416 10.990888 237.465416 10.990888 118.477501 1.53760996 118.477501"></polygon>
                <path d="M123.438171,236.780303 L122.420727,87.8878102 L235.354071,25.238944 L234.947681,152.164543 C234.947681,152.164543 124.267598,229.317374 124.46149,232.426275" id="path1016" fill="#E6E6E6" transform="translate(178.887399, 131.009624) scale(-1, 1) rotate(-180.000000) translate(-178.887399, -131.009624) "></path>
                <polygon id="path1020" fill="#D3D3D5" transform="translate(118.271142, 233.248136) scale(-1, 1) rotate(-180.000000) translate(-118.271142, -233.248136) " points="1.76890954 233.247646 118.271632 301.892111 234.773374 233.247646 118.271632 164.604161"></polygon>
                <polygon id="path1124" fill="url(#linearGradient-2)" transform="translate(146.988795, 241.874648) scale(-1, 1) rotate(-180.000000) translate(-146.988795, -241.874648) " points="109.564154 236.005869 109.913949 204.227999 184.413436 248.160934 184.413436 279.521298"></polygon>
                <polygon id="path1170" fill="url(#linearGradient-3)" transform="translate(92.688308, 236.720436) scale(-1, 1) rotate(-180.000000) translate(-92.688308, -236.720436) " points="63.9007333 236.027499 120.718717 205.135843 121.475883 233.28503 63.9007333 268.30503"></polygon>
                <path d="M119.453792,239.523297 L66.61608,208.147213 L63.856928,208.147213 L63.856928,205.45513 L63.856928,205.391033 L63.856928,205.327922 L63.8784,205.327922 C63.918416,204.692866 64.319552,204.060769 65.135488,203.575602 L119.453792,171.313005 C122.06264,169.764811 126.285792,169.764811 128.893664,171.313005 L183.211968,203.575602 C184.02888,204.060769 184.420256,204.692866 184.459296,205.327922 L184.490528,205.327922 L184.490528,205.423574 L184.490528,208.147213 L181.732352,208.147213 L128.893664,239.523297 C127.588752,240.296408 125.8788,240.685922 124.168848,240.685922 C122.459872,240.685922 120.75968,240.296408 119.453792,239.523297" id="path1190" fill="url(#linearGradient-4)" transform="translate(124.173728, 205.418891) scale(-1, 1) rotate(-180.000000) translate(-124.173728, -205.418891) "></path>
                <path d="M119.450864,236.905341 L65.13744,204.642437 C63.421632,203.623588 63.421632,201.970547 65.13744,200.951698 L119.450864,168.688794 C122.058736,167.139314 126.287744,167.139314 128.895616,168.688794 L183.208064,200.951698 C184.923872,201.970547 184.923872,203.623588 183.208064,204.642437 L128.895616,236.905341 C127.59168,237.680574 125.882704,238.068191 124.172752,238.068191 C122.463776,238.068191 120.7548,237.680574 119.450864,236.905341" id="path1212" fill="url(#linearGradient-5)" transform="translate(124.172752, 202.797437) scale(-1, 1) rotate(-180.000000) translate(-124.172752, -202.797437) "></path>
                <polygon id="path1224" stroke="#FFF1E4" stroke-width="16" stroke-linecap="round" stroke-linejoin="round" transform="translate(123.500000, 199.766857) scale(-1, 1) rotate(-180.000000) translate(-123.500000, -199.766857) " points="123.5 216.533714 153.2375 199.766857 123.5 183 93.7625 199.766857"></polygon>
                <polygon id="path1244" stroke="#FFFFFF" stroke-width="15" stroke-linecap="round" stroke-linejoin="round" transform="translate(123.500000, 197.767343) scale(-1, 1) rotate(-180.000000) translate(-123.500000, -197.767343) " points="123.5 214.534686 153.2375 197.767829 141.384806 191.0844 123.5 181 93.7625 197.767829"></polygon>
                <polygon id="path1248" fill="#3A3A3A" transform="translate(138.000000, 176.000000) scale(-1, 1) rotate(-180.000000) translate(-138.000000, -176.000000) " points="127 176.5 137.815 182 149 176 139 170"></polygon>
                <polygon id="path1252" fill="#3E3E3E" transform="translate(144.000000, 183.000000) scale(-1, 1) rotate(-180.000000) translate(-144.000000, -183.000000) " points="139 184 149 190 149 182 139 176"></polygon>
                <polygon id="path1256" fill="#5D5D5D" transform="translate(133.000000, 182.750000) scale(-1, 1) rotate(-180.000000) translate(-133.000000, -182.750000) " points="127 190 139 183.5 139 175.5 127 182.087"></polygon>
                <path d="M137,164.904 C136.413,166.968 140.288,173.051 142.185,174" id="path1260" stroke="#000000" stroke-width="3.9999999" stroke-linecap="round" stroke-linejoin="round" transform="translate(139.562553, 169.452000) scale(-1, 1) rotate(-180.000000) translate(-139.562553, -169.452000) "></path>
                <path d="M139.972973,118.4775 C135.881622,128.959962 177.436797,138.309401 181.763135,139.848462 C200,146.336084 205.5,161.9775 211.5,175" id="path1264" stroke="#000000" stroke-width="3.9999999" stroke-linecap="round" stroke-linejoin="round" transform="translate(175.594991, 146.738750) scale(-1, 1) rotate(-180.000000) translate(-175.594991, -146.738750) "></path>
                <path d="M0.042162202,327 L0.042162202,317.715432 L0,317.715432 L0,155.695997 L0.0853049204,155.695997 L0.0853049204,149.95438 L0.0853049204,138.240892 C0.0686361428,138.070407 0.0696166592,137.900902 0.0853049204,137.730417 L0.0853049204,137.719639 C0.191200684,136.526245 1.0148344,135.344608 2.60130981,134.430456 L113.652628,70.4780463 C117.060903,68.5155105 122.589054,68.5057125 126.003212,70.4584503 L237.478113,134.208042 C239.354821,135.280921 240.157864,136.716326 239.974507,138.123316 L239.985293,159.101776 L239.921559,159.069442 L239.921559,318.107351 L239.899988,318.107351 L239.899988,327 L0.042162202,327 Z M6.61554365,163.812646 L6.75379646,277.011674 C6.75575749,279.447453 8.04121439,280.781938 9.86497476,280.608514 C10.4728949,280.549726 11.1386655,280.328291 11.8397346,279.918736 L101.590316,227.426046 C105.321181,225.244035 108.346074,219.977619 108.344113,215.657689 L108.311755,105.504853 L6.61554365,163.812646 Z M131.121507,215.817396 C131.121507,220.325448 134.296419,225.785863 138.214562,228.019803 L227.752371,279.080028 C228.403434,279.451372 229.025081,279.648311 229.588878,279.695342 C231.28125,279.836433 232.466694,278.589149 232.466694,276.342472 L232.466694,164.491646 L131.121507,106.556177 L131.121507,215.817396 Z" id="path1332" fill="url(#linearGradient-6)" fill-rule="nonzero" transform="translate(120.000000, 198.000000) scale(-1, 1) rotate(-180.000000) translate(-120.000000, -198.000000) "></path>
                <path d="M113.612567,1.48009661 L2.55159361,65.5634569 C-0.854775666,67.5298606 -0.849873004,70.7096817 2.56237947,72.6652865 L114.036157,136.538556 C117.44939,138.494161 122.979593,138.486307 126.385962,136.519904 L237.446936,72.4365435 C240.855266,70.4701398 240.850363,67.2903187 237.43615,65.3347139 L125.963352,1.46144375 C122.549139,-0.494160974 117.020898,-0.48630714 113.612567,1.48009661" id="path1344" fill="#FFFFFF" transform="translate(120.000000, 69.000000) scale(-1, 1) rotate(-180.000000) translate(-120.000000, -69.000000) "></path>
                <g id="path1386-+-path1398-+-path1402-+-path1414-+-path1418-+-path1460-+-path1464-Mask" transform="translate(35.000000, 100.000000)" fill="#5B8B89">
                    <polygon id="path1370" transform="translate(20.000000, 22.000000) scale(-1, 1) rotate(-180.000000) translate(-20.000000, -22.000000) " points="0 44 40 21.1352989 40 -3.55271368e-15 0 22.6544867"></polygon>
                    <path d="M46.3056755,31.146016 C46.3056755,32.604016 47.4876755,33.7860159 48.9466754,33.7860159 C50.4046754,33.7860159 51.5856754,32.604016 51.5856754,31.146016 C51.5856754,29.688016 50.4046754,28.5060161 48.9466754,28.5060161 C47.4876755,28.5060161 46.3056755,29.688016 46.3056755,31.146016" id="path1386" transform="translate(48.945675, 31.146016) scale(-1, 1) rotate(-180.000000) translate(-48.945675, -31.146016) "></path>
                    <path d="M46.6347755,40.4693163 C46.6347755,41.8093162 47.7217755,42.8963162 49.0627754,42.8963162 C50.4037754,42.8963162 51.4897754,41.8093162 51.4897754,40.4693163 C51.4897754,39.1283163 50.4037754,38.0413163 49.0627754,38.0413163 C47.7217755,38.0413163 46.6347755,39.1283163 46.6347755,40.4693163" id="path1402" transform="translate(49.062275, 40.468816) scale(-1, 1) rotate(-180.000000) translate(-49.062275, -40.468816) "></path>
                    <path d="M46.5351755,49.8354164 C46.5351755,51.3234164 47.7411755,52.5294164 49.2291754,52.5294164 C50.7181754,52.5294164 51.9241754,51.3234164 51.9241754,49.8354164 C51.9241754,48.3474165 50.7181754,47.1414165 49.2291754,47.1414165 C47.7411755,47.1414165 46.5351755,48.3474165 46.5351755,49.8354164" id="path1418" transform="translate(49.229675, 49.835416) scale(-1, 1) rotate(-180.000000) translate(-49.229675, -49.835416) "></path>
                </g>
                <g id="Group-2" transform="translate(46.000000, 8.000000)">
                    <polygon id="path4270" fill="url(#linearGradient-7)" transform="translate(72.500000, 59.000000) scale(-1, 1) rotate(-180.000000) translate(-72.500000, -59.000000) " points="0 63.0180265 0 58.6353573 72.5 17 145 58.6353573 145 63.0180265 72.5 101"></polygon>
                    <polygon id="path4292" fill="url(#linearGradient-8)" transform="translate(72.500000, 55.000000) scale(-1, 1) rotate(-180.000000) translate(-72.500000, -55.000000) " points="0 54.6353674 72.5 13 145 54.6353674 72.5 97"></polygon>
                    <path d="M0,50.0162319 L0,45.6347826 L72.5,4 L145,45.6347826 L145,50.0162319 C120.833333,62.6782609 96.6666667,75.3391304 72.5,88 C48.3333333,75.3391304 24.1666667,62.6782609 0,50.0162319" id="path4384" fill="url(#linearGradient-9)" transform="translate(72.500000, 46.000000) scale(-1, 1) rotate(-180.000000) translate(-72.500000, -46.000000) "></path>
                    <polygon id="path4406" fill="url(#linearGradient-10)" transform="translate(72.500000, 42.000000) scale(-1, 1) rotate(-180.000000) translate(-72.500000, -42.000000) " points="0 41.6336232 72.5 -7.10542736e-15 145 41.6336232 72.5 84"></polygon>
                </g>
            </g>
            <g id="Group-4" transform="translate(23.000000, 84.000000)">
                <path d="M266.024,67.8471 C255.492,61.7552 242.508,61.7552 231.976,67.8471 L155.979,111.806 C151.985,114.117 151.985,119.883 155.979,122.194 L231.976,166.153 C242.508,172.245 255.492,172.245 266.024,166.153 L342.021,122.194 C346.015,119.883 346.015,114.117 342.021,111.806 L266.024,67.8471 Z" id="Path" fill="url(#linearGradient-11)"></path>
                <path d="M344.85,114 L344.85,219.444 C344.85,219.444 346.884,221.984 321.329,235.845 C295.774,249.706 265.662,268.212 265.662,268.212 C265.662,268.212 248.625,277.788 231.589,268.212 C214.552,258.635 156.913,225.969 156.913,225.969 C156.913,225.969 153.148,223.279 153.148,218.971 C153.148,214.663 153,117 153,117 C153,117 153.583,117.811 153.632,117.957 C153.89,118.725 156.032,120.026 161.608,123.155 C167.859,126.662 188.993,138.892 234.882,165.226 C237.741,166.867 248.625,167.917 248.625,167.917 C248.625,167.917 260.324,166.658 263.962,164.587 C315.656,135.154 338.638,121.655 341.022,120.165 C344.85,117.772 344.85,114 344.85,114 Z" id="Path" fill="url(#linearGradient-12)"></path>
                <polygon id="Path" fill="#B7B5BD" points="282 258.242 311 275 311 226.551 299.153 219.54 282 175"></polygon>
                <polygon id="Path" fill="#000000" points="326 233.242 355 250 355 201.551 343.153 194.54 326 150"></polygon>
                <polygon id="Path" fill="#F1F1F1" points="311 275 355 250.1 355 202 311 226.9"></polygon>
                <polygon id="Path" fill="url(#linearGradient-13)" points="343.225 194.231 326.176 150 282 174.906 299.097 219.137 311 227 355 202.068"></polygon>
                <polygon id="Path" fill-opacity="0.64" fill="url(#linearGradient-14)" points="288 179.919 326.209 158 339 191.652 300.527 213"></polygon>
                <polygon id="Path" fill-opacity="0.64" fill="url(#linearGradient-15)" points="290 180.919 328.209 159 341 192.652 302.527 214"></polygon>
                <polygon id="Path" fill="url(#linearGradient-16)" points="189 115.826 249.977 151 316 115.826 316 103.908 250.737 72 189 103.908"></polygon>
                <polygon id="Path" fill="url(#linearGradient-17)" points="189 4.94852 189 104.674 249.977 138 315.952 104.674 316 0"></polygon>
                <path d="M299,203 L300.844,193.54 L304.672,194.434 L305.409,184.66 L312.385,190.083 L313.627,187.251 L320.458,190.083 L319.858,177.877 C319.858,177.877 324.672,181.178 324.672,180.255 C324.672,179.332 323.81,170 323.81,170 L336,184.777 L336,180.255" id="Path" stroke="#FFFFFF"></path>
                <polygon id="Path" fill-opacity="0.37917" fill="#A8A8A8" points="293 181.919 331.209 160 344 193.652 305.527 215"></polygon>
                <path d="M79.0094,342.196 C78.206,342.394 77.2944,342.749 76.2622,343.28 C69.6777,346.669 68,352.013 68,357.644 C68,363.274 71.8508,365.402 76.0192,363.064 C76.6784,362.695 77.3418,362.239 77.9916,361.711 L237,269.84 L237,251 L79.0094,342.196 Z" id="Path" fill="#E4E4E4"></path>
                <path d="M75.7805,344.873 C74.5273,345.637 68.3325,349.832 68.3325,358.086 C68.3325,361.245 69.07,362.257 70.115,363.204 C69.3121,362.777 4.87067,324.727 4.87067,324.727 C4.87067,324.727 0.00154429,323.845 0.00154429,318.666 C0.00154429,318.542 0.00117936,318.413 0.000804297,318.282 C-0.00579144,315.963 -0.0155205,312.542 1.90118,309.415 C2.89814,307.789 6.76699,305 6.76699,305 L7.025,305.148 L168,212 L237,251.927 L76,345 L75.7805,344.873 Z M74.2175,363.989 C74.2175,363.989 70.9179,363.631 70.115,363.204 C71.0948,364.092 74.2175,363.989 74.2175,363.989 Z" id="Shape" fill="url(#linearGradient-18)" fill-rule="nonzero"></path>
                <polygon id="Path" fill="url(#linearGradient-19)" points="189 99.341 250.881 67 316 99.341 250.881 133"></polygon>
                <polygon id="Path" fill="url(#linearGradient-20)" points="172 214.14 172 152 235 188.429 235 251"></polygon>
                <polygon id="Path" fill="url(#linearGradient-21)" points="235 188.296 235 251 172 214.813 225.842 183"></polygon>
                <path d="M304,212 L305.844,202.54 L309.672,203.434 L310.409,193.66 L317.385,199.083 L318.627,196.251 L325.458,199.083 L324.858,186.877 C324.858,186.877 329.672,190.178 329.672,189.255 C329.672,188.332 328.81,179 328.81,179 L341,191.777" id="Path" fill-opacity="0.854021" fill="#C3C4EB"></path>
                <g id="Group" transform="translate(102.000000, 183.000000)">
                    <g id="Clipped">
                        <mask id="mask-23" fill="white">
                            <use xlink:href="#path-22"></use>
                        </mask>
                        <g id="path-21"></g>
                        <g id="Group" mask="url(#mask-23)">
                            <g transform="translate(90.000000, 53.500000) scale(-1, 1) translate(-90.000000, -53.500000) translate(12.000000, 7.000000)">
                                <path d="M51.7863768,47.3671881 C51.0757102,46.1365215 48.8023769,46.1178548 46.7063769,47.3285214 C44.6117103,48.5378547 43.490377,50.515188 44.202377,51.7458546 C44.9117103,52.9778546 47.1863769,52.995188 49.2810435,51.7858546 C51.3743768,50.5765213 52.4970435,48.5991881 51.7863768,47.3671881" id="path3488" fill="#FF8885"></path>
                                <path d="M35.8111772,47.0169214 L44.483177,52.1062546 L51.6205101,47.1155881 L42.647177,41.8395882 C40.3685104,43.5662549 38.0898438,45.2915881 35.8111772,47.0169214" id="path3492" fill="#FF8885"></path>
                                <path d="M43.213577,42.4035882 C42.5029104,41.1729216 40.2295771,41.1542549 38.1335771,42.3649215 C36.0389105,43.5742549 34.9175772,45.5515881 35.6282439,46.7835881 C36.3389105,48.0142547 38.6135771,48.0329214 40.7082437,46.8222548 C42.801577,45.6129215 43.9242437,43.6355882 43.213577,42.4035882" id="path3496" fill="#FF6666"></path>
                                <path d="M41.0950437,44.1901215 C40.7590437,44.3847882 40.3950438,44.3807882 40.2803771,44.1834548 C28.4670441,37.3527883 16.6550444,30.5207885 4.84304465,23.690122 C5.19904464,23.4047887 5.55504463,23.1194554 5.91104462,22.834122 C17.7430443,29.6767885 29.5763774,36.519455 41.4083771,43.3634549 C41.4003771,43.3687882 41.3937104,43.3754549 41.3870437,43.3807882 C41.4323771,43.4047882 41.4710437,43.4381215 41.4963771,43.4807882 C41.6110437,43.6781215 41.4310437,43.9954548 41.0950437,44.1901215" id="path3500" fill="#8E8E8E"></path>
                                <path d="M5.99931128,22.9530554 C5.88464462,22.755722 5.52064463,22.7530554 5.18464464,22.9463887 C4.84864465,23.1410554 4.66864465,23.4570554 4.78197798,23.6543887 C4.89664464,23.8530553 5.26064464,23.855722 5.59664463,23.6610554 C5.93264462,23.467722 6.11264461,23.1490554 5.99931128,22.9530554" id="path3504" fill="#494949"></path>
                                <path d="M37.0950438,45.5234548 C36.7590438,45.7181215 36.3950439,45.7141215 36.2803772,45.5167881 C24.4670442,38.6861216 12.6550445,31.8541218 0.843044746,25.0234553 C1.19904474,24.738122 1.55504473,24.4527887 1.91104472,24.1674553 C13.7430444,31.0101218 25.5763775,37.8527883 37.4083772,44.6967882 C37.4003772,44.7021215 37.3937105,44.7087882 37.3870438,44.7141215 C37.4323772,44.7381215 37.4710438,44.7714548 37.4963772,44.8141215 C37.6110438,45.0114548 37.4310438,45.3287881 37.0950438,45.5234548" id="path3508" fill="#8E8E8E"></path>
                                <path d="M1.99931138,24.2863887 C1.88464472,24.0890553 1.52064473,24.0863887 1.18464474,24.279722 C0.848644745,24.4743887 0.66864475,24.7903887 0.78197808,24.987722 C0.896644744,25.1863886 1.26064474,25.1890553 1.59664473,24.9943887 C1.93264472,24.8010553 2.11264471,24.4823887 1.99931138,24.2863887" id="path3512" fill="#494949"></path>
                                <path d="M71.7863763,36.7005217 C71.0757097,35.4698551 68.8023764,35.4511884 66.7063764,36.661855 C64.6117098,37.8711883 63.4903765,39.8485216 64.2023765,41.0791882 C64.9117098,42.3111882 67.1863764,42.3285216 69.281043,41.1191882 C71.3743763,39.9098549 72.497043,37.9325217 71.7863763,36.7005217" id="path3516" fill="#C2FF73"></path>
                                <path d="M55.8111767,36.350255 L64.4831765,41.4395882 L71.6205096,36.4489217 L62.6471765,31.1729218 C60.3685099,32.8995885 58.0898433,34.6249217 55.8111767,36.350255" id="path3520" fill="#C2FF73"></path>
                                <path d="M63.2135765,31.7369218 C62.5029099,30.5062552 60.2295766,30.4875885 58.1335766,31.6982551 C56.03891,32.9075885 54.9175767,34.8849217 55.6295767,36.1169217 C56.33891,37.3475883 58.6135766,37.366255 60.7082432,36.1555884 C62.8015765,34.9462551 63.9242432,32.9689218 63.2135765,31.7369218" id="path3524" fill="#AFEF4B"></path>
                                <path d="M61.0950432,33.5234551 C60.7590432,33.7181218 60.3950433,33.7141218 60.2803766,33.5167884 C48.4670436,26.6861219 36.6550439,19.8541221 24.8430441,13.0234556 C25.1990441,12.7381223 25.5550441,12.452789 25.9110441,12.1674556 C37.7430438,19.0101221 49.5763769,25.8527886 61.4083766,32.6967885 C61.4003766,32.7021218 61.3937099,32.7087885 61.3870432,32.7141218 C61.4323766,32.7381218 61.4710432,32.7714551 61.4963766,32.8141218 C61.6110432,33.0114551 61.4310432,33.3287884 61.0950432,33.5234551" id="path3528" fill="#8E8E8E"></path>
                                <path d="M25.9993108,12.286389 C25.8846441,12.0890556 25.5206441,12.086389 25.1846441,12.2797223 C24.8486441,12.474389 24.6686441,12.790389 24.7819775,12.9877223 C24.8966441,13.1863889 25.2606441,13.1890556 25.5966441,12.994389 C25.9326441,12.8010556 26.1126441,12.482389 25.9993108,12.286389" id="path3532" fill="#494949"></path>
                                <path d="M57.0950433,34.8567884 C56.7590433,35.0514551 56.3950434,35.0474551 56.2803767,34.8501217 C44.4670437,28.0194552 32.655044,21.1874554 20.8430442,14.3567889 C21.1990442,14.0714556 21.5550442,13.7861223 21.9110442,13.5007889 C33.7430439,20.3434554 45.576377,27.1861219 57.4083767,34.0301218 C57.4003767,34.0354551 57.39371,34.0421218 57.3870433,34.0474551 C57.4323767,34.0714551 57.4710433,34.1047884 57.4963767,34.1474551 C57.6110433,34.3447884 57.4310433,34.6621217 57.0950433,34.8567884" id="path3536" fill="#8E8E8E"></path>
                                <path d="M21.9993109,13.6197223 C21.8846442,13.4223889 21.5206442,13.4197223 21.1846442,13.6130556 C20.8486442,13.8077223 20.6686442,14.1237223 20.7819776,14.3210556 C20.8966442,14.5197222 21.2606442,14.5223889 21.5966442,14.3277223 C21.9326442,14.1343889 22.1126442,13.8157223 21.9993109,13.6197223" id="path3540" fill="#494949"></path>
                                <path d="M91.7863758,24.700522 C91.0757092,23.4698554 88.8023759,23.4511887 86.7063759,24.6618553 C84.6117093,25.8711886 83.490376,27.8485219 84.202376,29.0791885 C84.9117093,30.3111885 87.1863759,30.3285219 89.2810425,29.1191885 C91.3743758,27.9098552 92.4970425,25.932522 91.7863758,24.700522" id="path3544" fill="#FFF576"></path>
                                <path d="M75.8111762,24.3502553 L84.483176,29.4395885 L91.6205091,24.448922 L82.647176,19.1729221 C80.3685094,20.8995888 78.0898428,22.624922 75.8111762,24.3502553" id="path3548" fill="#FFF576"></path>
                                <path d="M83.213576,19.7369221 C82.5029094,18.5062555 80.2295761,18.4875888 78.1335761,19.6982554 C76.0389095,20.9075888 74.9175762,22.884922 75.6295762,24.116922 C76.3389095,25.3475886 78.6135761,25.3662553 80.7082427,24.1555887 C82.801576,22.9462554 83.9242427,20.9689221 83.213576,19.7369221" id="path3552" fill="#FFE54D"></path>
                                <path d="M81.0950427,21.5234554 C80.7590427,21.7181221 80.3950428,21.7141221 80.2803761,21.5167887 C68.4670431,14.6861222 56.6550434,7.85412241 44.8430436,1.02345592 C45.1977103,0.73812259 45.5550436,0.45278926 45.9110436,0.16745594 C57.7430433,7.01012243 69.5763764,13.8527889 81.4083761,20.6967888 C81.4003761,20.7021221 81.3937094,20.7087888 81.3870427,20.7141221 C81.4323761,20.7381221 81.4710427,20.7714554 81.4963761,20.8141221 C81.6110427,21.0114554 81.4310427,21.3287887 81.0950427,21.5234554" id="path3556" fill="#8E8E8E"></path>
                                <path d="M45.9986436,0.28638927 C45.8853103,0.08905594 45.5213103,0.08638927 45.1853103,0.2797226 C44.8493103,0.47438926 44.667977,0.79038926 44.7826436,0.98772258 C44.8973103,1.18638925 45.2613103,1.18905591 45.5973103,0.99438925 C45.9333103,0.80105592 46.1133103,0.48238926 45.9986436,0.28638927" id="path3560" fill="#494949"></path>
                                <path d="M77.0950428,22.8567887 C76.7590428,23.0514554 76.3950429,23.0474554 76.2803762,22.850122 C64.4670432,16.0194555 52.6550435,9.1874557 40.8430437,2.35678922 C41.1977104,2.07145589 41.5550437,1.78612256 41.9110437,1.50078924 C53.7430434,8.34345573 65.5763765,15.1861222 77.4083762,22.0301221 C77.4003762,22.0354554 77.3937095,22.0421221 77.3870428,22.0474554 C77.4323762,22.0714554 77.4710428,22.1047887 77.4963762,22.1474554 C77.6110428,22.3447887 77.4310428,22.662122 77.0950428,22.8567887" id="path3564" fill="#8E8E8E"></path>
                                <path d="M41.9986437,1.61972257 C41.8853104,1.42238924 41.5213104,1.41972257 41.1853104,1.6130559 C40.8493104,1.80772256 40.6679771,2.12372256 40.7826437,2.32105588 C40.8973104,2.51972255 41.2613104,2.52238921 41.5973104,2.32772255 C41.9333104,2.13438922 42.1133104,1.81572256 41.9986437,1.61972257" id="path3568" fill="#494949"></path>
                                <path d="M115.786375,87.3671871 C115.075709,86.1365205 112.802375,86.1178538 110.706375,87.3285204 C108.611709,88.5378537 107.490375,90.515187 108.202375,91.7458536 C108.911709,92.9778536 111.186375,92.995187 113.281042,91.7858536 C115.374375,90.5765203 116.497042,88.5991871 115.786375,87.3671871" id="path3572" fill="#FF8885"></path>
                                <path d="M99.8111756,87.0169204 L108.483175,92.1062536 L115.620509,87.1155871 L106.647175,81.8395872 C104.368509,83.5662539 102.089842,85.2915871 99.8111756,87.0169204" id="path3576" fill="#FF8885"></path>
                                <path d="M107.213575,82.4035872 C106.502909,81.1729206 104.229575,81.1542539 102.133576,82.3649205 C100.038909,83.5742539 98.9175756,85.5515871 99.6295756,86.7835871 C100.338909,88.0142537 102.613576,88.0329204 104.708242,86.8222538 C106.801575,85.6129205 107.924242,83.6355872 107.213575,82.4035872" id="path3580" fill="#FF6666"></path>
                                <path d="M105.095042,84.1901205 C104.759042,84.3847872 104.395042,84.3807872 104.280375,84.1834538 C92.4670425,77.3527873 80.6550428,70.5207875 68.843043,63.690121 C69.1977097,63.4047877 69.555043,63.1194544 69.911043,62.834121 C81.7430427,69.6767875 93.5763758,76.519454 105.408375,83.3634539 C105.400375,83.3687872 105.393709,83.3754539 105.387042,83.3807872 C105.432375,83.4047872 105.471042,83.4381205 105.496375,83.4807872 C105.611042,83.6781205 105.431042,83.9954538 105.095042,84.1901205" id="path3584" fill="#8E8E8E"></path>
                                <path d="M69.998643,62.9530544 C69.8853097,62.755721 69.5213097,62.7530544 69.1853097,62.9463877 C68.8493097,63.1410544 68.6679764,63.4570544 68.782643,63.6543877 C68.8973097,63.8530543 69.2613097,63.855721 69.5973097,63.6610544 C69.9333097,63.467721 70.1133097,63.1490544 69.998643,62.9530544" id="path3588" fill="#494949"></path>
                                <path d="M101.095042,85.5234538 C100.759042,85.7181205 100.395042,85.7141205 100.280376,85.5167871 C88.4670426,78.6861206 76.6550429,71.8541208 64.8430431,65.0234543 C65.1977098,64.738121 65.5550431,64.4527877 65.9110431,64.1674543 C77.7430428,71.0101208 89.5763759,77.8527873 101.408376,84.6967872 C101.400376,84.7021205 101.393709,84.7087872 101.387042,84.7141205 C101.432376,84.7381205 101.471042,84.7714538 101.496376,84.8141205 C101.611042,85.0114538 101.431042,85.3287871 101.095042,85.5234538" id="path3592" fill="#8E8E8E"></path>
                                <path d="M65.9986431,64.2863877 C65.8853098,64.0890543 65.5213098,64.0863877 65.1853098,64.279721 C64.8493098,64.4743877 64.6679765,64.7903877 64.7826431,64.987721 C64.8973098,65.1863876 65.2613098,65.1890543 65.5973098,64.9943877 C65.9333098,64.8010543 66.1133098,64.4823877 65.9986431,64.2863877" id="path3596" fill="#494949"></path>
                                <path d="M135.786375,76.7005207 C135.075708,75.4698541 132.802375,75.4511874 130.706375,76.661854 C128.611708,77.8711873 127.490375,79.8485206 128.202375,81.0791872 C128.911708,82.3111872 131.186375,82.3285206 133.281041,81.1191872 C135.374375,79.9098539 136.497041,77.9325207 135.786375,76.7005207" id="path3600" fill="#C2FF73"></path>
                                <path d="M119.811175,76.350254 L128.483175,81.4395872 L135.620508,76.4489207 L126.647175,71.1729208 C124.368508,72.8995875 122.089842,74.6249207 119.811175,76.350254" id="path3604" fill="#C2FF73"></path>
                                <path d="M127.213575,71.7369208 C126.502908,70.5062542 124.229575,70.4875875 122.133575,71.6982541 C120.038908,72.9075875 118.917575,74.8849207 119.629575,76.1169207 C120.338908,77.3475873 122.613575,77.366254 124.708242,76.1555874 C126.801575,74.9462541 127.924242,72.9689208 127.213575,71.7369208" id="path3608" fill="#AFEF4B"></path>
                                <path d="M125.095042,73.5234541 C124.759042,73.7181208 124.395042,73.7141208 124.280375,73.5167874 C112.467042,66.6861209 100.655042,59.8541211 88.8430425,53.0234546 C89.1977092,52.7381213 89.5550425,52.452788 89.9110425,52.1674546 C101.743042,59.0101211 113.576375,65.8527876 125.408375,72.6967875 C125.400375,72.7021208 125.393708,72.7087875 125.387042,72.7141208 C125.432375,72.7381208 125.471042,72.7714541 125.496375,72.8141208 C125.611042,73.0114541 125.431042,73.3287874 125.095042,73.5234541" id="path3612" fill="#8E8E8E"></path>
                                <path d="M89.9986425,52.286388 C89.8853092,52.0890546 89.5213092,52.086388 89.1853092,52.2797213 C88.8493092,52.474388 88.6679759,52.790388 88.7826425,52.9877213 C88.8973092,53.1863879 89.2613092,53.1890546 89.5973092,52.994388 C89.9333092,52.8010546 90.1133092,52.482388 89.9986425,52.286388" id="path3616" fill="#494949"></path>
                                <path d="M121.095042,74.8567874 C120.759042,75.0514541 120.395042,75.0474541 120.280375,74.8501207 C108.467042,68.0194542 96.6550424,61.1874544 84.8430426,54.3567879 C85.1977093,54.0714546 85.5550426,53.7861213 85.9110426,53.5007879 C97.7430423,60.3434544 109.576375,67.1861209 121.408375,74.0301208 C121.400375,74.0354541 121.393708,74.0421208 121.387042,74.0474541 C121.432375,74.0714541 121.471042,74.1047874 121.496375,74.1474541 C121.611042,74.3447874 121.431042,74.6621207 121.095042,74.8567874" id="path3620" fill="#8E8E8E"></path>
                                <path d="M85.9986426,53.6197213 C85.8853093,53.4223879 85.5213093,53.4197213 85.1853093,53.6130546 C84.8493093,53.8077213 84.667976,54.1237213 84.7826426,54.3210546 C84.8973093,54.5197212 85.2613093,54.5223879 85.5973093,54.3277213 C85.9333093,54.1343879 86.1133093,53.8157213 85.9986426,53.6197213" id="path3624" fill="#494949"></path>
                                <path d="M155.786374,64.700521 C155.075708,63.4698544 152.802374,63.4511877 150.706374,64.6618543 C148.611708,65.8711876 147.490374,67.8485209 148.202374,69.0791875 C148.911708,70.3111875 151.186374,70.3285209 153.281041,69.1191875 C155.374374,67.9098542 156.497041,65.932521 155.786374,64.700521" id="path3628" fill="#FFF576"></path>
                                <path d="M139.811175,64.3502543 L148.483174,69.4395875 L155.620508,64.448921 L146.647174,59.1729211 C144.368508,60.8995878 142.089841,62.624921 139.811175,64.3502543" id="path3632" fill="#FFF576"></path>
                                <path d="M147.213574,59.7369211 C146.502908,58.5062545 144.229574,58.4875878 142.133575,59.6982544 C140.038908,60.9075878 138.917575,62.884921 139.629575,64.116921 C140.338908,65.3475876 142.613575,65.3662543 144.708241,64.1555877 C146.801574,62.9462544 147.924241,60.9689211 147.213574,59.7369211" id="path3636" fill="#FFE54D"></path>
                                <path d="M145.095041,61.5234544 C144.759041,61.7181211 144.395041,61.7141211 144.280374,61.5167877 C132.467041,54.6861212 120.655042,47.8541214 108.843042,41.0234549 C109.197709,40.7381216 109.555042,40.4527883 109.911042,40.1674549 C121.743042,47.0101214 133.576375,53.8527879 145.408374,60.6967878 C145.400374,60.7021211 145.393708,60.7087878 145.387041,60.7141211 C145.432374,60.7381211 145.471041,60.7714544 145.496374,60.8141211 C145.611041,61.0114544 145.431041,61.3287877 145.095041,61.5234544" id="path3640" fill="#8E8E8E"></path>
                                <path d="M109.998642,40.2863883 C109.885309,40.0890549 109.521309,40.0863883 109.185309,40.2797216 C108.849309,40.4743883 108.667975,40.7903883 108.782642,40.9877216 C108.897309,41.1863882 109.261309,41.1890549 109.597309,40.9943883 C109.933309,40.8010549 110.113309,40.4823883 109.998642,40.2863883" id="path3644" fill="#494949"></path>
                                <path d="M141.095041,62.8567877 C140.759041,63.0514544 140.395041,63.0474544 140.280375,62.850121 C128.467042,56.0194545 116.655042,49.1874547 104.843042,42.3567882 C105.197709,42.0714549 105.555042,41.7861216 105.911042,41.5007882 C117.743042,48.3434547 129.576375,55.1861212 141.408375,62.0301211 C141.400375,62.0354544 141.393708,62.0421211 141.387041,62.0474544 C141.432375,62.0714544 141.471041,62.1047877 141.496375,62.1474544 C141.611041,62.3447877 141.431041,62.662121 141.095041,62.8567877" id="path3648" fill="#8E8E8E"></path>
                                <path d="M105.998642,41.6197216 C105.885309,41.4223882 105.521309,41.4197216 105.185309,41.6130549 C104.849309,41.8077216 104.667975,42.1237216 104.782642,42.3210549 C104.897309,42.5197215 105.261309,42.5223882 105.597309,42.3277216 C105.933309,42.1343882 106.113309,41.8157216 105.998642,41.6197216" id="path3652" fill="#494949"></path>
                            </g>
                        </g>
                    </g>
                </g>
                <g id="Group-2" transform="translate(35.000000, 265.000000)">
                    <path d="M3.02344727,51.4650763 C2.8367806,51.3557429 2.65144728,51.2464096 2.46611395,51.1370763 C2.04611396,50.8890763 1.6274473,50.6424096 1.20744731,50.3944096 L1.26344731,44.2890765 C1.65678063,43.7597431 2.08344729,43.2477432 2.47678061,42.7157432 C2.55811394,42.7650765 2.63944728,42.8130765 2.72078061,42.8610765 C2.78878061,42.9010765 2.85544727,42.9397432 2.92211394,42.9797432 C3.0047806,43.0290765 3.08611393,43.0770765 3.16744726,43.1250765 C3.54744725,44.1104098 3.95944724,45.1170764 4.3381139,46.1037431 C4.31944723,48.1384097 4.30078057,50.1730763 4.2821139,52.2077429 C3.86211391,51.9597429 3.44211392,51.7130763 3.02344727,51.4650763" id="path1724" fill="#999999" transform="translate(2.772781, 47.461743) scale(-1, 1) rotate(-180.000000) translate(-2.772781, -47.461743) "></path>
                    <path d="M2.87304727,51.0776946 C2.57438061,50.9030279 2.33038062,51.0416946 2.32771395,51.3856946 L2.27704728,56.9083611 L3.35571392,57.5443611 L3.40638059,52.0230279 C3.40904726,51.6763612 3.1703806,51.2536946 2.87304727,51.0776946" id="path1728" fill="#999999" transform="translate(2.841725, 54.273252) scale(-1, 1) rotate(-180.000000) translate(-2.841725, -54.273252) "></path>
                    <path d="M9.90758043,47.4050762 C9.7222471,47.2957429 9.53558044,47.1864095 9.35024711,47.0757429 C8.93158045,46.8277429 8.51158046,46.5810762 8.09158047,46.3330762 C8.11024714,44.2997429 8.12891381,42.2650763 8.14758047,40.2290764 C8.54091379,39.6984097 8.96758045,39.1877431 9.36091377,38.6557431 C9.44224711,38.7050764 9.52358044,38.7530764 9.6062471,38.8010764 C9.67291377,38.8397431 9.74091376,38.8797431 9.80758043,38.9197431 C9.88891376,38.9677431 9.97024709,39.0157431 10.0515804,39.0637431 C10.4315804,40.0490764 10.8449137,41.055743 11.2235804,42.043743 C11.2049137,44.0770763 11.1849137,46.1117429 11.1662471,48.1477428 C10.7462471,47.8997428 10.3275804,47.6530762 9.90758043,47.4050762" id="path1732" fill="#999999" transform="translate(9.657580, 43.401743) scale(-1, 1) rotate(-180.000000) translate(-9.657580, -43.401743) "></path>
                    <path d="M9.75718043,47.0185244 C9.45851377,46.8425245 9.21451378,46.9811911 9.21184711,47.3265244 L9.16118045,52.8478576 L10.2398471,53.485191 L10.2905138,47.9625244 C10.2945138,47.6171911 10.0558471,47.1945244 9.75718043,47.0185244" id="path1736" fill="#999999" transform="translate(9.725872, 50.213667) scale(-1, 1) rotate(-180.000000) translate(-9.725872, -50.213667) "></path>
                    <path d="M16.7922469,43.3452087 C16.6055803,43.2345421 16.4202469,43.1252087 16.2349136,43.0158754 C15.8149136,42.7678754 15.3949136,42.5212087 14.976247,42.2732087 C14.9949136,40.2385421 15.0135803,38.2038755 15.032247,36.1692089 C15.4255803,35.6385422 15.8522469,35.1265423 16.2455803,34.5958756 C16.3269136,34.6452089 16.4082469,34.6932089 16.4895803,34.7412089 C16.5575803,34.7798756 16.6242469,34.8185423 16.6909136,34.8598756 C16.7735803,34.9078756 16.8549136,34.9558756 16.9362469,35.0038756 C17.3162469,35.9892089 17.7282469,36.9958755 18.1069136,37.9825422 L18.0509136,44.0878754 C17.6309136,43.8398754 17.2109136,43.5932087 16.7922469,43.3452087" id="path1740" fill="#999999" transform="translate(16.541580, 39.341876) scale(-1, 1) rotate(-180.000000) translate(-16.541580, -39.341876) "></path>
                    <path d="M16.6413136,42.9586911 C16.3439803,42.7826911 16.0999803,42.9213578 16.0959803,43.2653577 L16.0453136,48.7880243 L17.1239802,49.4253576 L17.1746469,43.9026911 C17.1786469,43.5560244 16.9399803,43.1346911 16.6413136,42.9586911" id="path1744" fill="#999999" transform="translate(16.610005, 46.153817) scale(-1, 1) rotate(-180.000000) translate(-16.610005, -46.153817) "></path>
                    <path d="M23.6763801,39.286676 C23.4897134,39.1773427 23.3043801,39.0680093 23.1190468,38.958676 C22.6990468,38.710676 22.2803801,38.4640093 21.8603801,38.2160093 L21.9163801,32.1106762 C22.3097135,31.5800095 22.7363801,31.0693429 23.1297134,30.5373429 C23.2110468,30.5866762 23.2923801,30.6346762 23.3737134,30.6826762 C23.4417134,30.7226762 23.5083801,30.7613429 23.5750468,30.8013429 C23.6577134,30.8493429 23.7390467,30.8973429 23.8203801,30.9453429 C24.2003801,31.9320095 24.6123801,32.9373428 24.9910467,33.9253428 C24.9723801,35.9600094 24.9537134,37.9933427 24.9350467,40.0293426 C24.5150467,39.7813426 24.0950467,39.534676 23.6763801,39.286676" id="path1748" fill="#999999" transform="translate(23.425713, 35.283343) scale(-1, 1) rotate(-180.000000) translate(-23.425713, -35.283343) "></path>
                    <path d="M23.5259801,38.9001242 C23.2273134,38.7241243 22.9833134,38.8627909 22.9806468,39.2081242 L22.9299801,44.7307908 L24.0086467,45.3667908 L24.0593134,39.8454576 C24.0619801,39.4987909 23.8233134,39.0761242 23.5259801,38.9001242" id="path1752" fill="#999999" transform="translate(23.494658, 42.095267) scale(-1, 1) rotate(-180.000000) translate(-23.494658, -42.095267) "></path>
                    <path d="M30.5605132,35.2266759 C30.3751799,35.1173426 30.1885133,35.0080092 30.0031799,34.8973426 C29.5845133,34.6493426 29.1645133,34.4026759 28.7445133,34.1546759 C28.76318,32.1200093 28.7818466,30.086676 28.8005133,28.0506761 C29.1938466,27.5200094 29.6205133,27.0093428 30.0138466,26.4773428 C30.0951799,26.5266761 30.1765133,26.5746761 30.2591799,26.6226761 C30.3258466,26.6613428 30.3938466,26.7013428 30.4605132,26.7413428 C30.5418466,26.7893428 30.6231799,26.8373428 30.7045132,26.8853428 C31.0845132,27.8706761 31.4978466,28.8773427 31.8765132,29.8640094 L31.8191799,35.9693425 C31.3991799,35.7213425 30.9805132,35.4746759 30.5605132,35.2266759" id="path1756" fill="#999999" transform="translate(30.310513, 31.223343) scale(-1, 1) rotate(-180.000000) translate(-30.310513, -31.223343) "></path>
                    <path d="M30.4101132,34.8402569 C30.1114466,34.6642569 29.8674466,34.8029236 29.8647799,35.1482569 L29.8141133,40.6695901 L30.8927799,41.3069234 L30.9434466,35.7842569 C30.9474466,35.4389235 30.7087799,35.0162569 30.4101132,34.8402569" id="path1760" fill="#999999" transform="translate(30.378805, 38.035400) scale(-1, 1) rotate(-180.000000) translate(-30.378805, -38.035400) "></path>
                    <path d="M37.4453131,31.1668091 C37.2586464,31.0574758 37.0733131,30.9481425 36.8879798,30.8388091 C36.4679798,30.5908091 36.0479798,30.3441425 35.6293131,30.0961425 L35.6853131,23.9908093 C36.0786464,23.461476 36.5053131,22.949476 36.8986464,22.4188093 C36.9799798,22.4681427 37.0613131,22.5161427 37.1426464,22.5641427 C37.2106464,22.6028093 37.2773131,22.641476 37.3439797,22.6828093 C37.4266464,22.7308093 37.5079797,22.7788093 37.5893131,22.8268093 C37.9693131,23.8121426 38.381313,24.8188093 38.7599797,25.8054759 C38.741313,27.8401425 38.7226464,29.8748092 38.7039797,31.9094758 C38.2839797,31.6614758 37.8639797,31.4148091 37.4453131,31.1668091" id="path1764" fill="#999999" transform="translate(37.194646, 27.164143) scale(-1, 1) rotate(-180.000000) translate(-37.194646, -27.164143) "></path>
                    <path d="M37.2942464,30.7816248 C36.9969131,30.6056248 36.7529131,30.7442915 36.7489131,31.0882915 L36.6982464,36.610958 L37.7769131,37.246958 L37.8275797,31.7256248 C37.8315797,31.3789581 37.5929131,30.9576248 37.2942464,30.7816248" id="path1768" fill="#999999" transform="translate(37.262938, 33.976084) scale(-1, 1) rotate(-180.000000) translate(-37.262938, -33.976084) "></path>
                    <path d="M44.3294462,27.1082777 C44.1441129,26.9989444 43.9574462,26.889611 43.7721129,26.7802777 C43.3521129,26.5322777 42.9334463,26.285611 42.5134463,26.037611 L42.5694463,19.9322779 C42.9627796,19.4016112 43.3894463,18.8909446 43.7827796,18.3589446 C43.8641129,18.4082779 43.9454462,18.4562779 44.0281129,18.5042779 C44.0947796,18.5442779 44.1614462,18.5829446 44.2281129,18.6229446 C44.3107796,18.6709446 44.3921129,18.7189446 44.4734462,18.7669446 C44.8534462,19.7536112 45.2654462,20.7589445 45.6441129,21.7469445 C45.6254462,23.7802778 45.6067795,25.8149444 45.5881129,27.8509443 C45.1681129,27.6029443 44.7481129,27.3562777 44.3294462,27.1082777" id="path1772" fill="#999999" transform="translate(44.078780, 23.104944) scale(-1, 1) rotate(-180.000000) translate(-44.078780, -23.104944) "></path>
                    <path d="M44.1790462,26.721724 C43.8803796,26.545724 43.6363796,26.6843906 43.6337129,27.0297239 L43.5830463,32.5510571 L44.6617129,33.1883905 L44.7123796,27.6670573 C44.7150462,27.3203906 44.4763796,26.8977239 44.1790462,26.721724" id="path1776" fill="#999999" transform="translate(44.147724, 29.916867) scale(-1, 1) rotate(-180.000000) translate(-44.147724, -29.916867) "></path>
                    <path d="M51.2135794,23.0484102 C51.0282461,22.9390769 50.8415794,22.8284102 50.6562461,22.7190769 C50.2375794,22.4710769 49.8175794,22.2244102 49.3975794,21.9764103 C49.4162461,19.9417436 49.4349128,17.9084104 49.4535794,15.8724104 C49.8469128,15.3417437 50.2735794,14.8310771 50.6669127,14.2990771 C50.7482461,14.3484104 50.8295794,14.3964104 50.9122461,14.4444104 C50.9789127,14.4830771 51.0469127,14.5230771 51.1135794,14.5630771 C51.1949127,14.6110771 51.2762461,14.6590771 51.3575794,14.7070771 C51.7375794,15.6924104 52.1509127,16.699077 52.5295794,17.6857437 L52.472246,23.7910769 C52.052246,23.5430769 51.6335794,23.2964102 51.2135794,23.0484102" id="path1780" fill="#999999" transform="translate(50.963579, 19.045077) scale(-1, 1) rotate(-180.000000) translate(-50.963579, -19.045077) "></path>
                    <path d="M51.0631794,22.6618586 C50.7645127,22.4858586 50.5205127,22.6245253 50.5178461,22.9698586 L50.4671794,28.4911918 L51.5458461,29.1285251 L51.5965127,23.6058586 C51.6005127,23.2605252 51.3618461,22.8378586 51.0631794,22.6618586" id="path1784" fill="#999999" transform="translate(51.031871, 25.857001) scale(-1, 1) rotate(-180.000000) translate(-51.031871, -25.857001) "></path>
                    <path d="M58.0982459,18.9897429 C57.9115792,18.8804095 57.7262459,18.7710762 57.5409126,18.6617429 C57.1209126,18.4137429 56.7009126,18.1670762 56.2822459,17.9190762 L56.3382459,11.813743 C56.7315793,11.2844097 57.1582459,10.7724097 57.5515792,10.2404097 C57.6329126,10.2897431 57.7142459,10.3377431 57.7955792,10.3857431 C57.8635792,10.4257431 57.9302459,10.4644097 57.9969126,10.5057431 C58.0795792,10.5537431 58.1609126,10.6017431 58.2422459,10.6497431 C58.6222459,11.6350764 59.0342459,12.641743 59.4129125,13.6284097 C59.3942459,15.6630763 59.3755792,17.6977429 59.3569125,19.7324095 C58.9369125,19.4844095 58.5169125,19.2377429 58.0982459,18.9897429" id="path1788" fill="#999999" transform="translate(57.847579, 14.986410) scale(-1, 1) rotate(-180.000000) translate(-57.847579, -14.986410) "></path>
                    <path d="M57.9471792,18.6023611 C57.6498459,18.4276944 57.4058459,18.5663611 57.4018459,18.9103611 L57.3511792,24.4330276 L58.4298459,25.0690276 L58.4805125,19.5476944 C58.4845125,19.2010277 58.2458459,18.7783611 57.9471792,18.6023611" id="path1792" fill="#999999" transform="translate(57.915871, 21.797919) scale(-1, 1) rotate(-180.000000) translate(-57.915871, -21.797919) "></path>
                    <path d="M64.9823791,14.9298774 C64.7970457,14.8205441 64.6103791,14.7112107 64.4250457,14.6018774 C64.0050457,14.3525441 63.5863791,14.1058774 63.1663791,13.8578774 C63.1850458,11.8245441 63.2037124,9.78987754 63.2223791,7.75387759 C63.6157124,7.22321094 64.0423791,6.71254429 64.4357124,6.1805443 C64.5170457,6.22987763 64.5983791,6.27787763 64.6810457,6.32587763 C64.7477124,6.36454429 64.8157124,6.40454429 64.8823791,6.44454429 C64.9637124,6.49254429 65.0450457,6.54054429 65.126379,6.58854429 C65.506379,7.5738776 65.918379,8.58054424 66.2970457,9.56854421 C66.278379,11.6018775 66.2597124,13.6365441 66.2410457,15.672544 C65.8210457,15.424544 65.4010457,15.1778774 64.9823791,14.9298774" id="path1796" fill="#999999" transform="translate(64.731712, 10.926544) scale(-1, 1) rotate(-180.000000) translate(-64.731712, -10.926544) "></path>
                    <path d="M64.8319791,14.5433257 C64.5333124,14.3673257 64.2893124,14.5059923 64.2866457,14.8513257 L64.2359791,20.3726588 L65.3146457,21.0099922 L65.3653124,15.4873256 C65.367979,15.1419923 65.1293124,14.7193257 64.8319791,14.5433257" id="path1800" fill="#999999" transform="translate(64.800657, 17.738468) scale(-1, 1) rotate(-180.000000) translate(-64.800657, -17.738468) "></path>
                    <path d="M71.8665122,10.8700099 C71.6811789,10.7593433 71.4958456,10.6500099 71.3091789,10.5406766 C70.8905122,10.2926766 70.4705122,10.0460099 70.0505123,9.79800995 C70.0691789,7.76334333 70.0878456,5.72867671 70.1065123,3.6940101 C70.4998456,3.16334344 70.9265122,2.65134346 71.3198456,2.1206768 C71.4011789,2.17001014 71.4825122,2.21801013 71.5651789,2.26601013 C71.6318456,2.3046768 71.6998455,2.34334346 71.7665122,2.3846768 C71.8478455,2.4326768 71.9291789,2.48067679 72.0105122,2.52867679 C72.3905122,3.5140101 72.8038455,4.52067674 73.1825122,5.50734339 L73.1251788,11.6126766 C72.7051789,11.3646766 72.2865122,11.1180099 71.8665122,10.8700099" id="path1804" fill="#999999" transform="translate(71.616512, 6.866677) scale(-1, 1) rotate(-180.000000) translate(-71.616512, -6.866677) "></path>
                    <path d="M71.7161122,10.4834923 C71.4174456,10.3074923 71.1734456,10.446159 71.1707789,10.790159 L71.1201122,16.3128255 L72.1987789,16.9501588 L72.2494455,11.4274923 C72.2534455,11.0808256 72.0147789,10.6594923 71.7161122,10.4834923" id="path1808" fill="#999999" transform="translate(71.684804, 13.678618) scale(-1, 1) rotate(-180.000000) translate(-71.684804, -13.678618) "></path>
                    <path d="M0.333314,16.0000103 L0.333314,10.6666771 L14.9999803,1.333344 L89.8239784,44.9426762 C89.7719784,45.9626762 89.7199784,49.6480095 89.6666451,50.6666761 C84.3333119,53.3333427 78.9999787,56.4440093 73.6666455,58.6666759 C49.2226461,45.3333429 24.7773134,29.3333433 0.333314,16.0000103" id="path1828" fill="url(#linearGradient-24)" transform="translate(45.078646, 30.000010) scale(-1, 1) rotate(-180.000000) translate(-45.078646, -30.000010) "></path>
                    <polygon id="path1840" fill="#3D3D3D" transform="translate(45.078646, 26.666677) scale(-1, 1) rotate(-180.000000) translate(-45.078646, -26.666677) " points="0.333314 9.3333443 14.9999803 1.12e-05 89.8239784 43.6093434 73.6666455 53.3333432"></polygon>
                    <path d="M19.0234469,60.7984092 C18.8367802,60.6890758 18.6514469,60.5797425 18.4661135,60.4704092 C18.0461136,60.2224092 17.6274469,59.9757425 17.2074469,59.7277425 L17.2634469,53.6224094 C17.6567802,53.093076 18.0834469,52.5810761 18.4767802,52.0490761 C18.5581135,52.0984094 18.6394469,52.1464094 18.7207802,52.1944094 C18.7887802,52.2344094 18.8554469,52.2730761 18.9221135,52.3130761 C19.0047802,52.3624094 19.0861135,52.4104094 19.1674469,52.4584094 C19.5474469,53.4437427 19.9594468,54.4504093 20.3381135,55.437076 C20.3194468,57.4717426 20.3007802,59.5064092 20.2821135,61.5410758 C19.8621135,61.2930758 19.4421135,61.0464092 19.0234469,60.7984092" id="path1844" fill="#999999" transform="translate(18.772780, 56.795076) scale(-1, 1) rotate(-180.000000) translate(-18.772780, -56.795076) "></path>
                    <path d="M18.8730469,60.4110275 C18.5743802,60.2363608 18.3303802,60.3750275 18.3277136,60.7190275 L18.2770469,66.241694 L19.3557135,66.877694 L19.4063802,61.3563608 C19.4090469,61.0096941 19.1703802,60.5870275 18.8730469,60.4110275" id="path1848" fill="#999999" transform="translate(18.841725, 63.606585) scale(-1, 1) rotate(-180.000000) translate(-18.841725, -63.606585) "></path>
                    <path d="M25.90758,56.7384091 C25.7222467,56.6290758 25.53558,56.5197424 25.3502467,56.4090758 C24.9315801,56.1610758 24.5115801,55.9144091 24.0915801,55.6664091 C24.1102467,53.6330758 24.1289134,51.5984092 24.1475801,49.5624093 C24.5409134,49.0317426 24.9675801,48.521076 25.3609134,47.989076 C25.4422467,48.0384093 25.52358,48.0864093 25.6062467,48.1344093 C25.6729134,48.173076 25.7409134,48.213076 25.80758,48.253076 C25.8889134,48.301076 25.9702467,48.349076 26.05158,48.397076 C26.43158,49.3824093 26.8449133,50.3890759 27.22358,51.3770759 C27.2049133,53.4104092 27.1849133,55.4450758 27.1662467,57.4810757 C26.7462467,57.2330757 26.32758,56.9864091 25.90758,56.7384091" id="path1852" fill="#999999" transform="translate(25.657580, 52.735076) scale(-1, 1) rotate(-180.000000) translate(-25.657580, -52.735076) "></path>
                    <path d="M25.75718,56.3518573 C25.4585134,56.1758574 25.2145134,56.314524 25.2118467,56.6598573 L25.16118,62.1811905 L26.2398467,62.8185239 L26.2905134,57.2958573 C26.2945134,56.950524 26.0558467,56.5278573 25.75718,56.3518573" id="path1856" fill="#999999" transform="translate(25.725871, 59.547000) scale(-1, 1) rotate(-180.000000) translate(-25.725871, -59.547000) "></path>
                    <path d="M32.7922465,52.6785436 C32.6055799,52.567877 32.4202465,52.4585436 32.2349132,52.3492103 C31.8149132,52.1012103 31.3949132,51.8545436 30.9762466,51.6065436 C30.9949132,49.571877 31.0135799,47.5372104 31.0322466,45.5025438 C31.4255799,44.9718771 31.8522465,44.4598772 32.2455799,43.9292105 C32.3269132,43.9785438 32.4082465,44.0265438 32.4895799,44.0745438 C32.5575799,44.1132105 32.6242465,44.1518772 32.6909132,44.1932105 C32.7735799,44.2412105 32.8549132,44.2892105 32.9362465,44.3372105 C33.3162465,45.3225438 33.7282465,46.3292104 34.1069132,47.3158771 L34.0509132,53.4212103 C33.6309132,53.1732103 33.2109132,52.9265436 32.7922465,52.6785436" id="path1860" fill="#999999" transform="translate(32.541580, 48.675210) scale(-1, 1) rotate(-180.000000) translate(-32.541580, -48.675210) "></path>
                    <path d="M32.6413132,52.292024 C32.3439799,52.116024 32.0999799,52.2546907 32.0959799,52.5986906 L32.0453132,58.1213572 L33.1239798,58.7586905 L33.1746465,53.236024 C33.1786465,52.8893573 32.9399799,52.468024 32.6413132,52.292024" id="path1864" fill="#999999" transform="translate(32.610005, 55.487150) scale(-1, 1) rotate(-180.000000) translate(-32.610005, -55.487150) "></path>
                    <path d="M39.6763797,48.6200089 C39.489713,48.5106756 39.3043797,48.4013422 39.1190464,48.2920089 C38.6990464,48.0440089 38.2803797,47.7973422 37.8603797,47.5493422 L37.9163797,41.4440091 C38.3097131,40.9133424 38.7363797,40.4026758 39.129713,39.8706758 C39.2110464,39.9200091 39.2923797,39.9680091 39.373713,40.0160091 C39.441713,40.0560091 39.5083797,40.0946758 39.5750464,40.1346758 C39.657713,40.1826758 39.7390463,40.2306758 39.8203797,40.2786758 C40.2003797,41.2653424 40.6123797,42.2706757 40.9910463,43.2586757 C40.9723797,45.2933423 40.953713,47.3266756 40.9350463,49.3626755 C40.5150463,49.1146755 40.0950463,48.8680089 39.6763797,48.6200089" id="path1868" fill="#999999" transform="translate(39.425713, 44.616676) scale(-1, 1) rotate(-180.000000) translate(-39.425713, -44.616676) "></path>
                    <path d="M39.5259797,48.2334571 C39.227313,48.0574572 38.983313,48.1961238 38.9806464,48.5414571 L38.9299797,54.0641237 L40.0086463,54.7001237 L40.059313,49.1787905 C40.0619797,48.8321238 39.823313,48.4094571 39.5259797,48.2334571" id="path1872" fill="#999999" transform="translate(39.494657, 51.428600) scale(-1, 1) rotate(-180.000000) translate(-39.494657, -51.428600) "></path>
                    <path d="M46.5605128,44.5600088 C46.3751795,44.4506755 46.1885129,44.3413421 46.0031795,44.2306755 C45.5845129,43.9826755 45.1645129,43.7360088 44.7445129,43.4880088 C44.7631796,41.4533422 44.7818462,39.4200089 44.8005129,37.384009 C45.1938462,36.8533423 45.6205129,36.3426757 46.0138462,35.8106757 C46.0951795,35.860009 46.1765129,35.908009 46.2591795,35.956009 C46.3258462,35.9946757 46.3938462,36.0346757 46.4605128,36.0746757 C46.5418462,36.1226757 46.6231795,36.1706757 46.7045128,36.2186757 C47.0845128,37.204009 47.4978462,38.2106756 47.8765128,39.1973423 L47.8191795,45.3026754 C47.3991795,45.0546754 46.9805128,44.8080088 46.5605128,44.5600088" id="path1876" fill="#999999" transform="translate(46.310513, 40.556676) scale(-1, 1) rotate(-180.000000) translate(-46.310513, -40.556676) "></path>
                    <path d="M46.4101128,44.1735918 C46.1114462,43.9975918 45.8674462,44.1362585 45.8647795,44.4815918 L45.8141129,50.002925 L46.8927795,50.6402583 L46.9434462,45.1175918 C46.9474462,44.7722584 46.7087795,44.3495918 46.4101128,44.1735918" id="path1880" fill="#999999" transform="translate(46.378804, 47.368734) scale(-1, 1) rotate(-180.000000) translate(-46.378804, -47.368734) "></path>
                    <path d="M53.4453127,40.500144 C53.258646,40.3908107 53.0733127,40.2814774 52.8879794,40.172144 C52.4679794,39.924144 52.0479794,39.6774774 51.6293127,39.4294774 L51.6853127,33.3241442 C52.078646,32.7948109 52.5053127,32.2828109 52.898646,31.7521442 C52.9799794,31.8014776 53.0613127,31.8494776 53.142646,31.8974776 C53.210646,31.9361442 53.2773127,31.9748109 53.3439793,32.0161442 C53.426646,32.0641442 53.5079793,32.1121442 53.5893127,32.1601442 C53.9693127,33.1454775 54.3813126,34.1521442 54.7599793,35.1388108 C54.7413126,37.1734774 54.722646,39.2081441 54.7039793,41.2428107 C54.2839793,40.9948107 53.8639793,40.748144 53.4453127,40.500144" id="path1884" fill="#999999" transform="translate(53.194646, 36.497477) scale(-1, 1) rotate(-180.000000) translate(-53.194646, -36.497477) "></path>
                    <path d="M53.294246,40.1149577 C52.9969127,39.9389577 52.7529127,40.0776244 52.7489127,40.4216244 L52.698246,45.9442909 L53.7769127,46.5802909 L53.8275793,41.0589577 C53.8315793,40.712291 53.5929127,40.2909577 53.294246,40.1149577" id="path1888" fill="#999999" transform="translate(53.262937, 43.309417) scale(-1, 1) rotate(-180.000000) translate(-53.262937, -43.309417) "></path>
                    <path d="M60.3294458,36.4416106 C60.1441125,36.3322773 59.9574458,36.2229439 59.7721125,36.1136106 C59.3521125,35.8656106 58.9334459,35.6189439 58.5134459,35.3709439 L58.5694459,29.2656108 C58.9627792,28.7349441 59.3894459,28.2242775 59.7827792,27.6922775 C59.8641125,27.7416108 59.9454458,27.7896108 60.0281125,27.8376108 C60.0947792,27.8776108 60.1614458,27.9162775 60.2281125,27.9562775 C60.3107792,28.0042775 60.3921125,28.0522775 60.4734458,28.1002775 C60.8534458,29.0869441 61.2654458,30.0922774 61.6441125,31.0802774 C61.6254458,33.1136107 61.6067791,35.1482773 61.5881125,37.1842772 C61.1681125,36.9362772 60.7481125,36.6896106 60.3294458,36.4416106" id="path1892" fill="#999999" transform="translate(60.078779, 32.438277) scale(-1, 1) rotate(-180.000000) translate(-60.078779, -32.438277) "></path>
                    <path d="M60.1790458,36.0550569 C59.8803792,35.8790569 59.6363792,36.0177235 59.6337125,36.3630568 L59.5830459,41.88439 L60.6617125,42.5217234 L60.7123792,37.0003902 C60.7150458,36.6537235 60.4763792,36.2310568 60.1790458,36.0550569" id="path1896" fill="#999999" transform="translate(60.147724, 39.250200) scale(-1, 1) rotate(-180.000000) translate(-60.147724, -39.250200) "></path>
                    <path d="M67.213579,32.3817431 C67.0282457,32.2724098 66.841579,32.1617431 66.6562457,32.0524098 C66.237579,31.8044098 65.817579,31.5577431 65.397579,31.3097432 C65.4162457,29.2750765 65.4349124,27.2417433 65.453579,25.2057433 C65.8469124,24.6750766 66.273579,24.16441 66.6669123,23.63241 C66.7482457,23.6817433 66.829579,23.7297433 66.9122457,23.7777433 C66.9789123,23.81641 67.0469123,23.85641 67.113579,23.89641 C67.1949123,23.94441 67.2762457,23.99241 67.357579,24.04041 C67.737579,25.0257433 68.1509123,26.0324099 68.529579,27.0190766 L68.4722456,33.1244098 C68.0522456,32.8764098 67.633579,32.6297431 67.213579,32.3817431" id="path1900" fill="#999999" transform="translate(66.963579, 28.378410) scale(-1, 1) rotate(-180.000000) translate(-66.963579, -28.378410) "></path>
                    <path d="M67.063179,31.9951915 C66.7645123,31.8191915 66.5205123,31.9578582 66.5178457,32.3031915 L66.467179,37.8245247 L67.5458457,38.461858 L67.5965123,32.9391915 C67.6005123,32.5938581 67.3618457,32.1711915 67.063179,31.9951915" id="path1904" fill="#999999" transform="translate(67.031870, 35.190334) scale(-1, 1) rotate(-180.000000) translate(-67.031870, -35.190334) "></path>
                    <path d="M74.0982455,28.3230778 C73.9115788,28.2137444 73.7262455,28.1044111 73.5409122,27.9950778 C73.1209122,27.7470778 72.7009122,27.5004111 72.2822455,27.2524111 L72.3382455,21.1470779 C72.7315789,20.6177446 73.1582455,20.1057446 73.5515788,19.5737446 C73.6329122,19.623078 73.7142455,19.671078 73.7955788,19.719078 C73.8635788,19.759078 73.9302455,19.7977446 73.9969122,19.839078 C74.0795788,19.887078 74.1609122,19.935078 74.2422455,19.983078 C74.6222455,20.9684113 75.0342455,21.9750779 75.4129121,22.9617446 C75.3942455,24.9964112 75.3755788,27.0310778 75.3569121,29.0657444 C74.9369121,28.8177444 74.5169121,28.5710778 74.0982455,28.3230778" id="path1908" fill="#999999" transform="translate(73.847579, 24.319745) scale(-1, 1) rotate(-180.000000) translate(-73.847579, -24.319745) "></path>
                    <path d="M73.9471788,27.935694 C73.6498455,27.7610273 73.4058455,27.899694 73.4018455,28.243694 L73.3511788,33.7663605 L74.4298455,34.4023605 L74.4805121,28.8810273 C74.4845121,28.5343606 74.2458455,28.111694 73.9471788,27.935694" id="path1912" fill="#999999" transform="translate(73.915870, 31.131252) scale(-1, 1) rotate(-180.000000) translate(-73.915870, -31.131252) "></path>
                    <path d="M80.9823787,24.2632103 C80.7970453,24.153877 80.6103787,24.0445436 80.4250453,23.9352103 C80.0050453,23.685877 79.5863787,23.4392103 79.1663787,23.1912103 C79.1850454,21.157877 79.203712,19.1232104 79.2223787,17.0872105 C79.615712,16.5565438 80.0423787,16.0458772 80.435712,15.5138772 C80.5170453,15.5632105 80.5983787,15.6112105 80.6810453,15.6592105 C80.747712,15.6978772 80.815712,15.7378772 80.8823787,15.7778772 C80.963712,15.8258772 81.0450453,15.8738772 81.1263786,15.9218772 C81.5063786,16.9072105 81.9183786,17.9138771 82.2970453,18.9018771 C82.2783786,20.9352104 82.259712,22.969877 82.2410453,25.0058769 C81.8210453,24.7578769 81.4010453,24.5112103 80.9823787,24.2632103" id="path1916" fill="#999999" transform="translate(80.731712, 20.259877) scale(-1, 1) rotate(-180.000000) translate(-80.731712, -20.259877) "></path>
                    <path d="M80.8319787,23.8766586 C80.533312,23.7006586 80.289312,23.8393252 80.2866453,24.1846586 L80.2359787,29.7059917 L81.3146453,30.3433251 L81.365312,24.8206585 C81.3679786,24.4753252 81.129312,24.0526586 80.8319787,23.8766586" id="path1920" fill="#999999" transform="translate(80.800656, 27.071801) scale(-1, 1) rotate(-180.000000) translate(-80.800656, -27.071801) "></path>
                    <path d="M87.8665118,20.2033428 C87.6811785,20.0926762 87.4958452,19.9833428 87.3091785,19.8740095 C86.8905118,19.6260095 86.4705118,19.3793428 86.0505119,19.1313429 C86.0691785,17.0966762 86.0878452,15.0620096 86.1065119,13.027343 C86.4998452,12.4966764 86.9265118,11.9846764 87.3198452,11.4540097 C87.4011785,11.503343 87.4825118,11.551343 87.5651785,11.599343 C87.6318452,11.6380097 87.6998451,11.6766764 87.7665118,11.7180097 C87.8478451,11.7660097 87.9291785,11.8140097 88.0105118,11.8620097 C88.3905118,12.847343 88.8038451,13.8540097 89.1825118,14.8406763 L89.1251784,20.9460095 C88.7051785,20.6980095 88.2865118,20.4513428 87.8665118,20.2033428" id="path1924" fill="#999999" transform="translate(87.616512, 16.200010) scale(-1, 1) rotate(-180.000000) translate(-87.616512, -16.200010) "></path>
                    <path d="M87.7161118,19.8168252 C87.4174452,19.6408252 87.1734452,19.7794919 87.1707785,20.1234919 L87.1201118,25.6461584 L88.1987785,26.2834917 L88.2494451,20.7608252 C88.2534451,20.4141585 88.0147785,19.9928252 87.7161118,19.8168252" id="path1928" fill="#999999" transform="translate(87.684803, 23.011951) scale(-1, 1) rotate(-180.000000) translate(-87.684803, -23.011951) "></path>
                </g>
            </g>
        </g>
    </g>
</svg>