<svg width="174" height="33" viewBox="0 0 174 33" fill="none" xmlns="http://www.w3.org/2000/svg">
<path fill-rule="evenodd" clip-rule="evenodd" d="M0 16.0112C0 7.16848 7.16847 0 16.0112 0H173.596L168.685 32.0225H16.0112C7.16848 32.0225 0 24.854 0 16.0112V16.0112Z" fill="#FFA21B"/>
<path fill-rule="evenodd" clip-rule="evenodd" d="M75.8426 18.5393C76.7734 18.5393 77.528 17.7848 77.528 16.8539C77.528 15.9231 76.7734 15.1685 75.8426 15.1685C74.9118 15.1685 74.1572 15.9231 74.1572 16.8539C74.1572 17.7848 74.9118 18.5393 75.8426 18.5393Z" fill="white"/>
<path fill-rule="evenodd" clip-rule="evenodd" d="M97.7528 18.5393C98.6836 18.5393 99.4382 17.7848 99.4382 16.8539C99.4382 15.9231 98.6836 15.1685 97.7528 15.1685C96.822 15.1685 96.0674 15.9231 96.0674 16.8539C96.0674 17.7848 96.822 18.5393 97.7528 18.5393Z" fill="white"/>
<path d="M10.5963 23L13.3862 9.1146H16.4742L17.4751 15.5249L17.8372 18.0166H17.9223L19.2001 15.5249L22.6928 9.1146H25.8021L23.0122 23H20.2863L21.4363 17.4842C21.5073 17.1434 21.5925 16.7743 21.6918 16.3767C21.7912 15.965 21.8977 15.5533 22.0113 15.1415C22.1249 14.7298 22.2385 14.3323 22.352 13.9489C22.4656 13.5514 22.5792 13.1823 22.6928 12.8415H22.6289L20.9039 16.036L17.6455 21.7222H16.4742L15.4519 16.036L15.026 12.8415H14.9408C14.9124 13.1823 14.8769 13.5514 14.8343 13.9489C14.8059 14.3465 14.7704 14.7511 14.7279 15.1628C14.6853 15.5746 14.6356 15.9792 14.5788 16.3767C14.522 16.7743 14.4581 17.1434 14.3871 17.4842L13.2797 23H10.5963ZM33.0103 23.2556C32.0732 23.2556 31.342 22.9219 30.8167 22.2546C30.2914 21.5873 30.0287 20.629 30.0287 19.3796C30.0287 18.3715 30.1849 17.4345 30.4973 16.5684C30.8096 15.6882 31.2284 14.9215 31.7538 14.2684C32.2791 13.6153 32.8825 13.1042 33.564 12.735C34.2455 12.3659 34.9483 12.1813 35.6723 12.1813C36.1551 12.1813 36.6094 12.3091 37.0353 12.5647C37.4613 12.806 37.7736 13.1397 37.9724 13.5656H38.015L38.4835 12.4369H40.8048L38.6965 23H36.3325L36.3751 21.6157H36.3112C35.8285 22.1126 35.2961 22.5102 34.714 22.8083C34.1319 23.1065 33.564 23.2556 33.0103 23.2556ZM34.2881 20.8703C34.643 20.8703 35.0192 20.7639 35.4168 20.5509C35.8285 20.3237 36.2048 19.912 36.5455 19.3157L37.2909 15.5675C37.1205 15.2125 36.9004 14.957 36.6307 14.8008C36.3751 14.6446 36.1267 14.5665 35.8853 14.5665C35.5162 14.5665 35.1612 14.6801 34.8205 14.9073C34.4797 15.1344 34.1745 15.4468 33.9047 15.8443C33.6492 16.2419 33.4433 16.7104 33.2871 17.2499C33.1309 17.7894 33.0529 18.3786 33.0529 19.0175C33.0529 19.6564 33.1593 20.125 33.3723 20.4231C33.5995 20.7213 33.9047 20.8703 34.2881 20.8703ZM45.0213 23L48.0241 8.07106H50.9418L49.1955 16.7175H49.2806L53.2631 12.4369H56.5002L52.177 17.0582L54.69 23H51.7724L50.1751 18.7407L48.4501 20.4657L47.939 23H45.0213ZM59.5723 18.7407C59.5723 17.761 59.7427 16.8737 60.0835 16.0786C60.4384 15.2693 60.8927 14.5807 61.4464 14.0128C62.0143 13.4307 62.6461 12.9835 63.3418 12.6711C64.0375 12.3446 64.7403 12.1813 65.4502 12.1813C66.0749 12.1813 66.6073 12.2878 67.0475 12.5008C67.4876 12.6995 67.8425 12.9835 68.1123 13.3526C68.3962 13.7076 68.595 14.1264 68.7086 14.6091C68.8364 15.0777 68.9003 15.5888 68.9003 16.1425C68.9003 16.398 68.879 16.6536 68.8364 16.9092C68.7938 17.1505 68.7441 17.3848 68.6873 17.612C68.6305 17.8249 68.5666 18.0166 68.4956 18.187C68.4388 18.3431 68.3891 18.4638 68.3465 18.549H62.3409C62.2983 19.4293 62.5042 20.0682 62.9585 20.4657C63.427 20.8632 64.0091 21.062 64.7048 21.062C65.0314 21.062 65.3721 20.9839 65.7271 20.8277C66.082 20.6716 66.3944 20.5012 66.6641 20.3166L67.6863 22.1481C67.2604 22.4463 66.728 22.7089 66.0891 22.9361C65.4502 23.1491 64.719 23.2556 63.8955 23.2556C63.2567 23.2556 62.6674 23.1562 62.1279 22.9574C61.6026 22.7444 61.1483 22.4463 60.7649 22.0629C60.3958 21.6654 60.1047 21.1898 59.8918 20.6361C59.6788 20.0824 59.5723 19.4506 59.5723 18.7407ZM62.5752 16.7601H66.4086C66.4795 16.5187 66.515 16.2561 66.515 15.9721C66.515 15.5462 66.4086 15.1841 66.1956 14.886C65.9968 14.5736 65.6277 14.4175 65.0882 14.4175C64.5912 14.4175 64.1085 14.6162 63.64 15.0138C63.1715 15.3971 62.8165 15.9792 62.5752 16.7601ZM84.5916 23.2556C83.6545 23.2556 82.9233 22.9219 82.398 22.2546C81.8727 21.5873 81.61 20.629 81.61 19.3796C81.61 18.3715 81.7662 17.4345 82.0786 16.5684C82.3909 15.6882 82.8097 14.9215 83.3351 14.2684C83.8604 13.6153 84.4638 13.1042 85.1453 12.735C85.8268 12.3659 86.5296 12.1813 87.2536 12.1813C87.7364 12.1813 88.1907 12.3091 88.6166 12.5647C89.0426 12.806 89.3549 13.1397 89.5537 13.5656H89.5963L90.0648 12.4369H92.3861L90.2778 23H87.9138L87.9564 21.6157H87.8925C87.4098 22.1126 86.8774 22.5102 86.2953 22.8083C85.7132 23.1065 85.1453 23.2556 84.5916 23.2556ZM85.8694 20.8703C86.2243 20.8703 86.6005 20.7639 86.9981 20.5509C87.4098 20.3237 87.7861 19.912 88.1268 19.3157L88.8722 15.5675C88.7018 15.2125 88.4817 14.957 88.212 14.8008C87.9564 14.6446 87.708 14.5665 87.4666 14.5665C87.0975 14.5665 86.7425 14.6801 86.4018 14.9073C86.061 15.1344 85.7558 15.4468 85.486 15.8443C85.2305 16.2419 85.0246 16.7104 84.8684 17.2499C84.7122 17.7894 84.6342 18.3786 84.6342 19.0175C84.6342 19.6564 84.7406 20.125 84.9536 20.4231C85.1808 20.7213 85.486 20.8703 85.8694 20.8703ZM108.454 23.2556C107.389 23.2556 106.622 22.9929 106.154 22.4676C105.685 21.9423 105.451 21.275 105.451 20.4657C105.451 20.2385 105.465 20.0185 105.493 19.8055C105.536 19.5783 105.579 19.3512 105.621 19.124L106.537 14.7156H105.131L105.557 12.5647L107.112 12.4369L108.006 9.66831H110.455L109.923 12.4369H112.33L111.882 14.7156H109.412L108.496 19.2518C108.468 19.3796 108.454 19.5003 108.454 19.6138C108.454 19.7274 108.454 19.841 108.454 19.9546C108.454 20.6361 108.816 20.9768 109.54 20.9768C109.696 20.9768 109.845 20.9555 109.987 20.9129C110.129 20.8703 110.271 20.8135 110.413 20.7426L110.924 22.787C110.64 22.9006 110.292 23.0071 109.88 23.1065C109.469 23.2059 108.993 23.2556 108.454 23.2556ZM115.852 23L118.855 8.07106H121.773L120.964 11.9683L120.495 13.6721H120.58C121.049 13.2603 121.56 12.9125 122.114 12.6285C122.667 12.3304 123.264 12.1813 123.903 12.1813C124.783 12.1813 125.422 12.4156 125.819 12.8841C126.217 13.3384 126.416 14.0057 126.416 14.886C126.416 15.1273 126.401 15.3758 126.373 15.6314C126.359 15.8727 126.316 16.1283 126.245 16.398L124.925 23H122.007L123.264 16.7601C123.306 16.5471 123.342 16.3626 123.37 16.2064C123.413 16.0502 123.434 15.9011 123.434 15.7591C123.434 15.0351 123.072 14.673 122.348 14.673C122.021 14.673 121.681 14.7866 121.326 15.0138C120.985 15.2267 120.587 15.5675 120.133 16.036L118.77 23H115.852ZM135.512 23.2556C134.887 23.2556 134.326 23.1562 133.83 22.9574C133.333 22.7444 132.9 22.4463 132.53 22.0629C132.176 21.6796 131.899 21.2253 131.7 20.7C131.515 20.1604 131.423 19.5641 131.423 18.911C131.423 17.8888 131.593 16.966 131.934 16.1425C132.275 15.3048 132.722 14.5949 133.276 14.0128C133.844 13.4307 134.483 12.9835 135.193 12.6711C135.902 12.3446 136.619 12.1813 137.344 12.1813C137.954 12.1813 138.508 12.2878 139.005 12.5008C139.516 12.6995 139.949 12.9906 140.304 13.3739C140.659 13.7573 140.936 14.2187 141.134 14.7582C141.333 15.2835 141.432 15.8727 141.432 16.5258C141.432 17.5481 141.262 18.478 140.921 19.3157C140.581 20.1392 140.126 20.8419 139.558 21.424C139.005 22.0062 138.373 22.4605 137.663 22.787C136.953 23.0994 136.236 23.2556 135.512 23.2556ZM135.831 20.9129C136.186 20.9129 136.52 20.8064 136.832 20.5935C137.159 20.3663 137.443 20.0611 137.684 19.6777C137.94 19.2944 138.139 18.8401 138.281 18.3147C138.423 17.7894 138.494 17.2144 138.494 16.5897C138.494 15.9366 138.366 15.4326 138.11 15.0777C137.869 14.7085 137.5 14.5239 137.003 14.5239C136.648 14.5239 136.307 14.6375 135.981 14.8647C135.668 15.0777 135.391 15.3758 135.15 15.7591C134.909 16.1425 134.717 16.6039 134.575 17.1434C134.433 17.6687 134.362 18.2367 134.362 18.8472C134.362 19.4861 134.483 19.9901 134.724 20.3592C134.965 20.7284 135.335 20.9129 135.831 20.9129ZM146.042 23L148.129 12.4369H150.493L150.45 13.8424H150.535C151.061 13.3881 151.614 12.9977 152.196 12.6711C152.779 12.3446 153.41 12.1813 154.092 12.1813C154.972 12.1813 155.611 12.4156 156.009 12.8841C156.406 13.3384 156.605 14.0057 156.605 14.886C156.605 15.1273 156.591 15.3758 156.562 15.6314C156.534 15.8727 156.491 16.1283 156.435 16.398L155.114 23H152.196L153.453 16.7601C153.496 16.5471 153.531 16.3626 153.559 16.2064C153.602 16.0502 153.623 15.9011 153.623 15.7591C153.623 15.0351 153.261 14.673 152.537 14.673C152.211 14.673 151.87 14.7866 151.515 15.0138C151.174 15.2267 150.777 15.5675 150.322 16.036L148.959 23H146.042ZM163.76 15.5675C163.405 15.5675 163.1 15.4468 162.845 15.2054C162.603 14.9499 162.483 14.6304 162.483 14.2471C162.483 13.8354 162.603 13.5088 162.845 13.2674C163.1 13.0119 163.405 12.8841 163.76 12.8841C164.101 12.8841 164.392 13.0119 164.633 13.2674C164.889 13.5088 165.017 13.8354 165.017 14.2471C165.017 14.6304 164.889 14.9499 164.633 15.2054C164.392 15.4468 164.101 15.5675 163.76 15.5675ZM163.76 23.2556C163.405 23.2556 163.1 23.1349 162.845 22.8935C162.603 22.638 162.483 22.3185 162.483 21.9352C162.483 21.5234 162.603 21.1969 162.845 20.9555C163.1 20.7 163.405 20.5722 163.76 20.5722C164.101 20.5722 164.392 20.7 164.633 20.9555C164.889 21.1969 165.017 21.5234 165.017 21.9352C165.017 22.3185 164.889 22.638 164.633 22.8935C164.392 23.1349 164.101 23.2556 163.76 23.2556Z" fill="white"/>
</svg>
