<svg width="450" height="33" viewBox="0 0 450 33" fill="none" xmlns="http://www.w3.org/2000/svg">
<path fill-rule="evenodd" clip-rule="evenodd" d="M0 16.0112C0 7.16848 7.16847 0 16.0112 0H173.596L168.685 32.0225H16.0112C7.16848 32.0225 0 24.854 0 16.0112V16.0112Z" fill="#FFA21B"/>
<path fill-rule="evenodd" clip-rule="evenodd" d="M75.8426 18.5393C76.7734 18.5393 77.528 17.7847 77.528 16.8539C77.528 15.9231 76.7734 15.1685 75.8426 15.1685C74.9118 15.1685 74.1572 15.9231 74.1572 16.8539C74.1572 17.7847 74.9118 18.5393 75.8426 18.5393Z" fill="white"/>
<path fill-rule="evenodd" clip-rule="evenodd" d="M97.7528 18.5393C98.6836 18.5393 99.4382 17.7847 99.4382 16.8539C99.4382 15.9231 98.6836 15.1685 97.7528 15.1685C96.822 15.1685 96.0674 15.9231 96.0674 16.8539C96.0674 17.7847 96.822 18.5393 97.7528 18.5393Z" fill="white"/>
<path d="M10.7086 22.6854L13.4985 8.79999H16.5865L17.5874 15.2103L17.9495 17.702H18.0347L19.3124 15.2103L22.8051 8.79999H25.9144L23.1245 22.6854H20.3986L21.5486 17.1696C21.6196 16.8288 21.7048 16.4597 21.8042 16.0621C21.9035 15.6504 22.01 15.2387 22.1236 14.8269C22.2372 14.4152 22.3508 14.0177 22.4644 13.6343C22.5779 13.2368 22.6915 12.8676 22.8051 12.5269H22.7412L21.0162 15.7214L17.7578 21.4076H16.5865L15.5642 15.7214L15.1383 12.5269H15.0531C15.0247 12.8676 14.9892 13.2368 14.9466 13.6343C14.9182 14.0319 14.8827 14.4365 14.8402 14.8482C14.7976 15.26 14.7479 15.6646 14.6911 16.0621C14.6343 16.4597 14.5704 16.8288 14.4994 17.1696L13.392 22.6854H10.7086ZM33.1226 22.941C32.1855 22.941 31.4543 22.6073 30.929 21.94C30.4037 21.2727 30.141 20.3144 30.141 19.065C30.141 18.0569 30.2972 17.1199 30.6096 16.2538C30.9219 15.3736 31.3408 14.6069 31.8661 13.9538C32.3914 13.3007 32.9948 12.7896 33.6763 12.4204C34.3578 12.0513 35.0606 11.8667 35.7846 11.8667C36.2674 11.8667 36.7217 11.9945 37.1476 12.25C37.5736 12.4914 37.8859 12.8251 38.0847 13.251H38.1273L38.5958 12.1223H40.9171L38.8088 22.6854H36.4448L36.4874 21.3011H36.4235C35.9408 21.798 35.4084 22.1956 34.8263 22.4937C34.2442 22.7919 33.6763 22.941 33.1226 22.941ZM34.4004 20.5557C34.7553 20.5557 35.1316 20.4492 35.5291 20.2363C35.9408 20.0091 36.3171 19.5974 36.6578 19.0011L37.4032 15.2529C37.2328 14.8979 37.0128 14.6424 36.743 14.4862C36.4874 14.33 36.239 14.2519 35.9976 14.2519C35.6285 14.2519 35.2735 14.3655 34.9328 14.5927C34.592 14.8198 34.2868 15.1322 34.017 15.5297C33.7615 15.9273 33.5556 16.3958 33.3994 16.9353C33.2433 17.4748 33.1652 18.064 33.1652 18.7029C33.1652 19.3418 33.2716 19.8103 33.4846 20.1085C33.7118 20.4067 34.017 20.5557 34.4004 20.5557ZM45.1336 22.6854L48.1364 7.75646H51.0541L49.3078 16.4029H49.393L53.3754 12.1223H56.6125L52.2893 16.7436L54.8023 22.6854H51.8847L50.2874 18.4261L48.5624 20.1511L48.0513 22.6854H45.1336ZM59.6846 18.4261C59.6846 17.4464 59.855 16.5591 60.1958 15.764C60.5507 14.9547 61.005 14.2661 61.5587 13.6982C62.1267 13.1161 62.7585 12.6689 63.4541 12.3565C64.1498 12.03 64.8526 11.8667 65.5625 11.8667C66.1872 11.8667 66.7196 11.9732 67.1598 12.1862C67.5999 12.3849 67.9548 12.6689 68.2246 13.038C68.5085 13.393 68.7073 13.8118 68.8209 14.2945C68.9487 14.763 69.0126 15.2742 69.0126 15.8279C69.0126 16.0834 68.9913 16.339 68.9487 16.5946C68.9061 16.8359 68.8564 17.0702 68.7996 17.2973C68.7428 17.5103 68.6789 17.702 68.6079 17.8724C68.5511 18.0285 68.5014 18.1492 68.4588 18.2344H62.4532C62.4106 19.1147 62.6165 19.7536 63.0708 20.1511C63.5393 20.5486 64.1214 20.7474 64.8171 20.7474C65.1437 20.7474 65.4844 20.6693 65.8394 20.5131C66.1943 20.357 66.5067 20.1866 66.7764 20.002L67.7987 21.8335C67.3727 22.1317 66.8403 22.3943 66.2014 22.6215C65.5625 22.8345 64.8313 22.941 64.0079 22.941C63.369 22.941 62.7797 22.8416 62.2402 22.6428C61.7149 22.4298 61.2606 22.1317 60.8772 21.7483C60.5081 21.3508 60.2171 20.8752 60.0041 20.3215C59.7911 19.7678 59.6846 19.136 59.6846 18.4261ZM62.6875 16.4455H66.5209C66.5918 16.2041 66.6273 15.9415 66.6273 15.6575C66.6273 15.2316 66.5209 14.8695 66.3079 14.5714C66.1091 14.259 65.74 14.1029 65.2005 14.1029C64.7035 14.1029 64.2208 14.3016 63.7523 14.6992C63.2838 15.0825 62.9288 15.6646 62.6875 16.4455ZM84.7039 22.941C83.7668 22.941 83.0356 22.6073 82.5103 21.94C81.985 21.2727 81.7223 20.3144 81.7223 19.065C81.7223 18.0569 81.8785 17.1199 82.1909 16.2538C82.5032 15.3736 82.922 14.6069 83.4474 13.9538C83.9727 13.3007 84.5761 12.7896 85.2576 12.4204C85.9391 12.0513 86.6419 11.8667 87.3659 11.8667C87.8487 11.8667 88.303 11.9945 88.7289 12.25C89.1549 12.4914 89.4672 12.8251 89.666 13.251H89.7086L90.1771 12.1223H92.4984L90.3901 22.6854H88.0261L88.0687 21.3011H88.0048C87.5221 21.798 86.9897 22.1956 86.4076 22.4937C85.8255 22.7919 85.2576 22.941 84.7039 22.941ZM85.9817 20.5557C86.3366 20.5557 86.7128 20.4492 87.1104 20.2363C87.5221 20.0091 87.8984 19.5974 88.2391 19.0011L88.9845 15.2529C88.8141 14.8979 88.594 14.6424 88.3243 14.4862C88.0687 14.33 87.8203 14.2519 87.5789 14.2519C87.2098 14.2519 86.8548 14.3655 86.5141 14.5927C86.1733 14.8198 85.8681 15.1322 85.5983 15.5297C85.3428 15.9273 85.1369 16.3958 84.9807 16.9353C84.8245 17.4748 84.7465 18.064 84.7465 18.7029C84.7465 19.3418 84.8529 19.8103 85.0659 20.1085C85.2931 20.4067 85.5983 20.5557 85.9817 20.5557ZM108.566 22.941C107.501 22.941 106.734 22.6783 106.266 22.153C105.797 21.6277 105.563 20.9604 105.563 20.1511C105.563 19.9239 105.577 19.7039 105.606 19.4909C105.648 19.2637 105.691 19.0366 105.733 18.8094L106.649 14.401H105.244L105.67 12.25L107.224 12.1223L108.119 9.3537H110.568L110.035 12.1223H112.442L111.995 14.401H109.524L108.609 18.9372C108.58 19.065 108.566 19.1856 108.566 19.2992C108.566 19.4128 108.566 19.5264 108.566 19.64C108.566 20.3215 108.928 20.6622 109.652 20.6622C109.808 20.6622 109.957 20.6409 110.099 20.5983C110.241 20.5557 110.383 20.4989 110.525 20.428L111.036 22.4724C110.752 22.586 110.405 22.6925 109.993 22.7919C109.581 22.8913 109.105 22.941 108.566 22.941ZM115.965 22.6854L118.968 7.75646H121.885L121.076 11.6537L120.607 13.3575H120.693C121.161 12.9457 121.672 12.5979 122.226 12.3139C122.78 12.0158 123.376 11.8667 124.015 11.8667C124.895 11.8667 125.534 12.101 125.932 12.5695C126.329 13.0238 126.528 13.6911 126.528 14.5714C126.528 14.8127 126.514 15.0612 126.485 15.3168C126.471 15.5581 126.429 15.8137 126.358 16.0834L125.037 22.6854H122.119L123.376 16.4455C123.419 16.2325 123.454 16.0479 123.482 15.8918C123.525 15.7356 123.546 15.5865 123.546 15.4445C123.546 14.7205 123.184 14.3584 122.46 14.3584C122.134 14.3584 121.793 14.472 121.438 14.6992C121.097 14.9121 120.7 15.2529 120.245 15.7214L118.882 22.6854H115.965ZM135.624 22.941C135 22.941 134.439 22.8416 133.942 22.6428C133.445 22.4298 133.012 22.1317 132.643 21.7483C132.288 21.365 132.011 20.9107 131.812 20.3854C131.628 19.8458 131.535 19.2495 131.535 18.5964C131.535 17.5742 131.706 16.6513 132.046 15.8279C132.387 14.9902 132.834 14.2803 133.388 13.6982C133.956 13.1161 134.595 12.6689 135.305 12.3565C136.015 12.03 136.732 11.8667 137.456 11.8667C138.066 11.8667 138.62 11.9732 139.117 12.1862C139.628 12.3849 140.061 12.676 140.416 13.0593C140.771 13.4427 141.048 13.9041 141.247 14.4436C141.445 14.9689 141.545 15.5581 141.545 16.2112C141.545 17.2335 141.374 18.1634 141.034 19.0011C140.693 19.8245 140.239 20.5273 139.671 21.1094C139.117 21.6916 138.485 22.1459 137.775 22.4724C137.065 22.7848 136.348 22.941 135.624 22.941ZM135.944 20.5983C136.299 20.5983 136.632 20.4918 136.945 20.2789C137.271 20.0517 137.555 19.7465 137.797 19.3631C138.052 18.9798 138.251 18.5255 138.393 18.0001C138.535 17.4748 138.606 16.8998 138.606 16.2751C138.606 15.622 138.478 15.118 138.222 14.763C137.981 14.3939 137.612 14.2093 137.115 14.2093C136.76 14.2093 136.419 14.3229 136.093 14.5501C135.78 14.763 135.504 15.0612 135.262 15.4445C135.021 15.8279 134.829 16.2893 134.687 16.8288C134.545 17.3541 134.474 17.922 134.474 18.5326C134.474 19.1715 134.595 19.6755 134.836 20.0446C135.078 20.4138 135.447 20.5983 135.944 20.5983ZM146.154 22.6854L148.241 12.1223H150.605L150.562 13.5278H150.648C151.173 13.0735 151.727 12.6831 152.309 12.3565C152.891 12.03 153.523 11.8667 154.204 11.8667C155.084 11.8667 155.723 12.101 156.121 12.5695C156.518 13.0238 156.717 13.6911 156.717 14.5714C156.717 14.8127 156.703 15.0612 156.675 15.3168C156.646 15.5581 156.604 15.8137 156.547 16.0834L155.226 22.6854H152.309L153.565 16.4455C153.608 16.2325 153.643 16.0479 153.672 15.8918C153.714 15.7356 153.736 15.5865 153.736 15.4445C153.736 14.7205 153.374 14.3584 152.65 14.3584C152.323 14.3584 151.982 14.472 151.627 14.6992C151.287 14.9121 150.889 15.2529 150.435 15.7214L149.072 22.6854H146.154ZM164.426 15.8279C163.972 15.8279 163.61 15.6859 163.34 15.4019C163.07 15.1038 162.936 14.7205 162.936 14.2519C162.936 13.9964 162.985 13.7408 163.085 13.4853C163.184 13.2155 163.326 12.9812 163.511 12.7825C163.695 12.5837 163.915 12.4204 164.171 12.2926C164.426 12.1649 164.71 12.101 165.023 12.101C165.477 12.101 165.839 12.2571 166.109 12.5695C166.379 12.8676 166.513 13.2439 166.513 13.6982C166.513 13.968 166.464 14.2306 166.364 14.4862C166.265 14.7418 166.123 14.9689 165.938 15.1677C165.754 15.3665 165.534 15.5297 165.278 15.6575C165.023 15.7711 164.739 15.8279 164.426 15.8279ZM163.212 22.941C162.758 22.941 162.396 22.799 162.126 22.515C161.857 22.2169 161.722 21.8335 161.722 21.365C161.722 21.1094 161.771 20.8539 161.871 20.5983C161.97 20.3286 162.112 20.0943 162.297 19.8955C162.481 19.6968 162.701 19.5335 162.957 19.4057C163.212 19.2779 163.496 19.214 163.809 19.214C164.263 19.214 164.625 19.3702 164.895 19.6826C165.165 19.9807 165.299 20.357 165.299 20.8113C165.299 21.081 165.25 21.3437 165.15 21.5993C165.051 21.8548 164.909 22.082 164.724 22.2808C164.54 22.4795 164.32 22.6357 164.064 22.7493C163.809 22.8771 163.525 22.941 163.212 22.941ZM180.796 22.6854V8.71481H182.564V14.5714H189.06V8.71481H190.848V22.6854H189.06V16.1047H182.564V22.6854H180.796ZM200.508 22.941C199.642 22.941 198.918 22.6854 198.336 22.1743C197.768 21.6632 197.484 20.9391 197.484 20.002C197.484 18.8662 197.988 18.0001 198.996 17.4038C200.004 16.7933 201.616 16.3674 203.83 16.126C203.83 15.7995 203.795 15.48 203.724 15.1677C203.667 14.8553 203.561 14.5785 203.404 14.3371C203.248 14.0958 203.028 13.9041 202.744 13.7621C202.474 13.6059 202.127 13.5278 201.701 13.5278C201.104 13.5278 200.544 13.6414 200.018 13.8686C199.493 14.0958 199.024 14.3513 198.613 14.6353L197.931 13.4214C198.414 13.109 199.003 12.8109 199.699 12.5269C200.395 12.2287 201.161 12.0797 201.999 12.0797C203.262 12.0797 204.178 12.4701 204.746 13.251C205.314 14.0177 205.598 15.047 205.598 16.339V22.6854H204.15L204.001 21.4502H203.937C203.44 21.8619 202.908 22.2169 202.34 22.515C201.772 22.799 201.161 22.941 200.508 22.941ZM201.019 21.5354C201.516 21.5354 201.985 21.4218 202.425 21.1946C202.865 20.9533 203.333 20.6054 203.83 20.1511V17.2761C202.964 17.3896 202.233 17.5245 201.637 17.6807C201.055 17.8369 200.579 18.0214 200.21 18.2344C199.855 18.4474 199.592 18.6958 199.422 18.9798C199.266 19.2495 199.188 19.5477 199.188 19.8742C199.188 20.4705 199.365 20.8965 199.72 21.152C200.075 21.4076 200.508 21.5354 201.019 21.5354ZM212.458 22.6854V12.3352H213.907L214.056 14.2093H214.12C214.474 13.5562 214.9 13.038 215.397 12.6547C215.908 12.2713 216.462 12.0797 217.058 12.0797C217.47 12.0797 217.839 12.1507 218.166 12.2926L217.825 13.826C217.655 13.7692 217.499 13.7266 217.357 13.6982C217.215 13.6698 217.037 13.6556 216.824 13.6556C216.384 13.6556 215.923 13.8331 215.44 14.188C214.971 14.543 214.56 15.1606 214.205 16.0408V22.6854H212.458ZM226.773 22.941C225.467 22.941 224.423 22.4724 223.642 21.5354C222.876 20.5983 222.492 19.2637 222.492 17.5316C222.492 16.6939 222.613 15.9415 222.854 15.2742C223.11 14.5927 223.443 14.0177 223.855 13.5491C224.267 13.0806 224.743 12.7186 225.282 12.463C225.822 12.2075 226.389 12.0797 226.986 12.0797C227.582 12.0797 228.1 12.1862 228.54 12.3991C228.981 12.6121 229.428 12.9031 229.882 13.2723L229.797 11.5047V7.52219H231.565V22.6854H230.116L229.967 21.4715H229.903C229.492 21.869 229.016 22.2169 228.477 22.515C227.951 22.799 227.383 22.941 226.773 22.941ZM227.156 21.4715C227.639 21.4715 228.093 21.3579 228.519 21.1307C228.945 20.8894 229.371 20.5273 229.797 20.0446V14.6353C229.357 14.2377 228.931 13.9609 228.519 13.8047C228.122 13.6343 227.71 13.5491 227.284 13.5491C226.872 13.5491 226.482 13.6485 226.113 13.8473C225.758 14.0319 225.445 14.3016 225.176 14.6566C224.906 14.9973 224.693 15.409 224.537 15.8918C224.381 16.3745 224.302 16.914 224.302 17.5103C224.302 18.7597 224.551 19.7323 225.048 20.428C225.545 21.1236 226.248 21.4715 227.156 21.4715ZM240.294 22.6854L237.419 12.3352H239.208L240.742 18.3196C240.855 18.8165 240.962 19.2992 241.061 19.7678C241.161 20.2363 241.26 20.7119 241.359 21.1946H241.444C241.558 20.7119 241.672 20.2363 241.785 19.7678C241.899 19.285 242.019 18.8023 242.147 18.3196L243.744 12.3352H245.448L247.067 18.3196C247.195 18.8165 247.315 19.2992 247.429 19.7678C247.557 20.2363 247.677 20.7119 247.791 21.1946H247.876C247.99 20.7119 248.096 20.2363 248.195 19.7678C248.295 19.2992 248.401 18.8165 248.515 18.3196L250.027 12.3352H251.688L248.92 22.6854H246.79L245.299 17.127C245.171 16.6301 245.051 16.1402 244.937 15.6575C244.838 15.1748 244.724 14.6708 244.596 14.1454H244.511C244.398 14.6708 244.284 15.1819 244.17 15.6788C244.057 16.1615 243.929 16.6513 243.787 17.1483L242.339 22.6854H240.294ZM259.722 22.941C258.856 22.941 258.132 22.6854 257.55 22.1743C256.982 21.6632 256.698 20.9391 256.698 20.002C256.698 18.8662 257.202 18.0001 258.21 17.4038C259.218 16.7933 260.829 16.3674 263.044 16.126C263.044 15.7995 263.009 15.48 262.938 15.1677C262.881 14.8553 262.775 14.5785 262.618 14.3371C262.462 14.0958 262.242 13.9041 261.958 13.7621C261.688 13.6059 261.341 13.5278 260.915 13.5278C260.318 13.5278 259.758 13.6414 259.232 13.8686C258.707 14.0958 258.238 14.3513 257.827 14.6353L257.145 13.4214C257.628 13.109 258.217 12.8109 258.913 12.5269C259.608 12.2287 260.375 12.0797 261.213 12.0797C262.476 12.0797 263.392 12.4701 263.96 13.251C264.528 14.0177 264.812 15.047 264.812 16.339V22.6854H263.364L263.215 21.4502H263.151C262.654 21.8619 262.121 22.2169 261.554 22.515C260.986 22.799 260.375 22.941 259.722 22.941ZM260.233 21.5354C260.73 21.5354 261.199 21.4218 261.639 21.1946C262.079 20.9533 262.547 20.6054 263.044 20.1511V17.2761C262.178 17.3896 261.447 17.5245 260.851 17.6807C260.269 17.8369 259.793 18.0214 259.424 18.2344C259.069 18.4474 258.806 18.6958 258.636 18.9798C258.48 19.2495 258.402 19.5477 258.402 19.8742C258.402 20.4705 258.579 20.8965 258.934 21.152C259.289 21.4076 259.722 21.5354 260.233 21.5354ZM271.672 22.6854V12.3352H273.121L273.27 14.2093H273.334C273.688 13.5562 274.114 13.038 274.611 12.6547C275.122 12.2713 275.676 12.0797 276.272 12.0797C276.684 12.0797 277.053 12.1507 277.38 12.2926L277.039 13.826C276.869 13.7692 276.713 13.7266 276.571 13.6982C276.429 13.6698 276.251 13.6556 276.038 13.6556C275.598 13.6556 275.137 13.8331 274.654 14.188C274.185 14.543 273.774 15.1606 273.419 16.0408V22.6854H271.672ZM286.647 22.941C285.951 22.941 285.298 22.8203 284.688 22.5789C284.091 22.3234 283.566 21.9684 283.112 21.5141C282.672 21.0456 282.324 20.4776 282.068 19.8103C281.813 19.1431 281.685 18.3835 281.685 17.5316C281.685 16.6797 281.813 15.9202 282.068 15.2529C282.338 14.5714 282.686 13.9964 283.112 13.5278C283.552 13.0593 284.049 12.7044 284.603 12.463C285.156 12.2075 285.731 12.0797 286.328 12.0797C286.981 12.0797 287.563 12.1933 288.074 12.4204C288.599 12.6476 289.032 12.9741 289.373 13.4001C289.728 13.826 289.998 14.3371 290.182 14.9334C290.367 15.5297 290.459 16.197 290.459 16.9353C290.459 17.1199 290.452 17.3044 290.438 17.489C290.438 17.6594 290.424 17.8085 290.395 17.9362H283.41C283.481 19.0437 283.822 19.9239 284.432 20.577C285.057 21.2159 285.866 21.5354 286.86 21.5354C287.357 21.5354 287.811 21.4644 288.223 21.3224C288.649 21.1662 289.054 20.9675 289.437 20.7261L290.054 21.8761C289.6 22.1601 289.096 22.4085 288.542 22.6215C287.989 22.8345 287.357 22.941 286.647 22.941ZM283.389 16.6797H288.926C288.926 15.6291 288.699 14.834 288.244 14.2945C287.804 13.7408 287.179 13.464 286.37 13.464C286.001 13.464 285.646 13.5349 285.305 13.6769C284.979 13.8189 284.681 14.0319 284.411 14.3158C284.141 14.5856 283.914 14.9192 283.729 15.3168C283.559 15.7143 283.445 16.1686 283.389 16.6797ZM304.659 22.6854V8.71481H306.426V14.5714H312.922V8.71481H314.711V22.6854H312.922V16.1047H306.426V22.6854H304.659ZM324.37 22.941C323.504 22.941 322.78 22.6854 322.198 22.1743C321.63 21.6632 321.346 20.9391 321.346 20.002C321.346 18.8662 321.85 18.0001 322.858 17.4038C323.866 16.7933 325.478 16.3674 327.693 16.126C327.693 15.7995 327.657 15.48 327.586 15.1677C327.529 14.8553 327.423 14.5785 327.267 14.3371C327.11 14.0958 326.89 13.9041 326.606 13.7621C326.337 13.6059 325.989 13.5278 325.563 13.5278C324.967 13.5278 324.406 13.6414 323.88 13.8686C323.355 14.0958 322.887 14.3513 322.475 14.6353L321.793 13.4214C322.276 13.109 322.865 12.8109 323.561 12.5269C324.257 12.2287 325.023 12.0797 325.861 12.0797C327.125 12.0797 328.04 12.4701 328.608 13.251C329.176 14.0177 329.46 15.047 329.46 16.339V22.6854H328.012L327.863 21.4502H327.799C327.302 21.8619 326.77 22.2169 326.202 22.515C325.634 22.799 325.023 22.941 324.37 22.941ZM324.881 21.5354C325.378 21.5354 325.847 21.4218 326.287 21.1946C326.727 20.9533 327.196 20.6054 327.693 20.1511V17.2761C326.826 17.3896 326.095 17.5245 325.499 17.6807C324.917 17.8369 324.441 18.0214 324.072 18.2344C323.717 18.4474 323.454 18.6958 323.284 18.9798C323.128 19.2495 323.05 19.5477 323.05 19.8742C323.05 20.4705 323.227 20.8965 323.582 21.152C323.937 21.4076 324.37 21.5354 324.881 21.5354ZM340.41 22.941C339.728 22.941 339.089 22.8203 338.493 22.5789C337.897 22.3375 337.378 21.9897 336.938 21.5354C336.512 21.0669 336.171 20.4989 335.916 19.8316C335.675 19.1502 335.554 18.3835 335.554 17.5316C335.554 16.6655 335.689 15.8989 335.959 15.2316C336.228 14.5501 336.59 13.9751 337.045 13.5065C337.499 13.038 338.024 12.6831 338.621 12.4417C339.231 12.2004 339.87 12.0797 340.537 12.0797C341.219 12.0797 341.801 12.2004 342.284 12.4417C342.766 12.6831 343.192 12.967 343.561 13.2936L342.667 14.4436C342.369 14.1738 342.049 13.9538 341.709 13.7834C341.382 13.613 341.013 13.5278 340.601 13.5278C340.133 13.5278 339.7 13.6272 339.302 13.826C338.905 14.0106 338.564 14.2803 338.28 14.6353C337.996 14.9902 337.769 15.4161 337.598 15.9131C337.442 16.3958 337.364 16.9353 337.364 17.5316C337.364 18.1279 337.442 18.6674 337.598 19.1502C337.755 19.6329 337.968 20.0517 338.237 20.4067C338.521 20.7474 338.862 21.0172 339.26 21.2159C339.657 21.4005 340.09 21.4928 340.559 21.4928C341.041 21.4928 341.481 21.3934 341.879 21.1946C342.291 20.9817 342.66 20.7332 342.986 20.4492L343.753 21.6206C343.285 22.0323 342.766 22.3588 342.198 22.6002C341.631 22.8274 341.034 22.941 340.41 22.941ZM349.637 22.6854V7.52219H351.362V17.7872H351.426L355.834 12.3352H357.772L354.301 16.4881L358.241 22.6854H356.324L353.3 17.702L351.362 19.9594V22.6854H349.637ZM365.963 22.941C365.097 22.941 364.373 22.6854 363.79 22.1743C363.222 21.6632 362.939 20.9391 362.939 20.002C362.939 18.8662 363.443 18.0001 364.451 17.4038C365.459 16.7933 367.07 16.3674 369.285 16.126C369.285 15.7995 369.249 15.48 369.178 15.1677C369.122 14.8553 369.015 14.5785 368.859 14.3371C368.703 14.0958 368.483 13.9041 368.199 13.7621C367.929 13.6059 367.581 13.5278 367.155 13.5278C366.559 13.5278 365.998 13.6414 365.473 13.8686C364.948 14.0958 364.479 14.3513 364.067 14.6353L363.386 13.4214C363.868 13.109 364.458 12.8109 365.153 12.5269C365.849 12.2287 366.616 12.0797 367.453 12.0797C368.717 12.0797 369.633 12.4701 370.201 13.251C370.769 14.0177 371.053 15.047 371.053 16.339V22.6854H369.604L369.455 21.4502H369.391C368.894 21.8619 368.362 22.2169 367.794 22.515C367.226 22.799 366.616 22.941 365.963 22.941ZM366.474 21.5354C366.971 21.5354 367.439 21.4218 367.879 21.1946C368.319 20.9533 368.788 20.6054 369.285 20.1511V17.2761C368.419 17.3896 367.688 17.5245 367.091 17.6807C366.509 17.8369 366.034 18.0214 365.665 18.2344C365.31 18.4474 365.047 18.6958 364.877 18.9798C364.72 19.2495 364.642 19.5477 364.642 19.8742C364.642 20.4705 364.82 20.8965 365.175 21.152C365.53 21.4076 365.963 21.5354 366.474 21.5354ZM380.88 22.941C380.327 22.941 379.858 22.8558 379.475 22.6854C379.106 22.515 378.8 22.2808 378.559 21.9826C378.332 21.6845 378.168 21.3224 378.069 20.8965C377.97 20.4705 377.92 20.002 377.92 19.4909V13.7621H376.387V12.4417L378.005 12.3352L378.218 9.43889H379.688V12.3352H382.477V13.7621H379.688V19.5122C379.688 20.1511 379.801 20.648 380.028 21.003C380.27 21.3437 380.689 21.5141 381.285 21.5141C381.469 21.5141 381.668 21.4857 381.881 21.4289C382.094 21.3721 382.286 21.3082 382.456 21.2372L382.797 22.5576C382.513 22.657 382.201 22.7422 381.86 22.8132C381.533 22.8984 381.207 22.941 380.88 22.941ZM388.422 22.6854V7.52219H390.168V11.6537L390.104 13.7834C390.601 13.3149 391.119 12.9173 391.659 12.5908C392.198 12.25 392.83 12.0797 393.554 12.0797C394.648 12.0797 395.443 12.4204 395.94 13.1019C396.451 13.7834 396.706 14.7914 396.706 16.126V22.6854H394.96V16.3603C394.96 15.3807 394.804 14.6779 394.491 14.2519C394.179 13.8118 393.682 13.5917 393.001 13.5917C392.461 13.5917 391.985 13.7266 391.574 13.9964C391.162 14.2661 390.693 14.6637 390.168 15.189V22.6854H388.422ZM407.635 22.941C406.996 22.941 406.386 22.8203 405.804 22.5789C405.236 22.3375 404.732 21.9897 404.292 21.5354C403.851 21.0669 403.496 20.4989 403.227 19.8316C402.971 19.1502 402.843 18.3835 402.843 17.5316C402.843 16.6655 402.971 15.8989 403.227 15.2316C403.496 14.5501 403.851 13.9751 404.292 13.5065C404.732 13.038 405.236 12.6831 405.804 12.4417C406.386 12.2004 406.996 12.0797 407.635 12.0797C408.274 12.0797 408.877 12.2004 409.445 12.4417C410.027 12.6831 410.539 13.038 410.979 13.5065C411.419 13.9751 411.767 14.5501 412.022 15.2316C412.292 15.8989 412.427 16.6655 412.427 17.5316C412.427 18.3835 412.292 19.1502 412.022 19.8316C411.767 20.4989 411.419 21.0669 410.979 21.5354C410.539 21.9897 410.027 22.3375 409.445 22.5789C408.877 22.8203 408.274 22.941 407.635 22.941ZM407.635 21.4928C408.075 21.4928 408.48 21.4005 408.849 21.2159C409.218 21.0172 409.531 20.7474 409.786 20.4067C410.056 20.0517 410.262 19.6329 410.404 19.1502C410.546 18.6674 410.617 18.1279 410.617 17.5316C410.617 16.9353 410.546 16.3958 410.404 15.9131C410.262 15.4161 410.056 14.9902 409.786 14.6353C409.531 14.2803 409.218 14.0106 408.849 13.826C408.48 13.6272 408.075 13.5278 407.635 13.5278C407.195 13.5278 406.79 13.6272 406.421 13.826C406.052 14.0106 405.733 14.2803 405.463 14.6353C405.207 14.9902 405.009 15.4161 404.867 15.9131C404.725 16.3958 404.654 16.9353 404.654 17.5316C404.654 18.1279 404.725 18.6674 404.867 19.1502C405.009 19.6329 405.207 20.0517 405.463 20.4067C405.733 20.7474 406.052 21.0172 406.421 21.2159C406.79 21.4005 407.195 21.4928 407.635 21.4928ZM418.757 22.6854V12.3352H420.205L420.354 13.826H420.418C420.915 13.3291 421.433 12.9173 421.972 12.5908C422.526 12.25 423.165 12.0797 423.889 12.0797C424.982 12.0797 425.777 12.4204 426.274 13.1019C426.786 13.7834 427.041 14.7914 427.041 16.126V22.6854H425.295V16.3603C425.295 15.3807 425.139 14.6779 424.826 14.2519C424.514 13.8118 424.017 13.5917 423.335 13.5917C422.796 13.5917 422.32 13.7266 421.909 13.9964C421.497 14.2661 421.028 14.6637 420.503 15.189V22.6854H418.757Z" fill="white"/>
</svg>
