<svg width="466" height="454" viewBox="0 0 466 454" fill="none" xmlns="http://www.w3.org/2000/svg">
<g filter="url(#filter0_i)">
<path fill-rule="evenodd" clip-rule="evenodd" d="M466 0C466 0 353.13 48.6071 307.869 48.6071C262.608 48.6071 202.968 23.1803 85.1544 63.5865C-32.659 103.993 7.35361 214.604 18.9539 248.445C30.5542 282.286 -41.2668 370.684 85.1544 399.485C211.576 428.287 251.331 369.681 322.23 420.617C393.128 471.553 466 444.771 466 444.771V0Z" fill="url(#paint0_linear)"/>
</g>
<path fill-rule="evenodd" clip-rule="evenodd" d="M59 245.339V239C59 239 59.2635 243.072 59.7432 246.437C60.0076 247.887 60.3416 249.327 60.7434 250.756C61.3855 252.59 62.4617 255.345 63.3467 257.425C64.0288 259.028 65.2109 261.478 65.8587 262.804C87.059 299.824 154.983 326.907 235.5 326.907C330.614 326.907 408.156 289.114 411.861 241.792C411.954 242.969 412 244.151 412 245.339C412 294.305 332.978 334 235.5 334C140.076 334 62.3381 295.96 59.1047 248.421L59 248.129V245.339Z" fill="#EFEFEF"/>
<path fill-rule="evenodd" clip-rule="evenodd" d="M143.259 203.198C143.259 177.517 184.654 156.692 235.757 156.642C236.209 156.642 236.66 156.643 237.111 156.645C287.761 156.959 328.628 177.681 328.628 203.198C328.628 210.867 324.937 218.102 318.398 224.481C303.014 209.472 271.865 199.208 235.943 199.208C200.022 199.208 168.873 209.472 153.488 224.481C146.95 218.102 143.259 210.867 143.259 203.198ZM210.592 290.558C138.963 285.474 81.1532 258.787 64.116 224.038C60.7732 230.856 59 237.984 59 245.321C59 294.297 138.022 334 235.5 334C332.978 334 412 294.297 412 245.321C412 237.984 410.227 230.856 406.884 224.038C389.99 258.496 333.003 285.027 262.205 290.425C253.879 291.659 245.065 292.321 235.943 292.321C227.154 292.321 218.65 291.706 210.592 290.558Z" fill="#D9D9D9"/>
<path fill-rule="evenodd" clip-rule="evenodd" d="M412 239.5C412 288.377 332.978 328 235.5 328C138.022 328 59 288.377 59 239.5C59 190.623 138.022 151 235.5 151C332.978 151 412 190.623 412 239.5ZM328.628 239.943C328.628 265.603 287.132 286.405 235.943 286.405C184.755 286.405 143.259 265.603 143.259 239.943C143.259 214.282 184.755 193.48 235.943 193.48C287.132 193.48 328.628 214.282 328.628 239.943Z" fill="url(#paint1_radial)"/>
<path fill-rule="evenodd" clip-rule="evenodd" d="M59 245.339V239C59 239 59.2635 243.072 59.7432 246.437C60.0076 247.887 60.3416 249.327 60.7434 250.756C61.3855 252.59 62.4617 255.345 63.3467 257.425C64.0288 259.028 65.2109 261.478 65.8587 262.804C87.059 299.824 154.983 326.907 235.5 326.907C330.614 326.907 408.156 289.114 411.861 241.792C411.954 242.969 412 244.151 412 245.339C412 294.305 332.978 334 235.5 334C140.076 334 62.3381 295.96 59.1047 248.421L59 248.129V245.339Z" fill="#EFEFEF"/>
<path fill-rule="evenodd" clip-rule="evenodd" d="M143.259 203.198C143.259 177.517 184.654 156.692 235.757 156.642C236.209 156.642 236.66 156.643 237.111 156.645C287.761 156.959 328.628 177.681 328.628 203.198C328.628 210.867 324.937 218.102 318.398 224.481C303.014 209.472 271.865 199.208 235.943 199.208C200.022 199.208 168.873 209.472 153.488 224.481C146.95 218.102 143.259 210.867 143.259 203.198ZM210.592 290.558C138.963 285.474 81.1532 258.787 64.116 224.038C60.7732 230.856 59 237.984 59 245.321C59 294.297 138.022 334 235.5 334C332.978 334 412 294.297 412 245.321C412 237.984 410.227 230.856 406.884 224.038C389.99 258.496 333.003 285.027 262.205 290.425C253.879 291.659 245.065 292.321 235.943 292.321C227.154 292.321 218.65 291.706 210.592 290.558Z" fill="#D9D9D9"/>
<path fill-rule="evenodd" clip-rule="evenodd" d="M412 239.5C412 288.377 332.978 328 235.5 328C138.022 328 59 288.377 59 239.5C59 190.623 138.022 151 235.5 151C332.978 151 412 190.623 412 239.5ZM328.628 239.943C328.628 265.603 287.132 286.405 235.943 286.405C184.755 286.405 143.259 265.603 143.259 239.943C143.259 214.282 184.755 193.48 235.943 193.48C287.132 193.48 328.628 214.282 328.628 239.943Z" fill="url(#paint2_radial)"/>
<path fill-rule="evenodd" clip-rule="evenodd" d="M189 298V194H284V298H189Z" fill="url(#paint3_linear)"/>
<path fill-rule="evenodd" clip-rule="evenodd" d="M236.5 217C262.734 217 284 206.255 284 193C284 179.745 262.734 169 236.5 169C210.266 169 189 179.745 189 193C189 206.255 210.266 217 236.5 217Z" fill="url(#paint4_linear)"/>
<path fill-rule="evenodd" clip-rule="evenodd" d="M189 91.5H188.5V92V193.383V193.88L188.997 193.883L189.032 193.883C189.951 206.729 210.852 217 236.5 217C261.737 217 282.377 207.056 283.909 194.499L283.997 194.5L284.5 194.503V194V92V91.5H284H189ZM283.5 189.505V92.5H189.5V189.505C192.849 177.907 212.616 169 236.5 169C260.384 169 280.151 177.907 283.5 189.505Z" fill="url(#paint5_linear)"/>
<path fill-rule="evenodd" clip-rule="evenodd" d="M189.987 124H190.031H283.5V125H190.529L190.094 207.986C190.057 208.07 190.022 208.155 189.987 208.24V124ZM189.061 214.329L189.003 225.468L189 225.967L189.499 225.971L189.551 225.971C189.937 238.999 211.043 249.5 237.024 249.5C262.503 249.5 283.295 239.4 284.452 226.723L284.499 226.723L285.003 226.727V226.223V124.5V124H284.503H284.5V213.723V214.227L284.003 214.223V222.128C283.682 221.022 283.211 219.941 282.6 218.89C277.46 229.291 258.77 237 236.5 237C214.932 237 196.721 229.769 190.926 219.864C190.548 220.635 190.245 221.42 190.02 222.217L190.041 218.107C189.522 216.88 189.19 215.618 189.061 214.329Z" fill="url(#paint6_linear)"/>
<path fill-rule="evenodd" clip-rule="evenodd" d="M189.987 142H190.031H283.5V143H190.529L190.094 225.986C190.057 226.07 190.022 226.155 189.987 226.24V142ZM189.061 232.329L189.003 243.468L189 243.967L189.499 243.971L189.551 243.971C189.937 256.999 211.043 267.5 237.024 267.5C262.503 267.5 283.295 257.4 284.452 244.723L284.499 244.723L285.003 244.727V244.223V142.5V142H284.503H284.5V231.723V232.227L284.003 232.223V240.128C283.682 239.022 283.211 237.941 282.6 236.89C277.46 247.291 258.77 255 236.5 255C214.932 255 196.721 247.769 190.926 237.864C190.548 238.635 190.245 239.42 190.02 240.217L190.041 236.107C189.522 234.88 189.19 233.618 189.061 232.329Z" fill="url(#paint7_linear)"/>
<path fill-rule="evenodd" clip-rule="evenodd" d="M33 235.334C33 235.334 33 239.581 33 244.538C33 249.496 22.7453 255.787 22.7453 255.787L20.9213 261.643L12 265C12 265 12.7745 232.983 15.9246 232.145C19.0746 231.306 33 235.334 33 235.334Z" fill="#FECEB3"/>
<path fill-rule="evenodd" clip-rule="evenodd" d="M19.0104 224.381C19.0104 224.381 11.6765 222.25 7.61378 232.151C3.55111 242.052 7.61378 241.102 7.61378 250.778C7.61378 254.818 0.334911 261.402 0.0207609 267.387C-0.417387 275.735 6.20963 282.971 7.61378 280.976C8.39637 279.863 14.0941 286.043 15.2068 280.976C17.5221 270.432 15.3796 244.815 15.7391 239.229C16.2714 230.959 37.4535 243.018 37.9859 231.315C38.5182 219.611 19.0104 224.381 19.0104 224.381Z" fill="#FFAAAA"/>
<path fill-rule="evenodd" clip-rule="evenodd" d="M328.628 239.942C328.628 265.603 287.132 286.405 235.943 286.405C184.755 286.405 143.259 265.603 143.259 239.942C143.259 239.795 143.26 239.647 143.263 239.5H59C59 288.377 138.022 328 235.5 328C332.978 328 412 288.377 412 239.5H328.624C328.627 239.647 328.628 239.795 328.628 239.942Z" fill="url(#paint8_radial)"/>
<defs>
<filter id="filter0_i" x="3" y="0" width="463" height="452.807" filterUnits="userSpaceOnUse" color-interpolation-filters="sRGB">
<feFlood flood-opacity="0" result="BackgroundImageFix"/>
<feBlend mode="normal" in="SourceGraphic" in2="BackgroundImageFix" result="shape"/>
<feColorMatrix in="SourceAlpha" type="matrix" values="0 0 0 0 0 0 0 0 0 0 0 0 0 0 0 0 0 0 127 0" result="hardAlpha"/>
<feOffset dy="1"/>
<feGaussianBlur stdDeviation="7.5"/>
<feComposite in2="hardAlpha" operator="arithmetic" k2="-1" k3="1"/>
<feColorMatrix type="matrix" values="0 0 0 0 0 0 0 0 0 0 0 0 0 0 0 0 0 0 0.5 0"/>
<feBlend mode="normal" in2="shape" result="effect1_innerShadow"/>
</filter>
<linearGradient id="paint0_linear" x1="106.593" y1="-197.947" x2="-202.336" y2="336.504" gradientUnits="userSpaceOnUse">
<stop stop-color="#48A0AF"/>
<stop offset="1" stop-color="#3386BA"/>
</linearGradient>
<radialGradient id="paint1_radial" cx="0" cy="0" r="1" gradientUnits="userSpaceOnUse" gradientTransform="translate(241.72 210.3) rotate(90) scale(177 458.616)">
<stop stop-color="#E7E6F1"/>
<stop offset="1" stop-color="white"/>
</radialGradient>
<radialGradient id="paint2_radial" cx="0" cy="0" r="1" gradientUnits="userSpaceOnUse" gradientTransform="translate(241.72 210.3) rotate(90) scale(177 458.616)">
<stop stop-color="#E6E6E6"/>
<stop offset="1" stop-color="white"/>
</radialGradient>
<linearGradient id="paint3_linear" x1="275.843" y1="224.988" x2="201.684" y2="222.376" gradientUnits="userSpaceOnUse">
<stop stop-color="#E8E8E8"/>
<stop offset="1" stop-color="white"/>
</linearGradient>
<linearGradient id="paint4_linear" x1="211.795" y1="225.505" x2="275.988" y2="174.144" gradientUnits="userSpaceOnUse">
<stop stop-color="#FDD3C5"/>
<stop offset="1" stop-color="#FAA793"/>
</linearGradient>
<linearGradient id="paint5_linear" x1="270.369" y1="208.352" x2="270.369" y2="119.798" gradientUnits="userSpaceOnUse">
<stop stop-color="#FAA793"/>
<stop offset="1" stop-color="white" stop-opacity="0.01"/>
</linearGradient>
<linearGradient id="paint6_linear" x1="270.277" y1="160.624" x2="147.534" y2="160.624" gradientUnits="userSpaceOnUse">
<stop stop-color="#F2CFA0"/>
<stop offset="1" stop-color="white"/>
</linearGradient>
<linearGradient id="paint7_linear" x1="270.277" y1="178.624" x2="147.534" y2="178.624" gradientUnits="userSpaceOnUse">
<stop stop-color="#7476D2" stop-opacity="0.64688"/>
<stop offset="1" stop-color="white"/>
</linearGradient>
<radialGradient id="paint8_radial" cx="0" cy="0" r="1" gradientUnits="userSpaceOnUse" gradientTransform="translate(241.72 269.15) rotate(90) scale(88.5 458.616)">
<stop stop-color="#E6E6E6"/>
<stop offset="1" stop-color="white"/>
</radialGradient>
</defs>
</svg>
