<?xml version="1.0" encoding="UTF-8"?>
<svg width="456px" height="452px" viewBox="0 0 456 452" version="1.1" xmlns="http://www.w3.org/2000/svg" xmlns:xlink="http://www.w3.org/1999/xlink">
    <!-- Generator: Sketch 52.6 (67491) - http://www.bohemiancoding.com/sketch -->
    <title>MiddleCircles</title>
    <desc>Created with Sketch.</desc>
    <defs>
        <linearGradient x1="22.374299%" y1="-43.8122435%" x2="-44.3490263%" y2="74.479508%" id="linearGradient-1">
            <stop stop-color="#48A0AF" offset="0%"></stop>
            <stop stop-color="#3386BA" offset="100%"></stop>
        </linearGradient>
        <radialGradient cx="51.7620397%" cy="33.5028249%" fx="51.7620397%" fy="33.5028249%" r="100%" gradientTransform="translate(0.517620,0.335028),scale(0.501416,1.000000),rotate(90.000000),translate(-0.517620,-0.335028)" id="radialGradient-2">
            <stop stop-color="#E6E6E6" offset="0%"></stop>
            <stop stop-color="#FFFFFF" offset="100%"></stop>
        </radialGradient>
        <linearGradient x1="91.4136842%" y1="29.7961538%" x2="13.3515789%" y2="27.2846154%" id="linearGradient-3">
            <stop stop-color="#E8E8E8" offset="0%"></stop>
            <stop stop-color="#FFFFFF" offset="100%"></stop>
        </linearGradient>
        <linearGradient x1="23.9947368%" y1="117.71875%" x2="91.5663158%" y2="10.7166667%" id="linearGradient-4">
            <stop stop-color="#FDD3C5" offset="0%"></stop>
            <stop stop-color="#FAA793" offset="100%"></stop>
        </linearGradient>
        <linearGradient x1="84.660896%" y1="29.1824701%" x2="-43.1924002%" y2="29.1824701%" id="linearGradient-5">
            <stop stop-color="#F2CFA0" offset="0%"></stop>
            <stop stop-color="#FFFFFF" offset="100%"></stop>
        </linearGradient>
        <linearGradient x1="84.660896%" y1="29.1824701%" x2="-43.1924002%" y2="29.1824701%" id="linearGradient-6">
            <stop stop-color="#7476D2" stop-opacity="0.64688" offset="0%"></stop>
            <stop stop-color="#FFFFFF" offset="100%"></stop>
        </linearGradient>
    </defs>
    <g id="Page-1" stroke="none" stroke-width="1" fill="none" fill-rule="evenodd">
        <g id="a" transform="translate(-84.000000, -50.000000)">
            <g id="MiddleCircles" transform="translate(84.000000, 50.000000)">
                <path d="M456,0 C456,0 400.758997,45.6071 323.07678,52 C245.394562,58.3929 176.891657,22.7059474 75.1544,63.5865 C-8,97 -8,166 8.9539,248.445 C18.6758894,295.721993 -31.3476116,366.5 75.1544,399.485 C198.959035,437.828838 241.331,369.681 312.23,420.617 C383.128347,471.552531 456,444.771 456,444.771 L456,0 Z" id="Path" fill="url(#linearGradient-1)"></path>
                <path d="M49,245.339 L49,239 C49,239 49.2635,243.072 49.7432,246.437 C50.0076,247.887 50.3416,249.327 50.7434,250.756 C51.3855,252.59 52.4617,255.345 53.3467,257.425 C54.0288,259.028 55.2109,261.478 55.8587,262.804 C77.059,299.824 144.983,326.907 225.5,326.907 C320.614,326.907 398.156,289.114 401.861,241.792 C401.954,242.969 402,244.151 402,245.339 C402,294.305 322.978,334 225.5,334 C130.076,334 52.3381,295.96 49.1047,248.421 L49,248.129 L49,245.339 Z" id="Path" fill="#EFEFEF"></path>
                <path d="M126,203.556 C126,177.875 170.215646,157.05 224.800792,157 C225.283591,157 225.765322,157.001 226.247053,157.003 C280.348332,157.317 324,178.039 324,203.556 C324,211.225 320.057496,218.46 313.07293,224.839 C296.640668,209.83 263.369183,199.566 224.999466,199.566 C186.630817,199.566 153.359332,209.83 136.926002,224.839 C129.942504,218.46 126,211.225 126,203.556 Z" id="Path" fill="#D9D9D9"></path>
                <path d="M200.592,290.558 C128.963,285.474 71.1532,258.787 54.116,224.038 C50.7732,230.856 49,237.984 49,245.321 C49,294.297 128.022,334 225.5,334 C322.978,334 402,294.297 402,245.321 C402,237.984 400.227,230.856 396.884,224.038 C379.99,258.496 323.003,285.027 252.205,290.425 C243.879,291.659 235.065,292.321 225.943,292.321 C217.154,292.321 208.65,291.706 200.592,290.558 Z" id="Path" fill="#D9D9D9"></path>
                <path d="M401,239.5 C401,288.377 321.978,328 224.5,328 C127.022,328 48,288.377 48,239.5 C48,190.623 127.022,151 224.5,151 C321.978,151 401,190.623 401,239.5 Z M317.628,239.943 C317.628,265.603 276.132,286.405 224.943,286.405 C173.755,286.405 132.259,265.603 132.259,239.943 C132.259,214.282 173.755,193.48 224.943,193.48 C276.132,193.48 317.628,214.282 317.628,239.943 Z" id="Shape" fill="url(#radialGradient-2)"></path>
                <path d="M179,280.3 L179,194 L274,194 L274,279.4 C260.666667,284.133333 244.833333,286.5 226.5,286.5 C208.166667,286.5 192.333333,284.433333 179,280.3 Z" id="Path" fill="url(#linearGradient-3)"></path>
                <path d="M226.5,217 C252.734,217 274,206.255 274,193 C274,179.745 252.734,169 226.5,169 C200.266,169 179,179.745 179,193 C179,206.255 200.266,217 226.5,217 Z" id="Path" fill="url(#linearGradient-4)" transform="translate(226.500000, 193.000000) scale(-1, -1) translate(-226.500000, -193.000000) "></path>
                <path d="M179.060365,214.329 L179,225.468 L179,225.967 L179,225.971 C179.381979,238.999 200.813393,249.5 226.523766,249.5 C251.737368,249.5 272.858052,239.4 274.003,226.723 L274.003,226.223 L274,213.723 C273.333333,215.574333 272.541677,217.296667 271.62503,218.89 C266.53857,229.291 248.043252,237 226.005224,237 C204.661883,237 186.640575,229.769 180.905938,219.864 C180.531876,220.635 180.232032,221.42 180.009375,222.217 L180.030157,218.107 C179.516563,216.88 179.188021,215.618 179.060365,214.329 Z" id="Path" fill="url(#linearGradient-5)"></path>
                <path d="M179.002969,233 L179.002969,244.468 L179,244.967 C179.381979,257.999 200.813393,268.5 226.523766,268.5 C251.737368,268.5 272.858052,258.4 274.003,245.723 L274.003,245.727 L274.003,245.223 L274,233 C273.333333,234.666667 272.541677,236.296667 271.62503,237.89 C266.53857,248.291 248.043252,256 226.005224,256 C204.661883,256 186.640575,248.769 180.905938,238.864 C180.030157,237.5 179.130625,234.289 179.002969,233 Z" id="Path" fill="url(#linearGradient-6)"></path>
            </g>
        </g>
    </g>
</svg>